<svg width="182" height="284" viewBox="0 0 182 284" fill="none" xmlns="http://www.w3.org/2000/svg">
<path d="M165.177 0.5H16.8231C7.83659 0.5 0.5 7.9059 0.5 16.9065V267.094C0.5 276.094 7.83659 283.5 16.8231 283.5H165.177C174.163 283.5 181.5 276.094 181.5 267.094V16.9065C181.5 7.9059 174.163 0.5 165.177 0.5Z" stroke="black" stroke-opacity="0.3"/>
<path fill-rule="evenodd" clip-rule="evenodd" d="M157.593 258.178C156.236 258.882 154.784 259.304 153.239 259.539H24.4072V24.4609H157.593V258.178Z" fill="#008AB0"/>
<path fill-rule="evenodd" clip-rule="evenodd" d="M24.4072 76.9663C57.5048 88.556 128.007 93.1544 157.593 87.0076V225.521C118.597 217.685 58.7219 213.462 24.4072 212.805V76.9663Z" fill="#009DC9"/>
<path fill-rule="evenodd" clip-rule="evenodd" d="M24.4072 109.718C65.2291 120.651 115.273 122.011 157.593 110.046V225.474C118.597 217.45 58.7687 214.635 24.4072 214.353V109.718Z" fill="#00B3E5"/>
<path fill-rule="evenodd" clip-rule="evenodd" d="M24.4072 149.695C65.2291 158.563 115.273 159.643 157.593 149.977V243.304C118.597 236.829 58.7687 234.577 24.4072 234.342V149.695Z" fill="#009DC9"/>
<path fill-rule="evenodd" clip-rule="evenodd" d="M157.593 211.726C118.457 202.06 60.5945 195.444 24.4072 194.459V259.539H157.593V211.726Z" fill="#008AB0"/>
<path fill-rule="evenodd" clip-rule="evenodd" d="M16.8231 1H165.177C173.884 1 181 8.13211 181 16.9065V267.094C181 275.821 173.884 283 165.177 283H16.8231C8.11573 283 1 275.821 1 267.094V16.9065C1 8.13211 8.11573 1 16.8231 1ZM24.407 24.4609H157.593V259.539H24.407V24.4609Z" fill="white"/>
<path d="M31.4292 22.0679C31.8974 22.3495 32.3655 22.7248 32.7868 23.1002C33.9572 24.1325 34.8467 25.3525 35.4552 26.7132C36.017 28.0739 36.2979 29.5285 36.2979 31.1708C36.2979 32.25 36.1575 33.2822 35.8766 34.2676C35.5957 35.2999 35.1744 36.2852 34.6126 37.1767C34.0508 38.1152 33.3018 38.9598 32.4123 39.7105C31.5697 40.4143 30.5866 41.0243 29.4631 41.5874C28.3395 42.1035 27.0755 42.5258 25.7179 42.7604C24.4071 43.042 23.0027 43.1827 21.4578 43.1827C19.3512 43.1827 17.2914 42.9481 15.1848 42.4789C14.1549 42.2443 13.1249 41.9628 12.1887 41.6343C11.2056 41.2589 10.3161 40.8366 9.52027 40.4143L7.64771 39.3351L8.53717 37.3644L11.1119 31.7338H10.082L10.2693 29.2L11.6269 12.5428L11.8142 10.3844H13.9676H32.1783H34.519V12.7305V19.7218V22.0679H32.1783H31.4292ZM29.6971 26.5724C28.3395 25.3525 26.0456 24.7894 22.7686 24.7894H21.3642H18.8831L19.0235 22.2556L19.2576 19.5341L19.398 17.3757H21.5515H29.8376V15.0766H16.121L15.138 27.0416H20.5684C21.4578 27.0416 22.2069 27.0886 22.9091 27.2293C23.7049 27.3232 24.3603 27.5578 24.9221 27.8393C26.3265 28.637 27.0287 29.81 27.0287 31.3584C27.0287 32.1561 26.8415 32.8599 26.4201 33.5168C26.0456 34.1268 25.5307 34.596 24.8753 34.9714C24.3135 35.2999 23.7049 35.5345 23.0495 35.6752C22.4409 35.816 21.7855 35.8629 21.0833 35.8629C20.4279 35.8629 19.7257 35.816 18.9767 35.7222C18.2277 35.6283 17.5255 35.4876 16.7764 35.2999C16.1679 35.1122 15.5593 34.8776 14.9039 34.643L13.7335 37.2237H13.7803C14.4826 37.5052 15.2784 37.6929 16.1679 37.8806C17.9468 38.3029 19.6789 38.4906 21.4578 38.4906C22.7218 38.4906 23.8454 38.3967 24.8753 38.1621C25.8584 37.9744 26.701 37.7398 27.45 37.3644C28.1991 36.9891 28.8545 36.5668 29.4162 36.1445C29.9312 35.6752 30.3057 35.206 30.6334 34.6899C30.9611 34.1737 31.242 33.6107 31.3824 33.0476C31.5697 32.4376 31.6165 31.8277 31.6165 31.1708C31.6165 30.1854 31.4761 29.2939 31.1484 28.5431C30.8207 27.7924 30.3525 27.1355 29.6971 26.5724Z" fill="white"/>
<path d="M22.7685 22.4433C26.6073 22.4433 29.4629 23.241 31.2419 24.8363C33.0676 26.4316 33.9571 28.5431 33.9571 31.1707C33.9571 32.9068 33.5357 34.5022 32.6463 35.9568C31.71 37.4113 30.3524 38.5844 28.4798 39.4759C26.5605 40.3674 24.2666 40.8366 21.4577 40.8366C19.5383 40.8366 17.619 40.602 15.6996 40.1797C13.7802 39.7574 12.0949 39.1474 10.6437 38.3498L13.7802 31.5461C14.9506 32.1561 16.1209 32.6722 17.3849 33.0007C18.6489 33.3761 19.9129 33.5168 21.0832 33.5168C22.1599 33.5168 23.0494 33.3291 23.7048 32.9538C24.3602 32.5784 24.6879 32.0622 24.6879 31.3584C24.6879 30.7015 24.407 30.2323 23.7984 29.9038C23.1898 29.5754 22.1131 29.3877 20.5683 29.3877H12.6099L13.9675 12.7305H32.1781V19.7218H21.5514L21.3641 22.4433H22.7685Z" fill="#525252"/>
<path d="M159.325 253.111C159.84 253.439 160.308 253.768 160.729 254.143C161.9 255.175 162.789 256.395 163.398 257.756C163.96 259.117 164.24 260.618 164.24 262.214C164.24 263.293 164.1 264.325 163.819 265.357C163.538 266.343 163.117 267.328 162.555 268.22C161.947 269.158 161.244 270.003 160.355 270.753C159.512 271.457 158.529 272.114 157.406 272.63C156.282 273.193 155.018 273.569 153.66 273.85C152.35 274.085 150.898 274.226 149.4 274.226C147.294 274.226 145.187 273.991 143.127 273.522C142.051 273.334 141.068 273.006 140.131 272.677C139.148 272.302 138.259 271.926 137.416 271.457L135.543 270.378L136.433 268.454L139.055 262.824H137.978L138.212 260.29L139.569 243.586L139.757 241.427H141.91H160.121H162.462V243.773V250.765V253.111H160.121H159.325ZM157.64 257.662C156.282 256.442 153.988 255.832 150.711 255.832H149.307H146.779L146.966 253.298L147.153 250.624L147.341 248.419H149.494H157.78V246.119H144.064L143.081 258.131H148.464C149.354 258.131 150.149 258.178 150.805 258.272C151.601 258.366 152.303 258.601 152.865 258.882C154.269 259.68 154.971 260.853 154.971 262.401C154.971 263.199 154.784 263.903 154.363 264.56C153.988 265.17 153.473 265.686 152.771 266.061C152.256 266.343 151.647 266.577 150.992 266.718C150.384 266.859 149.728 266.906 149.026 266.906C148.371 266.906 147.621 266.859 146.872 266.765C146.17 266.671 145.421 266.53 144.719 266.343C144.11 266.155 143.455 265.967 142.846 265.686L141.676 268.267H141.723C142.425 268.548 143.221 268.783 144.11 268.97C145.843 269.346 147.621 269.533 149.4 269.533C150.664 269.533 151.788 269.44 152.771 269.252C153.754 269.064 154.644 268.783 155.393 268.407C156.142 268.079 156.797 267.657 157.312 267.187C157.827 266.765 158.248 266.296 158.576 265.78C158.904 265.217 159.138 264.654 159.325 264.09C159.465 263.48 159.559 262.871 159.559 262.214C159.559 261.228 159.419 260.384 159.091 259.586C158.763 258.882 158.295 258.225 157.64 257.662Z" fill="white"/>
<path d="M150.711 253.486C154.55 253.486 157.359 254.284 159.185 255.879C161.01 257.521 161.9 259.633 161.9 262.214C161.9 263.95 161.478 265.545 160.542 267C159.653 268.454 158.248 269.627 156.376 270.519C154.503 271.41 152.163 271.88 149.4 271.88C147.434 271.88 145.515 271.692 143.596 271.27C141.676 270.847 139.991 270.237 138.586 269.393L141.723 262.589C142.847 263.246 144.064 263.715 145.328 264.091C146.592 264.419 147.809 264.56 149.026 264.56C150.103 264.56 150.945 264.372 151.648 263.997C152.303 263.621 152.631 263.105 152.631 262.401C152.631 261.791 152.35 261.275 151.741 260.947C151.133 260.618 150.056 260.478 148.464 260.478H140.553L141.91 243.773H160.121V250.765H149.494L149.307 253.486H150.711Z" fill="#525252"/>
<path fill-rule="evenodd" clip-rule="evenodd" d="M128.943 191.221C137.744 198.588 145.14 200.23 146.732 197.884C148.23 195.632 144.11 195.069 140.88 191.268C137.135 186.904 138.586 186.857 141.863 184.652C145.14 182.494 149.681 182.024 149.12 179.678C148.136 175.596 135.263 180.617 129.832 183.62C126.508 185.497 126.04 189.673 128.943 191.221Z" fill="#5CC9C9"/>
<path fill-rule="evenodd" clip-rule="evenodd" d="M107.689 200.465C107.408 200.183 126.93 208.629 128.1 200.887C128.662 196.805 123.746 194.505 118.784 194.224C113.915 193.895 105.067 194.318 105.348 198.118C105.395 198.869 108.859 200.746 107.689 200.465Z" fill="#5CC9C9"/>
<path fill-rule="evenodd" clip-rule="evenodd" d="M90.1806 202.388C105.816 217.779 98.2794 208.488 97.624 201.872C97.1559 196.617 89.4784 201.122 90.1806 202.388Z" fill="#5CC9C9"/>
<path fill-rule="evenodd" clip-rule="evenodd" d="M116.537 172.593C120.001 173.719 129.785 174.188 125.619 181.367C121.406 188.593 91.2573 174.845 85.6396 172.921C88.5889 148.71 100.058 167.385 116.537 172.593Z" fill="#5CC9C9"/>
<path fill-rule="evenodd" clip-rule="evenodd" d="M80.1625 177.379C73.7022 184.746 69.2549 181.461 75.4811 192.91C84.1417 208.864 103.944 204.734 116.631 196.007C122.061 192.253 124.917 192.582 129.411 191.456C131.096 190.986 133.343 185.778 130.675 183.291C119.205 182.681 95.3303 159.924 80.1625 177.379Z" fill="#96EBEB"/>
<path fill-rule="evenodd" clip-rule="evenodd" d="M96.7345 170.904C95.8451 176.816 90.5551 198.588 96.5473 198.635C99.5434 198.635 103.944 181.133 104.038 172.546C101.603 171.748 99.1689 171.185 96.7345 170.904Z" fill="#3D8282"/>
<path fill-rule="evenodd" clip-rule="evenodd" d="M108.485 174.235C106.659 179.303 102.118 199.245 107.081 197.555C109.234 196.805 114.243 184.23 114.477 176.957C112.511 176.018 110.498 175.08 108.485 174.235Z" fill="#3D8282"/>
<path fill-rule="evenodd" clip-rule="evenodd" d="M116.771 178.036C116.349 180.476 115.835 184.887 116.069 188.546C116.303 192.253 117.988 194.505 119.673 191.127C120.656 189.25 122.716 184.793 123.559 181.227C121.405 180.335 119.158 179.209 116.771 178.036Z" fill="#3D8282"/>
<path d="M78.7114 188.312C80.5988 188.312 82.1288 186.904 82.1288 185.168C82.1288 183.432 80.5988 182.024 78.7114 182.024C76.824 182.024 75.2939 183.432 75.2939 185.168C75.2939 186.904 76.824 188.312 78.7114 188.312Z" fill="white"/>
<path fill-rule="evenodd" clip-rule="evenodd" d="M85.4525 173.578C85.4993 176.112 83.0182 189.203 86.8569 187.233C89.4317 185.919 93.4577 176.3 94.1599 170.81C91.2107 170.81 88.355 171.42 85.6866 172.875C85.4993 173.203 85.4525 173.485 85.4525 173.578Z" fill="#3D8282"/>
<path d="M79.1794 185.309C80.0068 185.309 80.6775 184.7 80.6775 183.948C80.6775 183.197 80.0068 182.587 79.1794 182.587C78.3521 182.587 77.6814 183.197 77.6814 183.948C77.6814 184.7 78.3521 185.309 79.1794 185.309Z" fill="#4D4D4D"/>
<path fill-rule="evenodd" clip-rule="evenodd" d="M87.1376 189.109C102.118 180.757 108.063 180.523 100.807 191.221C99.0752 193.802 95.7045 195.162 93.083 195.069C89.4783 194.881 88.9165 191.268 87.1376 189.109Z" fill="#5CC9C9"/>
<path fill-rule="evenodd" clip-rule="evenodd" d="M88.6829 230.494C96.8285 237.298 103.663 238.8 105.161 236.594C106.519 234.53 102.727 234.014 99.731 230.494C96.2667 226.506 97.6243 226.412 100.62 224.395C103.663 222.377 107.877 221.955 107.362 219.796C106.425 215.996 94.5346 220.641 89.5255 223.456C86.4358 225.192 86.0145 229.04 88.6829 230.494Z" fill="#2CB8B8"/>
<path fill-rule="evenodd" clip-rule="evenodd" d="M69.0208 238.987C68.74 238.753 86.857 246.589 87.8869 239.41C88.4487 235.656 83.8609 233.544 79.2731 233.216C74.779 232.934 66.5865 233.357 66.8674 236.829C66.9142 237.58 70.0976 239.316 69.0208 238.987Z" fill="#2CB8B8"/>
<path fill-rule="evenodd" clip-rule="evenodd" d="M52.8231 240.817C67.2887 255.035 60.3134 246.448 59.7048 240.348C59.2835 235.468 52.1677 239.597 52.8231 240.817Z" fill="#2CB8B8"/>
<path fill-rule="evenodd" clip-rule="evenodd" d="M77.1666 213.227C80.4435 214.26 89.4786 214.729 85.5931 221.345C81.7075 228.055 53.8063 215.339 48.61 213.509C51.372 191.127 61.952 208.394 77.1666 213.227Z" fill="#2CB8B8"/>
<path fill-rule="evenodd" clip-rule="evenodd" d="M43.5539 217.638C37.6085 224.489 33.4889 221.439 39.2002 231.996C47.2522 246.776 65.5565 242.976 77.3068 234.905C82.3159 231.433 84.9375 231.714 89.1039 230.682C90.6956 230.26 92.7554 225.427 90.2743 223.128C79.6943 222.565 57.5981 201.497 43.5539 217.638Z" fill="#72DBDB"/>
<path fill-rule="evenodd" clip-rule="evenodd" d="M58.9089 211.679C58.0662 217.169 53.1507 237.298 58.7216 237.298C61.4836 237.298 65.5565 221.157 65.6501 213.227C63.403 212.477 61.1091 211.913 58.9089 211.679Z" fill="#3D8282"/>
<path fill-rule="evenodd" clip-rule="evenodd" d="M69.7231 214.729C68.0846 219.421 63.8713 237.908 68.4591 236.313C70.4253 235.609 75.0599 224.019 75.294 217.263C73.515 216.418 71.6425 215.526 69.7231 214.729Z" fill="#3D8282"/>
<path fill-rule="evenodd" clip-rule="evenodd" d="M77.4003 218.295C77.0258 220.5 76.5576 224.582 76.7449 228.008C76.979 231.433 78.5238 233.497 80.1155 230.401C81.005 228.618 82.9244 224.489 83.6734 221.251C81.7072 220.406 79.6006 219.374 77.4003 218.295Z" fill="#3D8282"/>
<path d="M42.1963 227.773C43.9544 227.773 45.3797 226.471 45.3797 224.864C45.3797 223.257 43.9544 221.955 42.1963 221.955C40.4382 221.955 39.0129 223.257 39.0129 224.864C39.0129 226.471 40.4382 227.773 42.1963 227.773Z" fill="white"/>
<path fill-rule="evenodd" clip-rule="evenodd" d="M48.4227 214.166C48.4695 216.465 46.2224 228.618 49.7335 226.788C52.1678 225.568 55.8661 216.699 56.4747 211.585C53.7595 211.585 51.1379 212.148 48.6568 213.509C48.5163 213.837 48.4227 214.072 48.4227 214.166Z" fill="#3D8282"/>
<path d="M42.6177 225.005C43.3675 225.005 43.9753 224.437 43.9753 223.738C43.9753 223.038 43.3675 222.471 42.6177 222.471C41.868 222.471 41.2601 223.038 41.2601 223.738C41.2601 224.437 41.868 225.005 42.6177 225.005Z" fill="#4D4D4D"/>
<path fill-rule="evenodd" clip-rule="evenodd" d="M50.0144 228.524C63.8714 220.782 69.3486 220.547 62.6542 230.495C61.0625 232.841 57.926 234.108 55.4916 234.014C52.1679 233.873 51.6529 230.541 50.0144 228.524Z" fill="#2CB8B8"/>
<path fill-rule="evenodd" clip-rule="evenodd" d="M75.4343 143.267C84.2353 150.634 91.6319 152.276 93.2236 149.883C94.7217 147.631 90.602 147.067 87.3718 143.314C83.6267 138.95 85.078 138.856 88.3549 136.698C91.6319 134.539 96.1729 134.023 95.6111 131.724C94.628 127.642 81.7542 132.662 76.3237 135.665C72.9999 137.542 72.5318 141.718 75.4343 143.267Z" fill="#B3F5B5"/>
<path fill-rule="evenodd" clip-rule="evenodd" d="M54.1809 152.464C53.9 152.229 73.4682 160.675 74.5918 152.933C75.1535 148.851 70.2381 146.551 65.2758 146.27C60.4071 145.941 51.5593 146.364 51.8401 150.164C51.887 150.915 55.3512 152.792 54.1809 152.464Z" fill="#B3F5B5"/>
<path fill-rule="evenodd" clip-rule="evenodd" d="M36.6722 154.434C52.3081 169.825 44.771 160.534 44.1624 153.918C43.6475 148.663 35.97 153.121 36.6722 154.434Z" fill="#B3F5B5"/>
<path fill-rule="evenodd" clip-rule="evenodd" d="M63.0285 124.639C66.4927 125.765 76.2769 126.234 72.1104 133.413C67.8972 140.639 37.7489 126.891 32.1312 124.967C35.0805 100.756 46.55 119.384 63.0285 124.639Z" fill="#B3F5B5"/>
<path fill-rule="evenodd" clip-rule="evenodd" d="M26.654 129.378C20.1937 136.792 15.7463 133.46 21.9726 144.909C30.6332 160.91 50.4355 156.78 63.1221 148.053C68.5526 144.299 71.4082 144.628 75.9024 143.455C77.5877 143.032 79.8347 137.824 77.1663 135.337C65.6969 134.727 41.8217 111.923 26.654 129.378Z" fill="#96E399"/>
<path fill-rule="evenodd" clip-rule="evenodd" d="M43.2262 122.95C42.3368 128.862 37.0468 150.634 43.039 150.634C46.0351 150.68 50.4824 133.179 50.5292 124.592C48.0949 123.794 45.6606 123.231 43.2262 122.95Z" fill="#81916A"/>
<path fill-rule="evenodd" clip-rule="evenodd" d="M54.9765 126.234C53.1507 131.349 48.6098 151.29 53.5721 149.554C55.7255 148.851 60.7346 136.276 60.9687 129.003C59.0025 128.064 56.9895 127.126 54.9765 126.234Z" fill="#81916A"/>
<path fill-rule="evenodd" clip-rule="evenodd" d="M63.2625 130.082C62.8412 132.522 62.3262 136.932 62.5603 140.592C62.7944 144.299 64.4797 146.551 66.165 143.173C67.1481 141.296 69.2079 136.792 70.0505 133.272C67.8971 132.381 65.65 131.255 63.2625 130.082Z" fill="#81916A"/>
<path d="M25.2027 140.358C27.0901 140.358 28.6201 138.95 28.6201 137.214C28.6201 135.478 27.0901 134.07 25.2027 134.07C23.3153 134.07 21.7853 135.478 21.7853 137.214C21.7853 138.95 23.3153 140.358 25.2027 140.358Z" fill="white"/>
<path fill-rule="evenodd" clip-rule="evenodd" d="M31.9441 125.624C31.9909 128.111 29.5098 141.249 33.3485 139.278C35.9701 137.965 39.9493 128.346 40.6515 122.809C37.7022 122.856 34.8466 123.466 32.1782 124.92C32.0377 125.249 31.9441 125.53 31.9441 125.624Z" fill="#81916A"/>
<path d="M25.6709 137.355C26.4983 137.355 27.169 136.745 27.169 135.994C27.169 135.242 26.4983 134.633 25.6709 134.633C24.8436 134.633 24.1729 135.242 24.1729 135.994C24.1729 136.745 24.8436 137.355 25.6709 137.355Z" fill="#4D4D4D"/>
<path fill-rule="evenodd" clip-rule="evenodd" d="M33.6294 141.155C48.6099 132.803 54.5553 132.522 47.3459 143.267C45.6138 145.848 42.1964 147.208 39.5748 147.067C35.9701 146.927 35.4083 143.314 33.6294 141.155Z" fill="#B3F5B5"/>
<path fill-rule="evenodd" clip-rule="evenodd" d="M148.839 110.187C157.686 117.554 165.036 119.196 166.628 116.85C168.126 114.598 164.006 114.035 160.776 110.234C157.078 105.87 158.529 105.823 161.759 103.618C165.036 101.46 169.577 100.99 169.015 98.6443C168.032 94.5621 155.158 99.5828 149.728 102.586C146.404 104.463 145.983 108.639 148.839 110.187Z" fill="#5CC9C9"/>
<path fill-rule="evenodd" clip-rule="evenodd" d="M127.585 119.431C127.304 119.149 146.872 127.595 147.996 119.853C148.558 115.771 143.642 113.472 138.68 113.19C133.811 112.862 124.963 113.284 125.244 117.085C125.338 117.835 128.755 119.712 127.585 119.431Z" fill="#5CC9C9"/>
<path fill-rule="evenodd" clip-rule="evenodd" d="M110.077 121.354C125.759 136.745 118.175 127.454 117.567 120.838C117.052 115.583 109.421 120.088 110.077 121.354Z" fill="#5CC9C9"/>
<path fill-rule="evenodd" clip-rule="evenodd" d="M136.433 91.5591C139.897 92.6852 149.681 93.1544 145.515 100.333C141.302 107.559 111.153 93.8113 105.536 91.8875C108.485 67.6759 119.954 86.3508 136.433 91.5591Z" fill="#5CC9C9"/>
<path fill-rule="evenodd" clip-rule="evenodd" d="M100.058 96.3451C93.6448 103.712 89.1506 100.427 95.3769 111.876C104.038 127.83 123.84 123.701 136.526 114.973C141.957 111.219 144.813 111.548 149.307 110.422C150.992 109.952 153.239 104.744 150.571 102.257C139.101 101.647 115.226 78.8902 100.058 96.3451Z" fill="#96EBEB"/>
<path fill-rule="evenodd" clip-rule="evenodd" d="M116.677 89.87C115.741 95.7821 110.451 117.554 116.443 117.601C119.439 117.601 123.887 100.099 123.934 91.5122C121.499 90.7146 119.065 90.1515 116.677 89.87Z" fill="#3D8282"/>
<path fill-rule="evenodd" clip-rule="evenodd" d="M128.381 93.2013C126.555 98.2689 122.014 118.211 127.023 116.521C129.13 115.771 134.139 103.196 134.373 95.9228C132.454 94.9844 130.394 94.0459 128.381 93.2013Z" fill="#3D8282"/>
<path fill-rule="evenodd" clip-rule="evenodd" d="M136.667 97.0021C136.246 99.442 135.731 103.853 135.965 107.513C136.199 111.219 137.884 113.472 139.569 110.093C140.552 108.216 142.612 103.759 143.455 100.193C141.348 99.3012 139.054 98.1751 136.667 97.0021Z" fill="#3D8282"/>
<path d="M98.6072 107.278C100.495 107.278 102.025 105.87 102.025 104.134C102.025 102.398 100.495 100.99 98.6072 100.99C96.7199 100.99 95.1898 102.398 95.1898 104.134C95.1898 105.87 96.7199 107.278 98.6072 107.278Z" fill="white"/>
<path fill-rule="evenodd" clip-rule="evenodd" d="M105.348 92.5444C105.395 95.0782 102.914 108.169 106.753 106.199C109.374 104.885 113.4 95.2659 114.056 89.7761C111.107 89.7761 108.251 90.386 105.582 91.8406C105.442 92.1691 105.348 92.4506 105.348 92.5444Z" fill="#3D8282"/>
<path d="M99.0752 104.275C99.9025 104.275 100.573 103.666 100.573 102.914C100.573 102.163 99.9025 101.553 99.0752 101.553C98.2478 101.553 97.5771 102.163 97.5771 102.914C97.5771 103.666 98.2478 104.275 99.0752 104.275Z" fill="#4D4D4D"/>
<path fill-rule="evenodd" clip-rule="evenodd" d="M107.034 108.076C122.061 99.7235 127.959 99.4889 120.75 110.187C119.018 112.768 115.601 114.128 112.979 114.035C109.374 113.847 108.859 110.234 107.034 108.076Z" fill="#5CC9C9"/>
<path fill-rule="evenodd" clip-rule="evenodd" d="M89.5254 64.2975C97.671 71.1012 104.506 72.6027 105.957 70.3974C107.362 68.3328 103.57 67.8167 100.527 64.2975C97.1093 60.2623 98.4669 60.2154 101.463 58.1977C104.506 56.1801 108.719 55.7109 108.157 53.5525C107.268 49.7987 95.3771 54.444 90.368 57.2593C87.2783 58.9954 86.857 62.843 89.5254 64.2975Z" fill="#30ABAB" stroke="#2CB8B8" stroke-width="0.288"/>
<path fill-rule="evenodd" clip-rule="evenodd" d="M69.8633 72.7903C69.5824 72.5557 87.6994 80.3917 88.7293 73.2126C89.2911 69.4589 84.7033 67.3005 80.1156 67.019C75.5746 66.7374 67.429 67.1128 67.7098 70.6319C67.7567 71.3358 70.94 73.0719 69.8633 72.7903Z" fill="#2CB8B8"/>
<path fill-rule="evenodd" clip-rule="evenodd" d="M53.6658 74.5734C68.1313 88.8376 61.156 80.2509 60.5474 74.1042C60.1261 69.2243 53.0104 73.4004 53.6658 74.5734Z" fill="#2CB8B8"/>
<path fill-rule="evenodd" clip-rule="evenodd" d="M78.009 47.0303C81.2391 48.0626 90.3211 48.4848 86.4355 55.1477C82.5499 61.8106 54.6488 49.0948 49.4524 47.3118C52.2144 24.9301 62.7944 42.1973 78.009 47.0303Z" fill="#2CB8B8"/>
<path fill-rule="evenodd" clip-rule="evenodd" d="M44.3966 51.4409C38.4512 58.2915 34.2847 55.1947 40.0429 65.799C48.0949 80.5794 66.3992 76.7787 78.1027 68.7082C83.1586 65.2359 85.7802 65.5175 89.9466 64.4383C91.4915 64.0629 93.5981 59.23 91.117 56.9308C80.537 56.3677 58.4408 35.2998 44.3966 51.4409Z" fill="#72DBDB" stroke="#30ABAB" stroke-width="0.288"/>
<path fill-rule="evenodd" clip-rule="evenodd" d="M59.7516 45.4819C58.909 50.9249 53.9935 71.1012 59.5644 71.1012C62.3264 71.1012 66.3992 54.9132 66.4929 46.9834C64.2458 46.2796 61.9519 45.7165 59.7516 45.4819Z" fill="#3D8282"/>
<path fill-rule="evenodd" clip-rule="evenodd" d="M70.5655 48.5318C68.927 53.224 64.7138 71.7112 69.3015 70.1158C71.2677 69.412 75.9023 57.7754 76.1364 51.0656C74.3106 50.1741 72.4849 49.3295 70.5655 48.5318Z" fill="#3D8282"/>
<path fill-rule="evenodd" clip-rule="evenodd" d="M78.2432 52.0978C77.8687 54.3032 77.4005 58.3854 77.5878 61.8107C77.8219 65.2359 79.3667 67.3005 80.9584 64.2037C81.8479 62.4206 83.7673 58.2915 84.5163 55.007C82.5501 54.2093 80.4435 53.177 78.2432 52.0978Z" fill="#3D8282"/>
<path d="M43.0391 61.5761C44.7972 61.5761 46.2224 60.2736 46.2224 58.6669C46.2224 57.0602 44.7972 55.7578 43.0391 55.7578C41.2809 55.7578 39.8557 57.0602 39.8557 58.6669C39.8557 60.2736 41.2809 61.5761 43.0391 61.5761Z" fill="white"/>
<path fill-rule="evenodd" clip-rule="evenodd" d="M49.2653 47.9218C49.3121 50.2679 47.0183 62.3737 50.5761 60.5907C52.9636 59.3238 56.7088 50.4556 57.3174 45.3411C54.6021 45.388 51.9805 45.9511 49.4994 47.2649C49.359 47.5934 49.2653 47.8749 49.2653 47.9218Z" fill="#3D8282"/>
<path d="M43.4603 58.8076C44.2101 58.8076 44.8179 58.2404 44.8179 57.5408C44.8179 56.8411 44.2101 56.2739 43.4603 56.2739C42.7105 56.2739 42.1027 56.8411 42.1027 57.5408C42.1027 58.2404 42.7105 58.8076 43.4603 58.8076Z" fill="#4D4D4D"/>
<path fill-rule="evenodd" clip-rule="evenodd" d="M50.8569 62.3268C64.7139 54.5847 70.1911 54.3501 63.4967 64.2506C61.905 66.6436 58.7685 67.9105 56.3342 67.8167C53.0104 67.6759 52.4954 64.2975 50.8569 62.3268Z" fill="#2CB8B8"/>
</svg>
