<svg width="182" height="284" viewBox="0 0 182 284" fill="none" xmlns="http://www.w3.org/2000/svg">
<path d="M165.177 0.5H16.8231C7.83659 0.5 0.5 7.9059 0.5 16.9065V267.094C0.5 276.094 7.83659 283.5 16.8231 283.5H165.177C174.163 283.5 181.5 276.094 181.5 267.094V16.9065C181.5 7.9059 174.163 0.5 165.177 0.5Z" stroke="black" stroke-opacity="0.3"/>
<path fill-rule="evenodd" clip-rule="evenodd" d="M24.4009 24.4609H157.599V259.539H24.4009V24.4609Z" fill="#009DC9"/>
<path fill-rule="evenodd" clip-rule="evenodd" d="M24.401 82.4093C61.6084 61.2007 116.975 49.001 157.599 58.7138V222.846C153.902 223.785 150.017 224.629 145.805 225.333C119.456 229.744 54.1201 226.928 24.401 212.477V82.4093Z" fill="#00B3E5"/>
<path fill-rule="evenodd" clip-rule="evenodd" d="M157.599 104.416C118.894 86.773 55.9922 78.5616 24.401 97.0958V185.074C32.8253 190.142 44.7598 193.895 61.6084 195.96C83.3713 198.635 131.062 196.711 157.599 188.734V104.416Z" fill="#00C7FF"/>
<path fill-rule="evenodd" clip-rule="evenodd" d="M147.864 83.2539C151.608 73.3534 141.546 81.7524 133.824 86.163C124.838 91.2775 113.605 82.6908 106.257 80.9547C97.8799 78.9371 88.3791 80.9547 81.5461 86.3507C75.4618 91.1367 71.8113 96.6735 68.5819 103.899C63.1997 115.771 69.986 121.401 42.9813 129.613C34.2294 132.287 40.9688 135.431 44.3854 136.839C64.5102 145.191 89.0812 139.654 108.083 129.05C125.025 119.618 139.721 104.603 147.864 83.2539Z" fill="#808080"/>
<path d="M82.8565 79.9694C83.3713 81.0016 80.7036 82.597 79.674 83.1131C78.6443 83.6293 77.4275 83.207 76.9127 82.1747C59.5024 47.4995 87.8175 30.2792 110.563 45.1065C112.81 46.608 110.75 49.2825 108.457 47.781C85.7582 36.1913 64.6038 51.7224 82.8565 79.9694Z" fill="#666666"/>
<path fill-rule="evenodd" clip-rule="evenodd" d="M91.6553 82.2686C89.9236 72.2742 84.4946 70.2566 77.0063 77.9987C66.5695 76.5441 61.3744 87.9461 75.7426 92.5444C82.2481 94.609 91.4212 91.9814 91.6553 82.2686Z" fill="#666666"/>
<path fill-rule="evenodd" clip-rule="evenodd" d="M80.5632 86.9138C90.3448 77.4356 119.596 114.926 120.906 121.401C121.608 124.873 120.86 125.906 116.975 129.284C115.945 130.223 118.098 138.152 113.98 140.874C109.861 143.642 105.321 137.073 103.543 137.636C94.0889 140.639 88.5663 130.786 84.2606 119.947C79.1123 106.949 76.2574 91.0429 80.5632 86.9138Z" fill="#999999"/>
<path fill-rule="evenodd" clip-rule="evenodd" d="M117.63 129.706C115.852 129.659 114.401 128.158 114.448 126.469C114.495 124.78 116.226 123.231 118.005 123.278C119.783 123.325 120.906 125.014 120.86 126.703C120.813 128.393 119.409 129.753 117.63 129.706Z" fill="white"/>
<path fill-rule="evenodd" clip-rule="evenodd" d="M118.145 128.768C117.443 128.768 116.881 128.158 116.881 127.454C116.881 126.75 117.583 126.14 118.332 126.187C119.034 126.187 119.502 126.891 119.456 127.548C119.456 128.252 118.894 128.768 118.145 128.768Z" fill="#4D4D4D"/>
<path fill-rule="evenodd" clip-rule="evenodd" d="M100.922 139.654C99.1435 139.607 97.3183 138.246 97.3651 136.557C97.3651 134.868 99.3776 132.944 101.109 132.944C102.888 132.991 104.713 134.915 104.666 136.604C104.619 138.293 102.654 139.701 100.922 139.654Z" fill="white"/>
<path fill-rule="evenodd" clip-rule="evenodd" d="M102.186 138.387C101.484 138.387 100.922 137.777 100.922 137.073C100.922 136.416 101.624 135.759 102.373 135.806C103.075 135.806 103.543 136.51 103.496 137.167C103.496 137.871 102.934 138.387 102.186 138.387Z" fill="#4D4D4D"/>
<path fill-rule="evenodd" clip-rule="evenodd" d="M131.718 100.756C129.19 100.239 128.395 97.5649 128.816 95.3596C129.284 93.1074 131.53 90.949 134.011 91.4651C136.491 91.9813 138.317 94.9842 137.849 97.1896C137.427 99.3949 134.198 101.272 131.718 100.756Z" fill="#808080"/>
<path fill-rule="evenodd" clip-rule="evenodd" d="M132.888 98.4094C131.39 98.081 129.986 96.7671 130.22 95.4533C130.501 94.0926 132.232 92.8257 133.73 93.1072C135.228 93.4357 136.351 95.2187 136.07 96.5325C135.836 97.8933 134.385 98.6909 132.888 98.4094Z" fill="#333333"/>
<path fill-rule="evenodd" clip-rule="evenodd" d="M112.295 87.9929C115.15 88.556 116.086 91.6059 115.571 94.1397C115.056 96.6735 112.529 99.1134 109.674 98.5503C106.819 97.9404 104.76 94.562 105.275 92.0282C105.789 89.5414 109.44 87.4299 112.295 87.9929Z" fill="#999999" stroke="#999999" stroke-width="0.288"/>
<path fill-rule="evenodd" clip-rule="evenodd" d="M110.938 90.6675C112.669 90.996 114.261 92.4974 113.98 93.9989C113.652 95.5474 111.686 97.0019 109.955 96.6735C108.27 96.2981 107.006 94.2805 107.287 92.779C107.615 91.2775 109.253 90.2921 110.938 90.6675Z" fill="#666666" stroke="#666666" stroke-width="0.288"/>
<path fill-rule="evenodd" clip-rule="evenodd" d="M123.481 100.615C120.345 100.005 118.098 102.633 117.537 105.401C116.975 108.169 118.473 111.735 121.608 112.392C124.697 113.002 128.208 110.468 128.769 107.7C129.331 104.932 126.569 101.272 123.481 100.615Z" fill="#999999"/>
<path fill-rule="evenodd" clip-rule="evenodd" d="M123.668 103.899C121.796 103.524 119.549 104.322 119.222 105.964C118.894 107.653 120.251 109.952 122.076 110.375C123.949 110.75 126.101 109.249 126.429 107.606C126.757 105.917 125.54 104.275 123.668 103.899Z" fill="#666666"/>
<path fill-rule="evenodd" clip-rule="evenodd" d="M62.2169 126.563C64.7442 127.079 65.5398 129.753 65.1186 132.006C64.6506 134.211 62.4041 136.369 59.9236 135.853C57.4431 135.337 55.6178 132.381 56.039 130.129C56.507 127.923 59.7364 126.093 62.2169 126.563Z" fill="#999999"/>
<path fill-rule="evenodd" clip-rule="evenodd" d="M61.0468 128.909C62.5445 129.237 63.9486 130.551 63.7145 131.865C63.4337 133.225 61.7021 134.492 60.2044 134.211C58.7067 133.882 57.5835 132.146 57.8175 130.786C58.0983 129.472 59.5492 128.627 61.0468 128.909Z" fill="#666666"/>
<path fill-rule="evenodd" clip-rule="evenodd" d="M75.3682 135.431C72.3729 134.821 71.39 131.63 71.9048 128.956C72.4665 126.281 75.1342 123.7 78.1295 124.31C81.1248 124.92 83.3245 128.486 82.7629 131.161C82.248 133.836 78.3635 136.041 75.3682 135.431Z" fill="#999999"/>
<path fill-rule="evenodd" clip-rule="evenodd" d="M76.7722 132.616C74.9938 132.24 73.2621 130.692 73.5897 129.096C73.9173 127.454 76.0234 125.906 77.8019 126.281C79.6271 126.657 80.9844 128.768 80.6568 130.41C80.3292 132.006 78.5975 132.991 76.7722 132.616Z" fill="#666666"/>
<path fill-rule="evenodd" clip-rule="evenodd" d="M72.4196 120.322C75.2745 120.932 77.3338 118.492 77.8486 115.958C78.3635 113.424 77.0062 110.187 74.1513 109.577C71.2964 109.014 68.0671 111.313 67.5522 113.847C67.0374 116.381 69.6115 119.759 72.4196 120.322Z" fill="#999999"/>
<path fill-rule="evenodd" clip-rule="evenodd" d="M72.2324 117.366C73.9641 117.694 76.0234 116.944 76.3042 115.442C76.6318 113.941 75.3682 111.782 73.6833 111.454C71.9984 111.078 70.0327 112.439 69.7051 113.988C69.4243 115.489 70.5476 116.991 72.2324 117.366Z" fill="#666666"/>
<path fill-rule="evenodd" clip-rule="evenodd" d="M90.9065 121.073C93.7614 121.683 95.8206 119.243 96.3355 116.709C96.8503 114.175 95.4462 110.938 92.6381 110.375C89.7832 109.765 86.5539 112.111 86.0391 114.598C85.5242 117.131 88.0515 120.51 90.9065 121.073Z" fill="#B3B3B3"/>
<path fill-rule="evenodd" clip-rule="evenodd" d="M90.7192 118.117C92.4041 118.445 94.5101 117.741 94.791 116.193C95.1186 114.692 93.8549 112.58 92.17 112.205C90.4384 111.876 88.5195 113.237 88.1919 114.738C87.8643 116.24 89.0343 117.788 90.7192 118.117Z" fill="#808080"/>
<path fill-rule="evenodd" clip-rule="evenodd" d="M107.381 110.328C104.573 109.765 102.513 112.205 101.998 114.691C101.484 117.225 102.841 120.51 105.696 121.073C108.551 121.636 111.733 119.337 112.248 116.803C112.763 114.269 110.236 110.938 107.381 110.328Z" fill="#B3B3B3"/>
<path fill-rule="evenodd" clip-rule="evenodd" d="M107.615 113.331C105.883 112.955 103.824 113.706 103.496 115.207C103.215 116.756 104.432 118.867 106.164 119.243C107.849 119.571 109.814 118.21 110.142 116.709C110.423 115.161 109.3 113.659 107.615 113.331Z" fill="#808080"/>
<path fill-rule="evenodd" clip-rule="evenodd" d="M91.4681 93.389C88.6599 92.8259 86.6007 95.2189 86.0858 97.7527C85.571 100.286 86.9283 103.524 89.7832 104.134C92.5913 104.697 95.8206 102.398 96.3355 99.8642C96.8503 97.3304 94.323 93.952 91.4681 93.389Z" fill="#B3B3B3"/>
<path fill-rule="evenodd" clip-rule="evenodd" d="M91.6553 96.392C89.9704 96.0166 87.9111 96.7674 87.5835 98.2689C87.3027 99.7704 88.5195 101.929 90.2512 102.257C91.9361 102.633 93.9017 101.272 94.1826 99.7234C94.5102 98.2219 93.3869 96.7204 91.6553 96.392Z" fill="#808080"/>
<path fill-rule="evenodd" clip-rule="evenodd" d="M131.718 100.756C129.19 100.239 128.395 97.5649 128.816 95.3596C129.284 93.1074 131.53 90.949 134.011 91.4651C136.491 91.9813 138.317 94.9842 137.849 97.1896C137.427 99.3949 134.198 101.272 131.718 100.756Z" fill="#999999"/>
<path fill-rule="evenodd" clip-rule="evenodd" d="M132.888 98.4094C131.39 98.081 129.986 96.7671 130.22 95.4533C130.501 94.0926 132.232 92.8257 133.73 93.1072C135.228 93.4357 136.351 95.2187 136.07 96.5325C135.836 97.8933 134.385 98.6909 132.888 98.4094Z" fill="#666666"/>
<path fill-rule="evenodd" clip-rule="evenodd" d="M16.8658 1H165.134C173.886 1 181 8.17903 181 16.9065V267.094C181 275.868 173.886 283 165.134 283H16.8658C8.16069 283 1 275.868 1 267.094V16.9065C1 8.17903 8.16069 1 16.8658 1ZM24.4009 24.4609H157.599V259.539H24.4009V24.4609Z" fill="white"/>
<path d="M35.8674 33.0476V40.2266V42.5727H33.5273H11.5772H9.23712V40.2266V34.5021V33.5168L9.98595 32.813L19.9079 23.6632V23.6163C20.2824 23.2878 20.5632 22.9594 20.7504 22.7248C20.9376 22.5371 21.078 22.3494 21.1248 22.2086C21.1716 22.0679 21.2184 21.974 21.2652 21.8333V21.7863C21.1716 21.7863 21.078 21.7863 20.9844 21.7863C20.7504 21.7863 20.5632 21.7863 20.376 21.8333C20.1888 21.8802 20.0016 21.974 19.8143 22.0679C19.6739 22.1617 19.5335 22.3025 19.3931 22.4432C19.2527 22.584 19.1591 22.7717 19.0655 23.0063L18.0359 25.1178L15.883 24.0386L8.95631 20.5664L6.80342 19.4872L7.92667 17.3757C8.53509 16.2026 9.33073 15.1234 10.22 14.185C11.156 13.2935 12.2324 12.4958 13.4025 11.792C14.6193 11.0882 15.9298 10.6189 17.3338 10.2436C18.7379 9.96204 20.2356 9.77435 21.8268 9.77435C23.0437 9.77435 24.2137 9.8682 25.337 10.1028C26.4602 10.2905 27.4899 10.6189 28.4727 11.0412C29.5023 11.4635 30.4384 11.9797 31.234 12.6366C32.0764 13.2466 32.7785 13.9973 33.3869 14.8419C33.9953 15.6865 34.4633 16.6249 34.7909 17.6103C35.1186 18.5957 35.259 19.6279 35.259 20.7071C35.259 22.584 34.8377 24.3201 34.0421 26.0093C33.6677 26.807 33.0593 27.6985 32.3104 28.59C31.7488 29.2469 31.0936 29.9507 30.3448 30.7015H33.5273H35.8674V33.0476ZM31.1872 37.8805V35.3937H24.3073H18.2699L22.7161 31.3115L26.6474 27.7454V27.6985C27.4899 26.9477 28.1919 26.2439 28.7535 25.587C29.2215 24.977 29.5959 24.4609 29.8299 23.9447C30.3448 22.9594 30.5788 21.8802 30.5788 20.7071C30.5788 20.0971 30.4852 19.5341 30.3448 19.0179C30.1576 18.5018 29.9235 17.9857 29.5959 17.5634C29.2683 17.0942 28.8471 16.6719 28.3791 16.2965C27.9111 15.9211 27.3494 15.5927 26.6942 15.358C25.9922 15.0296 25.2902 14.8419 24.4945 14.7011C23.6989 14.5604 22.8097 14.4665 21.8268 14.4665C20.5632 14.4665 19.4399 14.6073 18.4103 14.8419C17.3806 15.0765 16.4914 15.405 15.6958 15.8742C14.9001 16.2965 14.1981 16.8595 13.5897 17.4695L13.4493 17.6103L16.2574 19.0179C16.585 18.6426 17.0062 18.361 17.4274 18.0795C17.9891 17.7511 18.5507 17.5164 19.1123 17.3288C19.7207 17.1411 20.376 17.0942 20.9844 17.0942C21.6396 17.0942 22.2012 17.1411 22.7629 17.3288C23.4181 17.4695 23.9797 17.798 24.4477 18.1734C24.9625 18.5957 25.337 19.1118 25.6178 19.7218V19.7687C25.8518 20.3318 25.9922 20.9417 25.9922 21.5986C25.9922 22.0679 25.8986 22.5371 25.805 23.0063C25.6646 23.4286 25.5242 23.8509 25.2902 24.3201C25.0562 24.7424 24.7753 25.2116 24.3541 25.7278C23.9797 26.1501 23.5585 26.5724 23.0905 27.0416H23.0437L13.9173 35.5344V37.8805H31.1872Z" fill="white"/>
<path d="M33.5273 33.0475V40.2266H11.5772V34.5021L21.4992 25.3524C22.3416 24.5547 22.9032 23.8509 23.1841 23.2409C23.5117 22.6778 23.6521 22.1148 23.6521 21.5986C23.6521 20.8948 23.4181 20.3787 22.95 20.0033C22.482 19.6279 21.8268 19.4402 20.9844 19.4402C20.1419 19.4402 19.3463 19.6279 18.6443 20.0971C17.8954 20.5194 17.3338 21.1763 16.9594 21.974L9.98592 18.4549C11.0156 16.5311 12.56 14.9827 14.5725 13.8096C16.585 12.6835 18.9719 12.1204 21.8268 12.1204C23.9797 12.1204 25.8986 12.4958 27.5834 13.1996C29.2683 13.9035 30.5787 14.8888 31.5148 16.2026C32.4508 17.5164 32.9188 19.0179 32.9188 20.7071C32.9188 22.2086 32.5912 23.6632 31.936 24.977C31.3276 26.2908 30.0639 27.7923 28.2387 29.4815L24.3073 33.0475H33.5273Z" fill="#525252"/>
<path d="M163.777 264.09V271.269V273.616H161.437H139.487H137.147V271.269V265.592V264.56L137.895 263.856L147.771 254.706C148.145 254.331 148.473 254.049 148.66 253.768C148.847 253.58 148.941 253.392 149.034 253.298H148.988C149.081 253.158 149.128 253.017 149.175 252.876V252.829C149.081 252.829 148.988 252.829 148.847 252.829C148.66 252.829 148.473 252.829 148.285 252.876C148.098 252.97 147.911 253.017 147.724 253.158C147.583 253.251 147.396 253.345 147.303 253.486C147.162 253.627 147.022 253.815 146.928 254.049L145.899 256.161L143.793 255.128L136.819 251.609L134.713 250.53L135.836 248.419C136.445 247.245 137.24 246.213 138.129 245.275C139.066 244.336 140.095 243.539 141.312 242.835C142.529 242.178 143.839 241.662 145.243 241.333C146.647 241.005 148.145 240.817 149.736 240.817C150.906 240.817 152.076 240.958 153.2 241.146C154.323 241.333 155.399 241.662 156.382 242.084C157.412 242.506 158.348 243.069 159.144 243.679C159.986 244.289 160.688 245.04 161.296 245.885C161.905 246.776 162.373 247.668 162.7 248.653C162.981 249.638 163.122 250.671 163.122 251.75C163.122 253.627 162.747 255.41 161.952 257.052C161.53 257.85 160.969 258.741 160.22 259.633C159.658 260.337 159.003 261.04 158.254 261.744H161.437H163.777V264.09ZM159.097 268.923V266.437H152.217H146.133L150.626 262.354L154.557 258.788C155.399 258.037 156.101 257.287 156.663 256.63C157.131 256.067 157.505 255.504 157.739 255.035C158.207 254.002 158.441 252.923 158.441 251.75C158.441 251.14 158.395 250.577 158.207 250.061C158.067 249.545 157.833 249.075 157.505 248.606C157.178 248.137 156.757 247.762 156.289 247.386C155.774 247.011 155.212 246.682 154.557 246.401C153.902 246.119 153.153 245.885 152.357 245.744C151.562 245.603 150.719 245.509 149.736 245.509C148.473 245.509 147.349 245.65 146.32 245.885C145.29 246.119 144.401 246.448 143.605 246.917C142.81 247.386 142.061 247.902 141.452 248.559L141.359 248.653L144.12 250.061C144.495 249.732 144.869 249.404 145.337 249.169C145.852 248.794 146.46 248.559 147.022 248.372C147.63 248.231 148.239 248.137 148.847 248.137C149.502 248.137 150.111 248.231 150.626 248.372C151.281 248.559 151.842 248.841 152.357 249.263C152.872 249.685 153.246 250.202 153.527 250.812H153.481C153.761 251.375 153.855 251.985 153.855 252.641C153.855 253.111 153.808 253.58 153.668 254.049C153.574 254.471 153.434 254.941 153.2 255.363C152.966 255.832 152.638 256.301 152.264 256.771C151.889 257.193 151.468 257.662 151 258.084L150.953 258.131L141.827 266.577V268.923H159.097Z" fill="white"/>
<path d="M161.437 264.091V271.27H139.487V265.592L149.362 256.395C150.251 255.598 150.813 254.894 151.094 254.331C151.374 253.768 151.515 253.205 151.515 252.642C151.515 251.938 151.281 251.422 150.86 251.046C150.392 250.671 149.736 250.483 148.847 250.483C148.051 250.483 147.256 250.718 146.507 251.14C145.805 251.609 145.243 252.219 144.822 253.017L137.895 249.545C138.925 247.574 140.423 246.026 142.435 244.9C144.448 243.727 146.881 243.163 149.736 243.163C151.889 243.163 153.808 243.539 155.493 244.243C157.131 244.946 158.442 245.932 159.378 247.246C160.314 248.559 160.782 250.061 160.782 251.75C160.782 253.299 160.501 254.706 159.846 256.02C159.19 257.334 157.973 258.835 156.101 260.525L152.217 264.091H161.437Z" fill="#525252"/>
<path fill-rule="evenodd" clip-rule="evenodd" d="M38.2075 219.468C34.791 229.509 44.5726 220.735 52.1077 216.09C60.9064 210.694 72.4665 218.858 79.8144 220.359C88.2855 222.049 97.7395 219.749 104.385 214.119C110.282 209.098 113.746 203.468 116.741 196.148C121.655 184.042 114.729 178.693 141.452 169.543C150.111 166.587 143.231 163.678 139.768 162.364C119.362 154.763 95.025 161.097 76.351 172.358C59.7832 182.353 45.6022 197.837 38.2075 219.468Z" fill="#666666"/>
<path d="M103.262 220.547C102.7 219.515 105.368 217.825 106.351 217.262C107.334 216.746 108.598 217.122 109.159 218.107C128.442 252.031 100.173 279.105 72.6069 265.826C70.3136 264.419 72.2793 261.697 74.6194 263.105C100.735 273.099 122.123 248.7 103.262 220.547Z" fill="#4D4D4D"/>
<path fill-rule="evenodd" clip-rule="evenodd" d="M94.4166 218.529C96.4758 228.477 101.998 230.307 109.206 222.283C119.69 223.362 124.463 211.82 109.955 207.737C103.403 205.86 94.2762 208.817 94.4166 218.529Z" fill="#4D4D4D"/>
<path fill-rule="evenodd" clip-rule="evenodd" d="M105.321 213.509C95.8674 223.315 65.3526 186.857 63.8549 180.429C63.0125 177.004 63.7145 175.924 67.5055 172.405C68.4883 171.467 66.1014 163.584 70.0796 160.722C74.1513 157.813 78.8783 164.241 80.61 163.631C89.9704 160.299 95.8206 169.918 100.501 180.663C106.07 193.473 109.487 209.239 105.321 213.509Z" fill="#808080"/>
<path fill-rule="evenodd" clip-rule="evenodd" d="M66.8502 172.03C68.6287 171.983 70.0795 173.484 70.1263 175.174C70.1263 176.863 68.4415 178.411 66.663 178.458C64.8845 178.458 63.7145 176.816 63.7145 175.127C63.6677 173.438 65.0249 172.03 66.8502 172.03Z" fill="white"/>
<path fill-rule="evenodd" clip-rule="evenodd" d="M66.3354 172.968C67.0374 172.968 67.6459 173.578 67.6459 174.235C67.6459 174.939 66.9906 175.549 66.2418 175.596C65.5398 175.596 65.0718 174.892 65.0718 174.235C65.025 173.532 65.5866 172.968 66.3354 172.968Z" fill="#4D4D4D"/>
<path fill-rule="evenodd" clip-rule="evenodd" d="M83.1841 161.519C84.9625 161.473 86.8346 162.786 86.8814 164.476C86.8814 166.165 84.9625 168.182 83.2309 168.182C81.4524 168.229 79.5335 166.352 79.5335 164.663C79.5335 162.974 81.4524 161.519 83.1841 161.519Z" fill="white"/>
<path fill-rule="evenodd" clip-rule="evenodd" d="M81.9204 162.786C82.6693 162.786 83.2777 163.396 83.2777 164.053C83.2777 164.757 82.5757 165.414 81.8736 165.414C81.1248 165.414 80.6568 164.757 80.6568 164.053C80.6568 163.396 81.2184 162.833 81.9204 162.786Z" fill="#4D4D4D"/>
<path fill-rule="evenodd" clip-rule="evenodd" d="M53.7457 201.45C56.273 201.872 57.1623 204.5 56.7878 206.752C56.4134 209.004 54.2605 211.21 51.78 210.787C49.2527 210.365 47.3339 207.456 47.7083 205.204C48.0827 202.951 51.2184 201.028 53.7457 201.45Z" fill="#808080"/>
<path fill-rule="evenodd" clip-rule="evenodd" d="M52.6693 203.843C54.167 204.078 55.6178 205.344 55.3838 206.705C55.1498 208.019 53.4649 209.38 51.9673 209.145C50.4696 208.864 49.2996 207.127 49.4868 205.814C49.7208 204.453 51.1248 203.561 52.6693 203.843Z" fill="#333333"/>
<path fill-rule="evenodd" clip-rule="evenodd" d="M73.5897 213.509C70.7348 213.04 69.6584 210.037 70.0796 207.503C70.5476 204.922 72.9813 202.388 75.8362 202.905C78.6911 203.374 80.8908 206.705 80.4228 209.239C80.0016 211.773 76.4446 213.978 73.5897 213.509Z" fill="#808080"/>
<path fill-rule="evenodd" clip-rule="evenodd" d="M74.8066 210.787C73.1217 210.506 71.4369 209.098 71.7177 207.55C71.9517 206.048 73.8706 204.5 75.6022 204.782C77.3339 205.063 78.6444 207.034 78.4104 208.582C78.1295 210.084 76.5383 211.116 74.8066 210.787Z" fill="#4D4D4D"/>
<path fill-rule="evenodd" clip-rule="evenodd" d="M61.9829 201.262C65.1186 201.825 67.2715 199.057 67.7395 196.288C68.2075 193.52 66.5694 190.001 63.4337 189.485C60.3448 188.969 56.8814 191.596 56.4134 194.365C55.9454 197.18 58.8471 200.746 61.9829 201.262Z" fill="#808080"/>
<path fill-rule="evenodd" clip-rule="evenodd" d="M61.6552 198.024C63.5273 198.353 65.7738 197.461 66.0546 195.772C66.3354 194.13 64.8845 191.831 63.0125 191.502C61.1404 191.174 59.0343 192.769 58.7535 194.411C58.4727 196.101 59.7831 197.696 61.6552 198.024Z" fill="#4D4D4D"/>
<path fill-rule="evenodd" clip-rule="evenodd" d="M122.31 173.25C119.783 172.827 118.847 170.153 119.222 167.948C119.596 165.695 121.796 163.443 124.276 163.865C126.803 164.335 128.722 167.244 128.348 169.449C127.974 171.701 124.791 173.672 122.31 173.25Z" fill="#808080"/>
<path fill-rule="evenodd" clip-rule="evenodd" d="M123.387 170.857C121.889 170.622 120.438 169.355 120.672 167.995C120.86 166.634 122.591 165.273 124.089 165.555C125.587 165.789 126.757 167.525 126.523 168.886C126.335 170.247 124.931 171.091 123.387 170.857Z" fill="#4D4D4D"/>
<path fill-rule="evenodd" clip-rule="evenodd" d="M108.878 164.851C111.874 165.32 112.997 168.511 112.529 171.232C112.108 173.907 109.487 176.581 106.491 176.065C103.449 175.549 101.156 172.03 101.624 169.355C102.045 166.681 105.836 164.335 108.878 164.851Z" fill="#808080"/>
<path fill-rule="evenodd" clip-rule="evenodd" d="M107.568 167.713C109.346 167.995 111.125 169.543 110.844 171.138C110.563 172.734 108.551 174.376 106.725 174.048C104.9 173.766 103.496 171.654 103.777 170.059C104.058 168.464 105.743 167.385 107.568 167.713Z" fill="#4D4D4D"/>
<path fill-rule="evenodd" clip-rule="evenodd" d="M112.295 179.819C109.44 179.35 107.474 181.837 107.053 184.37C106.632 186.951 108.129 190.142 110.984 190.611C113.839 191.127 116.975 188.687 117.396 186.153C117.817 183.62 115.15 180.335 112.295 179.819Z" fill="#808080"/>
<path fill-rule="evenodd" clip-rule="evenodd" d="M112.622 182.822C110.891 182.541 108.832 183.338 108.598 184.84C108.317 186.388 109.627 188.453 111.359 188.781C113.091 189.063 115.009 187.608 115.243 186.107C115.477 184.558 114.307 183.104 112.622 182.822Z" fill="#4D4D4D"/>
<path fill-rule="evenodd" clip-rule="evenodd" d="M93.8081 179.725C90.9532 179.209 88.9875 181.743 88.5663 184.277C88.1451 186.81 89.6428 190.001 92.4977 190.47C95.3526 190.986 98.4883 188.546 98.9095 186.013C99.3308 183.479 96.663 180.194 93.8081 179.725Z" fill="#999999"/>
<path fill-rule="evenodd" clip-rule="evenodd" d="M94.1357 182.681C92.4041 182.4 90.3448 183.197 90.1108 184.746C89.83 186.247 91.1404 188.359 92.8721 188.64C94.6037 188.922 96.5226 187.514 96.7566 185.966C97.0374 184.464 95.8206 182.963 94.1357 182.681Z" fill="#666666"/>
<path fill-rule="evenodd" clip-rule="evenodd" d="M77.7083 191.033C80.5632 191.502 82.5289 189.016 82.9501 186.482C83.3713 183.901 81.9204 180.71 79.0655 180.241C76.2106 179.772 73.0281 182.165 72.6069 184.699C72.1856 187.28 74.8533 190.517 77.7083 191.033Z" fill="#999999"/>
<path fill-rule="evenodd" clip-rule="evenodd" d="M77.4274 188.03C79.1123 188.359 81.1716 187.514 81.4056 186.013C81.6864 184.464 80.376 182.4 78.6443 182.118C76.9126 181.79 75.0405 183.244 74.7597 184.746C74.5257 186.294 75.6958 187.749 77.4274 188.03Z" fill="#666666"/>
<path fill-rule="evenodd" clip-rule="evenodd" d="M94.1826 207.409C97.0375 207.878 99.0499 205.391 99.4712 202.858C99.8924 200.324 98.3947 197.133 95.5398 196.617C92.6849 196.148 89.5492 198.588 89.1279 201.121C88.6599 203.655 91.3276 206.94 94.1826 207.409Z" fill="#999999"/>
<path fill-rule="evenodd" clip-rule="evenodd" d="M93.9018 204.453C95.6335 204.734 97.6459 203.937 97.9268 202.388C98.1608 200.887 96.8503 198.775 95.1186 198.494C93.4338 198.212 91.5149 199.62 91.2809 201.168C91.0001 202.67 92.1701 204.171 93.9018 204.453Z" fill="#666666"/>
<path fill-rule="evenodd" clip-rule="evenodd" d="M53.7457 201.45C56.273 201.872 57.1623 204.5 56.7878 206.752C56.4134 209.004 54.2605 211.21 51.78 210.787C49.2527 210.365 47.3339 207.456 47.7083 205.204C48.0827 202.951 51.2184 201.028 53.7457 201.45Z" fill="#808080"/>
<path fill-rule="evenodd" clip-rule="evenodd" d="M52.6693 203.843C54.167 204.078 55.6178 205.344 55.3838 206.705C55.1498 208.019 53.4649 209.38 51.9673 209.145C50.4696 208.864 49.2996 207.127 49.4868 205.814C49.7208 204.453 51.1248 203.561 52.6693 203.843Z" fill="#4D4D4D"/>
</svg>
