<svg width="182" height="284" viewBox="0 0 182 284" fill="none" xmlns="http://www.w3.org/2000/svg">
<path d="M149.307 21.1328H31.6632C24.7083 21.1328 19.0702 28.0244 19.0702 36.5257V246.207C19.0702 254.708 24.7083 261.6 31.6632 261.6H149.307C156.262 261.6 161.9 254.708 161.9 246.207V36.5257C161.9 28.0244 156.262 21.1328 149.307 21.1328Z" fill="#008AB0"/>
<path fill-rule="evenodd" clip-rule="evenodd" d="M19.1171 61.7738C40.0429 80.6864 137.463 88.6175 161.9 77.3075V229.266C121.406 218.472 48.1418 213.403 19.1171 213.92V61.7738Z" fill="#009DC9"/>
<path fill-rule="evenodd" clip-rule="evenodd" d="M19.0703 105.09C60.9688 120.764 116.958 123.533 161.9 107.296V229.266C121.406 218.472 48.0481 215.75 19.0703 216.266V105.09Z" fill="#00B3E5"/>
<path fill-rule="evenodd" clip-rule="evenodd" d="M19.0703 155.258C60.9688 166.755 116.958 168.82 161.9 156.853V246.723C121.406 238.745 48.0481 236.727 19.0703 237.103V155.258Z" fill="#009DC9"/>
<path fill-rule="evenodd" clip-rule="evenodd" d="M161.9 218.472C121.406 207.162 52.4955 199.7 19.3979 200.31L19.0702 247.427C19.0234 255.218 24.7347 261.6 31.6632 261.6H149.307C156.235 261.6 161.9 255.218 161.9 247.427V218.472Z" fill="#008AB0"/>
<path fill-rule="evenodd" clip-rule="evenodd" d="M145.562 65.7629C147.2 61.7269 145.234 62.8063 143.596 63.9795C136.854 68.8133 128.428 66.5137 123.325 60.366C121.546 58.301 118.878 55.7199 119.72 61.5392C120.703 68.6725 120.142 76.6036 110.03 79.8887C105.91 81.2027 108.017 82.4229 110.03 82.7514C118.176 84.1593 124.729 90.2132 124.542 99.2237C124.495 102.368 126.228 102.321 127.211 100.35C129.177 96.5017 133.437 86.8812 148.183 90.1193C150.384 90.6355 150.618 88.8522 148.651 87.3505C140.178 80.8742 142.051 74.4918 145.562 65.7629Z" fill="#FF9E36"/>
<path fill-rule="evenodd" clip-rule="evenodd" d="M138.025 71.723C133.577 72.2861 129.036 71.2067 125.151 68.8133C124.636 73.5063 122.857 77.5892 119.393 80.6865C123.138 82.8922 126.087 86.0834 127.913 90.0255C128.428 89.4624 129.036 88.9461 129.645 88.4768C132.547 86.1773 135.824 84.9102 139.195 84.4409C138.399 82.8922 137.837 81.2027 137.557 79.3725C137.182 76.7914 137.416 74.2102 138.025 71.723Z" fill="#FFE100"/>
<path fill-rule="evenodd" clip-rule="evenodd" d="M95.4239 248.929C96.6411 253.012 97.4369 250.947 97.9987 249.07C100.199 241.28 107.97 237.901 115.601 239.496C118.176 240.012 121.733 240.341 117.614 236.399C112.558 231.612 108.157 225.23 113.869 216.595C116.209 213.075 113.869 213.45 112.137 214.389C105.068 218.284 96.4538 217.674 91.117 210.728C89.2445 208.288 87.9805 209.367 88.4486 211.526C89.2445 215.609 91.8661 225.511 78.6645 231.988C76.6983 232.973 77.6346 234.428 80.0221 234.381C90.368 234.193 92.8023 240.2 95.4239 248.929Z" fill="#FFB500"/>
<path fill-rule="evenodd" clip-rule="evenodd" d="M97.5305 240.106C100.573 236.821 104.787 234.85 109.374 234.334C106.8 230.345 105.629 226.027 106.519 221.475C102.212 222.132 97.8582 221.475 94.0195 219.504C93.9259 220.302 93.8322 221.147 93.5982 221.991C92.7555 225.511 91.0234 228.468 88.6827 230.908C90.2744 231.612 91.7724 232.551 93.1768 233.818C95.0494 235.601 96.4538 237.76 97.5305 240.106Z" fill="#FFE100"/>
<path fill-rule="evenodd" clip-rule="evenodd" d="M39.1067 73.8347C34.6125 73.5531 36.3447 75.1018 38.03 76.322C44.9584 81.3904 45.4734 90.4009 41.1665 97.4403C39.6685 99.8337 38.0768 103.26 43.4604 100.538C50.108 97.2526 58.0664 95.1877 64.5267 104.01C67.1951 107.671 67.7101 105.184 67.3824 103.072C66.0716 94.6245 69.8167 86.2241 78.6646 83.4084C81.7543 82.4228 81.1457 80.7803 78.8986 80.4518C74.4981 79.7948 63.6841 78.7623 62.0456 63.2286C61.7647 60.8821 59.9858 61.2576 59.1431 63.6979C55.5852 74.1163 48.7504 74.3979 39.1067 73.8347Z" fill="#FFB500"/>
<path fill-rule="evenodd" clip-rule="evenodd" d="M46.8778 78.5277C49.0313 82.8452 50.3889 87.2097 49.2653 91.9965C54.2276 90.8233 58.0664 91.7149 62.3264 94.2961C63.2627 89.65 64.8544 85.7079 68.2718 82.6106C64.0117 80.5457 61.0625 78.1523 59.0026 73.8817C55.632 77.5422 51.7465 78.1523 46.8778 78.5277Z" fill="#FFE100"/>
<path fill-rule="evenodd" clip-rule="evenodd" d="M132.36 193.881C133.905 198.01 136.386 204.534 133.905 205.097C132.641 205.378 130.254 199.653 128.521 195.101C127.445 192.05 126.415 191.346 123.372 192.848C120.61 194.209 112.464 201.718 111.294 199.935C110.404 198.574 116.256 194.068 120.095 190.736C123.138 188.108 124.73 187.264 120.75 184.917C118.363 183.509 108.906 178.206 109.328 175.766C109.89 172.622 119.112 179.661 120.329 180.412C122.81 181.914 125.806 182.946 127.07 179.755C127.866 177.737 129.926 166.849 132.782 166.802C135.45 166.755 131.752 178.206 131.518 179.426C131.003 182.43 127.492 185.809 136.901 185.433C144.064 185.152 148.558 186.56 147.903 188.061C147.434 189.141 144.485 189.516 136.339 189.422C131.049 189.375 131.237 190.783 132.36 193.881Z" fill="#DE6325"/>
<path fill-rule="evenodd" clip-rule="evenodd" d="M125.619 185.011C126.977 184.072 129.036 185.105 129.832 186.278C130.628 187.451 130.394 188.202 129.036 189.141C127.679 190.079 126.789 190.361 125.994 189.188C125.198 188.014 124.261 185.903 125.619 185.011Z" fill="#FF7530"/>
<path fill-rule="evenodd" clip-rule="evenodd" d="M55.5384 212.324C52.6359 215.046 47.5332 220.02 46.1756 218.143C45.4734 217.205 49.6867 212.887 52.87 209.837C54.9766 207.866 55.0235 207.302 52.7296 205.285C50.6698 203.501 41.4474 199.09 42.5241 197.494C43.32 196.274 49.7335 199.841 53.8063 201.906C57.0365 203.501 57.5046 204.158 58.0196 200.028C58.3473 197.588 59.6581 187.874 61.8583 187.357C64.0586 186.841 62.7478 194.162 61.9988 197.823C60.8752 203.22 58.8154 204.44 67.2419 203.313C70.8466 202.844 76.6984 201.953 77.4942 203.736C78.29 205.472 71.502 206.317 68.0846 206.739C62.8882 207.349 59.7517 205.566 63.1223 212.746C65.8843 218.659 66.727 223.822 65.1821 223.822C64.1522 223.775 62.701 220.959 59.8921 214.154C58.0664 209.696 57.6919 210.306 55.5384 212.324Z" fill="#FF7530"/>
<path fill-rule="evenodd" clip-rule="evenodd" d="M58.1132 204.581C59.658 204.581 60.6879 206.176 60.6879 207.302C60.6879 208.382 60.0794 208.757 58.5345 208.757C56.9896 208.757 56.1938 208.57 56.1938 207.443C56.1938 206.364 56.5683 204.581 58.1132 204.581Z" fill="#FF9E36"/>
<path fill-rule="evenodd" clip-rule="evenodd" d="M50.857 143.103C51.5592 146.998 68.6463 146.529 72.1574 147.702C92.147 154.554 73.3746 180.318 84.3759 181.116C89.385 181.444 90.7426 169.947 93.8323 165.113C106.613 145.309 125.01 166.333 128.475 161.828C130.956 158.59 123.7 151.222 120.704 148.406C112.324 140.569 110.498 135.735 115.975 126.161C119.861 119.356 127.398 112.27 124.261 109.267C122.202 107.296 113.307 113.303 108.766 115.743C100.339 120.295 95.0026 121.609 88.2614 113.772C86.2016 111.331 77.6814 99.1767 74.4045 99.8337C68.225 101.054 84.2354 118.042 76.6047 130.76C68.2718 144.745 48.7972 132.168 50.857 143.103Z" fill="#FF7530"/>
<path fill-rule="evenodd" clip-rule="evenodd" d="M88.0274 122.407C90.2277 122.454 93.0833 124.847 93.0365 126.584C92.9897 128.32 90.2277 131.183 88.0274 131.136C85.7803 131.089 83.8609 128.273 83.9078 126.537C83.9546 124.847 85.7803 122.36 88.0274 122.407Z" fill="#DE6325"/>
<path fill-rule="evenodd" clip-rule="evenodd" d="M103.055 132.638C105.161 132.684 107.97 130.573 108.017 128.93C108.064 127.288 105.583 124.425 103.476 124.378C101.369 124.284 99.4031 126.865 99.3563 128.508C99.3095 130.15 100.948 132.544 103.055 132.638Z" fill="#DE6325"/>
<path fill-rule="evenodd" clip-rule="evenodd" d="M80.4904 136.955C78.571 136.908 76.043 138.832 75.9962 140.287C75.9494 141.789 78.1965 144.417 80.1158 144.464C82.0352 144.511 83.8141 142.164 83.861 140.709C83.9078 139.208 82.4097 137.002 80.4904 136.955Z" fill="#DE6325"/>
<path fill-rule="evenodd" clip-rule="evenodd" d="M90.2276 158.355C92.2874 158.402 95.0963 156.337 95.1431 154.694C95.1899 153.052 92.7088 150.189 90.6489 150.142C88.5423 150.095 86.5761 152.63 86.5293 154.272C86.4825 155.868 88.121 158.308 90.2276 158.355Z" fill="#DE6325"/>
<path fill-rule="evenodd" clip-rule="evenodd" d="M107.127 142.117C109.328 142.164 112.137 144.511 112.09 146.2C112.043 147.89 109.328 150.752 107.127 150.705C104.974 150.659 103.055 147.89 103.101 146.2C103.101 144.464 104.974 142.07 107.127 142.117Z" fill="#DE6325"/>
<path fill-rule="evenodd" clip-rule="evenodd" d="M94.7685 147.467C90.7425 147.373 85.5462 143.056 85.593 139.912C85.6866 136.767 90.7425 131.464 94.7685 131.558C98.7945 131.699 102.352 136.767 102.259 139.912C102.212 143.056 98.7945 147.561 94.7685 147.467Z" fill="#DE6325"/>
<path fill-rule="evenodd" clip-rule="evenodd" d="M95.2367 142.868C93.411 142.821 91.0234 140.85 91.0703 139.395C91.1171 137.941 93.411 135.547 95.2367 135.594C97.0625 135.641 98.7009 137.988 98.6541 139.395C98.6541 140.85 97.0625 142.915 95.2367 142.868Z" fill="#FF9E36"/>
<path fill-rule="evenodd" clip-rule="evenodd" d="M85.0313 114.992C86.108 115.79 86.6698 117.949 86.0612 118.793C85.4526 119.638 83.0651 120.107 81.9416 119.31C80.8648 118.512 80.8648 116.447 81.5202 115.602C82.1288 114.757 83.9078 114.147 85.0313 114.992Z" fill="#FF9E36"/>
<path fill-rule="evenodd" clip-rule="evenodd" d="M110.779 124.519C111.856 125.317 114.056 125.27 114.711 124.425C115.32 123.58 115.086 121.187 114.009 120.389C112.932 119.591 110.966 120.201 110.358 120.999C109.749 121.844 109.702 123.721 110.779 124.519Z" fill="#FF9E36"/>
<path fill-rule="evenodd" clip-rule="evenodd" d="M71.5956 139.959C70.3784 139.02 67.8037 139.114 67.0547 140.052C66.3524 141.038 66.6333 143.807 67.8973 144.745C69.1145 145.684 71.3615 144.98 72.1106 143.995C72.8128 143.056 72.8596 140.897 71.5956 139.959Z" fill="#FF9E36"/>
<path fill-rule="evenodd" clip-rule="evenodd" d="M113.401 154.788C114.477 155.586 116.724 155.539 117.333 154.694C117.988 153.85 117.754 151.409 116.631 150.612C115.554 149.814 113.588 150.424 112.979 151.269C112.324 152.113 112.324 153.991 113.401 154.788Z" fill="#FF9E36"/>
<path fill-rule="evenodd" clip-rule="evenodd" d="M88.121 165.535C89.1977 166.333 89.8063 168.445 89.1509 169.29C88.5423 170.134 86.2016 170.604 85.1249 169.806C84.0481 169.008 84.0481 166.943 84.6567 166.145C85.3121 165.301 87.0442 164.737 88.121 165.535Z" fill="#FF9E36"/>
<path fill-rule="evenodd" clip-rule="evenodd" d="M89.7126 60.2721C89.7126 65.1527 89.4318 72.8961 92.2406 72.5207C93.645 72.3799 94.4877 66.1383 94.5345 60.7414C94.5345 57.2216 95.1899 55.7199 98.8882 56.1423C102.259 56.4708 113.166 60.7883 113.681 58.4887C114.103 56.7523 106.94 54.6874 101.744 52.7164C97.5306 51.1677 95.8453 50.2761 99.0286 46.334C100.948 43.9406 107.83 35.0709 106.472 32.7244C105.208 30.5187 99.5436 36.3849 96.7816 40.28C93.4109 45.0199 91.5384 47.7888 89.2445 42.8142C88.2146 40.6086 81.7543 31.4104 78.7582 32.4428C75.9961 33.4283 83.9545 43.0489 84.6099 44.2221C86.2952 47.1787 91.3979 49.9006 81.5202 53.1388C73.9831 55.626 69.9571 58.958 71.2679 60.2721C72.1106 61.2106 75.9025 60.1313 84.329 56.9401C89.8063 54.8282 89.7126 56.6585 89.7126 60.2721Z" fill="#FF7530"/>
<path fill-rule="evenodd" clip-rule="evenodd" d="M94.0663 48.8213C95.3771 49.8537 94.9557 52.2002 94.0663 53.3734C93.1768 54.5467 92.3342 54.5467 91.0234 53.5611C89.7126 52.5287 89.1976 51.7778 90.0871 50.6046C91.0234 49.4313 92.8023 47.8357 94.0663 48.8213Z" fill="#FF7530"/>
<path fill-rule="evenodd" clip-rule="evenodd" d="M94.0663 48.8213C95.3771 49.8537 94.9557 52.2002 94.0663 53.3734C93.1768 54.5467 92.3342 54.5467 91.0234 53.5611C89.7126 52.5287 89.1976 51.7778 90.0871 50.6046C91.0234 49.4313 92.8023 47.8357 94.0663 48.8213Z" fill="#FF9E36"/>
<path d="M165.177 0.5H16.8231C7.83659 0.5 0.5 7.9059 0.5 16.9065V267.094C0.5 276.094 7.83659 283.5 16.8231 283.5H165.177C174.163 283.5 181.5 276.094 181.5 267.094V16.9065C181.5 7.9059 174.163 0.5 165.177 0.5Z" stroke="black" stroke-opacity="0.3"/>
<path fill-rule="evenodd" clip-rule="evenodd" d="M16.8231 1H165.177C173.884 1 181 8.1333 181 16.8622V267.138C181 275.867 173.884 283 165.177 283H16.8231C8.11574 283 1 275.867 1 267.138V16.8622C1 8.1333 8.11574 1 16.8231 1ZM24.407 24.4648H157.593V259.535H24.407V24.4648Z" fill="white"/>
<path d="M22.0195 9.7289C25.0624 9.7289 27.7308 10.339 30.0247 11.5122C31.195 12.1692 32.2718 12.9201 33.2081 13.8587C34.1443 14.7504 34.9402 15.8297 35.5956 17.0499C36.251 18.2701 36.7191 19.5841 37.0468 21.0389C37.3745 22.4468 37.5149 23.9955 37.5149 25.5911C37.5149 27.3275 37.3745 28.97 37 30.5187C36.6255 32.0674 36.0637 33.5222 35.3615 34.8832C34.6125 36.2441 33.723 37.4174 32.6463 38.4498C31.6164 39.4823 30.3992 40.3739 29.0416 41.0779C27.7308 41.7818 26.3264 42.298 24.7815 42.6265C23.2835 43.002 21.6918 43.1428 20.0065 43.1428C19.117 43.1428 18.2276 43.0958 17.3381 43.002C16.4486 42.9081 15.5592 42.7204 14.7165 42.5327C13.8738 42.298 13.078 42.0165 12.329 41.7349C11.58 41.4064 10.8778 41.0309 10.2224 40.6086L8.49023 39.4823L9.42652 37.5582L12.7503 31.0819L13.078 30.5187C12.7503 30.331 12.4694 30.0494 12.1417 29.8148C11.4395 29.1578 10.7841 28.4069 10.2692 27.5621C9.14563 25.8258 8.58386 23.9016 8.58386 21.6959C8.58386 20.5227 8.7243 19.4433 9.052 18.3639C9.3797 17.2846 9.84784 16.2521 10.4564 15.3135C11.065 14.4219 11.814 13.5771 12.6099 12.9201C13.4525 12.2162 14.3888 11.6061 15.4187 11.1368C16.4486 10.6675 17.4785 10.339 18.6021 10.1043C19.7256 9.86969 20.8491 9.7289 22.0195 9.7289ZM27.8713 15.689C26.2328 14.8442 24.3134 14.4219 22.0195 14.4219C21.13 14.4219 20.3342 14.5157 19.5852 14.6565C18.7893 14.8442 18.0871 15.0789 17.3849 15.4074C16.7295 15.689 16.1209 16.0644 15.606 16.4868C15.1378 16.9091 14.6697 17.3784 14.342 17.9416C13.9675 18.4578 13.6866 19.0679 13.5462 19.631C13.3589 20.2881 13.2653 20.9451 13.2653 21.6959C13.2653 22.963 13.5462 24.0894 14.1547 25.0279C14.4824 25.4972 14.8569 25.9665 15.2783 26.342C15.6996 26.7174 16.1677 27.0459 16.7295 27.2806C17.2913 27.5621 17.853 27.7968 18.4148 27.9376C19.0234 28.0784 19.6788 28.1253 20.3342 28.1253C22.0195 28.1253 23.3771 27.7968 24.407 27.0459L29.2289 23.6201L28.0585 29.4393C27.6372 31.5042 26.6541 33.1468 25.156 34.2731C23.7048 35.3994 21.9259 35.9625 19.8192 35.9625C18.6489 35.9625 17.5253 35.8218 16.4486 35.4932C16.2614 35.4463 16.0273 35.3994 15.84 35.3055L14.6697 37.6051C15.0442 37.7459 15.4655 37.8397 15.8869 37.9805C16.5423 38.1213 17.1976 38.2621 17.853 38.356C18.5553 38.4029 19.2575 38.4498 20.0065 38.4498C21.3641 38.4498 22.6281 38.356 23.7516 38.0744C24.8752 37.8397 25.9051 37.4174 26.8882 36.9481C27.8244 36.4318 28.6671 35.8218 29.3693 35.1178C30.1183 34.4139 30.7269 33.5691 31.2419 32.6305C31.7568 31.645 32.1781 30.6126 32.459 29.4393C32.6931 28.2661 32.8335 26.999 32.8335 25.5911C32.8335 24.2771 32.7399 23.0569 32.5058 22.0245C32.2718 21.0389 31.9441 20.1003 31.5227 19.3025C31.0546 18.5047 30.5396 17.8008 29.9311 17.1907C29.3225 16.5806 28.6671 16.1113 27.8713 15.689ZM22.6749 21.7429C22.8153 21.7429 22.909 21.7429 23.0026 21.6959C23.0026 21.6959 23.0494 21.6959 23.0962 21.649V21.6021C23.143 21.5082 23.143 21.4144 23.143 21.2736C23.143 21.1328 23.143 20.992 23.0962 20.9451C23.0494 20.8981 23.0494 20.8981 23.0026 20.8512C22.9558 20.8512 22.8153 20.8512 22.6749 20.8512C22.5344 20.8512 22.394 20.8512 22.3472 20.8512C22.3004 20.8981 22.2536 20.8981 22.2536 20.9451H22.2067C22.2067 20.992 22.2067 21.1328 22.2067 21.2736C22.2067 21.4144 22.2067 21.5082 22.2536 21.6021V21.649C22.3004 21.6959 22.3004 21.6959 22.3472 21.6959C22.394 21.7429 22.5344 21.7429 22.6749 21.7429ZM24.5943 26.1073C23.9857 26.342 23.3303 26.4358 22.6749 26.4358C21.9727 26.4358 21.3173 26.342 20.7087 26.1073C20.0533 25.8258 19.4915 25.4972 19.0234 25.0279C18.5084 24.5117 18.1339 23.9016 17.853 23.2446C17.619 22.6345 17.5253 21.9775 17.5253 21.2736C17.5253 20.5696 17.619 19.9126 17.853 19.2556C18.1339 18.5986 18.5084 18.0354 19.0234 17.5192C19.5383 17.0499 20.1001 16.7214 20.7555 16.4868C21.3641 16.2521 21.9727 16.1583 22.6749 16.1583C23.3303 16.1583 23.9857 16.2521 24.5943 16.4868C25.2497 16.7214 25.8114 17.0499 26.3264 17.5192C26.8413 18.0354 27.2159 18.5986 27.4499 19.2556C27.684 19.9126 27.8244 20.5696 27.8244 21.2736C27.8244 21.9775 27.7308 22.6345 27.4967 23.2446C27.2159 23.9016 26.8413 24.5117 26.3264 25.0279C25.8582 25.4972 25.2497 25.8258 24.5943 26.1073Z" fill="white"/>
<path d="M22.0195 12.0754C24.6879 12.0754 26.9818 12.5916 28.948 13.6241C30.9142 14.6565 32.459 16.1583 33.5357 18.1762C34.6593 20.1942 35.1742 22.6345 35.1742 25.5911C35.1742 28.7354 34.5657 31.4573 33.3017 33.7569C32.0377 36.0564 30.2588 37.7928 27.9649 39.013C25.671 40.1862 23.0494 40.7963 20.0065 40.7963C18.368 40.7963 16.7763 40.6086 15.3251 40.2331C13.827 39.8577 12.5631 39.3415 11.5331 38.6375L14.8569 32.1612C16.2145 33.1468 17.853 33.6161 19.8192 33.6161C21.4109 33.6161 22.7217 33.2406 23.7516 32.4428C24.7815 31.645 25.4369 30.4718 25.7646 28.97C24.3134 30.0025 22.5344 30.4718 20.3342 30.4718C18.6489 30.4718 17.104 30.1433 15.6528 29.3924C14.2484 28.6415 13.078 27.6091 12.2354 26.295C11.3459 24.9341 10.9246 23.4323 10.9246 21.6959C10.9246 19.7718 11.3927 18.0824 12.3758 16.6276C13.3589 15.1727 14.7165 14.0464 16.4018 13.2486C18.0871 12.4977 19.9597 12.0754 22.0195 12.0754ZM22.6749 24.0894C23.5175 24.0894 24.1729 23.8547 24.6879 23.3385C25.2028 22.8223 25.4837 22.1183 25.4837 21.2736C25.4837 20.3819 25.2028 19.7249 24.6879 19.2087C24.1729 18.7394 23.5175 18.5047 22.6749 18.5047C21.8322 18.5047 21.1768 18.7394 20.6151 19.2087C20.1001 19.7249 19.866 20.3819 19.866 21.2736C19.866 22.1183 20.1001 22.8223 20.6151 23.3385C21.1768 23.8547 21.8322 24.0894 22.6749 24.0894Z" fill="#525252"/>
<path d="M164.194 247.427H145.281V265.683H164.194V247.427Z" fill="white"/>
<path d="M149.962 240.857C152.958 240.857 155.627 241.42 157.968 242.641C159.138 243.251 160.215 244.001 161.151 244.94C162.087 245.879 162.883 246.911 163.538 248.131C164.194 249.351 164.662 250.665 164.99 252.12C165.317 253.575 165.458 255.077 165.458 256.672C165.458 258.409 165.271 260.051 164.943 261.6C164.568 263.196 164.007 264.65 163.258 265.965C162.509 267.325 161.619 268.499 160.589 269.531C159.512 270.611 158.342 271.455 156.984 272.159C155.674 272.863 154.222 273.379 152.724 273.755C151.18 274.083 149.588 274.271 147.949 274.271C147.013 274.271 146.124 274.177 145.234 274.083C144.345 273.989 143.502 273.802 142.659 273.614C141.817 273.379 141.021 273.145 140.272 272.816C139.523 272.488 138.821 272.112 138.165 271.69L136.386 270.564L137.369 268.686L140.693 262.21L140.974 261.647C140.693 261.412 140.365 261.178 140.085 260.896C139.336 260.239 138.727 259.488 138.165 258.643C137.089 256.954 136.527 254.983 136.527 252.777C136.527 251.651 136.667 250.525 136.995 249.445C137.276 248.366 137.744 247.38 138.399 246.442C139.008 245.503 139.71 244.705 140.553 244.001C141.395 243.298 142.332 242.734 143.362 242.218C144.345 241.749 145.421 241.42 146.545 241.186C147.668 240.951 148.792 240.857 149.962 240.857ZM155.814 246.77C154.176 245.973 152.209 245.55 149.962 245.55C149.073 245.55 148.23 245.597 147.481 245.785C146.732 245.926 145.983 246.16 145.328 246.489C144.672 246.77 144.064 247.146 143.549 247.568C143.034 247.99 142.613 248.507 142.238 249.023C141.91 249.586 141.629 250.149 141.442 250.759C141.302 251.369 141.208 252.026 141.208 252.777C141.208 254.091 141.489 255.171 142.098 256.109C142.425 256.626 142.8 257.048 143.221 257.423C143.642 257.799 144.111 258.127 144.626 258.409C145.187 258.69 145.796 258.878 146.358 259.019C146.966 259.16 147.575 259.254 148.23 259.254C149.962 259.254 151.32 258.878 152.35 258.127L157.172 254.701L155.955 260.521C155.533 262.633 154.597 264.228 153.099 265.401C151.648 266.528 149.869 267.091 147.715 267.091C146.545 267.091 145.421 266.903 144.391 266.622C144.157 266.528 143.97 266.481 143.783 266.434L142.613 268.686C142.987 268.827 143.362 268.968 143.83 269.062C144.485 269.25 145.141 269.343 145.796 269.437C146.498 269.531 147.2 269.578 147.949 269.578C149.307 269.578 150.524 269.437 151.694 269.156C152.818 268.921 153.848 268.546 154.831 268.029C155.767 267.513 156.563 266.95 157.312 266.199C158.014 265.495 158.67 264.65 159.185 263.712C159.7 262.773 160.121 261.694 160.355 260.521C160.636 259.347 160.776 258.08 160.776 256.672C160.776 255.358 160.683 254.185 160.449 253.153C160.215 252.12 159.887 251.182 159.419 250.384C158.997 249.586 158.483 248.882 157.874 248.272C157.265 247.709 156.563 247.193 155.814 246.77ZM150.618 252.824C150.758 252.824 150.852 252.824 150.899 252.824C150.945 252.777 150.992 252.777 150.992 252.73C150.992 252.73 151.039 252.73 151.039 252.683C151.039 252.637 151.086 252.496 151.086 252.355C151.086 252.214 151.039 252.12 151.039 252.073V252.026C150.992 251.979 150.945 251.979 150.945 251.979C150.852 251.933 150.758 251.933 150.618 251.933C150.431 251.933 150.337 251.933 150.243 251.979C150.243 251.979 150.196 251.979 150.15 252.026V252.073C150.15 252.12 150.103 252.214 150.103 252.355C150.103 252.496 150.15 252.637 150.15 252.683C150.15 252.73 150.196 252.73 150.196 252.73C150.196 252.777 150.243 252.777 150.29 252.824C150.337 252.824 150.431 252.824 150.618 252.824ZM152.537 257.189C151.929 257.423 151.273 257.517 150.618 257.517C149.916 257.517 149.26 257.423 148.652 257.189C147.996 256.954 147.434 256.579 146.919 256.109C146.404 255.593 146.03 255.03 145.796 254.373C145.562 253.763 145.421 253.059 145.421 252.355C145.421 251.651 145.562 250.994 145.796 250.384C146.077 249.68 146.451 249.117 146.966 248.647C147.434 248.178 147.996 247.803 148.652 247.568C149.26 247.333 149.916 247.24 150.618 247.24C151.273 247.24 151.929 247.333 152.537 247.568C153.193 247.803 153.754 248.178 154.222 248.647C154.737 249.117 155.112 249.68 155.393 250.384C155.627 250.994 155.767 251.651 155.767 252.355C155.767 253.059 155.627 253.716 155.393 254.373C155.159 255.03 154.784 255.593 154.269 256.109C153.754 256.579 153.193 256.954 152.537 257.189Z" fill="white"/>
<path d="M149.962 243.204C152.584 243.204 154.925 243.673 156.891 244.705C158.857 245.738 160.402 247.24 161.479 249.258C162.555 251.276 163.117 253.763 163.117 256.672C163.117 259.817 162.509 262.539 161.245 264.838C159.934 267.138 158.202 268.874 155.908 270.094C153.614 271.314 150.945 271.925 147.949 271.925C146.311 271.925 144.719 271.737 143.221 271.314C141.77 270.939 140.459 270.423 139.429 269.766L142.753 263.29C144.111 264.228 145.796 264.744 147.715 264.744C149.307 264.744 150.618 264.322 151.648 263.524C152.724 262.726 153.38 261.553 153.707 260.051C152.256 261.084 150.431 261.6 148.23 261.6C146.592 261.6 145 261.225 143.596 260.474C142.144 259.77 141.021 258.737 140.131 257.376C139.289 256.062 138.867 254.514 138.867 252.777C138.867 250.9 139.336 249.211 140.319 247.756C141.302 246.254 142.613 245.128 144.345 244.377C146.03 243.579 147.903 243.204 149.962 243.204ZM150.618 255.171C151.414 255.171 152.116 254.936 152.631 254.42C153.146 253.904 153.427 253.247 153.427 252.355C153.427 251.51 153.146 250.806 152.631 250.337C152.116 249.821 151.414 249.586 150.618 249.586C149.775 249.586 149.073 249.821 148.558 250.337C148.043 250.806 147.762 251.51 147.762 252.355C147.762 253.247 148.043 253.904 148.558 254.42C149.073 254.936 149.775 255.171 150.618 255.171Z" fill="#525252"/>
<path fill-rule="evenodd" clip-rule="evenodd" d="M28.0586 174.217C27.6841 178.676 27.2627 185.246 29.8843 185.105C31.1483 185.058 32.0846 177.361 32.4591 172.434C32.74 169.149 33.2081 169.524 36.5787 170.181C39.6216 170.744 49.8739 175.86 50.5293 173.795C50.9975 172.199 43.6008 168.679 38.9663 166.521C35.2679 164.784 33.9103 165.113 37.1405 161.734C39.1067 159.716 46.831 151.926 45.8011 149.673C44.7712 147.42 39.7153 153.099 36.9064 156.431C30.8674 163.752 32.1314 162.86 26.8414 154.084C24.7816 150.752 22.2068 146.904 20.4279 147.373C18.4617 147.89 21.9728 153.803 24.0794 157.182C27.3564 162.485 31.476 164.268 22.675 166.38C15.5592 168.116 10.4097 171.026 11.4864 172.34C12.2354 173.232 15.7933 172.528 23.7049 170.228C28.9012 168.679 28.3395 170.885 28.0586 174.217Z" fill="#DE6325"/>
<path fill-rule="evenodd" clip-rule="evenodd" d="M30.1183 163.048C31.7568 162.626 33.3485 164.409 33.723 165.864C34.0975 167.272 33.6294 167.929 32.0377 168.351C30.3992 168.773 29.5097 168.726 29.1352 167.319C28.7607 165.864 28.5266 163.47 30.1183 163.048Z" fill="#FF7530"/>
<path fill-rule="evenodd" clip-rule="evenodd" d="M156.329 131.887C159.981 133.013 166.066 134.655 166.394 132.45C167.049 128.742 152.678 130.948 155.955 123.017C156.984 120.53 162.368 113.96 160.73 113.021C159.512 112.317 156.048 116.916 153.427 120.389C146.873 129.024 145.14 111.331 139.71 112.599C137.791 113.021 140.974 117.714 143.268 120.717C146.124 124.425 147.903 125.363 142.285 127.991C140.553 128.789 133.062 130.995 133.156 133.482C133.297 137.143 138.821 133.67 143.315 131.934C146.685 130.666 149.354 130.103 149.447 135.641C149.588 141.93 151.086 146.2 152.397 145.543C153.286 145.074 153.473 143.103 153.005 136.016C152.678 131.37 153.567 131.042 156.329 131.887Z" fill="#DE6325"/>
<path fill-rule="evenodd" clip-rule="evenodd" d="M152.771 129.446C153.895 128.226 153.099 125.973 151.975 124.941C150.899 123.955 150.103 124.096 148.979 125.27C147.856 126.49 147.481 127.334 148.558 128.32C149.635 129.352 151.648 130.666 152.771 129.446Z" fill="#FF9E36"/>
</svg>
