<svg width="182" height="284" viewBox="0 0 182 284" fill="none" xmlns="http://www.w3.org/2000/svg">
<path d="M165.177 0.5H16.8231C7.83659 0.5 0.5 7.9059 0.5 16.9065V267.094C0.5 276.094 7.83659 283.5 16.8231 283.5H165.177C174.163 283.5 181.5 276.094 181.5 267.094V16.9065C181.5 7.9059 174.163 0.5 165.177 0.5Z" stroke="black" stroke-opacity="0.3"/>
<path fill-rule="evenodd" clip-rule="evenodd" d="M24.407 24.5311H157.593V260.313H24.407V24.5311Z" fill="#4CDBFF"/>
<path fill-rule="evenodd" clip-rule="evenodd" d="M24.407 117.291C52.5891 127.127 74.1236 149.529 126.602 139.316C136.574 137.386 147.247 132.539 157.593 128.492V248.218C117.848 259.466 65.463 260.125 24.407 248.783V117.291Z" fill="#1ECAFF"/>
<path fill-rule="evenodd" clip-rule="evenodd" d="M24.407 58.0395C67.3823 51.2154 110.873 57.1453 157.593 72.4405V24.5311H24.407V58.0395Z" fill="#70ECFF"/>
<path fill-rule="evenodd" clip-rule="evenodd" d="M24.407 200.45C69.6762 198.662 106.472 222.757 157.593 205.109V260.313H24.407V200.45Z" fill="#00B6ED"/>
<path fill-rule="evenodd" clip-rule="evenodd" d="M16.8231 1H165.177C173.884 1 181 8.17904 181 16.9065V267.094C181 275.821 173.884 283 165.177 283H16.8231C8.11573 283 1 275.821 1 267.094V16.9065C1 8.17904 8.11573 1 16.8231 1ZM24.407 24.4609H157.593V259.539H24.407V24.4609Z" fill="white"/>
<path fill-rule="evenodd" clip-rule="evenodd" d="M21.0364 20.6133H31.1951V31.7807H21.0364V20.6133Z" stroke="white" stroke-width="3.77953"/>
<path fill-rule="evenodd" clip-rule="evenodd" d="M21.0364 20.6133H31.1951V31.7807H21.0364V20.6133Z" fill="white"/>
<path d="M31.3355 35.3937H20.9428L19.117 40.1797H9.7074L21.6918 12.7305H30.7737L42.7581 40.1797H33.208L31.3355 35.3937ZM28.8075 28.7308L26.1391 21.8333L23.4707 28.7308H28.8075Z" stroke="white" stroke-width="3.77953"/>
<path d="M31.3355 35.3937H20.9428L19.117 40.1797H9.7074L21.6918 12.7305H30.7737L42.7581 40.1797H33.208L31.3355 35.3937ZM28.8075 28.7308L26.1391 21.8333L23.4707 28.7308H28.8075Z" fill="#525252"/>
<path fill-rule="evenodd" clip-rule="evenodd" d="M148.09 251.234H159.559V261.041H148.09V251.234Z" stroke="white" stroke-width="3.77953"/>
<path fill-rule="evenodd" clip-rule="evenodd" d="M148.09 251.234H159.559V261.041H148.09V251.234Z" fill="white"/>
<path d="M159.278 266.483H148.886L147.013 271.269H137.65L149.635 243.82H158.717L170.654 271.269H161.104L159.278 266.483ZM156.75 259.821L154.082 252.923L151.414 259.821H156.75Z" stroke="white" stroke-width="3.77953"/>
<path d="M159.278 266.483H148.886L147.013 271.269H137.65L149.635 243.82H158.717L170.654 271.269H161.104L159.278 266.483ZM156.75 259.821L154.082 252.923L151.414 259.821H156.75Z" fill="#525252"/>
<path d="M122.061 40.0616C133.437 43.5443 138.867 55.4981 136.246 64.8164C132.969 75.6407 121.031 81.9941 110.217 78.7468C99.2158 75.4054 93.5981 64.2987 96.8751 53.2861C99.9649 43.0266 110.685 36.6261 122.061 40.0616ZM119.018 49.4741C113.026 47.6387 107.034 49.8035 105.255 55.8275C104.319 58.8395 104.74 61.9456 106.097 64.534C107.455 67.1225 109.843 69.1461 112.839 70.0874C118.831 71.8757 125.198 68.4873 127.023 62.4162C128.802 56.3923 125.01 51.3095 119.018 49.4741Z" fill="#525252"/>
<path d="M69.9572 84.3002C70.4722 81.9471 71.5021 78.841 72.4852 76.6291C74.2641 72.4876 75.5281 73.7112 79.32 74.2759C107.034 78.3704 112.371 80.347 137.416 91.7831C143.643 94.6539 146.405 94.2774 143.315 102.372C141.864 106.231 142.144 110.279 136.948 108.678C114.571 106.561 94.7219 100.113 74.8727 90.183C70.6594 88.0652 68.9273 88.677 69.9572 84.3002Z" fill="#B9A46F"/>
<path d="M131.939 89.2417C130.488 97.6188 128.756 103.407 127.257 107.502C123.98 109.667 122.482 108.302 121.265 106.419C122.81 102.325 124.729 96.1599 126.274 86.4651C129.036 85.8062 131.19 86.2768 131.939 89.2417Z" fill="#525252"/>
<path d="M116.771 63.5457C117.005 63.5928 117.239 63.6399 117.473 63.734C121.593 64.9576 124.683 67.546 123.466 71.5463L87.1379 190.896C86.9506 197.014 89.6658 202.191 92.4747 205.062C99.7776 212.498 116.537 209.768 124.636 204.827C130.16 201.438 132.22 199.697 132.36 198.662C129.645 198.144 129.551 197.814 126.321 196.497C122.81 195.085 124.495 194.661 127.304 193.814C142.519 189.108 146.451 181.107 148.745 176.636C151.133 172.118 152.209 173.154 152.209 178.142C152.256 184.966 149.494 197.72 147.481 202.05C144.906 207.698 143.455 210.71 142.051 212.121C139.991 214.051 138.727 215.133 138.633 210.662C138.586 208.356 136.948 205.486 136.62 205.109C136.105 206.85 130.722 215.698 121.218 220.263C110.264 225.628 90.5553 228.123 79.4604 231.84C74.9662 233.346 71.5488 235.182 69.0208 236.688C68.1782 237.206 66.2588 239.229 65.0884 238.759C66.3524 230.287 112.23 78.7939 116.771 63.5457Z" fill="#525252"/>
<path d="M108.438 66.9813C109.562 63.2163 112.932 62.5574 116.771 63.5457C112.23 78.7939 66.3993 230.146 65.0885 238.712C64.4331 238.617 64.2926 237.911 64.199 237.676C62.935 234.805 61.1561 230.146 57.2705 225.111C50.0612 215.839 38.6853 204.074 32.4591 193.532C27.0755 184.402 23.6112 171.883 24.1262 170.189C23.658 170.283 21.4578 172.213 20.147 174.095C17.619 177.766 17.1509 176.166 16.5423 173.389C16.121 171.46 15.7933 167.695 16.7296 161.576C17.4318 156.87 22.16 144.681 25.9519 138.987C28.714 134.845 30.1652 134.61 29.6502 139.692C29.1353 144.681 28.0117 153.576 38.0768 165.906C39.9493 168.212 41.1197 169.483 37.4214 168.683C34.0039 168.024 33.7699 168.212 31.1951 167.13C30.727 168.118 31.5228 170.707 34.238 176.542C38.264 185.202 50.9974 197.673 61.1561 195.555C65.3694 194.708 69.7699 191.179 72.4851 185.108L108.438 66.9813Z" fill="#808080"/>
<path d="M102.774 70.4168C96.2198 73.1464 91.2107 91.5007 91.8661 98.4189C92.2406 102.372 93.1769 106.184 95.2367 110.279L91.632 122.185C87.0443 114.749 83.6737 107.361 82.9246 99.266C81.9883 89.6653 87.2783 70.9345 96.0326 64.0634C97.1093 63.2163 98.2328 62.5574 99.3564 62.0868C105.536 58.0394 112.886 63.6399 102.774 70.4168ZM106.285 127.503C109.702 132.586 112.886 137.575 115.039 142.563C118.222 150.046 118.737 157.2 115.414 163.741C106.144 181.907 76.4175 181.484 60.9688 189.673C50.5761 195.179 43.2731 200.732 41.1665 211.651C40.4643 215.227 40.5111 220.404 41.7751 223.793C43.6476 229.064 45.7543 230.382 42.7114 231.793C41.2133 232.499 40.043 223.369 38.9194 223.981C37.9831 224.546 42.1028 233.299 39.8557 234.194C39.4344 234.335 38.8258 234.429 38.3577 234.523C35.8765 234.994 34.8934 220.64 33.8635 220.922C33.3954 221.016 33.5826 225.44 33.8167 229.017C34.004 231.605 34.4721 233.676 33.6763 233.77C32.3186 233.958 31.4292 222.051 31.2887 220.734C29.9311 205.344 41.7751 191.226 57.1769 182.613C67.1015 177.06 101.369 171.46 107.408 159.647C109.375 155.788 108.906 151.129 106.8 146.14C105.77 143.787 104.412 141.34 102.867 138.798L106.285 127.503Z" fill="#CC8100"/>
<path d="M36.9064 200.638C37.749 202.897 38.7789 205.439 39.9025 207.886C40.3706 208.874 40.8388 209.815 41.3537 210.757C41.3069 211.039 41.2133 211.368 41.1665 211.651C40.6983 213.957 40.6047 216.828 40.8388 219.51C38.6385 217.016 36.6723 213.674 35.0338 210.192C34.5189 209.109 34.0039 207.98 33.5826 206.85C34.472 204.733 35.5956 202.615 36.9064 200.638ZM98.3732 74.6995C97.2965 76.3937 96.2666 78.4645 95.4239 80.6293C93.5046 77.8527 92.9428 71.9699 92.7555 67.3578C93.7854 66.0871 94.8622 64.9576 96.0325 64.0634C96.6879 63.5457 97.3433 63.1222 97.9987 62.7457V63.4516C98.0923 66.2753 98.2328 71.6404 98.3732 74.6995ZM94.2536 83.9237C93.645 85.8532 93.13 87.8299 92.7087 89.7594C90.3212 87.6416 87.8401 83.5943 85.9675 80.2058C86.7633 77.9938 87.6996 75.7819 88.7295 73.7112C89.8531 76.1114 92.3342 81.147 94.2536 83.9237ZM92.0065 93.995C91.8193 95.7363 91.7724 97.2423 91.8661 98.4189C91.9129 99.0777 92.0065 99.6896 92.1001 100.301C90.9298 99.7366 89.7126 98.9836 88.4955 98.1836C86.5293 96.8658 84.5631 95.4069 82.9246 94.1362C83.1118 92.2067 83.3927 90.0889 83.8609 87.924C85.4057 89.1947 88.4486 91.6419 91.4447 93.6185L92.0065 93.995ZM93.9259 107.408C94.3004 108.349 94.7217 109.29 95.2367 110.279L94.394 112.961C93.5514 112.82 93.0364 112.773 92.5683 112.773C90.883 112.679 89.8531 112.632 85.593 110.326C84.6567 107.878 83.9077 105.384 83.4395 102.89C90.883 107.22 91.4916 107.267 92.8023 107.314C93.13 107.361 93.5046 107.361 93.9259 107.408ZM108.111 130.233C109.609 132.586 111.06 134.892 112.324 137.198C109.702 136.539 106.8 135.551 104.131 134.563L105.723 129.386C106.519 129.668 107.315 129.951 108.111 130.233ZM114.852 142.187L115.039 142.563C116.022 144.869 116.724 147.175 117.192 149.387C114.805 148.023 112.605 147.081 110.124 146.046C108.813 145.528 107.408 144.916 105.91 144.21C105.021 142.469 103.991 140.681 102.867 138.798L103.429 136.916C106.94 138.845 109.702 139.975 112.23 141.057C113.12 141.434 114.009 141.81 114.852 142.187ZM117.473 157.388C117.146 159.553 116.443 161.671 115.414 163.741L115.32 163.977C114.618 163.459 114.196 162.659 114.196 161.765C114.15 161.482 114.196 161.247 114.29 161.012C113.401 160.07 111.013 158.047 108.532 155.976C108.906 153.576 108.532 150.987 107.596 148.258C110.264 150.47 114.665 154.282 117.473 157.388ZM113.915 166.236C112.698 168.071 111.247 169.671 109.609 171.083C109.187 168.024 107.315 165.106 105.349 162.471C106.238 161.576 106.893 160.635 107.408 159.647C107.783 158.941 108.064 158.141 108.298 157.388C110.311 160.023 112.605 162.941 113.915 166.236ZM102.306 175.93C100.059 177.06 97.7178 178.001 95.2835 178.895C95.658 177.907 96.0325 177.013 96.3602 176.166C97.4838 173.53 98.186 171.789 97.671 167.836C99.4968 166.894 101.182 165.906 102.633 164.824C103.757 170.33 103.382 173.013 102.306 175.93ZM84.844 182.049C82.5501 182.66 80.2562 183.272 78.0091 183.837C78.8518 181.343 79.8349 179.79 80.9584 178.095C81.7074 176.872 82.5501 175.554 83.4395 173.577C85.7334 172.824 87.9337 172.024 90.1339 171.177C88.4955 176.307 86.9038 178.801 85.4994 181.013C85.2653 181.39 85.078 181.719 84.844 182.049ZM73 185.202C70.5189 185.908 68.1313 186.661 65.8843 187.508C66.0715 186.849 66.3524 186.143 66.7737 185.296C68.0845 182.943 69.5358 180.119 70.7997 177.578C73.0936 176.872 75.4812 176.119 77.9155 175.366C76.6047 178.048 74.7789 181.813 73 185.202ZM60.922 189.673C58.4877 190.99 56.1938 192.308 54.0871 193.673C55.0234 191.132 56.5215 186.425 57.7854 182.284C59.4707 181.437 61.671 180.59 64.199 179.695C63.3563 182.472 62.1391 186.19 60.922 189.673ZM52.4955 194.802C50.7633 196.026 49.2185 197.344 47.8141 198.756C47.2055 197.108 46.7373 195.932 47.6268 189.061C49.4994 187.508 51.5592 186.049 53.6658 184.731C52.7763 190.567 52.4955 193.296 52.4955 194.802ZM45.8947 201.015C44.3498 202.991 43.0858 205.25 42.1964 207.792C41.6814 206.333 41.2133 204.733 40.7919 203.038C40.3238 201.062 39.9493 198.991 39.6684 196.92C41.0728 195.179 42.6645 193.485 44.3966 191.885C44.7243 194.661 45.1925 197.956 45.8947 201.015Z" fill="#9C6300"/>
</svg>
