<svg width="182" height="284" viewBox="0 0 182 284" fill="none" xmlns="http://www.w3.org/2000/svg">
<path d="M165.177 0.5H16.8231C7.83659 0.5 0.5 7.9059 0.5 16.9065V267.094C0.5 276.094 7.83659 283.5 16.8231 283.5H165.177C174.163 283.5 181.5 276.094 181.5 267.094V16.9065C181.5 7.9059 174.163 0.5 165.177 0.5Z" stroke="black" stroke-opacity="0.3"/>
<path fill-rule="evenodd" clip-rule="evenodd" d="M24.4009 24.4609H157.599V259.539H24.4009V24.4609Z" fill="#009DC9"/>
<path fill-rule="evenodd" clip-rule="evenodd" d="M24.4009 96.3451C56.9282 89.6353 118.286 82.597 157.599 81.1893V226.928C117.724 219.796 59.1747 217.169 24.4009 216.84V96.3451Z" fill="#00B3E5"/>
<path fill-rule="evenodd" clip-rule="evenodd" d="M24.4009 131.114C64.0889 125.014 114.916 127.079 157.599 134.117V226.835C117.724 219.233 59.1747 216.512 24.4009 216.183V131.114Z" fill="#1ECAFF"/>
<path fill-rule="evenodd" clip-rule="evenodd" d="M157.599 222.987C117.724 215.104 59.1747 212.242 24.4009 211.913V259.539H157.599V222.987Z" fill="#E0BE68"/>
<path d="M24.4009 225.943C50.2824 226.928 79.1123 228.899 108.036 231.292C124.697 232.7 141.406 234.201 157.599 235.797V237.908C141.359 236.313 124.604 234.764 107.849 233.357C79.0187 230.964 50.2356 228.993 24.4009 228.008V225.943Z" fill="#B9A46F"/>
<path d="M24.4009 243.961L30.532 243.914C73.6365 243.679 115.056 243.492 157.599 245.932V248.043C115.056 245.556 73.6365 245.791 30.532 245.979L24.4009 246.026V243.961Z" fill="#B9A46F"/>
<path d="M24.4009 175.174C43.4961 174.611 67.6927 174.611 92.9657 174.329C114.541 174.141 137.053 174.845 157.599 175.784V179.068C137.053 178.411 114.682 178.271 92.9657 178.505C67.7395 178.74 43.4961 179.491 24.4009 180.476V175.174Z" fill="#B9A46F"/>
<path d="M24.4009 175.174C43.4961 174.611 67.6927 174.611 92.9657 174.329C114.541 174.141 137.053 174.845 157.599 175.784V179.068C137.053 178.411 114.682 178.271 92.9657 178.505C67.7395 178.74 43.4961 179.491 24.4009 180.476V175.174Z" fill="#B9A46F"/>
<path d="M24.4009 175.174C43.4961 174.611 67.6927 174.611 92.9657 174.329C114.541 174.141 137.053 174.845 157.599 175.784V179.068C137.053 178.411 114.682 178.271 92.9657 178.505C67.7395 178.74 43.4961 179.491 24.4009 180.476V175.174Z" fill="#B9A46F"/>
<path d="M151.842 177.661C151.842 175.737 155.587 175.174 155.587 178.224C155.68 190.189 155.165 209.192 155.072 222.518C153.714 222.283 152.357 222.002 150.953 221.767C151.14 208.347 151.936 189.673 151.842 177.661Z" fill="#B9A46F"/>
<path d="M122.591 54.8193C120.813 55.8047 120.017 53.4117 121.843 52.5671C127.599 49.9864 130.08 51.9102 131.999 52.8017C133.777 49.0479 139.487 46.1857 144.682 47.0772C147.069 47.4526 147.724 49.2825 145.711 49.5641C138.13 50.6433 136.772 53.5994 134.573 56.8839C134.292 58.0569 132.373 58.7607 131.624 57.4C129.097 54.397 125.68 53.1301 122.591 54.8193Z" fill="white"/>
<path d="M130.594 97.7996C128.956 98.2688 129.378 96.345 130.922 95.8289C136.819 94.0459 138.27 97.0958 138.738 99.1134C145.805 95.8758 149.549 98.5034 149.83 101.553C149.924 102.679 149.783 103.993 148.8 103.993C148.192 104.04 147.817 103.383 147.256 102.21C146.413 100.38 142.201 101.272 139.346 103.055C138.738 103.899 136.772 103.899 136.632 102.586C136.398 98.6442 134.385 96.6266 130.594 97.7996Z" fill="white"/>
<path d="M55.805 61.5291C57.1155 60.6845 56.5539 59.1361 55.0562 59.4646C49.674 60.6376 48.5508 65.0013 49.1124 66.8313C43.4962 66.7844 41.4369 70.4912 41.4369 73.025C41.3433 78.6087 43.6366 73.8696 44.0578 73.1657C45.649 70.4912 48.8784 70.1627 50.6568 70.9604C51.4993 71.3358 52.9033 70.022 52.4821 68.9428C51.7333 66.2213 53.5118 62.9368 55.805 61.5291Z" fill="white"/>
<path d="M29.6428 179.021C29.6428 177.895 31.6552 177.004 32.7785 177.051C33.9485 177.051 35.1654 177.661 35.1654 178.834C34.791 189.766 34.0889 200.981 34.0421 212.054C32.4977 212.007 31.0468 212.007 29.596 211.96C29.3152 200.793 29.3152 188.781 29.6428 179.021Z" fill="#B9A46F"/>
<path fill-rule="evenodd" clip-rule="evenodd" d="M16.8658 1H165.134C173.839 1 181 8.17904 181 16.9065V267.094C181 275.821 173.839 283 165.134 283H16.8658C8.11388 283 1 275.821 1 267.094V16.9065C1 8.17904 8.11388 1 16.8658 1ZM24.4009 24.4609H157.599V259.539H24.4009V24.4609Z" fill="white"/>
<path fill-rule="evenodd" clip-rule="evenodd" d="M21.078 16.1089H34.791V34.3145H21.078V16.1089Z" stroke="white" stroke-width="3.77953"/>
<path fill-rule="evenodd" clip-rule="evenodd" d="M21.078 16.1089H34.791V34.3145H21.078V16.1089Z" fill="white"/>
<path d="M44.0109 43.6519C43.028 44.8249 41.9048 45.6695 40.5475 46.2795C39.1903 46.8426 37.6926 47.1241 36.0077 47.1241C34.3697 47.1241 32.9188 46.9364 31.6084 46.5611C30.2979 46.1388 28.9875 45.4349 27.677 44.4965C26.3666 43.5581 24.9157 42.1973 23.2308 40.4612C20.9375 39.9451 18.9251 39.0536 17.1466 37.7398C15.4149 36.4259 14.0577 34.7837 13.0748 32.8599C12.092 30.9361 11.624 28.7777 11.624 26.4785C11.624 23.7101 12.2792 21.2702 13.5896 19.0649C14.9469 16.9065 16.7722 15.1704 19.1123 13.9504C21.4524 12.7304 24.1201 12.1205 27.0686 12.1205C30.0171 12.1205 32.6848 12.7304 35.0249 13.9504C37.365 15.1704 39.1903 16.9065 40.5475 19.0649C41.858 21.2702 42.5132 23.7101 42.5132 26.4785C42.5132 29.4815 41.7176 32.1561 40.1263 34.4552C38.535 36.7544 36.3822 38.4905 33.6676 39.5697C34.0889 39.992 34.4633 40.2735 34.8845 40.4612C35.2589 40.6489 35.7269 40.6958 36.2417 40.6958C37.599 40.6958 38.8627 40.1328 40.0327 38.9597L44.0109 43.6519ZM27.0686 19.6279C25.8985 19.6279 24.8689 19.9095 23.9797 20.4256C23.0436 20.9887 22.2948 21.7863 21.7332 22.8655C21.2183 23.8978 20.9375 25.0709 20.9375 26.4785C20.9375 27.8393 21.2183 29.0592 21.7332 30.0915C22.2948 31.1238 23.0436 31.9215 23.9797 32.4845C24.8689 33.0476 25.8985 33.3291 27.0686 33.3291C28.2386 33.3291 29.2683 33.0476 30.1575 32.4845C31.0935 31.9215 31.8424 31.1238 32.404 30.0915C32.9188 29.0592 33.1996 27.8393 33.1996 26.4785C33.1996 25.0709 32.9188 23.8978 32.404 22.8655C31.8424 21.7863 31.0935 20.9887 30.1575 20.4256C29.2683 19.9095 28.2386 19.6279 27.0686 19.6279Z" stroke="white" stroke-width="3.77953"/>
<path d="M44.0109 43.6519C43.028 44.8249 41.9048 45.6695 40.5475 46.2795C39.1903 46.8426 37.6926 47.1241 36.0077 47.1241C34.3697 47.1241 32.9188 46.9364 31.6084 46.5611C30.2979 46.1388 28.9875 45.4349 27.677 44.4965C26.3666 43.5581 24.9157 42.1973 23.2308 40.4612C20.9375 39.9451 18.9251 39.0536 17.1466 37.7398C15.4149 36.4259 14.0577 34.7837 13.0748 32.8599C12.092 30.9361 11.624 28.7777 11.624 26.4785C11.624 23.7101 12.2792 21.2702 13.5896 19.0649C14.9469 16.9065 16.7722 15.1704 19.1123 13.9504C21.4524 12.7304 24.1201 12.1205 27.0686 12.1205C30.0171 12.1205 32.6848 12.7304 35.0249 13.9504C37.365 15.1704 39.1903 16.9065 40.5475 19.0649C41.858 21.2702 42.5132 23.7101 42.5132 26.4785C42.5132 29.4815 41.7176 32.1561 40.1263 34.4552C38.535 36.7544 36.3822 38.4905 33.6676 39.5697C34.0889 39.992 34.4633 40.2735 34.8845 40.4612C35.2589 40.6489 35.7269 40.6958 36.2417 40.6958C37.599 40.6958 38.8627 40.1328 40.0327 38.9597L44.0109 43.6519ZM27.0686 19.6279C25.8985 19.6279 24.8689 19.9095 23.9797 20.4256C23.0436 20.9887 22.2948 21.7863 21.7332 22.8655C21.2183 23.8978 20.9375 25.0709 20.9375 26.4785C20.9375 27.8393 21.2183 29.0592 21.7332 30.0915C22.2948 31.1238 23.0436 31.9215 23.9797 32.4845C24.8689 33.0476 25.8985 33.3291 27.0686 33.3291C28.2386 33.3291 29.2683 33.0476 30.1575 32.4845C31.0935 31.9215 31.8424 31.1238 32.404 30.0915C32.9188 29.0592 33.1996 27.8393 33.1996 26.4785C33.1996 25.0709 32.9188 23.8978 32.404 22.8655C31.8424 21.7863 31.0935 20.9887 30.1575 20.4256C29.2683 19.9095 28.2386 19.6279 27.0686 19.6279Z" fill="#525252"/>
<path d="M164.151 247.386H145.244V265.639H164.151V247.386Z" fill="white"/>
<path d="M173.699 276.196C173.091 276.947 172.435 277.557 171.733 278.12C170.984 278.636 170.236 279.105 169.346 279.481C168.504 279.856 167.615 280.091 166.726 280.278C165.836 280.466 164.9 280.56 163.917 280.56C162.045 280.56 160.36 280.325 158.816 279.856C158.02 279.575 157.225 279.246 156.476 278.871C155.727 278.495 154.978 278.026 154.229 277.463C153.481 276.9 152.732 276.29 151.936 275.539C151.281 274.976 150.626 274.319 149.924 273.616C148.894 273.381 147.864 273.053 146.928 272.63C145.758 272.114 144.682 271.457 143.652 270.66C142.623 269.909 141.733 269.064 140.938 268.079C140.142 267.14 139.44 266.108 138.878 264.982C137.755 262.683 137.147 260.243 137.147 257.521C137.147 255.973 137.381 254.472 137.755 253.017C138.13 251.562 138.738 250.202 139.487 248.935C140.282 247.668 141.218 246.495 142.295 245.509C143.371 244.524 144.588 243.633 145.945 242.929C147.303 242.225 148.754 241.709 150.251 241.333C151.749 241.005 153.34 240.817 154.978 240.817C158.301 240.817 161.296 241.521 163.964 242.929C165.321 243.633 166.538 244.524 167.615 245.509C168.738 246.495 169.627 247.668 170.423 248.935C171.218 250.202 171.78 251.562 172.155 253.017C172.576 254.472 172.763 255.973 172.763 257.521C172.763 259.258 172.529 260.9 172.061 262.448C171.593 263.997 170.891 265.498 169.955 266.859C169.721 267.187 169.44 267.563 169.159 267.891L169.674 268.501L173.699 273.193L174.963 274.695L173.699 276.196ZM167.521 275.164C167.896 275.023 168.317 274.789 168.691 274.507L167.568 273.193C167.381 273.287 167.24 273.381 167.053 273.475C166.117 273.897 165.134 274.132 164.105 274.132C163.73 274.132 163.356 274.085 162.981 273.991C162.607 273.944 162.233 273.803 161.858 273.663C161.156 273.381 160.501 272.912 159.892 272.255L157.552 269.721L160.688 268.454C161.858 267.985 162.888 267.422 163.777 266.718C164.666 266.014 165.462 265.17 166.117 264.184C166.772 263.246 167.24 262.214 167.568 261.134C167.896 260.008 168.083 258.788 168.083 257.521C168.083 256.348 167.942 255.269 167.662 254.237C167.381 253.205 166.96 252.266 166.445 251.375C165.883 250.436 165.228 249.639 164.479 248.935C163.683 248.231 162.841 247.621 161.811 247.105C159.846 246.026 157.552 245.509 154.978 245.509C153.668 245.509 152.404 245.65 151.281 245.932C150.158 246.166 149.081 246.589 148.098 247.105C147.116 247.621 146.226 248.231 145.477 248.935C144.729 249.639 144.073 250.436 143.512 251.375C142.95 252.266 142.529 253.205 142.248 254.237C141.967 255.269 141.827 256.348 141.827 257.521C141.827 259.492 142.248 261.275 143.044 262.871C143.465 263.668 143.933 264.419 144.541 265.076C145.103 265.78 145.711 266.39 146.46 266.953C147.209 267.469 148.005 267.938 148.847 268.313C149.69 268.736 150.626 269.017 151.609 269.205L152.311 269.346L152.825 269.862C153.621 270.706 154.37 271.457 155.072 272.114C155.774 272.724 156.382 273.24 156.991 273.663H156.944C157.506 274.038 158.02 274.413 158.629 274.695C159.19 274.976 159.705 275.211 160.173 275.352C161.25 275.68 162.513 275.868 163.917 275.868C164.619 275.868 165.228 275.821 165.836 275.68C166.445 275.586 167.006 275.399 167.521 275.164ZM154.978 253.017C154.229 253.017 153.621 253.158 153.059 253.486C152.779 253.674 152.545 253.862 152.311 254.143V254.096C152.077 254.331 151.889 254.659 151.702 254.988C151.515 255.363 151.374 255.691 151.281 256.114C151.187 256.489 151.14 257.005 151.14 257.521C151.14 258.084 151.187 258.554 151.281 258.976C151.374 259.351 151.515 259.727 151.702 260.055C151.889 260.431 152.077 260.712 152.311 260.947C152.545 261.181 152.779 261.369 153.059 261.557C153.34 261.697 153.621 261.838 153.949 261.932C154.229 262.026 154.604 262.026 154.978 262.026C155.353 262.026 155.68 262.026 156.008 261.932C156.335 261.838 156.616 261.697 156.85 261.557C157.131 261.369 157.412 261.181 157.599 260.947C157.833 260.712 158.02 260.431 158.208 260.055C158.395 259.727 158.535 259.351 158.629 258.976C158.722 258.554 158.769 258.084 158.769 257.521C158.769 257.005 158.722 256.489 158.629 256.114C158.535 255.691 158.395 255.363 158.208 254.988C158.02 254.659 157.833 254.331 157.599 254.096C157.412 253.908 157.178 253.674 156.85 253.533V253.486C156.335 253.158 155.68 253.017 154.978 253.017ZM150.626 249.498C151.936 248.7 153.387 248.325 154.978 248.325C156.523 248.325 157.974 248.7 159.284 249.498C159.892 249.873 160.501 250.389 161.016 250.952C161.531 251.515 161.999 252.125 162.326 252.782C162.701 253.486 162.981 254.237 163.169 255.081C163.356 255.879 163.449 256.677 163.449 257.521C163.449 258.366 163.356 259.211 163.169 260.008C162.981 260.806 162.701 261.557 162.326 262.261C161.999 262.917 161.531 263.527 161.016 264.137C160.501 264.7 159.939 265.17 159.284 265.545C158.629 265.967 157.927 266.249 157.225 266.437C156.476 266.624 155.727 266.718 154.978 266.718C154.183 266.718 153.434 266.624 152.732 266.437C151.983 266.249 151.281 265.967 150.626 265.545C149.97 265.17 149.409 264.654 148.894 264.137C148.379 263.527 147.911 262.917 147.584 262.261C147.209 261.557 146.928 260.806 146.741 260.008C146.554 259.211 146.46 258.366 146.46 257.521C146.46 256.677 146.554 255.879 146.741 255.081C146.928 254.237 147.209 253.486 147.584 252.782C147.911 252.125 148.379 251.515 148.894 250.952C149.409 250.389 149.97 249.92 150.626 249.498Z" fill="white"/>
<path d="M171.921 274.695C170.938 275.868 169.768 276.712 168.41 277.322C167.053 277.932 165.555 278.214 163.917 278.214C162.279 278.214 160.828 277.979 159.518 277.604C158.208 277.182 156.897 276.525 155.587 275.539C154.276 274.601 152.779 273.24 151.14 271.504C148.847 271.035 146.788 270.143 145.056 268.83C143.325 267.469 141.967 265.873 140.984 263.903C140.002 261.979 139.487 259.867 139.487 257.521C139.487 254.8 140.189 252.313 141.499 250.155C142.81 247.949 144.682 246.26 147.022 244.993C149.362 243.773 152.03 243.163 154.978 243.163C157.927 243.163 160.548 243.773 162.888 244.993C165.275 246.26 167.1 247.949 168.41 250.155C169.768 252.313 170.423 254.8 170.423 257.521C170.423 260.524 169.627 263.199 168.036 265.498C166.445 267.844 164.292 269.533 161.577 270.613C161.952 271.035 162.373 271.363 162.747 271.504C163.169 271.692 163.637 271.786 164.105 271.786C165.462 271.786 166.726 271.176 167.896 270.003L171.921 274.695ZM154.978 250.671C153.808 250.671 152.779 250.952 151.843 251.515C150.906 252.078 150.204 252.876 149.643 253.908C149.081 254.941 148.8 256.161 148.8 257.521C148.8 258.929 149.081 260.102 149.643 261.181C150.204 262.214 150.906 263.011 151.843 263.574C152.779 264.09 153.808 264.372 154.978 264.372C156.101 264.372 157.131 264.09 158.067 263.574C159.003 263.011 159.752 262.214 160.267 261.181C160.828 260.102 161.109 258.929 161.109 257.521C161.109 256.161 160.828 254.941 160.267 253.908C159.752 252.876 159.003 252.078 158.067 251.515C157.131 250.952 156.101 250.671 154.978 250.671Z" fill="#525252"/>
<path fill-rule="evenodd" clip-rule="evenodd" d="M104.058 225.709C104.76 225.849 97.646 244.946 106.866 249.92C109.393 251.281 119.034 253.252 122.077 251.609C130.454 247.011 119.783 241.85 113.278 239.879C108.223 238.377 107.802 239.269 110.002 226.6C110.47 224.019 97.7864 224.395 104.058 225.709ZM64.1827 226.553C66.5228 232.184 68.2545 237.814 66.3356 239.785C64.0423 242.084 58.4261 244.102 54.9159 249.686C53.3247 252.219 55.8052 254.941 59.7365 255.316C61.6086 255.504 64.6507 254.331 66.8504 253.017C70.2201 250.952 71.8582 250.389 73.1219 249.029C75.5556 246.354 74.7131 240.254 71.6242 229.556C71.0158 227.398 60.1109 216.793 64.1827 226.553Z" fill="#626262"/>
<path fill-rule="evenodd" clip-rule="evenodd" d="M130.033 202.67C130.828 205.438 132.7 212.852 135.134 216.136C148.145 234.061 34.6973 245.697 41.0155 216.793C41.6707 213.743 43.262 203.702 44.5724 199.104C54.0264 196.242 105.274 193.989 122.404 195.256C131.156 195.866 128.441 196.711 130.033 202.67Z" fill="#0062B6"/>
<path d="M54.0265 199.526C54.2606 198.682 54.401 197.79 55.2434 198.025C56.0858 198.212 56.6007 199.01 56.4134 199.855C54.6818 207.456 52.6225 212.57 49.6272 219.515C48.8315 221.392 45.9766 220.172 46.7723 218.295C49.674 211.444 52.3417 206.94 54.0265 199.526ZM65.3526 200.699C65.3526 199.808 66.0078 199.104 66.8503 199.104C67.7395 199.057 67.8799 199.948 67.9267 200.84C67.9267 202.341 65.025 222.706 64.0422 223.972C62.8721 225.427 60.0172 223.691 61.4212 222.002C61.9829 221.345 65.3994 202.529 65.3526 200.699ZM77.7551 202.295C77.4743 200.277 80.0016 200.042 80.2824 202.06C80.6568 208.019 79.44 218.248 79.5336 224.817C79.5804 227.069 75.9298 226.788 76.117 224.958C76.7723 218.623 78.4103 206.471 77.7551 202.295ZM90.4852 202.248C90.4852 200.183 92.8721 200.183 92.8721 202.248C92.8721 207.972 93.8549 219.327 95.0718 224.676C95.5398 226.694 92.4977 227.351 92.0297 225.38C90.766 219.796 90.4852 208.254 90.4852 202.248ZM105.977 202.67C105.836 201.825 106.398 201.028 107.24 200.887C108.083 200.746 108.878 201.309 109.019 202.154C109.112 202.67 109.159 202.998 109.206 203.327C109.814 207.409 111.967 216.84 114.729 220.547C115.945 222.189 112.997 224.16 111.78 222.518C108.598 218.201 106.772 208.066 106.117 203.796L105.977 202.67ZM118.8 200.512C119.128 198.447 122.17 198.963 121.889 200.981C121.421 203.843 126.148 213.087 128.348 215.433C129.752 216.934 127.178 219.374 125.774 217.92C122.919 214.87 118.192 204.359 118.8 200.512Z" fill="#1B93F8"/>
<path fill-rule="evenodd" clip-rule="evenodd" d="M54.7286 93.5298C45.8362 95.829 48.5507 109.202 57.8643 112.392C77.9423 119.29 82.1077 116.662 104.807 113.847C112.856 112.862 124.838 108.592 122.966 96.6736C121.936 90.2922 111.172 88.9315 104.619 78.7494C96.5694 66.1275 80.376 63.6406 72.6069 78.3271C69.7988 83.6762 59.9704 92.216 54.7286 93.5298Z" fill="#FFE100"/>
<path fill-rule="evenodd" clip-rule="evenodd" d="M75.6957 103.243C58.8003 103.336 49.0655 112.392 38.9563 124.92C37.9266 126.234 21.9672 125.39 17.0062 137.918C10.9688 153.308 26.3198 168.745 42.6536 157.39C42.9344 157.203 41.3432 192.441 41.1092 199.291C41.0156 202.67 41.4836 203.937 47.2402 205.673C66.3822 211.491 116.086 215.902 129.19 203.749C132.373 200.746 129.143 172.03 126.944 158C126.616 155.936 123.012 137.965 128.535 147.631C132.092 153.824 134.245 170.81 135.368 171.138C141.92 172.968 149.409 176.112 150.251 169.543C151.983 155.983 142.903 115.771 108.738 106.856C101.858 105.072 96.8034 102.773 75.6957 103.243Z" fill="#BAEFFF"/>
<path d="M114.027 209.427C113.98 210.787 116.975 210.459 117.069 209.098C117.771 191.221 114.307 167.056 112.295 149.273C110.61 134.539 109.019 121.26 106.538 114.738C104.619 109.812 104.151 110.562 100.267 110.046C97.2715 109.624 93.3869 109.718 90.8128 110.844C90.3916 111.266 89.9704 111.876 90.3448 112.345C90.766 112.768 91.3745 112.768 91.8425 112.392C93.5741 110.797 96.1482 111.876 98.816 112.111C102.186 112.345 103.262 111.642 104.573 115.348C106.585 120.932 108.504 134.399 110.236 149.507C112.248 167.103 114.729 191.737 114.027 209.427ZM101.203 186.153C103.075 186.153 104.573 187.326 104.573 188.781C104.573 190.189 103.075 191.362 101.203 191.362C99.3776 191.362 97.8799 190.189 97.8799 188.781C97.8799 187.326 99.3776 186.153 101.203 186.153ZM68.9096 184.98C70.688 184.98 72.1857 186.106 72.1857 187.514C72.1857 188.922 70.688 190.095 68.9096 190.095C67.0843 190.095 65.6334 188.922 65.6334 187.514C65.6334 186.106 67.0843 184.98 68.9096 184.98ZM71.5305 132.146C73.3557 132.146 74.8066 133.272 74.8066 134.68C74.8066 136.088 73.3557 137.214 71.5305 137.214C69.752 137.214 68.2543 136.088 68.2543 134.68C68.2543 133.272 69.752 132.146 71.5305 132.146ZM101.062 133.695C102.654 133.695 103.964 134.727 103.964 135.994C103.964 137.214 102.654 138.246 101.062 138.246C99.4244 138.246 98.1607 137.214 98.1607 135.994C98.1607 134.727 99.4244 133.695 101.062 133.695ZM100.641 115.161C102.232 115.161 103.496 116.146 103.496 117.366C103.496 118.633 102.232 119.618 100.641 119.618C99.05 119.618 97.7863 118.633 97.7863 117.366C97.7863 116.146 99.05 115.161 100.641 115.161ZM72.7941 115.442C74.2918 115.442 75.5086 116.428 75.5086 117.601C75.5086 118.774 74.2918 119.712 72.7941 119.712C71.2964 119.712 70.0796 118.774 70.0796 117.601C70.0796 116.428 71.2964 115.442 72.7941 115.442Z" fill="#808080"/>
<path fill-rule="evenodd" clip-rule="evenodd" d="M75.3683 101.976C74.5259 101.225 83.231 112.768 87.2092 110.562C88.1452 109.999 95.2591 106.574 98.6756 103.946C100.267 102.726 100.08 101.319 99.9393 101.131C99.5181 101.272 93.8551 100.38 92.9658 100.38C90.2981 100.38 75.5087 98.785 75.3683 101.976Z" fill="#FF8A01"/>
<path fill-rule="evenodd" clip-rule="evenodd" d="M72.1389 80.5324C67.6927 86.5384 67.9267 103.383 82.2949 105.26C90.9532 106.433 100.407 104.228 103.824 100.24C112.997 89.5883 101.811 67.6289 79.0656 76.7787C76.3043 77.9048 72.2325 80.4386 72.1389 80.5324Z" fill="#FFC169"/>
<path fill-rule="evenodd" clip-rule="evenodd" d="M91.6552 82.8785C90.2979 79.6409 87.5366 80.3916 86.8346 82.7846C86.507 83.9108 85.8517 88.6968 86.8814 90.2452C88.0046 91.9813 91.8424 91.7467 92.404 89.3068C92.404 89.2129 92.6848 85.2246 91.6552 82.8785Z" fill="#FF9A2E"/>
<path fill-rule="evenodd" clip-rule="evenodd" d="M96.6162 80.2039C98.4883 80.2039 100.454 81.6116 100.454 83.4884C100.454 85.3653 98.7223 87.1014 96.8503 87.1014C95.025 87.1014 93.1997 85.4122 93.1997 83.5823C93.1997 81.7054 94.7442 80.2039 96.6162 80.2039Z" fill="white"/>
<path fill-rule="evenodd" clip-rule="evenodd" d="M97.2248 81.4239C97.88 81.4239 98.3948 81.94 98.3948 82.5969C98.3948 83.2069 97.88 83.9107 97.2248 83.9107C96.6163 83.9107 95.9143 83.2069 95.9143 82.5969C95.9143 81.94 96.6163 81.4239 97.2248 81.4239Z" fill="#525252"/>
<path fill-rule="evenodd" clip-rule="evenodd" d="M80.0951 80.9078C81.9672 80.9078 83.4648 82.4093 83.4648 84.2392C83.4648 86.1161 81.9672 87.8522 80.0951 87.8522C78.223 87.8522 76.351 86.1161 76.351 84.2392C76.351 82.4093 78.223 80.9078 80.0951 80.9078Z" fill="white"/>
<path fill-rule="evenodd" clip-rule="evenodd" d="M80.9843 82.1747C81.6395 82.1747 82.1544 82.7377 82.1544 83.3477C82.1544 84.0046 81.6395 84.8492 80.9843 84.8492C80.3759 84.8492 79.5334 84.0046 79.5334 83.3477C79.5334 82.7377 80.3759 82.1747 80.9843 82.1747Z" fill="#525252"/>
<path fill-rule="evenodd" clip-rule="evenodd" d="M75.415 87.2891C77.7083 87.2891 79.5336 88.9314 79.5336 90.949C79.5336 92.9197 77.7083 94.562 75.415 94.562C73.1685 94.562 71.3433 92.9197 71.3433 90.949C71.3433 88.9314 73.1685 87.2891 75.415 87.2891Z" fill="#FF956B"/>
<path fill-rule="evenodd" clip-rule="evenodd" d="M102.513 86.0222C104.62 86.0222 106.258 87.5237 106.258 89.3537C106.258 91.1836 104.62 92.6382 102.513 92.6382C100.454 92.6382 98.7693 91.1836 98.7693 89.3537C98.7693 87.5237 100.454 86.0222 102.513 86.0222Z" fill="#FF956B"/>
<path d="M78.6442 93.342C76.5381 91.4182 77.8486 90.1044 80.0951 91.3244C86.3197 94.7497 95.6333 93.0136 100.313 90.949C102.747 89.8698 102.981 92.0282 100.735 93.6705C95.2121 97.7996 86.0857 100.005 78.6442 93.342Z" fill="white"/>
<path fill-rule="evenodd" clip-rule="evenodd" d="M69.7051 42.5727C62.2168 34.3145 54.1669 27.0416 81.4524 17.8919C107.381 9.21133 143.278 36.9421 110.704 47.1241C106.538 48.4379 107.24 48.1095 107.006 51.6755C106.585 57.6815 104.807 65.5644 103.777 74.4326C103.122 80.3917 103.075 80.1102 96.9438 79.3125C90.3448 78.421 83.7457 78.7963 77.4274 79.8755C71.156 81.0017 71.4368 82.4093 71.2964 75.8872C71.156 66.5967 71.4368 57.9161 72.9813 48.5318C73.4025 46.0449 71.2028 44.215 69.7051 42.5727Z" fill="#BAEFFF"/>
<path d="M108.223 48.0625C108.41 49.4233 106.913 49.7517 106.679 48.391C104.526 40.4612 78.5975 44.1211 73.1217 47.4526C71.9517 48.1564 71.2496 46.6549 72.4197 45.9511C73.4493 45.2003 74.8066 44.5434 76.3042 43.9804C76.2106 43.8396 76.1638 43.6988 76.117 43.5581C75.3682 40.9304 71.8112 36.989 69.6116 35.6752C68.4415 34.9714 69.1435 33.8922 70.3136 34.596C73.9641 36.8013 76.7722 39.0536 78.0827 43.3704C79.908 42.8073 81.8736 42.3381 83.9797 42.0096C83.9797 41.9158 83.9329 41.8219 83.9797 41.775C84.0733 38.6782 83.2777 32.4845 82.0141 29.5754C81.4992 28.3554 82.6693 27.8862 83.1373 29.0123C84.4946 32.203 86.1326 38.3028 86.039 41.7281C88.4727 41.3997 91 41.3058 93.3869 41.3527C94.7442 38.162 96.2418 35.816 98.8159 33.4699C100.782 31.8745 101.858 33.0476 99.9392 34.6898C97.7863 36.6136 96.7098 38.8659 95.6334 41.4466C98.7223 41.7281 101.577 42.2912 103.777 43.2765C106.257 40.9774 112.248 38.1151 115.805 38.6782C117.162 38.6782 117.349 39.8982 115.992 39.8512C113.465 39.7574 108.598 41.8689 105.602 44.3088C107.006 45.2942 107.942 46.5141 108.223 48.0625Z" fill="#999999"/>
<path fill-rule="evenodd" clip-rule="evenodd" d="M72.373 100.85C71.6242 105.823 77.5212 115.677 85.7115 117.178C91.983 118.304 99.6117 113.847 103.543 102.867C106.398 94.7497 91.4213 110.281 86.3199 109.389C80.1889 108.31 72.841 97.9404 72.373 100.85Z" fill="#31A8A4"/>
<path fill-rule="evenodd" clip-rule="evenodd" d="M81.9673 111.688C73.4962 111.688 70.1733 128.158 71.0157 128.533C72.2326 129.05 79.9081 123.044 84.8691 118.117C84.4478 114.128 84.167 113.049 81.9673 111.688Z" fill="#56C2BF"/>
<path fill-rule="evenodd" clip-rule="evenodd" d="M101.156 130.41C99.9392 130.926 92.6849 123.56 87.7708 118.633C90.1108 95.782 104.526 128.956 101.156 130.41Z" fill="#56C2BF"/>
<path fill-rule="evenodd" clip-rule="evenodd" d="M89.8301 108.076C92.919 109.296 89.6897 116.381 88.7536 117.272C86.4135 119.524 83.5586 119.524 82.9034 117.272C81.5462 112.533 80.1889 104.275 89.8301 108.076Z" fill="#50DED9"/>
<path fill-rule="evenodd" clip-rule="evenodd" d="M135.321 183.244C133.73 184.605 135.181 189.532 141.593 187.186C156.008 181.977 150.719 168.37 150.438 161.848C150.345 159.314 148.473 158.704 146.601 158.329C143.605 157.766 138.223 157.437 135.087 158.704C132.794 159.642 132.045 159.783 132.139 164.147C132.233 167.432 132.654 171.279 131.156 175.408C130.314 177.567 130.782 180.335 131.999 179.913C136.398 178.317 135.368 176.206 137.708 175.596C138.878 175.314 142.061 177.379 135.321 183.244Z" fill="#FF7530"/>
<path fill-rule="evenodd" clip-rule="evenodd" d="M127.693 189.391C131.484 186.435 137.1 181.837 139.393 179.678C140.47 178.693 141.406 176.628 140.844 175.737C139.066 173.062 137.849 174.47 136.257 175.831C133.59 178.13 128.582 182.681 125.306 185.919C123.527 184.276 121.187 183.854 118.8 184.323C112.997 185.496 106.491 190.517 106.491 190.611C103.122 193.192 103.496 194.881 105.789 197.837C106.772 199.151 108.644 201.778 109.58 202.998C111.733 205.861 111.827 207.221 116.647 205.485C120.158 204.218 124.229 200.981 126.616 197.79C128.395 195.303 129.003 192.394 127.693 189.391Z" fill="#525252"/>
<path d="M115.945 202.201C115.056 202.623 113.137 200.136 114.448 199.479C116.788 198.4 121.187 196.148 122.872 194.271C123.761 193.285 125.259 194.646 124.37 195.631C122.919 197.227 117.864 201.309 115.945 202.201ZM110.329 194.74C108.364 195.303 108.13 192.488 109.44 192.159C112.576 190.658 115.15 189.391 118.098 187.608C119.268 186.904 120.298 188.64 119.128 189.344C116.273 191.033 113.231 193.379 110.329 194.74ZM112.576 198.259C111.359 198.822 110.47 196.476 111.64 195.913C114.682 194.458 118.005 192.675 120.86 190.939C122.03 190.235 123.059 191.972 121.936 192.675C121.421 192.957 120.719 193.426 119.924 193.942C117.771 195.256 114.588 197.321 112.576 198.259Z" fill="#808080"/>
<path d="M12.7004 142.282C19.3931 143.267 26.7878 144.768 29.3619 145.801C30.9532 146.411 31.7488 148.194 31.1404 149.789C30.4852 151.384 28.7067 152.182 27.1154 151.572C24.9625 150.727 18.1295 149.367 11.8112 148.475C7.69264 147.865 7.08422 146.176 7.36503 144.675C7.64584 143.126 8.95629 141.765 12.7004 142.282Z" fill="#525252"/>
<path fill-rule="evenodd" clip-rule="evenodd" d="M49.0189 151.9C43.4495 170.435 62.8254 184.558 83.3246 186.153C102.467 187.702 120.579 180.007 123.013 167.197C129.705 131.865 57.4432 123.935 49.0189 151.9Z" fill="#525252"/>
<path fill-rule="evenodd" clip-rule="evenodd" d="M75.7893 175.408C130.454 187.139 130.594 139.325 75.0873 143.548C66.429 144.205 55.5709 147.396 54.0733 154.997C52.9032 161.144 57.7238 171.514 75.7893 175.408Z" fill="#808080"/>
<path fill-rule="evenodd" clip-rule="evenodd" d="M82.2013 147.396C72.7005 144.909 66.6631 149.695 66.7567 153.214C66.8035 156.827 74.011 162.083 85.103 154.575C86.6007 153.59 87.3027 153.214 88.894 154.434C92.7785 157.39 94.089 157.343 94.6974 156.593C95.5398 155.56 95.259 153.355 93.6678 152.088C91.8425 150.587 91.4681 151.713 93.387 150.071C95.025 148.663 95.3526 147.349 95.1186 146.786C93.9954 144.299 91.0001 146.223 88.0047 147.912C85.805 149.132 84.4946 148.006 82.2013 147.396Z" fill="#FFB500"/>
<path fill-rule="evenodd" clip-rule="evenodd" d="M70.9222 151.15C71.7178 150.962 72.5602 151.431 72.7474 152.276C72.9347 153.074 72.4198 153.918 71.6242 154.106C70.7818 154.294 69.9861 153.824 69.7521 152.98C69.5649 152.182 70.0797 151.337 70.9222 151.15Z" fill="#525252"/>
<path fill-rule="evenodd" clip-rule="evenodd" d="M74.6193 161.426C85.1029 160.956 88.8939 168.229 87.5834 171.795C86.507 174.705 78.3167 176.534 69.7519 166.962C68.5351 165.649 68.1139 164.992 66.2418 165.649C61.5616 167.244 60.3915 166.775 60.0171 165.836C59.5491 164.569 60.532 162.599 62.404 161.895C64.6505 161.05 64.6505 162.27 63.3401 160.065C62.2168 158.235 62.3104 156.874 62.7316 156.405C64.6037 154.434 66.8034 157.203 69.1435 159.736C70.8284 161.613 72.2324 161.52 74.6193 161.426Z" fill="#FFB500"/>
<path fill-rule="evenodd" clip-rule="evenodd" d="M84.0265 168.135C84.6817 168.558 84.8689 169.402 84.4945 170.059C84.0733 170.716 83.2776 170.951 82.6224 170.528C82.014 170.106 81.78 169.262 82.2012 168.558C82.5756 167.901 83.4181 167.713 84.0265 168.135Z" fill="#525252"/>
<path fill-rule="evenodd" clip-rule="evenodd" d="M101.624 158.329C92.3106 157.625 87.49 163.068 88.1452 166.399C88.8472 169.731 96.4291 173.438 105.602 164.522C106.819 163.349 107.381 162.88 109.066 163.725C113.231 165.883 114.448 165.602 114.869 164.804C115.477 163.678 114.822 161.66 113.137 160.769C111.172 159.643 111.031 160.769 112.576 158.892C113.839 157.343 113.933 156.03 113.605 155.56C112.155 153.402 109.674 155.748 107.147 157.813C105.321 159.314 103.917 158.516 101.624 158.329Z" fill="#FFB500"/>
<path fill-rule="evenodd" clip-rule="evenodd" d="M91.7021 163.725C92.451 163.396 93.2934 163.725 93.621 164.476C93.9486 165.226 93.621 166.071 92.8722 166.399C92.1234 166.728 91.2809 166.399 90.9533 165.649C90.6257 164.898 90.9533 164.053 91.7021 163.725Z" fill="#525252"/>
<path fill-rule="evenodd" clip-rule="evenodd" d="M37.1311 145.097C37.5055 149.507 34.2294 152.557 32.4509 154.903C28.5664 160.065 19.2528 158.329 16.2107 151.994C15.5554 150.587 15.5086 148.475 15.7895 146.645C16.1639 144.065 16.4447 142.516 17.4743 140.968C22.9969 132.85 36.5695 138.528 37.1311 145.097Z" fill="#FF7530"/>
<path fill-rule="evenodd" clip-rule="evenodd" d="M33.0593 154.716C38.6288 158.751 42.7941 148.241 35.493 141.625C33.3401 139.654 29.9704 150.587 33.0593 154.716Z" fill="#FF7530"/>
<path d="M32.7317 152.933C32.3104 152.604 33.7145 146.035 34.7441 146.458C37.6927 147.021 41.7176 147.771 43.5429 148.147C45.415 148.569 50.8908 149.836 51.6864 150.117C53.3245 150.727 54.1201 152.557 53.4649 154.153C52.8565 155.748 51.078 156.546 49.4867 155.936C49.0655 155.748 43.8705 154.622 42.2324 154.247C40.454 153.871 35.5866 153.496 32.7317 152.933Z" fill="#525252"/>
</svg>
