<svg width="182" height="284" viewBox="0 0 182 284" fill="none" xmlns="http://www.w3.org/2000/svg">
<path d="M165.177 0.5H16.8231C7.83659 0.5 0.5 7.9059 0.5 16.9065V267.094C0.5 276.094 7.83659 283.5 16.8231 283.5H165.177C174.163 283.5 181.5 276.094 181.5 267.094V16.9065C181.5 7.9059 174.163 0.5 165.177 0.5Z" stroke="black" stroke-opacity="0.3"/>
<path fill-rule="evenodd" clip-rule="evenodd" d="M24.4009 24.4609H157.599V259.539H24.4009V24.4609Z" fill="#009DC9"/>
<path fill-rule="evenodd" clip-rule="evenodd" d="M157.599 115.02C121 95.7351 58.9407 87.1015 24.6818 92.4506V259.539H157.599V115.02Z" fill="#00B3E5"/>
<path fill-rule="evenodd" clip-rule="evenodd" d="M157.599 170.247C119.69 169.684 58.7067 173.015 24.4009 205.954V259.539H157.599V170.247Z" fill="#00C7FF"/>
<path fill-rule="evenodd" clip-rule="evenodd" d="M16.8658 1H165.134C173.839 1 181 8.13211 181 16.9065V267.094C181 275.821 173.839 283 165.134 283H16.8658C8.11388 283 1 275.821 1 267.094V16.9065C1 8.13211 8.11388 1 16.8658 1ZM24.4009 24.4609H157.599V259.539H24.4009V24.4609Z" fill="white"/>
<path d="M28.6132 26.7132C28.0048 26.3847 27.2559 26.0563 26.4135 25.8686L22.4353 24.8832L25.3371 21.9741L29.7364 17.4696V15.0766H14.011V17.3757H21.4525H26.9751L23.0906 21.3641L19.7208 24.7894V27.1824H21.0313C22.5289 27.1824 23.7458 27.4639 24.635 27.9801C25.9923 28.7308 26.6475 29.9039 26.6475 31.4054C26.6475 33.0007 25.8987 34.2207 24.4478 35.0183C23.933 35.2999 23.3246 35.5345 22.6693 35.6752C22.0609 35.816 21.4057 35.8629 20.7505 35.8629C20.0484 35.8629 19.3464 35.816 18.5976 35.7222C17.8488 35.6283 17.1467 35.4876 16.3979 35.2999C15.7427 35.1122 15.1342 34.9245 14.479 34.643L13.309 37.2237H13.3558C14.1046 37.5052 14.9002 37.6929 15.7427 37.8806C17.5211 38.3029 19.2528 38.4906 21.0313 38.4906C22.2949 38.4906 23.465 38.3967 24.4478 38.209C25.4307 38.0213 26.2731 37.7398 27.0687 37.3644C27.8176 36.9891 28.4728 36.6137 28.9876 36.1445C29.5024 35.7222 29.9236 35.253 30.2513 34.7837C30.5789 34.2207 30.8129 33.7045 31.0001 33.1415C31.1405 32.5784 31.2341 32.0153 31.2341 31.4054C31.2341 30.7015 31.1405 30.0446 30.9065 29.4816C30.7193 28.9185 30.4385 28.4024 30.064 27.9332C29.6896 27.4639 29.1748 27.0416 28.6132 26.7132ZM31.0937 22.7718C32.0765 23.3348 32.9658 24.0856 33.6678 24.9302C34.4166 25.8686 34.9782 26.854 35.3527 27.9332C35.7271 29.0124 35.9143 30.1854 35.9143 31.4054C35.9143 32.4376 35.7739 33.4699 35.4463 34.4553C35.1654 35.4406 34.7442 36.3791 34.1826 37.2706C33.621 38.1621 32.8722 39.0067 31.9829 39.7574C31.1405 40.4613 30.1576 41.0713 29.0344 41.5874C27.9112 42.1505 26.6943 42.5258 25.3371 42.8074C23.9798 43.042 22.5757 43.1827 21.0313 43.1827C18.972 43.1827 16.8659 42.9481 14.7598 42.4789C13.7302 42.2443 12.7474 41.9628 11.7645 41.6343C10.8285 41.2589 9.89244 40.8366 9.09681 40.4143L7.22473 39.3351L8.11397 37.3644L11.2497 30.5608L12.3261 28.2147L14.5258 29.4816C14.713 29.5754 14.9002 29.7162 15.0406 29.7631V29.5285V23.851V22.8656L15.7427 22.2087L15.8831 22.0679H11.6709H9.33082V19.7218V12.7305V10.3844H11.6709H32.0765H34.4166V12.7305V18.408V19.3934L33.7614 20.0503L31.0937 22.7718Z" fill="white"/>
<path d="M26.975 23.6164C29.0811 24.1325 30.7191 25.0709 31.8424 26.4317C33.0124 27.8393 33.574 29.4816 33.574 31.4054C33.574 33.0476 33.106 34.5961 32.2168 36.0037C31.3276 37.4583 29.9235 38.5844 28.0514 39.4759C26.1793 40.3674 23.8393 40.8367 21.0311 40.8367C19.1123 40.8367 17.1934 40.602 15.2745 40.1798C13.3556 39.7575 11.6708 39.1475 10.2199 38.3498L13.3556 31.5461C14.4789 32.1561 15.6957 32.6723 17.0062 33.0007C18.2698 33.3761 19.5335 33.5169 20.7503 33.5169C21.78 33.5169 22.6692 33.3292 23.3244 32.9538C23.9797 32.6253 24.3073 32.1092 24.3073 31.4054C24.3073 30.1385 23.184 29.5285 21.0311 29.5285H17.3806V23.851L21.4524 19.7218H11.6708V12.7305H32.0764V18.408L26.975 23.6164Z" fill="#525252"/>
<path d="M156.523 257.803C155.914 257.428 155.165 257.146 154.323 256.912L150.345 255.926L153.2 253.017L157.646 248.512V246.119H141.874V248.419H149.315H154.885L151 252.407L147.63 255.832V258.225H148.941C150.438 258.225 151.609 258.507 152.545 259.023C153.855 259.774 154.51 260.947 154.51 262.448C154.51 264.044 153.808 265.264 152.357 266.061C151.796 266.39 151.234 266.577 150.532 266.718C149.97 266.859 149.315 266.906 148.613 266.906C147.958 266.906 147.256 266.859 146.46 266.765C145.758 266.671 145.056 266.53 144.307 266.343C143.652 266.155 142.997 265.967 142.389 265.733L141.219 268.267H141.265C141.967 268.548 142.763 268.783 143.652 268.97C145.384 269.346 147.162 269.533 148.941 269.533C150.204 269.533 151.328 269.44 152.357 269.252C153.293 269.064 154.183 268.783 154.931 268.407C155.727 268.079 156.382 267.657 156.897 267.234C157.412 266.812 157.833 266.343 158.114 265.827C158.488 265.311 158.722 264.747 158.863 264.184C159.05 263.668 159.097 263.058 159.097 262.448C159.097 261.744 159.003 261.088 158.816 260.524C158.629 259.961 158.348 259.445 157.974 258.976C157.552 258.507 157.084 258.131 156.523 257.803ZM159.003 253.815C159.986 254.425 160.829 255.128 161.577 256.02C162.326 256.912 162.888 257.897 163.262 259.023C163.59 260.102 163.777 261.228 163.777 262.448C163.777 263.481 163.637 264.513 163.356 265.498C163.075 266.484 162.654 267.422 162.092 268.313C161.484 269.252 160.782 270.05 159.892 270.8C159.003 271.504 158.02 272.161 156.944 272.677C155.821 273.193 154.557 273.569 153.2 273.85C151.889 274.085 150.438 274.226 148.941 274.226C146.835 274.226 144.775 273.991 142.669 273.522C141.64 273.334 140.61 273.006 139.674 272.677C138.691 272.302 137.802 271.926 137.006 271.457L135.134 270.378L136.024 268.454L139.159 261.604L140.236 259.258L142.435 260.571C142.623 260.665 142.763 260.759 142.95 260.853V260.571V254.894V253.955L143.652 253.252L143.746 253.111H139.534H137.194V250.765V243.773V241.427H139.534H159.986H162.326V243.773V249.498V250.436L161.624 251.14L159.003 253.815Z" fill="white"/>
<path d="M154.885 254.659C156.991 255.175 158.629 256.114 159.752 257.521C160.875 258.882 161.437 260.524 161.437 262.448C161.437 264.09 161.016 265.639 160.126 267.093C159.19 268.501 157.833 269.674 155.961 270.566C154.042 271.457 151.749 271.88 148.941 271.88C147.022 271.88 145.103 271.692 143.184 271.27C141.265 270.847 139.58 270.237 138.13 269.393L141.265 262.589C142.388 263.246 143.605 263.715 144.869 264.09C146.179 264.419 147.443 264.56 148.613 264.56C149.69 264.56 150.532 264.419 151.187 264.044C151.842 263.668 152.17 263.152 152.17 262.448C152.17 261.228 151.094 260.571 148.941 260.571H145.29V254.894L149.315 250.765H139.534V243.773H159.986V249.498L154.885 254.659Z" fill="#525252"/>
<path fill-rule="evenodd" clip-rule="evenodd" d="M78.1763 142.798C79.8143 148.381 88.7535 144.111 91.0936 139.607C92.7785 136.276 89.2683 134.07 84.7285 131.771C84.6349 131.724 74.0577 128.627 78.1763 142.798Z" fill="#FF7530"/>
<path fill-rule="evenodd" clip-rule="evenodd" d="M29.6428 114.316C28.1451 118.258 26.1327 125.249 29.83 126.328C31.4681 126.797 36.7567 123.372 39.8456 121.824C46.4915 118.492 35.1654 100.052 29.6428 114.316Z" fill="#FF7530"/>
<path fill-rule="evenodd" clip-rule="evenodd" d="M76.9597 131.724C74.0579 129.66 75.0876 125.437 76.0704 122.246C77.0533 119.196 78.2233 116.662 80.2826 118.258C81.2654 119.008 82.1079 120.744 83.6991 125.906C84.8692 129.753 80.7038 134.352 76.9597 131.724Z" fill="#DE6325"/>
<path fill-rule="evenodd" clip-rule="evenodd" d="M85.6647 131.208C83.1374 129.519 87.3496 119.102 86.7411 114.222C85.9455 108.122 92.0298 108.732 95.8207 118.117C98.816 125.483 96.1951 129.331 95.2591 133.413C92.919 143.689 87.49 132.381 85.6647 131.208Z" fill="#DE6325"/>
<path fill-rule="evenodd" clip-rule="evenodd" d="M46.6319 119.994C49.44 117.554 51.8737 116.099 53.1842 114.128C57.1623 108.122 53.699 109.202 49.7208 111.219C47.8019 112.205 45.2746 112.955 43.3558 113.049C42.4197 113.049 41.1093 118.258 46.6319 119.994Z" fill="#DE6325"/>
<path fill-rule="evenodd" clip-rule="evenodd" d="M46.8191 107.747C53.8862 100.803 65.3994 90.4329 48.504 94.7497C39.3776 97.0489 36.4759 99.6765 34.7442 105.401C33.9018 108.122 36.1015 111.688 38.816 112.627C43.4494 114.175 41.4837 112.908 46.8191 107.747Z" fill="#DE6325"/>
<path fill-rule="evenodd" clip-rule="evenodd" d="M29.8768 125.249C30.9064 124.451 33.7613 122.95 35.6334 124.076C36.429 124.545 36.6162 126.094 37.131 127.36C38.1607 129.847 38.9563 131.912 32.9189 133.695C30.8596 130.786 25.103 129.66 29.8768 125.249ZM30.064 125.718L29.6427 124.827Z" fill="#FF9E36"/>
<path fill-rule="evenodd" clip-rule="evenodd" d="M80.9844 149.132C84.4946 147.396 83.6053 145.378 77.8487 142C75.5554 140.639 70.4072 147.161 71.4368 150.117C72.2793 152.417 79.1592 150.024 80.9844 149.132Z" fill="#FF9E36"/>
<path fill-rule="evenodd" clip-rule="evenodd" d="M46.8191 126.047C51.0312 125.953 51.2184 135.947 47.9891 135.431C44.479 134.868 42.6069 126.093 46.8191 126.047Z" fill="white"/>
<path fill-rule="evenodd" clip-rule="evenodd" d="M61.7956 141.531C63.6677 142.892 69.4711 141.296 68.0671 136.369C66.897 132.334 57.5835 138.434 61.7956 141.531Z" fill="white"/>
<path d="M37.1779 139.56C37.9268 139.654 38.5352 140.311 38.4884 141.108C38.3948 141.906 37.7396 142.469 36.9439 142.422C32.5446 142.094 28.192 139.701 24.6818 136.886C20.3761 133.413 17.3339 129.143 17.0063 126.093C16.7723 124.217 18.8784 123.982 19.1124 125.859C19.7676 131.959 30.9065 139.138 37.1779 139.56Z" fill="#DE6325"/>
<path d="M13.9641 139.326C12.7004 137.918 14.1045 136.745 15.3681 138.199C21.078 144.675 32.0764 144.581 39.8455 143.267C40.6412 143.126 41.39 143.642 41.4836 144.44C41.624 145.238 41.1092 145.941 40.3135 146.082C34.1357 147.115 29.1279 147.255 24.8689 146.223C20.4695 145.191 17.1466 142.938 13.9641 139.326Z" fill="#DE6325"/>
<path d="M45.8362 153.027C46.5851 153.261 47.0531 154.059 46.8191 154.81C46.5851 155.56 45.7894 156.03 45.0406 155.795C44.4322 155.607 44.1514 156.077 43.5429 156.077C41.2496 156.03 38.9095 156.64 37.3183 158.329C35.259 160.487 32.7317 164.288 32.6381 167.338C32.5913 169.215 30.5788 169.215 30.6724 167.338C30.766 163.584 32.6849 159.033 35.2122 156.358C37.3183 154.106 40.0796 152.557 43.3089 152.651C44.1514 152.651 44.9938 152.792 45.8362 153.027Z" fill="#DE6325"/>
<path d="M42.1388 148.053C42.8876 148.053 43.6364 148.991 43.6832 149.789C43.6832 150.587 43.028 151.244 42.2792 151.244C35.9609 151.337 23.3244 153.871 20.4695 160.346C19.2059 163.209 18.1294 160.956 18.6442 159.783C22.5288 151.056 33.4336 148.241 42.1388 148.053Z" fill="#DE6325"/>
<path d="M50.2823 157.39C49.7207 156.827 49.7207 155.936 50.2823 155.373C50.8439 154.81 51.7332 154.81 52.2948 155.373C56.2261 158.751 57.677 162.27 57.677 165.789C57.8174 169.168 55.9921 172.358 53.8392 175.549C52.8096 177.098 51.2651 175.924 52.3416 174.329C54.1201 171.608 54.9157 168.605 54.8221 165.93C54.6817 163.256 53.3712 160.44 50.2823 157.39Z" fill="#DE6325"/>
<path d="M55.7582 157.109C55.0093 156.874 54.6349 156.03 54.9157 155.279C55.1966 154.528 55.9922 154.153 56.741 154.434C57.5835 154.716 58.4259 155.185 59.2683 155.701C61.702 157.25 64.0421 159.736 65.493 162.786C67.6459 167.432 66.8034 172.171 64.0889 176.394C63.0593 177.989 61.3744 176.816 62.404 175.221C64.1357 172.452 64.2761 167.009 62.8721 164.006C61.702 161.473 59.7363 159.408 57.7239 158.141C57.0686 157.719 56.4134 157.343 55.7582 157.109Z" fill="#DE6325"/>
<path d="M60.8129 156.452C60.0173 156.358 59.4556 155.654 59.5493 154.857C59.6429 154.106 60.3449 153.496 61.1405 153.59C61.5149 153.637 62.0297 153.777 62.5446 153.965C64.6975 154.763 68.1608 157.015 70.9221 160.3C74.9003 164.945 75.7427 170.106 73.5898 175.971C72.9346 177.754 71.1561 177.285 71.8113 175.502C73.5898 170.622 72.0454 166.024 68.7692 162.13C66.3355 159.314 63.3402 157.344 61.5149 156.64C61.2341 156.546 60.9533 156.452 60.8129 156.452Z" fill="#DE6325"/>
<path d="M67.4119 155.279C66.663 155.138 66.1014 154.387 66.2418 153.637C66.3822 152.839 67.1311 152.323 67.8799 152.417C68.9563 152.604 69.986 152.839 70.9688 153.167C76.8658 154.669 85.571 160.722 84.2137 169.355C83.6521 171.185 82.5757 170.669 82.3885 168.792C81.546 161.191 75.2278 157.062 70.1264 155.889C69.2371 155.607 68.3011 155.42 67.4119 155.279Z" fill="#DE6325"/>
<path fill-rule="evenodd" clip-rule="evenodd" d="M64.9313 138.012C65.6802 138.575 67.8331 138.199 67.131 136.416C66.5226 134.915 63.2465 136.792 64.9313 138.012Z" fill="#4D4D4D"/>
<path fill-rule="evenodd" clip-rule="evenodd" d="M46.2107 128.909C47.2403 129.66 49.8612 129.566 48.6912 127.36C47.7083 125.53 43.8706 127.173 46.2107 128.909Z" fill="#4D4D4D"/>
<path fill-rule="evenodd" clip-rule="evenodd" d="M39.3775 150.352C31.0468 138.669 25.571 126.61 49.7207 132.146C57.443 133.929 87.8643 152.839 67.3182 155.842C66.429 155.936 59.2215 158.282 55.2901 159.22C45.3213 161.613 44.6193 157.766 39.3775 150.352Z" fill="#FF7530"/>
<path fill-rule="evenodd" clip-rule="evenodd" d="M43.8705 142.938C44.8534 143.642 46.3978 143.689 47.0063 142.798C47.6147 141.906 47.3807 140.17 46.351 139.466C45.3214 138.809 43.7301 139.185 43.1217 140.076C42.5133 140.968 42.8409 142.282 43.8705 142.938Z" fill="#DE6325"/>
<path fill-rule="evenodd" clip-rule="evenodd" d="M50.7036 140.827C51.8268 141.578 53.5117 141.625 54.1669 140.639C54.8689 139.654 54.5881 137.777 53.4649 137.026C52.3416 136.276 50.5632 136.651 49.9079 137.636C49.2059 138.622 49.5803 140.076 50.7036 140.827Z" fill="#DE6325"/>
<path fill-rule="evenodd" clip-rule="evenodd" d="M57.5367 153.074C58.7067 153.871 60.4384 153.918 61.1404 152.886C61.8424 151.901 61.5616 149.93 60.3916 149.132C59.2683 148.381 57.3963 148.804 56.6942 149.789C56.039 150.821 56.4134 152.323 57.5367 153.074Z" fill="#DE6325"/>
<path fill-rule="evenodd" clip-rule="evenodd" d="M57.4897 145.097C58.6598 145.941 60.4851 145.988 61.1871 144.956C61.8891 143.877 61.6083 141.859 60.4383 141.062C59.2214 140.264 57.3025 140.686 56.6005 141.718C55.8985 142.798 56.2729 144.299 57.4897 145.097Z" fill="#FF9E36"/>
<path fill-rule="evenodd" clip-rule="evenodd" d="M50.8439 149.179C51.8268 149.883 53.3712 149.977 53.9796 149.038C54.5881 148.147 54.3541 146.411 53.3244 145.754C52.3416 145.05 50.7035 145.425 50.0951 146.317C49.4867 147.255 49.8143 148.522 50.8439 149.179Z" fill="#FF9E36"/>
<path fill-rule="evenodd" clip-rule="evenodd" d="M48.2232 156.64C49.0656 157.203 50.4229 157.296 50.9377 156.499C51.4525 155.748 51.2653 154.247 50.3761 153.684C49.4868 153.074 48.0828 153.402 47.568 154.153C47.0532 154.95 47.334 156.03 48.2232 156.64Z" fill="#FF9E36"/>
<path fill-rule="evenodd" clip-rule="evenodd" d="M64.4166 150.117C65.259 150.68 66.6162 150.774 67.1311 149.977C67.6459 149.226 67.4587 147.724 66.5694 147.114C65.6802 146.551 64.2762 146.88 63.7613 147.631C63.2465 148.428 63.5273 149.507 64.4166 150.117Z" fill="#FF9E36"/>
<path fill-rule="evenodd" clip-rule="evenodd" d="M38.6288 137.308C39.4712 137.871 40.7349 137.918 41.2497 137.167C41.7645 136.416 41.5305 135.009 40.7349 134.446C39.8924 133.882 38.5352 134.164 38.0204 134.915C37.5055 135.666 37.7863 136.698 38.6288 137.308Z" fill="#FF9E36"/>
<path fill-rule="evenodd" clip-rule="evenodd" d="M42.1856 148.897C43.0748 149.461 44.3853 149.554 44.9001 148.757C45.4149 147.959 45.2277 146.504 44.3385 145.894C43.4493 145.331 42.0452 145.66 41.5304 146.411C41.0156 147.208 41.2964 148.288 42.1856 148.897Z" fill="#FF9E36"/>
<path fill-rule="evenodd" clip-rule="evenodd" d="M76.3978 61.4352C79.4399 58.573 85.1497 54.0216 87.5366 57.0715C88.6131 58.3853 87.4898 64.6259 87.209 68.0981C86.6474 75.4648 65.3525 72.0395 76.3978 61.4352Z" fill="#FF8629"/>
<path fill-rule="evenodd" clip-rule="evenodd" d="M88.0981 75.0426C86.9281 78.6086 86.5069 81.377 85.1496 83.3477C81.1715 89.3068 80.7971 85.6938 81.1715 81.2363C81.3587 79.0779 81.1247 76.4972 80.4226 74.6203C80.095 73.7757 84.4008 70.585 88.0981 75.0426Z" fill="#DE6325"/>
<path fill-rule="evenodd" clip-rule="evenodd" d="M76.8658 79.8755C73.1684 89.0722 67.9734 103.665 65.4929 86.3976C64.1825 77.0602 65.4929 73.3534 70.1263 69.5527C72.2792 67.7697 76.4446 68.4266 78.3166 70.6319C81.4992 74.2918 79.6271 72.978 76.8658 79.8755Z" fill="#DE6325"/>
<path fill-rule="evenodd" clip-rule="evenodd" d="M86.6006 57.4938C86.2262 58.7607 85.9454 61.9514 87.677 63.3121C88.4259 63.8751 89.9235 63.4059 91.2808 63.4529C93.9485 63.4529 96.195 63.4059 95.5397 57.1184C92.0764 56.3207 88.8003 51.3939 86.6006 57.4938Z" fill="#FF9E36"/>
<path fill-rule="evenodd" clip-rule="evenodd" d="M134.807 87.7584C135.368 91.606 133.215 92.0752 127.178 89.166C124.791 88.0399 127.272 80.1101 130.267 79.3124C132.654 78.6555 134.526 85.7877 134.807 87.7584Z" fill="#FF9E36"/>
<path fill-rule="evenodd" clip-rule="evenodd" d="M96.5694 72.4619C98.8626 75.981 107.193 70.4912 104.947 68.1451C102.513 65.5644 94.2293 68.9428 96.5694 72.4619Z" fill="white"/>
<path fill-rule="evenodd" clip-rule="evenodd" d="M117.771 76.1687C119.923 76.9195 121.889 82.6439 117.022 84.2393C113.044 85.5531 112.856 74.3857 117.771 76.1687Z" fill="white"/>
<path d="M102.279 56.8369C102.747 57.4469 103.683 57.5407 104.292 57.0246C104.9 56.5554 104.994 55.6639 104.526 55.0539C101.764 51.5817 97.3649 49.2825 93.0123 47.9687C87.7705 46.4203 82.4819 46.2795 79.7674 47.7341C78.1293 48.6256 79.159 50.4555 80.7971 49.564C86.1793 46.7018 98.3946 51.9101 102.279 56.8369Z" fill="#FF9E36"/>
<path d="M88.9873 37.7397C87.1153 37.5051 86.9749 39.3351 88.8469 39.5697C97.4117 40.602 103.543 49.7986 106.819 56.9777C107.146 57.6815 108.036 58.01 108.738 57.6815C109.44 57.3531 109.767 56.5085 109.44 55.7577C106.819 50.0802 104.058 45.8572 100.828 42.9011C97.5053 39.8512 93.8079 38.3497 88.9873 37.7397Z" fill="#FF9E36"/>
<path d="M118.285 56.4146C118.894 56.9308 119.783 56.8369 120.298 56.2269C120.813 55.617 120.719 54.7254 120.111 54.2093C119.596 53.787 119.83 53.3178 119.455 52.8486C118.145 50.9717 117.302 48.6725 117.817 46.3734C118.426 43.4642 120.157 39.2412 122.638 37.4582C124.136 36.3321 123.012 34.6898 121.468 35.816C118.426 38.0213 115.805 42.1504 115.009 45.7634C114.354 48.7664 114.635 51.9571 116.507 54.5847C116.975 55.2416 117.583 55.8516 118.285 56.4146Z" fill="#FF9E36"/>
<path d="M112.061 56.1332C112.482 56.837 113.699 56.8839 114.354 56.4616C115.009 56.0393 115.197 55.1478 114.775 54.4909C111.312 49.1887 106.304 37.3175 110.002 31.3115C111.64 28.637 109.159 29.0124 108.504 30.0916C103.496 38.209 107.334 48.9072 112.061 56.1332Z" fill="#FF9E36"/>
<path d="M124.37 57.6815C123.574 57.4938 122.825 58.01 122.685 58.8076C122.544 59.5584 123.059 60.3091 123.808 60.4968C128.816 61.8106 132.56 61.013 135.462 59.0423C138.317 57.2592 139.861 53.9747 141.312 50.4086C142.014 48.6725 140.189 48.0626 139.487 49.7987C138.223 52.8486 136.211 55.1947 133.917 56.6023C131.671 58.01 128.582 58.4792 124.37 57.6815Z" fill="#FF9E36"/>
<path d="M127.225 62.3737C126.57 61.9045 125.68 62.0453 125.212 62.7022C124.744 63.3121 124.931 64.2506 125.54 64.6729C126.289 65.189 127.131 65.6582 128.02 66.0805C130.688 67.2067 134.058 67.7697 137.334 67.2067C142.389 66.3621 145.805 63.0306 147.818 58.3854C148.52 56.6492 146.601 55.8985 145.852 57.6346C144.588 60.6845 140.142 63.8283 136.913 64.3913C134.151 64.8136 131.343 64.3444 129.144 63.406C128.442 63.1245 127.786 62.7491 127.225 62.3737Z" fill="#FF9E36"/>
<path d="M129.518 66.9251C129.003 66.3151 128.067 66.2213 127.506 66.7374C126.897 67.2536 126.803 68.192 127.318 68.7551C127.599 69.0835 127.974 69.412 128.442 69.7404C130.314 71.1011 134.151 72.6965 138.364 73.1657C144.448 73.8226 149.175 71.5704 152.779 66.5028C153.902 64.9544 152.498 63.7344 151.421 65.2828C148.426 69.5058 143.699 70.8196 138.691 70.3035C134.947 69.8812 131.671 68.5204 130.08 67.3943C129.799 67.2066 129.612 67.0189 129.518 66.9251Z" fill="#FF9E36"/>
<path d="M132.279 73.0719C131.718 72.5088 130.828 72.4619 130.22 73.025C129.658 73.5411 129.658 74.4795 130.173 75.0426C130.922 75.8403 131.718 76.5441 132.513 77.201C137.1 81.1894 146.975 85.0369 153.34 79.031C154.51 77.5295 153.527 76.9195 151.842 77.811C145.103 81.4709 138.129 78.5148 134.292 74.9488C133.543 74.3388 132.888 73.7288 132.279 73.0719Z" fill="#FF9E36"/>
<path fill-rule="evenodd" clip-rule="evenodd" d="M116.647 80.7201C117.49 81.0016 118.426 83.0193 116.507 83.4416C114.963 83.77 114.682 80.0163 116.647 80.7201Z" fill="#4D4D4D"/>
<path fill-rule="evenodd" clip-rule="evenodd" d="M98.5819 70.3504C99.7519 70.7727 101.203 72.978 98.7223 73.2595C96.663 73.4941 95.8674 69.365 98.5819 70.3504Z" fill="#4D4D4D"/>
<path fill-rule="evenodd" clip-rule="evenodd" d="M112.388 52.567C98.0669 52.2855 85.0559 54.5377 103.215 71.4296C109.019 76.8256 141.78 91.3714 132.653 72.6496C132.279 71.8519 130.126 64.579 128.675 60.7783C125.072 51.1594 121.515 52.7547 112.388 52.567Z" fill="#DE6325"/>
<path fill-rule="evenodd" clip-rule="evenodd" d="M101.764 57.6815C102.841 58.1038 103.683 59.2768 103.309 60.2153C102.934 61.1537 101.484 61.9044 100.407 61.4822C99.3307 61.0129 98.7691 59.5584 99.1435 58.6199C99.5179 57.6815 100.688 57.2592 101.764 57.6815Z" fill="#FF9E36"/>
<path fill-rule="evenodd" clip-rule="evenodd" d="M108.176 64.7667C109.533 65.2828 110.61 66.7374 110.142 67.9574C109.674 69.1304 107.802 70.0689 106.491 69.5058C105.134 68.9897 104.385 67.1128 104.853 65.9398C105.368 64.7198 106.819 64.2036 108.176 64.7667Z" fill="#FF8629"/>
<path fill-rule="evenodd" clip-rule="evenodd" d="M119.643 70.0219C121.187 70.6319 122.404 72.3211 121.889 73.6818C121.327 75.0426 119.221 76.0749 117.724 75.4649C116.179 74.808 115.337 72.7434 115.898 71.3827C116.413 70.0219 118.098 69.412 119.643 70.0219Z" fill="#FF8629"/>
<path fill-rule="evenodd" clip-rule="evenodd" d="M129.097 89.2129C134.292 86.6322 137.193 96.1573 135.462 100.896C134.151 104.416 130.126 103.289 125.399 101.506C125.306 101.46 115.899 95.6881 129.097 89.2129Z" fill="#FF8629"/>
<path fill-rule="evenodd" clip-rule="evenodd" d="M120.158 95.782C116.647 95.0313 114.214 98.6443 112.576 101.553C110.938 104.275 109.861 106.903 112.435 107.325C113.652 107.559 115.477 106.949 120.392 104.65C123.995 102.961 124.604 96.7674 120.158 95.782Z" fill="#DE6325"/>
<path fill-rule="evenodd" clip-rule="evenodd" d="M125.586 102.586C122.638 101.835 117.864 111.97 113.839 114.785C108.831 118.305 113.371 122.434 122.825 118.915C130.267 116.146 131.296 111.642 133.73 108.169C139.721 99.4889 127.739 103.102 125.586 102.586Z" fill="#DE6325"/>
<path fill-rule="evenodd" clip-rule="evenodd" d="M115.898 62.3737C116.834 62.796 117.63 63.8283 117.302 64.6729C116.928 65.5644 115.618 66.2213 114.682 65.799C113.699 65.4236 113.184 64.1098 113.511 63.2183C113.839 62.3737 114.916 61.9983 115.898 62.3737Z" fill="#FF9E36"/>
<path fill-rule="evenodd" clip-rule="evenodd" d="M121.14 56.9777C122.03 57.353 122.778 58.3384 122.451 59.1361C122.123 59.9337 120.906 60.5437 119.97 60.1684C119.081 59.793 118.566 58.573 118.894 57.7753C119.221 56.9777 120.204 56.6023 121.14 56.9777Z" fill="#FF9E36"/>
<path fill-rule="evenodd" clip-rule="evenodd" d="M125.774 64.2036C126.944 64.6728 127.927 65.9397 127.505 67.0189C127.084 68.0512 125.493 68.8488 124.323 68.3796C123.153 67.9104 122.497 66.2681 122.919 65.2359C123.34 64.2036 124.604 63.7344 125.774 64.2036Z" fill="#FF8629"/>
<path fill-rule="evenodd" clip-rule="evenodd" d="M110.984 55.7577C112.154 56.2269 113.09 57.4938 112.669 58.526C112.248 59.5583 110.657 60.3091 109.533 59.8399C108.363 59.4176 107.708 57.8222 108.129 56.7899C108.551 55.7577 109.814 55.2884 110.984 55.7577Z" fill="#FF8629"/>
<path fill-rule="evenodd" clip-rule="evenodd" d="M128.254 73.6818C129.237 74.0572 129.986 75.0895 129.658 75.981C129.331 76.8256 127.973 77.4825 127.037 77.1071C126.055 76.7317 125.54 75.371 125.867 74.5264C126.195 73.6349 127.271 73.2595 128.254 73.6818Z" fill="#FF9E36" stroke="#FF8629" stroke-width="0.288"/>
<path fill-rule="evenodd" clip-rule="evenodd" d="M132.56 186.013C134.245 189.86 136.632 196.758 132.981 198.025C131.343 198.588 125.914 195.444 122.732 194.036C115.945 191.08 126.289 172.03 132.56 186.013Z" fill="#FF8629"/>
<path fill-rule="evenodd" clip-rule="evenodd" d="M115.899 192.582C112.95 190.283 110.423 188.969 109.019 187.045C104.76 181.274 108.27 182.165 112.342 183.948C114.307 184.84 116.835 185.497 118.8 185.45C119.736 185.45 121.281 190.564 115.899 192.582Z" fill="#E67033"/>
<path fill-rule="evenodd" clip-rule="evenodd" d="M115.056 180.335C107.614 173.766 95.5864 164.006 112.716 167.432C121.889 169.262 124.978 171.748 126.99 177.379C127.973 180.054 125.961 183.76 123.293 184.793C118.753 186.576 120.625 185.262 115.056 180.335Z" fill="#E67033"/>
<path fill-rule="evenodd" clip-rule="evenodd" d="M132.888 196.945C131.858 196.195 128.91 194.881 127.084 196.054C126.289 196.57 126.195 198.118 125.774 199.432C124.838 201.966 124.183 204.078 130.314 205.579C132.186 202.529 137.896 201.075 132.888 196.945ZM132.7 197.415L133.075 196.523Z" fill="#FF9E36"/>
<path fill-rule="evenodd" clip-rule="evenodd" d="M83.0905 223.456C79.4868 221.955 80.2356 219.843 85.8518 216.183C88.0515 214.682 93.5273 220.969 92.6381 223.926C91.9829 226.319 84.9158 224.254 83.0905 223.456Z" fill="#FF9E36"/>
<path fill-rule="evenodd" clip-rule="evenodd" d="M115.992 198.588C111.78 198.775 112.154 208.723 115.337 208.066C118.8 207.315 120.204 198.447 115.992 198.588Z" fill="white"/>
<path fill-rule="evenodd" clip-rule="evenodd" d="M101.858 214.87C100.08 216.324 94.1358 215.057 95.3059 210.037C96.2887 205.954 105.883 211.585 101.858 214.87Z" fill="white"/>
<path d="M126.382 211.632C125.587 211.726 125.025 212.476 125.119 213.227C125.212 214.025 125.961 214.588 126.71 214.494C131.109 213.931 135.321 211.303 138.691 208.3C142.763 204.594 145.618 200.183 145.805 197.086C145.899 195.209 143.793 195.115 143.699 196.992C143.325 203.092 132.56 210.834 126.382 211.632Z" fill="#E67033"/>
<path d="M149.502 210.177C150.672 208.676 149.222 207.644 148.052 209.098C142.716 215.902 131.671 216.324 123.855 215.48C123.059 215.386 122.357 215.949 122.264 216.746C122.17 217.497 122.732 218.201 123.527 218.295C129.752 218.999 134.807 218.858 139.019 217.638C143.325 216.371 146.507 213.978 149.502 210.177Z" fill="#E67033"/>
<path d="M118.379 225.521C117.63 225.802 117.256 226.6 117.49 227.351C117.77 228.102 118.566 228.524 119.315 228.242C119.923 228.055 120.251 228.477 120.813 228.43C123.153 228.242 125.493 228.758 127.178 230.354C129.331 232.418 132.045 236.078 132.279 239.128C132.466 241.005 134.432 240.911 134.292 238.987C134.011 235.281 131.811 230.823 129.19 228.289C126.944 226.178 124.089 224.77 120.906 225.005C120.064 225.052 119.221 225.239 118.379 225.521Z" fill="#E67033"/>
<path d="M121.842 220.36C121.047 220.406 120.345 221.392 120.391 222.189C120.438 222.987 121.094 223.597 121.889 223.55C128.161 223.363 140.891 225.192 144.12 231.527C145.524 234.295 146.46 231.996 145.899 230.823C141.593 222.33 130.501 220.078 121.842 220.36Z" fill="#E67033"/>
<path d="M114.167 230.119C114.728 229.556 114.682 228.618 114.073 228.101C113.512 227.538 112.576 227.585 112.061 228.195C108.317 231.808 107.053 235.374 107.24 238.894C107.287 242.272 109.253 245.322 111.546 248.419C112.669 249.92 114.12 248.653 112.997 247.152C111.078 244.524 110.142 241.568 110.095 238.847C110.095 236.172 111.265 233.31 114.167 230.119Z" fill="#E67033"/>
<path d="M108.691 230.119C109.44 229.838 109.767 228.993 109.44 228.242C109.112 227.538 108.27 227.163 107.568 227.492C106.725 227.82 105.93 228.336 105.087 228.899C102.747 230.588 100.547 233.169 99.2838 236.313C97.365 241.052 98.4414 245.744 101.39 249.826C102.466 251.375 104.104 250.108 103.028 248.559C101.109 245.885 100.735 240.442 101.952 237.392C102.981 234.811 104.853 232.653 106.772 231.245C107.427 230.776 108.083 230.401 108.691 230.119Z" fill="#E67033"/>
<path d="M103.636 229.744C104.385 229.603 104.947 228.852 104.806 228.101C104.666 227.304 103.917 226.788 103.168 226.882C102.747 226.975 102.279 227.116 101.764 227.351C99.6582 228.242 96.2885 230.682 93.7144 234.107C89.9703 238.94 89.4086 244.149 91.8891 249.92C92.638 251.656 94.3696 251.093 93.6208 249.357C91.5615 244.571 92.9188 239.879 95.9609 235.844C98.2542 232.841 101.109 230.729 102.888 229.978C103.215 229.838 103.449 229.744 103.636 229.744Z" fill="#E67033"/>
<path d="M96.9437 228.899C97.6925 228.711 98.2073 227.961 98.0201 227.21C97.8797 226.412 97.1309 225.943 96.3352 226.084C95.2588 226.318 94.2759 226.6 93.2931 226.975C87.4897 228.805 79.1121 235.281 80.9374 243.867C81.5926 245.65 82.6223 245.087 82.7159 243.21C83.1371 235.515 89.2213 231.104 94.2759 229.65C95.1652 229.321 96.0544 229.087 96.9437 228.899Z" fill="#E67033"/>
<path fill-rule="evenodd" clip-rule="evenodd" d="M98.5349 211.538C97.8329 212.148 95.68 211.867 96.2884 210.037C96.7565 208.535 100.173 210.224 98.5349 211.538Z" fill="#4D4D4D"/>
<path fill-rule="evenodd" clip-rule="evenodd" d="M116.741 201.45C115.758 202.248 113.137 202.295 114.214 200.042C115.056 198.165 118.987 199.62 116.741 201.45Z" fill="#4D4D4D"/>
<path fill-rule="evenodd" clip-rule="evenodd" d="M124.744 222.518C132.42 210.412 137.24 198.072 113.418 204.875C105.789 207.034 76.3977 227.538 97.0841 229.462C97.9733 229.509 105.321 231.48 109.253 232.184C119.362 234.061 119.83 230.213 124.744 222.518Z" fill="#FFB500"/>
<path fill-rule="evenodd" clip-rule="evenodd" d="M121.327 216.793C120.204 217.638 118.426 217.779 117.724 216.793C116.975 215.808 117.115 213.837 118.239 212.993C119.362 212.148 121.234 212.476 121.983 213.462C122.732 214.447 122.451 215.949 121.327 216.793Z" fill="#FF9E36"/>
<path fill-rule="evenodd" clip-rule="evenodd" d="M107.147 225.098C105.883 226.037 103.87 226.225 103.028 225.098C102.186 223.972 102.373 221.72 103.636 220.782C104.9 219.843 107.053 220.172 107.895 221.298C108.738 222.424 108.41 224.113 107.147 225.098Z" fill="#FF9E36"/>
<path fill-rule="evenodd" clip-rule="evenodd" d="M107.895 217.216C106.585 218.201 104.526 218.436 103.636 217.263C102.747 216.09 102.981 213.743 104.292 212.758C105.602 211.773 107.802 212.148 108.691 213.321C109.58 214.494 109.206 216.23 107.895 217.216Z" fill="#FF9E36"/>
<path fill-rule="evenodd" clip-rule="evenodd" d="M84.1669 218.952C84.7753 224.723 74.9001 224.207 71.0623 220.922C68.2074 218.529 70.6411 215.104 73.964 211.257C74.0108 211.21 82.6224 204.265 84.1669 218.952Z" fill="#FF8629"/>
<path fill-rule="evenodd" clip-rule="evenodd" d="M81.078 208.254C82.9969 205.251 80.4228 201.731 78.3167 199.151C76.2574 196.711 74.1981 194.787 72.9345 197.039C72.2792 198.118 72.1856 200.042 72.7005 205.438C73.0281 209.427 78.6443 212.148 81.078 208.254Z" fill="#E67033"/>
<path fill-rule="evenodd" clip-rule="evenodd" d="M72.8876 211.069C74.5724 208.582 66.7097 200.558 65.4461 195.819C63.8548 189.86 58.4258 192.769 58.5194 202.858C58.5662 210.834 62.4039 213.368 64.8376 216.793C70.9219 225.427 71.6239 212.899 72.8876 211.069Z" fill="#E67033"/>
<path fill-rule="evenodd" clip-rule="evenodd" d="M98.6286 224.301C97.6457 225.052 96.1013 225.192 95.446 224.348C94.7908 223.456 94.978 221.72 95.9609 221.016C96.8969 220.266 98.5818 220.547 99.237 221.392C99.8454 222.283 99.6114 223.597 98.6286 224.301Z" fill="#FFE100"/>
<path fill-rule="evenodd" clip-rule="evenodd" d="M115.009 221.626C113.839 222.518 111.967 222.706 111.171 221.626C110.376 220.547 110.563 218.436 111.733 217.544C112.95 216.653 114.962 216.981 115.758 218.06C116.554 219.093 116.226 220.688 115.009 221.626Z" fill="#FFE100"/>
<path fill-rule="evenodd" clip-rule="evenodd" d="M115.477 228.805C114.682 229.415 113.418 229.556 112.856 228.805C112.342 228.101 112.482 226.694 113.278 226.084C114.073 225.474 115.43 225.708 115.945 226.412C116.507 227.116 116.273 228.195 115.477 228.805Z" fill="#FFE100"/>
<path fill-rule="evenodd" clip-rule="evenodd" d="M120.719 223.034C119.783 223.738 118.285 223.925 117.63 223.034C116.975 222.189 117.115 220.5 118.098 219.749C119.081 219.046 120.672 219.327 121.328 220.172C121.983 221.016 121.702 222.33 120.719 223.034Z" fill="#FF9E36"/>
<path fill-rule="evenodd" clip-rule="evenodd" d="M125.399 209.661C124.651 210.224 123.48 210.365 123.012 209.661C122.498 209.004 122.638 207.691 123.387 207.127C124.089 206.611 125.353 206.799 125.867 207.456C126.335 208.113 126.148 209.098 125.399 209.661Z" fill="#FFE100"/>
<path fill-rule="evenodd" clip-rule="evenodd" d="M114.635 211.82C113.699 212.524 112.201 212.664 111.546 211.82C110.891 210.975 111.031 209.239 112.014 208.535C112.997 207.831 114.588 208.066 115.243 208.957C115.899 209.802 115.618 211.069 114.635 211.82Z" fill="#FFE100"/>
</svg>
