<svg width="182" height="284" viewBox="0 0 182 284" fill="none" xmlns="http://www.w3.org/2000/svg">
<path d="M165.177 0.5H16.8231C7.83659 0.5 0.5 7.9059 0.5 16.9065V267.094C0.5 276.094 7.83659 283.5 16.8231 283.5H165.177C174.163 283.5 181.5 276.094 181.5 267.094V16.9065C181.5 7.9059 174.163 0.5 165.177 0.5Z" stroke="black" stroke-opacity="0.3"/>
<path fill-rule="evenodd" clip-rule="evenodd" d="M31.8505 259.539C28.9481 259.07 26.3733 257.615 24.4071 255.598V24.4609H157.593V259.539H31.8505Z" fill="#00B6ED"/>
<path fill-rule="evenodd" clip-rule="evenodd" d="M148.277 241.005L146.545 242.929V248.606H138.961V225.662H146.545V233.967L154.082 225.662H157.593V231.058L153.333 235.75L157.593 241.474V248.606H154.035L148.277 241.005Z" fill="white"/>
<path fill-rule="evenodd" clip-rule="evenodd" d="M24.4071 112.111C56.0066 106.011 113.026 105.636 157.593 117.929V259.539H31.8505C28.9481 259.07 26.3733 257.615 24.4071 255.598V112.111Z" fill="#008AB0"/>
<path fill-rule="evenodd" clip-rule="evenodd" d="M24.4071 155.091C62.1392 149.32 109.047 148.475 157.593 157.156V259.539H31.8505C28.9481 259.07 26.3733 257.615 24.4071 255.598V155.091Z" fill="#007599"/>
<path d="M114.664 131.349C112.979 132.193 112.324 129.894 114.103 129.19C119.627 126.985 121.874 128.862 123.653 129.847C125.432 126.328 131.003 123.888 135.824 124.92C138.071 125.437 138.586 127.173 136.714 127.36C129.505 128.017 128.1 130.786 125.9 133.742C125.619 134.868 123.7 135.431 123.091 134.164C120.844 131.208 117.661 129.894 114.664 131.349Z" fill="white"/>
<path d="M83.8608 66.4559C82.4564 67.2536 81.8478 65.5175 83.2522 64.7198C87.9804 61.9514 89.9466 62.186 91.2574 63.5468C93.2704 59.4646 97.905 59.4176 101.744 59.2769C103.429 59.23 104.084 60.5907 102.54 60.9661C98.9349 61.7168 93.6918 61.9514 92.7555 66.7844L92.5682 66.8313C92.381 67.7697 91.5851 68.192 90.9765 67.1597C89.3849 64.3914 86.2483 65.0483 83.8608 66.4559Z" fill="white"/>
<path d="M134.326 106.199C133.39 107.231 132.828 105.729 133.718 104.697C136.948 100.85 139.335 102.304 140.553 103.524C144.017 98.1281 147.762 98.3158 149.307 100.287C149.869 100.99 150.337 101.976 149.681 102.445C149.26 102.726 148.698 102.445 147.809 101.835C146.404 100.99 143.876 103.477 142.706 105.964C142.659 106.809 141.302 107.653 140.646 106.856C138.727 104.228 136.433 103.712 134.326 106.199Z" fill="white"/>
<path d="M61.7178 49.8456C58.7685 51.8163 58.1599 49.3764 60.6879 47.1241C62.42 45.6226 65.8843 44.2619 69.5826 44.7311C71.8296 39.1474 77.026 37.4113 80.2094 37.4113C82.5501 37.4113 83.7672 38.3498 81.6606 39.3351C75.3407 42.3381 73.5618 45.2003 73.2341 46.7957C72.8596 48.5787 73.6086 49.3295 69.3485 48.6725C65.9311 48.2033 63.5904 48.5787 61.7178 49.8456Z" fill="white"/>
<path d="M145.796 148.053C146.826 147.959 146.919 146.88 145.983 146.645C142.378 145.801 140.506 148.053 140.318 149.32C136.995 147.678 134.701 149.32 133.999 150.821C132.36 154.106 135.075 151.947 135.497 151.619C137.182 150.493 139.242 151.244 140.084 152.229C140.459 152.698 141.676 152.323 141.723 151.525C142.051 149.695 144.064 148.241 145.796 148.053Z" fill="white"/>
<path d="M43.4604 116.193C44.3967 115.818 44.2094 114.785 43.2263 114.785C39.5748 114.926 38.3109 117.601 38.4513 118.868C34.7998 118.164 33.0677 120.322 32.6932 121.918C31.991 125.53 34.0508 122.762 34.3785 122.34C35.7361 120.838 37.8895 121.026 38.9663 121.73C39.4812 122.105 40.5579 121.401 40.3707 120.651C40.2302 118.774 41.7751 116.897 43.4604 116.193Z" fill="white"/>
<path fill-rule="evenodd" clip-rule="evenodd" d="M24.4071 232.7C59.0495 225.145 119.393 218.858 157.593 215.855V259.539H24.4071V232.7Z" fill="#E0BE68"/>
<path d="M24.4071 169.965C40.4643 167.338 66.5866 166.071 93.7387 165.93C115.929 165.836 138.821 166.493 157.593 167.854V171.185C138.914 169.825 115.975 169.168 93.7387 169.262C66.3057 169.355 40.043 171.936 24.4071 175.221V169.965Z" fill="#B9A46F"/>
<path d="M32.5995 170.763C32.5527 169.731 36.6255 169.355 36.6723 170.528C37.8895 190.048 41.4474 209.567 43.0859 229.134C41.8687 229.321 40.6984 229.509 39.528 229.744C37.8427 210.13 33.8167 190.236 32.5995 170.763Z" fill="#B9A46F"/>
<path d="M130.488 168.135C130.488 167.197 131.283 166.493 132.173 166.493C133.109 166.54 133.811 167.291 133.765 168.229C133.39 181.039 134.186 194.177 134.186 207.081C134.186 209.286 131.096 209.286 131.096 207.081C131.096 194.177 130.066 181.086 130.488 168.135Z" fill="#B9A46F"/>
<path d="M157.593 225.099C121.827 231.011 78.2433 241.897 46.0352 247.809C41.2133 248.7 33.0209 250.249 24.4071 252.032" stroke="#B9A46F" stroke-width="1.88976"/>
<path d="M157.593 244.196C153.239 245.744 148.605 246.542 144.111 248.278C136.152 251.422 125.619 255.738 116.256 259.539H111.06C121.312 255.363 134.092 250.155 143.408 246.495C148.137 244.618 153.005 243.726 157.593 242.084V244.196Z" fill="#B9A46F"/>
<path fill-rule="evenodd" clip-rule="evenodd" d="M16.8231 1H165.177C173.884 1 181 8.17904 181 16.9065V267.094C181 275.821 173.884 283 165.177 283H16.8231C8.11573 283 1 275.821 1 267.094V16.9065C1 8.17904 8.11573 1 16.8231 1ZM24.407 24.4609H157.593V259.539H24.407V24.4609Z" fill="white"/>
<path d="M19.632 40.8366C17.4785 40.8366 15.5592 40.4613 13.827 39.8043C12.0949 39.1005 10.6437 38.0682 9.52014 36.7544L14.4824 30.8423C15.2315 31.7807 15.9337 32.4376 16.6359 32.9068C17.3381 33.3291 18.0871 33.5637 18.8361 33.5637C19.8192 33.5637 20.5683 33.2822 21.0364 32.7192C21.5514 32.1561 21.8322 31.2646 21.8322 30.1385V19.7218H12.5162V12.7305H30.961V29.6223C30.961 33.3291 29.9779 36.1444 28.0585 38.0213C26.1391 39.8982 23.3303 40.8366 19.632 40.8366Z" stroke="white" stroke-width="3.77953"/>
<path d="M19.632 40.8366C17.4785 40.8366 15.5592 40.4613 13.827 39.8043C12.0949 39.1005 10.6437 38.0682 9.52014 36.7544L14.4824 30.8423C15.2315 31.7807 15.9337 32.4376 16.6359 32.9068C17.3381 33.3291 18.0871 33.5637 18.8361 33.5637C19.8192 33.5637 20.5683 33.2822 21.0364 32.7192C21.5514 32.1561 21.8322 31.2646 21.8322 30.1385V19.7218H12.5162V12.7305H30.961V29.6223C30.961 33.3291 29.9779 36.1444 28.0585 38.0213C26.1391 39.8982 23.3303 40.8366 19.632 40.8366Z" fill="#525252"/>
<path d="M146.404 274.226C145.187 274.226 144.017 274.132 142.94 273.944H142.893C141.817 273.756 140.74 273.428 139.71 273.006C137.603 272.161 135.871 270.941 134.514 269.299L133.203 267.797L134.514 266.296L139.476 260.431L141.302 258.225L143.081 260.478C143.361 260.853 143.642 261.134 143.923 261.416C144.204 261.651 144.438 261.838 144.672 261.979C144.813 262.12 145 262.167 145.14 262.214C145.281 262.261 145.421 262.307 145.608 262.307C145.889 262.307 146.03 262.261 146.077 262.214C146.077 262.214 146.123 262.12 146.123 262.026C146.217 261.838 146.217 261.557 146.217 261.228V253.111H139.242H136.901V250.765V243.82V241.474H139.242H157.687H160.027V243.82V260.665C160.027 262.777 159.746 264.7 159.185 266.343C158.576 268.079 157.687 269.58 156.423 270.753C154.082 273.099 150.711 274.226 146.404 274.226ZM143.736 269.299C144.579 269.486 145.468 269.533 146.404 269.533C149.447 269.533 151.741 268.83 153.192 267.422C153.895 266.718 154.41 265.874 154.784 264.841V264.794C155.159 263.668 155.346 262.261 155.346 260.665V246.166H141.582V248.419H148.558H150.898V250.765V261.228C150.898 261.979 150.805 262.73 150.618 263.387C150.384 264.137 150.056 264.747 149.541 265.31C148.558 266.437 147.247 267 145.608 267C145 267 144.391 266.906 143.83 266.718C143.221 266.53 142.706 266.296 142.144 265.92C141.91 265.78 141.629 265.592 141.395 265.404L139.476 267.61C140.084 268.032 140.74 268.407 141.442 268.689C142.144 268.97 142.893 269.158 143.736 269.299Z" fill="white"/>
<path d="M146.404 271.879C144.251 271.879 142.285 271.551 140.553 270.847C138.821 270.143 137.416 269.158 136.293 267.797L141.255 261.932C142.004 262.824 142.706 263.527 143.408 263.95C144.111 264.419 144.86 264.654 145.609 264.654C146.545 264.654 147.294 264.325 147.809 263.762C148.324 263.199 148.558 262.354 148.558 261.228V250.765H139.242V243.82H157.687V260.665C157.687 264.419 156.75 267.234 154.831 269.064C152.912 270.941 150.103 271.879 146.404 271.879Z" fill="#525252"/>
<path fill-rule="evenodd" clip-rule="evenodd" d="M88.7295 116.803C101.042 105.495 102.54 102.867 111.715 91.3245C119.346 81.7524 122.482 72.7904 125.947 74.5265C128.334 75.6995 130.254 78.984 135.544 82.7847C136.573 83.4885 136.854 84.99 136.246 86.4915C132.173 96.6736 111.575 116.803 105.863 119.994C97.6241 124.592 90.9297 133.413 84.6098 120.369C84.1417 119.431 88.1209 117.366 88.7295 116.803Z" fill="white"/>
<path d="M96.5943 112.205C93.4578 109.577 97.2029 105.729 100.059 108.122C103.757 111.266 105.349 111.923 109.562 114.316C113.073 116.24 109.796 121.12 106.332 119.149C101.744 116.615 100.62 115.583 96.5943 112.205ZM103.851 103.243C100.901 100.568 104.038 96.9551 106.987 99.6296C111.668 103.477 113.354 103.946 118.55 106.856C121.219 108.31 118.644 113.8 114.103 110.609C114.103 110.609 104.74 103.993 103.851 103.243ZM111.06 94.3275C107.923 91.8406 111.575 87.993 114.711 90.4799C119.393 94.2336 121.593 94.6559 126.649 97.9405C129.645 99.9112 126.228 104.979 123.325 103.055C118.129 99.6766 115.929 98.1751 111.06 94.3275ZM117.754 85.1308C114.711 82.4093 118.269 79.641 121.031 82.0809C124.683 85.3185 127.07 85.6469 131.518 88.3684C135.497 90.9022 133.484 96.2982 128.615 93.2483C123.981 90.386 121.78 88.6969 117.754 85.1308Z" fill="#1B93F8"/>
<path fill-rule="evenodd" clip-rule="evenodd" d="M55.3044 123.419C52.5891 124.17 46.9715 126.187 42.4305 129.003C32.0378 135.478 35.6425 139.654 41.1197 147.771C44.9116 153.449 47.7205 156.546 51.4188 167.197C52.4487 170.059 58.3473 192.3 59.5644 193.051C60.0794 193.379 100.995 193.52 100.527 186.482C99.1691 167.525 104.272 141.718 100.012 123.419C96.0326 106.433 66.6334 120.322 55.3044 123.419Z" fill="white"/>
<path d="M56.6152 182.447C52.7297 183.385 52.402 178.036 56.2876 177.097C69.3019 173.954 85.7804 171.748 99.216 170.294C100.901 170.106 102.399 171.326 102.587 173.015C102.727 174.704 101.51 176.206 99.8714 176.347C86.9976 177.754 69.021 179.491 56.6152 182.447ZM51.0444 162.739C47.2524 164.006 45.3331 158.423 49.125 157.156C65.1822 151.807 83.2524 144.018 99.9651 142.094C103.944 141.625 104.646 147.678 100.667 148.147C85.2186 149.93 66.2121 157.672 51.0444 162.739ZM54.4618 172.452C50.1549 173.813 49.0782 168.37 52.6361 167.244C67.3825 162.552 84.5632 159.173 99.8714 156.311C103.382 155.842 104.366 161.895 100.995 162.317C86.8571 164.945 67.8038 168.182 54.4618 172.452ZM49.8272 150.821C48.376 151.666 46.5034 151.197 45.6608 149.742C44.8181 148.288 45.2863 146.411 46.7375 145.566C50.9976 143.032 55.8662 141.155 67.3825 137.683C79.2733 134.164 91.2576 131.067 99.6842 129.706C103.663 129.096 104.6 135.102 100.667 135.712C92.4748 137.026 80.8181 140.076 69.0678 143.548C57.9729 146.88 53.666 148.569 49.8272 150.821ZM44.35 139.982C40.7453 141.812 38.7323 137.073 42.2902 135.243C60.3136 126.093 75.8558 121.167 95.8454 118.164C99.7778 117.554 102.072 123.466 98.1393 124.029C77.9625 127.079 62.5138 130.739 44.35 139.982Z" fill="#1B93F8"/>
<path fill-rule="evenodd" clip-rule="evenodd" d="M37.9364 138.387C37.2341 140.733 37.0937 141.109 37.8895 143.877C39.4344 149.414 72.3915 170.341 84.5163 180.664C91.6789 186.763 93.6919 184.37 94.8154 183.432C97.9988 180.711 106.378 173.297 101.323 169.872C89.4786 161.848 63.3096 143.032 50.1548 132.944C45.8011 129.613 39.1067 134.446 37.9364 138.387Z" fill="white"/>
<path d="M87.9337 182.869C85.8739 184.887 81.6606 181.227 83.8609 179.068C87.6528 174.751 91.2107 171.983 94.1132 166.916C96.2666 164.241 100.246 166.118 98.2796 169.59C95.0963 175.127 92.4279 178.364 87.9337 182.869ZM79.6476 175.831C77.2601 178.317 72.7191 174.282 75.1535 171.748C78.8986 167.619 81.4734 165.086 84.7504 160.159C86.9506 156.827 91.2107 159.549 89.1977 162.974C86.108 168.135 83.6736 171.42 79.6476 175.831ZM70.1912 168.37C67.3823 171.232 62.9818 167.009 65.7907 164.1C70.0507 159.69 71.4552 158.798 75.2471 153.918C76.8388 150.915 81.052 153.777 79.9285 156.452C76.1366 161.848 74.4981 163.537 70.1912 168.37ZM60.2666 161.613C57.645 164.663 52.5891 160.91 55.2107 157.86C58.8622 153.543 61.6242 150.727 66.1184 146.598C68.5995 144.299 72.2042 146.317 70.4721 149.179C67.476 154.2 64.0117 157.109 60.2666 161.613ZM49.4057 154.904C46.7373 157.907 42.1496 154.153 44.7712 151.15C48.4695 146.927 51.5592 143.455 55.9597 139.325C59.1899 136.322 62.6073 139.138 60.3602 142.469C57.1301 147.349 53.1977 150.587 49.4057 154.904ZM42.1964 146.317C39.528 149.32 35.502 145.425 38.1236 142.375C41.8219 138.199 44.303 135.478 48.7035 131.49C51.5592 129.894 55.0234 130.598 52.7764 133.929C49.5462 138.809 46.0351 141.906 42.1964 146.317Z" fill="#1B93F8"/>
<path fill-rule="evenodd" clip-rule="evenodd" d="M46.6905 98.6913C41.2601 96.1575 38.6853 98.9259 41.6346 102.023C42.5241 103.008 44.6775 104.697 45.5202 105.917C48.7035 110.703 50.8102 109.765 50.857 107.372C50.9038 104.51 48.329 99.3951 46.6905 98.6913Z" fill="#FF9A2E"/>
<path fill-rule="evenodd" clip-rule="evenodd" d="M74.5448 89.1192C77.3536 86.9608 79.273 85.1778 79.5539 89.4007C79.6475 90.7615 79.0858 94.7967 78.7581 97.1428C77.775 105.213 67.8972 94.3275 74.5448 89.1192Z" fill="#FF9A2E"/>
<path d="M48.5163 90.5738C49.7335 90.6207 50.6698 91.653 50.623 92.9199C50.623 94.1868 49.7335 96.439 48.5632 96.3921C46.7374 96.3452 45.0053 95.3598 43.32 94.4214C42.5241 93.9521 41.7751 93.4829 41.0261 93.2014C36.6256 91.0899 30.4461 94.4683 24.4071 99.3012V92.0753C32.4591 86.9608 38.1704 87.1485 42.5241 88.8846C44.584 89.7292 46.6438 90.5269 48.5163 90.5738Z" fill="#525252"/>
<path d="M45.4734 84.9901C46.5501 84.3801 47.8609 84.8024 48.4227 85.8816C48.9845 87.0077 48.61 88.4154 47.5801 89.0254C45.1925 90.3861 42.9923 89.3069 40.2303 87.9931C32.6932 84.3801 31.3356 84.3801 24.4071 88.9315V83.0194C32.1782 77.2949 38.2172 82.5032 42.3369 84.9432C44.0222 85.7408 45.0521 85.2247 45.4734 84.9901Z" fill="#525252"/>
<path fill-rule="evenodd" clip-rule="evenodd" d="M43.2732 94.3744C48.6568 98.4566 54.5554 124.592 57.5047 127.501C57.6451 127.595 64.714 129.19 69.8168 127.407C72.766 126.422 75.0599 124.311 76.4644 122.621C78.6646 119.9 78.056 119.759 77.6347 116.381C76.6516 107.653 74.0768 86.6323 73.6087 86.3039C68.7869 82.9724 42.1028 90.1045 43.2732 94.3744Z" fill="#FFC169"/>
<path fill-rule="evenodd" clip-rule="evenodd" d="M53.385 92.6383C55.8661 92.4506 57.0833 94.4683 57.2706 96.4859C57.411 98.4566 55.6789 99.9112 53.1977 100.099C50.7634 100.24 48.9845 98.5974 48.844 96.5797C48.7036 94.609 50.9038 92.826 53.385 92.6383Z" fill="white"/>
<path fill-rule="evenodd" clip-rule="evenodd" d="M53.9466 93.1076C55.0234 93.0606 55.9596 93.7645 56.0064 94.7498C56.1001 95.7352 55.2574 96.5798 54.1807 96.6267C53.104 96.7205 52.1677 95.9698 52.1209 95.0314C52.0273 94.046 52.8699 93.2014 53.9466 93.1076Z" fill="#626262"/>
<path fill-rule="evenodd" clip-rule="evenodd" d="M71.4551 87.8523C73.6086 87.7116 74.7321 89.26 74.8726 91.1369C75.013 93.0137 73.0468 94.656 70.8934 94.7968C68.7399 94.9375 67.476 93.3891 67.3355 91.5122C67.1951 89.6823 69.3017 88.04 71.4551 87.8523Z" fill="white"/>
<path fill-rule="evenodd" clip-rule="evenodd" d="M71.502 88.4623C72.4383 88.3685 73.2809 89.0254 73.3277 89.87C73.3745 90.7146 72.6723 91.4184 71.736 91.5122C70.7998 91.5591 70.0039 90.9492 69.9571 90.1046C69.8635 89.26 70.5657 88.5092 71.502 88.4623Z" fill="#626262"/>
<path fill-rule="evenodd" clip-rule="evenodd" d="M64.4798 103.243C70.0975 102.961 70.2847 99.9581 68.8803 96.1575C68.0377 93.9052 66.3056 90.5738 65.1352 89.1661C62.2327 85.6939 58.2535 85.0839 57.879 90.8553C57.7386 92.6383 58.2535 95.5475 58.8621 98.5036C59.9388 104.134 60.9688 103.712 64.4798 103.243Z" fill="#FF9A2E"/>
<path d="M52.4956 107.513C51.1848 106.903 51.9338 103.524 53.6659 104.04C60.7817 105.26 66.5398 106.105 72.8129 102.351C74.7791 101.225 74.6386 104.463 73.5619 106.058C70.6594 110.234 59.9858 115.02 52.4956 107.513Z" fill="white"/>
<path fill-rule="evenodd" clip-rule="evenodd" d="M40.6046 90.6676C42.524 92.7321 42.9453 94.3744 43.273 94.3744C43.3198 94.3744 43.3198 94.3744 43.3198 94.3744C43.4135 94.3744 43.5071 94.3275 43.6475 94.1867C43.7412 94.0929 43.9284 93.9521 44.0689 93.9052C48.5162 92.0752 72.2509 87.7584 73.6553 86.4446C73.8426 85.2247 73.0936 82.3155 73.1404 79.2656C73.1872 77.3418 50.2483 83.7232 41.6813 86.4446C35.6423 88.3215 38.9193 88.8376 40.6046 90.6676Z" fill="#525252"/>
<path d="M57.0832 85.4593C57.7854 85.9754 58.0195 86.1631 58.4876 85.2716C58.9558 84.2862 59.8921 82.6909 61.2028 82.9255C61.8114 83.0193 62.1391 83.3009 62.5136 83.6293C63.0286 84.0516 64.1989 84.5678 67.6632 82.3155C69.3485 81.2363 69.5358 82.0809 68.6463 82.8786C64.8075 86.1162 63.0286 86.5385 61.8114 85.1308C61.2965 84.4739 60.8283 84.7554 60.1729 85.5062C59.143 86.7731 58.9558 88.8846 57.0364 87.3361C55.3043 85.8816 53.8999 86.4916 53.2913 87.1954C52.9168 87.6646 52.355 88.603 51.9337 89.3069C51.2783 90.433 50.4356 91.043 49.7802 89.8699C48.7971 88.2746 52.5891 82.0809 57.0832 85.4593Z" fill="#FFE100"/>
<path fill-rule="evenodd" clip-rule="evenodd" d="M38.5917 88.0399C34.5189 89.4476 31.7569 83.9108 33.0209 79.5002C35.4552 70.8666 57.5046 71.5704 64.714 71.1481C83.9545 70.0689 76.7452 79.3125 72.7192 79.1248C67.1951 78.8902 48.3759 84.6147 38.5917 88.0399Z" fill="white"/>
<path fill-rule="evenodd" clip-rule="evenodd" d="M151.507 48.5318C138.68 45.2003 123.7 64.4383 108.251 60.403C116.022 48.7195 120.189 44.4965 124.823 31.8276C151.648 28.7777 149.635 18.0326 166.3 26.2439C160.402 36.0506 157.312 40.9774 151.507 48.5318Z" fill="#FF7530"/>
<path fill-rule="evenodd" clip-rule="evenodd" d="M145 61.8576C144.672 62.5614 139.71 62.4676 139.101 63.4529C133.343 72.7434 149.307 68.2859 143.596 79.0779L142.285 77.5295C141.161 78.2333 138.165 83.5824 133.39 82.3624C116.958 78.2802 130.815 63.9221 139.476 59.4646C143.783 57.2123 147.434 57.2592 145 61.8576Z" fill="#FF9A2E"/>
<path d="M134.233 85.1308C132.501 87.43 128.288 84.427 130.347 81.7055C140.553 66.5967 154.878 43.3704 164.522 25.8217C165.224 24.7425 166.675 24.4609 167.705 25.1648C168.782 25.9155 169.437 27.9801 168.735 29.0123C167.143 31.4054 162.555 38.9598 157.359 47.9687C149.401 61.7168 137.51 80.814 134.233 85.1308Z" fill="#B06F00"/>
<path fill-rule="evenodd" clip-rule="evenodd" d="M147.528 61.4822C148.699 62.186 149.635 63.406 149.588 66.5967C149.401 71.9927 147.154 78.3741 143.081 78.8433C141.864 79.031 140.459 78.6087 138.914 77.3887C133.952 73.4942 134.842 68.1451 138.353 64.0629C140.412 61.6699 144.438 59.6523 147.528 61.4822Z" fill="#FFC169"/>
<path d="M143.221 76.591C142.098 75.7464 134.748 72.6965 135.918 71.3827C136.714 70.5381 141.817 73.4941 143.923 74.1041C147.2 75.0895 144.485 77.5763 143.221 76.591ZM147.996 70.0689C148.932 70.8196 147.528 72.4619 146.498 71.8988C145.328 71.2888 136.527 68.7081 136.854 67.3943C137.322 65.3767 147.481 69.6466 147.996 70.0689ZM148.324 65.1421C149.26 65.8459 148.043 67.6758 147.107 66.9251C145.749 65.799 144.064 65.2828 142.098 64.8605C140.787 64.579 139.804 64.2975 139.804 63.969C139.804 63.0775 140.646 63.0306 141.817 63.0775C144.251 63.1713 147.341 64.3444 148.324 65.1421Z" fill="#FF9A2E"/>
<path fill-rule="evenodd" clip-rule="evenodd" d="M70.7529 259.727C70.7529 258.929 70.7997 258.085 70.8465 257.24C70.8465 257.146 74.3107 234.014 75.9492 223.832C76.7919 218.389 79.6475 215.808 79.6943 221.814C79.6943 226.788 78.4304 246.683 78.2899 259.727H106.004C104.599 238.049 100.152 186.529 99.5435 186.576C79.7411 187.983 73.5617 186.294 57.0832 190.846C52.9167 194.834 45.0051 238.8 43.3198 259.727H70.7529Z" fill="#525252"/>
<path fill-rule="evenodd" clip-rule="evenodd" d="M59.1431 194.271C70.6125 193.379 100.339 190.893 100.48 188.218C100.62 186.153 99.45 185.027 99.2627 182.306C99.3095 183.15 71.4084 184.793 60.0794 185.59C55.9597 185.825 56.0066 185.403 55.5384 188.781C54.7894 194.552 53.4786 194.74 59.1431 194.271Z" fill="#B06F00"/>
<path fill-rule="evenodd" clip-rule="evenodd" d="M73.0935 186.435C72.6253 188.687 73.1403 191.643 75.9959 192.957C77.6812 193.708 84.282 192.91 86.2014 191.502C88.2144 190.001 89.2911 187.092 86.7632 183.526C85.8269 182.165 82.3626 182.587 78.1494 183.103C75.5746 183.432 73.702 183.432 73.0935 186.435Z" fill="#FFB500"/>
<path fill-rule="evenodd" clip-rule="evenodd" d="M153.942 213.603C151.086 219.656 137.51 230.072 120.516 237.955C114.852 240.536 113.307 240.489 111.341 239.222C104.365 234.671 92.7556 241.099 86.8102 227.163C97.4838 220.312 119.393 208.347 127.726 199.198C128.287 199.291 153.848 213.509 153.942 213.603Z" fill="#FF7530"/>
<path fill-rule="evenodd" clip-rule="evenodd" d="M102.072 193.145C109.141 195.632 111.949 193.52 112.043 190.893C112.137 187.749 108.579 183.62 107.643 182.634C109.515 184.98 111.2 187.186 112.511 187.608C113.401 187.89 115.133 186.106 113.728 183.854C113.588 183.667 109.656 176.488 102.961 173.391C92.6152 168.605 91.2108 189.25 102.072 193.145Z" fill="#FFC169"/>
<path d="M107.081 186.482C105.161 185.403 105.629 182.024 108.719 183.76C125.76 194.459 142.987 203.561 154.457 210.74C156.61 211.585 155.44 215.667 152.865 214.682C150.524 213.79 132.22 202.764 119.393 194.693C112.979 190.658 108.251 187.139 107.081 186.482Z" fill="#B06F00"/>
</svg>
