<svg width="182" height="284" viewBox="0 0 182 284" fill="none" xmlns="http://www.w3.org/2000/svg">
<path d="M165.177 0.5H16.8231C7.83659 0.5 0.5 7.9059 0.5 16.9065V267.094C0.5 276.094 7.83659 283.5 16.8231 283.5H165.177C174.163 283.5 181.5 276.094 181.5 267.094V16.9065C181.5 7.9059 174.163 0.5 165.177 0.5Z" stroke="black" stroke-opacity="0.3"/>
<path fill-rule="evenodd" clip-rule="evenodd" d="M157.265 24.4609C157.359 24.5078 157.499 24.5548 157.593 24.6017V259.539H24.407V24.4609H157.265Z" fill="#2DDAFC"/>
<path fill-rule="evenodd" clip-rule="evenodd" d="M24.407 130.363C90.6957 142.938 99.7308 181.696 157.593 197.79V52.0509C134.233 45.3411 108.064 43.9334 87.1846 44.4495C70.2379 44.8718 45.0052 37.9274 24.407 50.1271V130.363Z" fill="#00CAF2"/>
<path fill-rule="evenodd" clip-rule="evenodd" d="M24.407 70.3035C63.7308 70.2097 91.4447 83.3947 130.581 100.193C137.884 103.29 147.575 106.856 157.593 109.249V24.6017C157.499 24.5548 157.359 24.5078 157.265 24.4609H24.407V70.3035Z" fill="#00B6ED"/>
<path fill-rule="evenodd" clip-rule="evenodd" d="M24.407 200.042C48.2353 210.693 101.65 250.108 124.636 259.539H24.407V200.042Z" fill="#70ECFF"/>
<path fill-rule="evenodd" clip-rule="evenodd" d="M16.8231 1H165.177C173.884 1 181 8.13211 181 16.9065V267.094C181 275.821 173.884 283 165.177 283H16.8231C8.11573 283 1 275.821 1 267.094V16.9065C1 8.13211 8.11573 1 16.8231 1ZM24.407 24.4609H157.593V259.539H24.407V24.4609Z" fill="white"/>
<path d="M38.1704 37.8336H36.8596V40.1797V42.5258H34.5189H25.5774H23.2367V40.1797V37.8336H11.346H9.00525V35.4876V29.6223V28.8716L9.42658 28.2616L21.0833 11.4167L21.7855 10.3844H23.0026H32.4591H36.8128L34.4253 14.0443L29.2757 21.7395H34.5189H36.8596V24.0856V25.9624H38.1704H40.5111V28.3085V35.4876V37.8336H38.1704ZM34.5189 33.1415H35.8297V30.6546H34.5189H32.1782V28.3085V26.4317H28.199V28.3085V30.6546H25.8583H22.1132H17.7595L20.1938 26.9947L23.5176 22.021V21.7395H23.658L28.1054 15.0766H24.2198L13.6867 30.3262V33.1415H25.5774H27.9181V35.4876V37.8336H32.1782V35.4876V33.1415H34.5189Z" fill="white"/>
<path d="M38.1704 35.4876H34.5189V40.1797H25.5774V35.4876H11.3459V29.6223L23.0026 12.7305H32.4591L22.1132 28.3085H25.8583V24.0856H34.5189V28.3085H38.1704V35.4876Z" fill="#525252"/>
<path d="M166.113 268.877H164.802V271.27V273.616H162.462H153.52H151.179V271.27V268.877H139.289H136.948V266.53V260.665V259.961L137.369 259.351L148.979 242.46L149.681 241.427H150.899H160.402H164.756L162.321 245.087L157.218 252.829H162.462H164.802V255.175V257.005H166.113H168.454V259.351V266.53V268.877H166.113ZM162.462 264.184H163.772V261.698H162.462H160.121V259.351V257.522H156.095V259.351V261.698H153.754H150.056H145.702L148.09 258.085L151.414 253.064V252.829H151.601L156.048 246.12H152.116L141.629 261.369V264.184H153.52H155.861V266.53V268.924H160.121V266.53V264.184H162.462Z" fill="white"/>
<path d="M166.113 266.53H162.462V271.27H153.52V266.53H139.289V260.665L150.899 243.773H160.402L150.056 259.351H153.754V255.175H162.462V259.351H166.113V266.53Z" fill="#525252"/>
<path fill-rule="evenodd" clip-rule="evenodd" d="M94.3003 102.351C93.6917 103.102 82.9713 90.0107 82.9245 89.8699C81.7073 77.9987 86.2015 76.8256 90.5552 77.2948C99.169 78.2333 105.723 88.3215 94.3003 102.351Z" fill="#ADF4FF"/>
<path fill-rule="evenodd" clip-rule="evenodd" d="M51.9805 68.7551C59.4239 76.6379 53.8062 65.2359 76.277 61.1068C63.0286 69.5058 53.1508 89.5414 72.0169 105.213C75.4811 108.076 92.8959 124.78 84.0013 132.381C81.4733 134.539 75.3875 137.73 72.6255 132.85C70.7997 129.706 72.1573 127.736 72.9532 126.61C75.0598 123.654 79.1326 124.827 79.039 127.783C78.9454 129.706 75.762 128.064 75.3407 130.598C75.0598 132.287 76.3238 133.366 79.2731 132.1C82.1755 130.833 82.9245 127.642 81.8478 124.967C79.9285 120.088 70.5188 116.85 67.1482 125.953C65.5097 130.41 68.5526 139.748 76.3238 140.733C84.563 141.812 89.8998 137.777 92.9896 130.926C95.6112 125.108 94.1599 116.662 89.0572 111.407C71.4551 93.1075 98.3732 74.9488 97.8582 55.8985C97.4837 41.8689 83.1586 31.7807 70.3316 42.6666C66.7269 45.7634 63.0286 53.1301 63.7308 58.6669C63.8712 59.5584 60.2666 61.9514 54.2275 62.9837C48.3758 63.9691 48.1417 64.6729 51.9805 68.7551Z" fill="#FF9E36"/>
<path fill-rule="evenodd" clip-rule="evenodd" d="M70.9871 50.784C73.0469 51.394 74.3109 53.4586 73.7959 55.4762C73.2341 57.4938 70.8934 59.1361 68.8336 58.5261C66.7738 57.9631 65.7439 55.4293 66.2589 53.4116C66.8206 51.394 68.9273 50.221 70.9871 50.784Z" fill="white"/>
<path d="M77.026 45.0596C77.6346 46.0449 77.3537 47.3587 76.3706 47.9687C75.3875 48.5787 74.0767 48.2503 73.4681 47.2649C72.6255 45.9042 71.1274 44.1681 69.3485 42.5727C67.8036 41.1651 66.0715 39.9451 64.5266 39.2413C63.4967 38.7251 63.0286 37.5052 63.4967 36.426C64.0117 35.3468 65.2756 34.9245 66.3056 35.3937C68.2249 36.2852 70.3316 37.7867 72.1573 39.4759C74.2171 41.3058 75.9961 43.3704 77.026 45.0596Z" fill="#DE6325"/>
<path d="M75.7152 34.9244C75.1534 33.8921 75.4811 32.6252 76.511 32.0622C77.4941 31.4991 78.8049 31.8276 79.3667 32.8599C80.3966 34.6429 81.2392 36.7544 81.8478 38.6312C82.6437 41.1181 83.065 43.4642 82.8777 44.4026C82.6905 45.5287 81.6138 46.2795 80.4434 46.0918C79.3199 45.9041 78.5708 44.778 78.7581 43.6519C78.8049 43.3234 78.4772 41.8688 77.8218 39.945C77.3069 38.2559 76.5578 36.4259 75.7152 34.9244Z" fill="#DE6325"/>
<path d="M91.117 57.6815C89.9935 57.9161 88.87 57.1654 88.6359 56.0393C88.4018 54.9131 89.1509 53.787 90.2744 53.5524C91.6788 53.2709 93.4109 52.7547 95.0962 52.1917C97.1561 51.4409 99.2159 50.5963 100.48 50.0333C101.557 49.5171 102.821 49.9864 103.289 51.0186C103.804 52.0978 103.336 53.3178 102.306 53.8339C100.948 54.4439 98.7477 55.3824 96.4539 56.1331C94.6281 56.79 92.7087 57.3531 91.117 57.6815Z" fill="#DE6325"/>
<path d="M88.87 64.8137C87.6996 64.626 86.9038 63.5468 87.091 62.4207C87.2783 61.2477 88.3082 60.45 89.4785 60.6377C90.2276 60.7315 91.8192 60.6846 93.645 60.5438C95.5176 60.4031 97.6242 60.1685 99.3095 59.7931C100.433 59.6054 101.557 60.3561 101.791 61.4823C101.978 62.6084 101.229 63.7345 100.105 63.9691C98.2328 64.3445 95.9857 64.626 93.9727 64.7668C91.8661 64.9545 89.8999 64.9545 88.87 64.8137Z" fill="#DE6325"/>
<path d="M87.6996 46.3265C86.9506 47.218 85.6398 47.3118 84.7503 46.5611C83.8609 45.7634 83.7672 44.4496 84.5631 43.5581C85.2185 42.8073 85.8739 41.6343 86.5293 40.1797C87.1378 38.7251 87.6528 37.0359 88.1209 35.0183C88.355 33.8922 89.4785 33.1414 90.6021 33.423C91.7256 33.6576 92.4746 34.7837 92.2406 35.9098C91.7256 38.1621 91.117 40.1328 90.4148 41.822C89.5722 43.6988 88.6359 45.2473 87.6996 46.3265Z" fill="#DE6325"/>
<path d="M95.892 41.1651C96.5474 40.1798 97.8582 39.9451 98.8413 40.6021C99.7776 41.259 100.058 42.5728 99.4031 43.5112C97.5305 46.2327 94.7685 48.1095 92.6151 49.5641C91.866 50.0803 91.2106 50.5025 90.7425 50.8779C89.853 51.6287 88.5422 51.5348 87.7932 50.6433C87.0442 49.7518 87.1378 48.3911 88.0273 47.6403C88.6359 47.1711 89.3849 46.655 90.2744 46.045C92.1001 44.825 94.5344 43.1827 95.892 41.1651Z" fill="#DE6325"/>
<path d="M85.2185 71.1481C84.095 70.8197 83.4396 69.6935 83.7205 68.5674C84.0482 67.4413 85.1717 66.7844 86.2952 67.0659C87.2315 67.3005 89.8999 67.9574 92.1938 68.3797C93.5982 68.6613 94.8154 68.8489 95.424 68.802C96.5943 68.7551 97.5774 69.6935 97.5774 70.8666C97.6242 71.9927 96.7348 72.9781 95.5644 73.025C94.6281 73.0719 93.0833 72.8373 91.4448 72.5088C88.9636 72.0865 86.1548 71.3827 85.2185 71.1481Z" fill="#DE6325"/>
<path d="M82.2692 78.2333C81.0989 78.2333 80.1626 77.3417 80.1158 76.1687C80.1158 74.9957 81.0521 74.0572 82.1756 74.0103C84.0013 73.9634 86.7166 74.808 89.0573 75.5118C89.8063 75.7464 90.5553 75.9341 91.1171 76.1218C92.2406 76.4033 92.896 77.5764 92.6151 78.7025C92.3342 79.8286 91.1639 80.4855 90.0404 80.204C89.385 80.0163 88.6359 79.7817 87.8869 79.5471C85.7803 78.9371 83.3928 78.1863 82.2692 78.2333Z" fill="#DE6325"/>
<path d="M79.3199 86.4446C78.1495 86.3977 77.2132 85.4123 77.26 84.2393C77.3069 83.0662 78.29 82.1747 79.4603 82.2216L80.3966 82.2685C83.5799 82.4093 84.563 82.4562 87.9805 83.3477C89.104 83.6762 89.7594 84.8492 89.4785 85.9754C89.1976 87.1015 88.0273 87.7584 86.9037 87.4299C83.9076 86.6323 83.0182 86.5853 80.2093 86.4915L79.3199 86.4446Z" fill="#DE6325"/>
<path d="M78.8518 95.6413C77.6815 95.5943 76.792 94.609 76.8388 93.4829C76.8856 92.3098 77.8219 91.4183 78.9922 91.4183C80.0222 91.4652 80.9584 91.3714 81.8011 91.2775V91.2306C83.4864 91.0429 85.0781 90.8552 87.3251 91.4652C88.4487 91.7467 89.1041 92.9198 88.8232 94.0459C88.5423 95.172 87.372 95.8289 86.2484 95.5474C84.7972 95.1251 83.58 95.2659 82.316 95.4536C81.2861 95.5474 80.2094 95.6882 78.8518 95.6413Z" fill="#DE6325"/>
<path d="M80.4902 103.806C79.4135 104.181 78.1963 103.618 77.8218 102.539C77.4005 101.413 77.9623 100.24 79.039 99.8174C79.8348 99.5358 81.4733 99.2543 83.1118 99.0666C84.7971 98.8789 86.5292 98.7382 87.2783 98.832C88.4486 98.9728 89.2913 100.005 89.1508 101.178C89.0104 102.351 87.9805 103.149 86.8101 103.008C86.342 102.961 84.9844 103.102 83.6268 103.243C82.2692 103.43 80.9584 103.618 80.4902 103.806Z" fill="#DE6325"/>
<path d="M84.6099 110.985C83.4863 111.36 82.316 110.797 81.8947 109.718C81.5201 108.639 82.0819 107.419 83.1586 107.043C85.6866 106.105 86.8101 105.917 89.3381 105.448H89.4317C90.5553 105.213 91.632 105.964 91.8661 107.137C92.0533 108.263 91.3043 109.389 90.1807 109.577H90.0871C87.7932 109.999 86.7633 110.187 84.6099 110.985Z" fill="#DE6325"/>
<path d="M88.3082 118.07C87.2783 118.633 85.9675 118.211 85.4525 117.178C84.8907 116.146 85.3121 114.879 86.342 114.363C87.7464 113.612 89.3381 113.049 90.9297 112.862C92.4278 112.721 93.9258 112.862 95.3303 113.519C96.3602 113.988 96.8283 115.255 96.3602 116.287C95.892 117.366 94.6281 117.835 93.5981 117.366C92.9428 117.085 92.1469 116.991 91.3979 117.085C90.368 117.178 89.2913 117.554 88.3082 118.07Z" fill="#DE6325"/>
<path d="M89.853 126.14C88.7295 125.859 88.0273 124.733 88.3082 123.607C88.589 122.481 89.7126 121.777 90.8829 122.058C91.0702 122.105 91.4447 122.152 91.866 122.246C93.7854 122.528 96.2665 122.903 96.9688 125.108C97.2964 126.187 96.6411 127.407 95.5643 127.736C94.4408 128.064 93.2704 127.454 92.9427 126.328C92.8491 125.953 92.0065 126.516 91.2106 126.422C90.6957 126.328 90.2743 126.234 89.853 126.14Z" fill="#DE6325"/>
<path d="M88.589 133.554C87.4655 133.319 86.7165 132.193 86.9973 131.02C87.2314 129.894 88.355 129.19 89.4785 129.425C90.7893 129.753 91.6787 130.223 92.4278 130.926C93.13 131.536 93.6449 132.287 94.2067 133.273C94.8153 134.258 94.4876 135.572 93.5045 136.135C92.5214 136.745 91.2106 136.416 90.6488 135.431C90.2275 134.821 89.9466 134.352 89.6189 134.023C89.3849 133.836 89.0572 133.648 88.589 133.554Z" fill="#DE6325"/>
<path fill-rule="evenodd" clip-rule="evenodd" d="M71.0805 51.5817C72.2977 51.5817 73.2808 52.5202 73.2808 53.6463C73.2808 54.8193 72.2977 55.7578 71.0805 55.7578C69.8633 55.7578 68.8802 54.8193 68.8802 53.6463C68.8802 52.5202 69.8633 51.5817 71.0805 51.5817Z" fill="#525252"/>
<path d="M81.7075 138.856C80.7712 138.106 80.6307 136.792 81.333 135.9C82.0352 134.962 83.346 134.821 84.2822 135.525C85.3121 136.322 85.9207 137.12 86.2952 138.106C86.6698 138.997 86.8102 139.889 86.9506 140.968C87.0443 142.141 86.2016 143.173 85.0781 143.314C83.9077 143.408 82.8778 142.61 82.7374 141.437C82.6437 140.686 82.5969 140.123 82.4097 139.701C82.316 139.419 82.082 139.138 81.7075 138.856Z" fill="#DE6325"/>
<path d="M74.6385 139.982C74.0768 138.95 74.4513 137.683 75.4344 137.12C76.4643 136.557 77.7282 136.932 78.29 137.965L78.5241 138.34L78.5709 138.434C78.9454 139.138 79.1327 139.466 79.1327 140.123C79.1795 140.733 79.039 141.015 78.8518 141.531C78.805 141.718 78.7113 141.953 78.5709 142.328C78.2432 143.408 77.0729 144.065 75.9493 143.689C74.8258 143.361 74.2172 142.188 74.5449 141.062C74.6385 140.78 74.7322 140.545 74.8258 140.358L74.6385 139.982Z" fill="#DE6325"/>
<path fill-rule="evenodd" clip-rule="evenodd" d="M145.702 144.956C144.111 146.927 142.706 141.531 141.068 139.372C140.272 138.293 137.697 133.976 137.603 133.085C136.573 122.856 140.412 121.824 144.157 122.246C151.554 123.044 155.486 132.897 145.702 144.956Z" fill="#ADF4FF"/>
<path fill-rule="evenodd" clip-rule="evenodd" d="M107.502 119.994C113.915 126.75 109.047 116.944 128.381 113.378C117.005 120.604 108.485 137.871 124.776 151.384C127.726 153.871 142.706 168.276 135.075 174.798C132.875 176.675 127.679 179.397 125.244 175.221C123.7 172.499 124.823 170.81 125.525 169.825C127.351 167.244 130.862 168.276 130.768 170.857C130.722 172.452 127.96 171.045 127.585 173.25C127.351 174.704 128.428 175.643 131.003 174.564C133.484 173.484 134.139 170.716 133.203 168.417C131.517 164.194 123.465 161.426 120.563 169.215C119.112 173.109 121.733 181.133 128.428 181.977C135.543 182.916 140.131 179.444 142.8 173.531C145.094 168.511 143.783 161.238 139.429 156.686C124.261 140.968 147.434 125.296 147.013 108.873C146.685 96.8143 134.326 88.1337 123.278 97.5181C120.188 100.146 116.958 106.527 117.614 111.313C117.707 112.064 114.618 114.128 109.421 115.02C104.365 115.865 104.131 116.474 107.502 119.994Z" fill="#008FFF"/>
<path fill-rule="evenodd" clip-rule="evenodd" d="M123.84 104.509C125.619 105.026 126.696 106.809 126.274 108.545C125.806 110.281 123.793 111.689 122.014 111.172C120.235 110.703 119.346 108.498 119.767 106.762C120.235 105.026 122.061 104.04 123.84 104.509Z" fill="white"/>
<path d="M128.1 100.146C128.615 100.99 128.381 102.117 127.538 102.633C126.696 103.149 125.572 102.914 125.01 102.023C124.776 101.6 124.495 101.131 124.215 100.662C123.091 98.7382 121.921 96.6736 119.814 95.6882C118.925 95.2659 118.503 94.1867 118.925 93.2952C119.346 92.3568 120.423 91.9814 121.359 92.4037C124.449 93.8114 125.947 96.439 127.351 98.8789C127.585 99.3012 127.866 99.7235 128.1 100.146Z" fill="#0062B6"/>
<path d="M127.913 90.8083C127.445 89.9637 127.726 88.8376 128.615 88.3684C129.458 87.8522 130.581 88.1807 131.049 89.0722C131.892 90.4799 132.454 92.216 132.828 93.7644C133.343 96.1574 133.484 98.4566 133.343 99.1604C133.156 100.146 132.22 100.803 131.237 100.662C130.254 100.474 129.598 99.5358 129.785 98.5504C129.879 98.1281 129.739 96.5328 129.27 94.609C128.99 93.2952 128.521 91.9344 127.913 90.8083Z" fill="#0062B6"/>
<path d="M141.77 110.656C140.787 110.844 139.85 110.187 139.663 109.202C139.429 108.263 140.084 107.278 141.068 107.09C142.378 106.809 143.736 106.386 145 105.917C146.311 105.401 147.481 104.885 148.511 104.416C149.4 103.993 150.477 104.369 150.898 105.26C151.32 106.199 150.945 107.278 150.056 107.7C149.026 108.169 147.715 108.779 146.264 109.296C144.859 109.859 143.315 110.328 141.77 110.656Z" fill="#0062B6"/>
<path d="M139.242 116.568C138.259 116.428 137.557 115.489 137.697 114.504C137.884 113.518 138.774 112.815 139.757 113.002C140.365 113.049 141.77 112.955 143.268 112.815C144.86 112.674 146.545 112.533 147.762 112.627C148.745 112.721 149.494 113.565 149.447 114.551C149.354 115.583 148.511 116.334 147.481 116.24C146.592 116.193 145.047 116.334 143.549 116.428C141.863 116.568 140.225 116.709 139.242 116.568Z" fill="#0062B6"/>
<path d="M138.259 100.662C137.603 101.413 136.48 101.507 135.731 100.85C134.935 100.193 134.888 99.0197 135.543 98.2689C136.105 97.612 136.667 96.6266 137.229 95.3598C137.744 94.1398 138.212 92.6383 138.586 90.9491C138.82 89.9637 139.757 89.3068 140.74 89.5414C141.723 89.7291 142.332 90.7145 142.144 91.6999C141.723 93.6236 141.161 95.3128 140.553 96.7674C139.85 98.4097 139.055 99.7235 138.259 100.662Z" fill="#0062B6"/>
<path d="M145.328 96.2043C145.89 95.3597 147.013 95.1721 147.856 95.7351C148.652 96.2982 148.886 97.4243 148.324 98.222C146.404 101.084 144.204 102.914 142.659 104.228L142.191 104.603C141.442 105.213 140.319 105.119 139.663 104.369C139.008 103.571 139.101 102.445 139.897 101.788L140.319 101.413C141.723 100.24 143.689 98.5974 145.328 96.2043Z" fill="#0062B6"/>
<path d="M137.088 122.246C136.105 121.964 135.544 120.979 135.778 119.994C136.059 119.055 137.042 118.445 138.025 118.727C138.821 118.915 140.74 119.431 142.425 119.712C143.455 119.9 144.391 120.041 144.906 120.041C145.889 119.994 146.732 120.791 146.779 121.777C146.779 122.809 146.03 123.607 145 123.654C144.204 123.701 143.034 123.513 141.77 123.278C139.897 122.95 137.884 122.434 137.088 122.246Z" fill="#0062B6"/>
<path d="M133.577 128.158C132.594 128.158 131.752 127.36 131.752 126.375C131.705 125.343 132.501 124.545 133.484 124.498C135.029 124.498 137.416 125.202 139.429 125.812C140.084 126 140.693 126.187 141.208 126.328C142.144 126.563 142.753 127.548 142.472 128.533C142.238 129.519 141.208 130.082 140.272 129.847C139.71 129.66 139.055 129.472 138.399 129.284C136.62 128.721 134.514 128.111 133.577 128.158Z" fill="#0062B6"/>
<path d="M131.002 135.196C130.019 135.15 129.224 134.305 129.27 133.32C129.317 132.334 130.16 131.537 131.143 131.583H131.377C132.875 131.677 133.577 131.677 134.279 131.818C134.935 131.912 135.45 132.053 136.48 132.334L137.369 132.569C138.305 132.85 138.867 133.836 138.633 134.821C138.352 135.759 137.369 136.323 136.386 136.088L135.543 135.853C134.654 135.572 134.186 135.478 133.718 135.384C133.203 135.29 132.594 135.29 131.237 135.243L131.002 135.196Z" fill="#0062B6"/>
<path d="M130.628 143.126C129.598 143.126 128.849 142.282 128.896 141.249C128.896 140.264 129.739 139.466 130.769 139.513C131.611 139.56 132.313 139.513 132.875 139.419C134.139 139.326 135.216 139.185 137.182 139.748C138.118 139.982 138.727 140.968 138.446 141.953C138.212 142.938 137.182 143.502 136.246 143.22C134.888 142.892 134.139 142.938 133.25 143.032C132.547 143.126 131.752 143.173 130.628 143.126Z" fill="#0062B6"/>
<path d="M132.079 150.164C131.143 150.493 130.066 150.024 129.739 149.085C129.364 148.147 129.879 147.114 130.815 146.739C131.471 146.504 132.781 146.176 133.999 145.941C135.075 145.754 136.105 145.613 136.761 145.707C137.744 145.801 138.446 146.739 138.352 147.724C138.212 148.71 137.322 149.414 136.339 149.32C136.058 149.273 135.403 149.367 134.654 149.507C133.624 149.695 132.547 149.977 132.079 150.164Z" fill="#0062B6"/>
<path d="M135.59 156.358C134.654 156.687 133.577 156.217 133.25 155.279C132.922 154.34 133.437 153.308 134.373 152.933C136.527 152.182 137.51 151.994 139.663 151.572H139.71C140.693 151.384 141.676 152.041 141.817 153.027C142.004 154.012 141.349 154.95 140.365 155.138L140.319 155.185C138.352 155.513 137.463 155.701 135.59 156.358Z" fill="#0062B6"/>
<path d="M138.774 162.458C137.884 162.927 136.761 162.599 136.293 161.707C135.871 160.816 136.199 159.736 137.088 159.267C138.306 158.61 139.429 158.329 140.6 158.282C141.723 158.282 142.847 158.563 144.064 159.126C144.953 159.549 145.375 160.581 144.953 161.519C144.532 162.411 143.455 162.833 142.566 162.411C141.817 162.083 141.208 161.942 140.6 161.942C140.038 161.942 139.429 162.129 138.774 162.458Z" fill="#0062B6"/>
<path d="M140.084 169.402C139.101 169.168 138.54 168.182 138.774 167.197C139.008 166.259 139.991 165.649 140.974 165.883C141.161 165.93 141.442 165.977 141.817 166.024C143.502 166.306 145.655 166.634 146.217 168.511C146.498 169.496 145.983 170.482 145 170.763C144.064 171.092 143.034 170.528 142.753 169.543C142.659 169.262 141.957 169.731 141.255 169.637C140.833 169.59 140.459 169.496 140.084 169.402Z" fill="#0062B6"/>
<path d="M139.008 175.784C138.025 175.596 137.416 174.611 137.65 173.625C137.837 172.64 138.82 172.03 139.804 172.265C140.88 172.499 141.676 172.921 142.332 173.531C142.378 173.578 142.425 173.625 142.472 173.625C142.987 174.188 143.408 174.798 143.876 175.549C144.391 176.394 144.11 177.52 143.268 178.036C142.378 178.552 141.302 178.27 140.787 177.426C140.459 176.91 140.225 176.534 139.944 176.253L139.897 176.206C139.663 176.018 139.429 175.877 139.008 175.784Z" fill="#0062B6"/>
<path fill-rule="evenodd" clip-rule="evenodd" d="M123.934 105.166C125.01 105.166 125.853 105.964 125.853 106.949C125.853 107.982 125.01 108.779 123.934 108.779C122.904 108.779 122.014 107.982 122.014 106.949C122.014 105.964 122.904 105.166 123.934 105.166Z" fill="#525252"/>
<path d="M133.062 180.335C132.266 179.725 132.126 178.599 132.735 177.801C133.39 177.004 134.514 176.863 135.309 177.52C136.152 178.177 136.714 178.881 137.042 179.725C137.369 180.476 137.463 181.227 137.603 182.212C137.697 183.197 136.948 184.089 135.965 184.183C134.982 184.323 134.092 183.573 133.999 182.587C133.905 181.93 133.858 181.461 133.718 181.086C133.577 180.851 133.39 180.617 133.062 180.335Z" fill="#0062B6"/>
<path d="M126.977 181.32C126.508 180.476 126.836 179.35 127.679 178.881C128.568 178.411 129.692 178.693 130.16 179.584L130.347 179.913L130.394 180.007C130.722 180.617 130.862 180.898 130.862 181.461C130.909 181.977 130.815 182.212 130.628 182.681C130.581 182.822 130.488 183.057 130.394 183.338C130.113 184.323 129.083 184.84 128.147 184.558C127.164 184.23 126.649 183.244 126.93 182.259C127.023 182.024 127.07 181.837 127.164 181.649L126.977 181.32ZM127.257 181.649V181.602V181.555V181.649Z" fill="#0062B6"/>
<path fill-rule="evenodd" clip-rule="evenodd" d="M111.434 229.838C109.843 231.808 108.438 226.365 106.8 224.254C106.004 223.175 103.429 218.858 103.336 217.966C102.306 207.737 106.144 206.705 109.89 207.127C117.333 207.925 121.265 217.732 111.434 229.838Z" fill="#ADF4FF"/>
<path fill-rule="evenodd" clip-rule="evenodd" d="M73.2341 204.875C79.6477 211.632 74.8258 201.825 94.16 198.259C82.7374 205.485 74.2172 222.752 90.5085 236.266C93.4578 238.706 108.485 253.111 100.808 259.68C98.6074 261.51 93.411 264.278 90.9767 260.055C89.4318 257.334 90.5553 255.645 91.2575 254.659C93.0833 252.125 96.5943 253.158 96.5007 255.692C96.4539 257.334 93.6919 255.926 93.3174 258.131C93.0833 259.586 94.2068 260.524 96.7348 259.398C99.2159 258.319 99.8713 255.551 98.935 253.252C97.2966 249.029 89.1977 246.26 86.2953 254.096C84.844 257.944 87.4656 266.014 94.16 266.859C101.323 267.75 105.864 264.325 108.532 258.413C110.826 253.392 109.515 246.119 105.161 241.568C89.9936 225.849 113.167 210.177 112.745 193.755C112.417 181.696 100.105 172.968 89.0105 182.4C85.9207 185.027 82.7374 191.409 83.346 196.148C83.4396 196.945 80.3499 199.01 75.1535 199.901C70.1444 200.746 69.9103 201.356 73.2341 204.875Z" fill="#008FFF"/>
<path fill-rule="evenodd" clip-rule="evenodd" d="M89.5721 189.391C91.3979 189.86 92.4746 191.69 92.0065 193.426C91.5383 195.162 89.5253 196.523 87.7464 196.054C85.9675 195.538 85.078 193.332 85.5461 191.643C85.9675 189.907 87.7932 188.875 89.5721 189.391Z" fill="white"/>
<path d="M93.8323 184.98C94.3941 185.872 94.1132 186.951 93.2706 187.514C92.4279 188.03 91.3044 187.749 90.7894 186.904C90.5085 186.482 90.2276 186.013 89.9468 185.543C88.87 183.573 87.6529 181.508 85.5931 180.57C84.6568 180.147 84.2823 179.068 84.7036 178.13C85.1249 177.238 86.2016 176.816 87.0911 177.238C90.2276 178.693 91.7257 181.274 93.0833 183.714C93.3642 184.136 93.5983 184.558 93.8323 184.98Z" fill="#0062B6"/>
<path d="M93.645 175.69C93.1769 174.798 93.4578 173.719 94.3472 173.203C95.1899 172.734 96.3134 173.062 96.8284 173.907C97.6242 175.361 98.186 177.051 98.5605 178.646C99.1223 180.992 99.2159 183.291 99.0754 184.042C98.8882 185.027 97.9519 185.684 96.9688 185.496C95.9857 185.356 95.3303 184.37 95.5176 183.385C95.6112 182.963 95.4708 181.367 95.0026 179.444C94.7217 178.13 94.2536 176.769 93.645 175.69Z" fill="#0062B6"/>
<path d="M107.502 195.491C106.519 195.679 105.583 195.069 105.395 194.083C105.161 193.098 105.817 192.159 106.8 191.925C108.111 191.69 109.468 191.221 110.779 190.752C112.043 190.283 113.26 189.766 114.243 189.25C115.133 188.828 116.209 189.25 116.678 190.142C117.099 191.033 116.678 192.113 115.788 192.582C114.758 193.051 113.447 193.614 112.043 194.177C110.592 194.693 109.047 195.209 107.502 195.491Z" fill="#0062B6"/>
<path d="M104.974 201.45C103.991 201.309 103.336 200.371 103.476 199.385C103.616 198.4 104.506 197.696 105.536 197.837C106.098 197.931 107.502 197.79 109 197.696C110.639 197.555 112.277 197.415 113.494 197.508C114.477 197.555 115.226 198.447 115.179 199.432C115.086 200.418 114.243 201.168 113.26 201.121C112.324 201.074 110.779 201.168 109.328 201.309C107.596 201.45 105.957 201.591 104.974 201.45Z" fill="#0062B6"/>
<path d="M103.991 185.543C103.336 186.294 102.212 186.341 101.463 185.684C100.714 185.027 100.62 183.901 101.276 183.15C101.837 182.493 102.446 181.508 102.961 180.194C103.476 178.974 103.944 177.52 104.319 175.784C104.553 174.798 105.536 174.188 106.472 174.376C107.455 174.611 108.111 175.596 107.876 176.534C107.455 178.505 106.94 180.194 106.285 181.649C105.629 183.291 104.787 184.605 103.991 185.543Z" fill="#0062B6"/>
<path d="M111.06 181.086C111.622 180.241 112.745 180.007 113.588 180.57C114.384 181.133 114.618 182.259 114.056 183.103C112.137 185.966 109.936 187.749 108.391 189.063L107.97 189.438C107.174 190.095 106.051 190.001 105.395 189.203C104.74 188.453 104.834 187.326 105.629 186.67L106.051 186.294C107.455 185.121 109.421 183.479 111.06 181.086Z" fill="#0062B6"/>
<path d="M102.821 207.081C101.837 206.846 101.276 205.814 101.51 204.875C101.791 203.89 102.774 203.327 103.757 203.561C104.553 203.796 106.472 204.265 108.157 204.594C109.187 204.781 110.124 204.922 110.638 204.875C111.622 204.875 112.464 205.626 112.511 206.658C112.558 207.644 111.762 208.488 110.779 208.535C109.936 208.535 108.766 208.394 107.502 208.16C105.629 207.831 103.616 207.315 102.821 207.081Z" fill="#0062B6"/>
<path d="M99.3095 212.993C98.3264 213.04 97.4838 212.242 97.4838 211.21C97.437 210.224 98.2328 209.38 99.2627 209.38C100.808 209.333 103.148 210.037 105.161 210.647C105.817 210.834 106.425 211.022 106.94 211.163C107.923 211.444 108.485 212.43 108.204 213.415C107.97 214.353 106.987 214.963 106.004 214.682C105.442 214.541 104.787 214.353 104.131 214.166C102.352 213.603 100.246 212.993 99.3095 212.993Z" fill="#0062B6"/>
<path d="M96.7348 220.078C95.7517 220.031 94.9559 219.186 95.0027 218.201C95.0495 217.169 95.8922 216.418 96.8753 216.465H97.1561C98.6074 216.512 99.3096 216.559 100.012 216.653C100.667 216.746 101.182 216.934 102.212 217.216L103.102 217.45C104.038 217.685 104.646 218.717 104.366 219.656C104.085 220.641 103.102 221.204 102.165 220.922L101.276 220.688C100.386 220.453 99.9182 220.312 99.45 220.266C98.9351 220.172 98.3265 220.125 96.9689 220.078H96.7348Z" fill="#0062B6"/>
<path d="M96.3602 228.008C95.3771 227.961 94.5813 227.116 94.6281 226.131C94.6749 225.146 95.5176 224.348 96.5007 224.395C97.3902 224.442 98.0455 224.348 98.6541 224.301C99.9181 224.16 100.948 224.066 102.914 224.582C103.85 224.864 104.459 225.849 104.178 226.835C103.944 227.773 102.914 228.336 101.978 228.102C100.667 227.726 99.8713 227.82 98.9818 227.914C98.2796 227.961 97.4838 228.055 96.3602 228.008Z" fill="#0062B6"/>
<path d="M97.8114 234.999C96.8751 235.374 95.7984 234.858 95.4707 233.92C95.143 232.981 95.6111 231.949 96.5474 231.621C97.2028 231.386 98.5136 231.011 99.7307 230.776C100.807 230.588 101.837 230.495 102.493 230.541C103.476 230.682 104.178 231.574 104.084 232.606C103.944 233.591 103.055 234.295 102.071 234.154C101.791 234.154 101.135 234.248 100.386 234.389C99.3562 234.577 98.3263 234.811 97.8114 234.999Z" fill="#0062B6"/>
<path d="M101.322 241.24C100.386 241.568 99.3563 241.052 98.9817 240.113C98.654 239.175 99.169 238.143 100.105 237.814C102.259 237.017 103.242 236.829 105.395 236.454H105.442C106.425 236.266 107.408 236.923 107.549 237.908C107.736 238.894 107.081 239.832 106.097 240.02H106.004C104.084 240.395 103.195 240.536 101.322 241.24Z" fill="#0062B6"/>
<path d="M104.506 247.339C103.616 247.809 102.493 247.433 102.025 246.589C101.603 245.697 101.931 244.571 102.821 244.102C104.038 243.492 105.161 243.163 106.332 243.163C107.455 243.163 108.579 243.445 109.796 243.961C110.685 244.383 111.107 245.463 110.685 246.401C110.264 247.292 109.187 247.715 108.298 247.292C107.549 246.964 106.94 246.776 106.332 246.776C105.817 246.776 105.208 246.964 104.506 247.339Z" fill="#0062B6"/>
<path d="M105.817 254.284C104.834 254.049 104.272 253.064 104.506 252.079C104.74 251.093 105.723 250.53 106.706 250.765C106.893 250.812 107.221 250.859 107.549 250.906C109.234 251.14 111.388 251.469 111.949 253.392C112.23 254.331 111.715 255.363 110.732 255.645C109.796 255.926 108.766 255.41 108.485 254.425C108.391 254.143 107.689 254.612 107.034 254.519C106.566 254.425 106.191 254.378 105.817 254.284Z" fill="#0062B6"/>
<path d="M104.74 260.665C103.757 260.431 103.148 259.492 103.382 258.507C103.57 257.522 104.553 256.912 105.536 257.099C106.612 257.381 107.408 257.803 108.064 258.366C108.111 258.413 108.157 258.46 108.204 258.507C108.719 259.023 109.14 259.633 109.609 260.431C110.124 261.275 109.843 262.401 109 262.918C108.157 263.434 107.034 263.152 106.519 262.308C106.191 261.791 105.957 261.369 105.676 261.134L105.629 261.088C105.442 260.9 105.161 260.759 104.74 260.665Z" fill="#0062B6"/>
<path fill-rule="evenodd" clip-rule="evenodd" d="M89.6657 190.048C90.7424 190.048 91.5851 190.846 91.5851 191.831C91.5851 192.816 90.7424 193.614 89.6657 193.614C88.6358 193.614 87.7932 192.816 87.7932 191.831C87.7932 190.846 88.6358 190.048 89.6657 190.048Z" fill="#525252"/>
<path d="M98.7945 265.217C97.9986 264.607 97.8582 263.481 98.5136 262.683C99.1222 261.885 100.246 261.744 101.042 262.354C101.931 263.058 102.446 263.762 102.774 264.607C103.101 265.357 103.242 266.108 103.335 267.047C103.429 268.079 102.727 268.97 101.697 269.064C100.714 269.158 99.8244 268.454 99.7307 267.422C99.6371 266.812 99.5903 266.296 99.4499 265.967C99.3562 265.733 99.169 265.498 98.7945 265.217Z" fill="#0062B6"/>
<path d="M92.7087 266.202C92.2406 265.31 92.5683 264.231 93.411 263.715C94.3004 263.246 95.424 263.574 95.8921 264.466L96.0794 264.794L96.1262 264.888C96.4539 265.451 96.5943 265.733 96.6411 266.343C96.6411 266.812 96.5475 267.093 96.3602 267.563C96.3134 267.703 96.2198 267.938 96.1262 268.22C95.8453 269.158 94.8154 269.721 93.8791 269.393C92.896 269.111 92.381 268.079 92.6619 267.14C92.7556 266.859 92.8024 266.671 92.896 266.483L92.7087 266.202Z" fill="#0062B6"/>
<path fill-rule="evenodd" clip-rule="evenodd" d="M58.2067 183.15C56.615 185.121 55.2574 179.678 53.6189 177.567C52.7763 176.488 50.2483 172.171 50.1547 171.279C49.078 161.05 52.9635 160.018 56.7087 160.44C64.1053 161.238 68.0377 171.045 58.2067 183.15Z" fill="#ADF4FF"/>
<path fill-rule="evenodd" clip-rule="evenodd" d="M20.0533 158.188C26.42 164.945 21.5981 155.138 40.9323 151.572C29.5565 158.798 21.0364 176.065 37.2808 189.579C40.2769 192.066 55.2574 206.424 47.5799 212.993C45.4265 214.87 40.1833 217.591 37.7958 213.368C36.2041 210.647 37.3745 208.957 38.0767 207.972C39.9024 205.438 43.4135 206.471 43.3198 209.004C43.273 210.647 40.511 209.239 40.1365 211.444C39.9024 212.899 40.9791 213.837 43.5539 212.711C45.9882 211.632 46.6905 208.911 45.7542 206.564C44.0689 202.388 35.97 199.573 33.0676 207.409C31.6631 211.257 34.2847 219.327 40.9791 220.172C48.0949 221.063 52.6826 217.638 55.351 211.726C57.5981 206.705 56.3341 199.432 51.9336 194.881C36.8127 179.162 59.9856 163.49 59.5175 147.068C59.1898 135.009 46.8777 126.281 35.8296 135.713C32.7399 138.34 29.5097 144.722 30.1651 149.508C30.2587 150.258 27.169 152.323 21.9726 153.214C16.9167 154.059 16.6827 154.669 20.0533 158.188Z" fill="#008FFF"/>
<path fill-rule="evenodd" clip-rule="evenodd" d="M36.3914 142.704C38.1703 143.173 39.2471 145.003 38.7789 146.739C38.3576 148.475 36.2978 149.883 34.5189 149.367C32.7399 148.898 31.8505 146.692 32.3186 144.956C32.7867 143.22 34.6125 142.188 36.3914 142.704Z" fill="white"/>
<path d="M40.6514 138.34C41.1663 139.185 40.9322 140.311 40.0428 140.827C39.2001 141.343 38.0766 141.062 37.5616 140.217C37.3276 139.795 37.0467 139.325 36.7658 138.856C35.6423 136.932 34.4719 134.821 32.3653 133.883C31.4758 133.46 31.0545 132.381 31.4758 131.443C31.8971 130.551 32.9739 130.129 33.9101 130.551C36.9999 132.006 38.4979 134.633 39.9023 137.026C40.1364 137.449 40.3705 137.871 40.6514 138.34Z" fill="#0062B6"/>
<path d="M40.4642 129.003C39.9492 128.158 40.2769 127.032 41.1195 126.563C42.009 126.047 43.1326 126.375 43.6007 127.22C44.4433 128.674 45.0051 130.363 45.3328 131.959C45.8946 134.352 46.035 136.651 45.8946 137.355C45.7073 138.34 44.771 138.997 43.7879 138.809C42.8049 138.669 42.1495 137.73 42.3367 136.745C42.3835 136.323 42.2431 134.68 41.8218 132.756C41.4941 131.49 41.0727 130.082 40.4642 129.003Z" fill="#0062B6"/>
<path d="M54.3211 148.804C53.338 149.038 52.4017 148.381 52.1676 147.396C51.9804 146.411 52.6358 145.472 53.5721 145.285C54.9297 145.003 56.2873 144.581 57.5513 144.065C58.8152 143.595 60.0324 143.079 61.0623 142.61C61.9518 142.188 63.0285 142.563 63.4498 143.455C63.8712 144.346 63.4966 145.472 62.6072 145.895C61.5305 146.364 60.2665 146.927 58.8152 147.49C57.4108 148.006 55.866 148.522 54.3211 148.804Z" fill="#0062B6"/>
<path d="M51.7932 154.763C50.8101 154.622 50.1079 153.684 50.2484 152.698C50.3888 151.713 51.3251 151.009 52.3082 151.15C52.8699 151.244 54.3212 151.15 55.8192 151.009C57.4109 150.868 59.0962 150.727 60.3134 150.821C61.2965 150.868 62.0455 151.76 61.9987 152.745C61.9051 153.73 61.0624 154.528 60.0325 154.434C59.143 154.387 57.5982 154.481 56.1001 154.622C54.4148 154.763 52.7763 154.904 51.7932 154.763Z" fill="#0062B6"/>
<path d="M50.8101 138.856C50.1547 139.607 48.9844 139.701 48.2353 139.044C47.4863 138.387 47.3927 137.214 48.0481 136.463C48.6567 135.806 49.2184 134.821 49.7802 133.507C50.2952 132.334 50.7633 130.833 51.1378 129.097C51.3251 128.111 52.3082 127.501 53.2913 127.736C54.2744 127.924 54.8829 128.909 54.6957 129.894C54.2744 131.818 53.7126 133.507 53.104 134.962C52.4018 136.604 51.606 137.918 50.8101 138.856Z" fill="#0062B6"/>
<path d="M57.879 134.399C58.4408 133.554 59.5643 133.319 60.3602 133.883C61.2028 134.446 61.4369 135.572 60.8751 136.416C58.9089 139.279 56.7555 141.062 55.2106 142.375L54.7425 142.751C53.9935 143.408 52.8231 143.314 52.2145 142.563C51.5591 141.765 51.6528 140.639 52.4018 139.982L52.8699 139.607C54.2743 138.434 56.2405 136.792 57.879 134.399Z" fill="#0062B6"/>
<path d="M49.5929 160.393C48.6566 160.159 48.048 159.173 48.3289 158.188C48.563 157.203 49.5929 156.64 50.5292 156.874C51.325 157.109 53.2444 157.578 54.9765 157.907C56.0064 158.094 56.9427 158.235 57.4577 158.188C58.4408 158.188 59.2834 158.986 59.3302 159.971C59.3302 160.956 58.5344 161.801 57.5513 161.848C56.7555 161.848 55.5383 161.707 54.3211 161.473C52.4486 161.144 50.4356 160.628 49.5929 160.393Z" fill="#0062B6"/>
<path d="M46.1287 166.306C45.0988 166.353 44.3029 165.555 44.2561 164.523C44.2561 163.537 45.0519 162.693 46.035 162.693C47.5799 162.646 49.9206 163.35 51.9804 163.96C52.6358 164.194 53.2444 164.335 53.7125 164.476C54.6956 164.757 55.2574 165.743 55.0233 166.728C54.7424 167.666 53.7594 168.276 52.7763 167.995C52.2145 167.854 51.6059 167.666 50.9505 167.479C49.1248 166.916 47.0649 166.306 46.1287 166.306Z" fill="#0062B6"/>
<path d="M43.554 173.391C42.5241 173.344 41.775 172.499 41.8218 171.514C41.8687 170.482 42.7113 169.731 43.6944 169.778H43.9285C45.4265 169.825 46.1287 169.872 46.8309 169.965C47.4395 170.106 48.0013 170.247 49.0312 170.528L49.8739 170.763C50.857 170.998 51.4187 172.03 51.1847 172.968C50.9038 173.954 49.9207 174.517 48.9376 174.235L48.0481 174.001C47.2055 173.766 46.7373 173.625 46.2692 173.578C45.7542 173.485 45.1456 173.485 43.788 173.391H43.554Z" fill="#0062B6"/>
<path d="M43.1326 181.321C42.1495 181.274 41.3537 180.429 41.4005 179.444C41.4473 178.458 42.29 177.661 43.2731 177.708C44.1626 177.754 44.8179 177.661 45.4265 177.614C46.6905 177.473 47.7672 177.379 49.6866 177.895C50.6697 178.177 51.2315 179.162 50.9974 180.147C50.7165 181.086 49.7334 181.696 48.7503 181.414C47.4395 181.039 46.6905 181.133 45.801 181.227C45.052 181.274 44.2562 181.367 43.1326 181.321Z" fill="#0062B6"/>
<path d="M44.5838 188.312C43.6475 188.687 42.6176 188.218 42.2899 187.28C41.9154 186.341 42.3836 185.262 43.3198 184.934C44.022 184.699 45.3328 184.324 46.55 184.136C47.5799 183.901 48.6566 183.807 49.312 183.901C50.2951 183.995 50.9973 184.887 50.9037 185.919C50.7633 186.904 49.8738 187.608 48.8907 187.514C48.6098 187.467 47.9076 187.561 47.2054 187.702C46.1755 187.89 45.0988 188.124 44.5838 188.312Z" fill="#0062B6"/>
<path d="M48.0949 194.553C47.1586 194.881 46.1287 194.412 45.801 193.426C45.4733 192.488 45.9414 191.456 46.8777 191.127C49.078 190.33 50.0142 190.189 52.1677 189.766H52.2613C53.2444 189.579 54.1807 190.236 54.3679 191.221C54.5552 192.206 53.8998 193.145 52.9167 193.333H52.8699H52.8231C50.8569 193.708 49.9674 193.849 48.0949 194.553Z" fill="#0062B6"/>
<path d="M51.2782 200.652C50.3888 201.121 49.312 200.793 48.8439 199.902C48.3758 199.01 48.7503 197.884 49.6397 197.462C50.8101 196.805 51.9804 196.476 53.104 196.476C54.2743 196.476 55.3979 196.758 56.5682 197.274C57.5045 197.696 57.9258 198.775 57.5045 199.714C57.0832 200.605 56.0064 201.028 55.117 200.605C54.368 200.277 53.7126 200.089 53.1508 200.089C52.589 200.136 51.9804 200.277 51.2782 200.652Z" fill="#0062B6"/>
<path d="M52.6358 207.597C51.6527 207.362 51.0441 206.377 51.325 205.391C51.5591 204.406 52.5422 203.843 53.5253 204.078C53.6657 204.125 53.9934 204.171 54.3679 204.218C56.0532 204.453 58.2067 204.781 58.7684 206.705C59.0493 207.644 58.4875 208.676 57.5513 208.957C56.615 209.239 55.5851 208.723 55.3042 207.737C55.2106 207.456 54.5083 207.925 53.8061 207.831C53.3848 207.737 53.0103 207.691 52.6358 207.597Z" fill="#0062B6"/>
<path d="M51.5591 213.978C50.576 213.743 49.9674 212.805 50.1547 211.82C50.3887 210.834 51.3718 210.224 52.3549 210.459C53.4317 210.694 54.1807 211.116 54.8829 211.726C54.9297 211.726 54.9297 211.773 54.9765 211.82C55.5383 212.336 55.9128 212.946 56.3809 213.743C56.8959 214.588 56.6618 215.714 55.7724 216.23C54.9297 216.746 53.8062 216.465 53.2912 215.62C53.0103 215.104 52.7294 214.729 52.4954 214.447L52.4486 214.4C52.2145 214.213 51.9336 214.072 51.5591 213.978Z" fill="#0062B6"/>
<path fill-rule="evenodd" clip-rule="evenodd" d="M36.485 143.361C37.515 143.361 38.4044 144.158 38.4044 145.144C38.4044 146.129 37.515 146.927 36.485 146.927C35.4083 146.927 34.5657 146.129 34.5657 145.144C34.5657 144.158 35.4083 143.361 36.485 143.361Z" fill="#525252"/>
<path d="M45.6137 218.53C44.8179 217.92 44.6774 216.793 45.286 215.996C45.8946 215.198 47.0649 215.057 47.814 215.667C48.7034 216.371 49.2184 217.075 49.5929 217.92C49.9206 218.67 50.0142 219.421 50.1079 220.359C50.2483 221.392 49.4993 222.283 48.5162 222.377C47.5331 222.471 46.6436 221.767 46.5032 220.782C46.4564 220.125 46.3627 219.609 46.2223 219.28C46.1287 219.046 45.9414 218.811 45.6137 218.53Z" fill="#0062B6"/>
<path d="M39.5279 219.515C39.013 218.623 39.3407 217.544 40.2301 217.075C41.1196 216.559 42.1963 216.887 42.7113 217.779L42.8985 218.107L42.9453 218.201C43.2262 218.764 43.4135 219.093 43.4135 219.656C43.4603 220.172 43.3199 220.406 43.1794 220.876C43.0858 221.016 43.039 221.204 42.9453 221.533C42.6176 222.471 41.6346 223.034 40.6515 222.706C39.7152 222.424 39.1534 221.392 39.4811 220.453C39.5279 220.219 39.6215 219.984 39.6684 219.843L39.5279 219.515Z" fill="#0062B6"/>
</svg>
