<svg width="182" height="284" viewBox="0 0 182 284" fill="none" xmlns="http://www.w3.org/2000/svg">
<path d="M165.177 0.5H16.8231C7.83659 0.5 0.5 7.9059 0.5 16.9065V267.094C0.5 276.094 7.83659 283.5 16.8231 283.5H165.177C174.163 283.5 181.5 276.094 181.5 267.094V16.9065C181.5 7.9059 174.163 0.5 165.177 0.5Z" stroke="black" stroke-opacity="0.3"/>
<path fill-rule="evenodd" clip-rule="evenodd" d="M24.4009 24.4609H157.599V259.539H24.4009V24.4609Z" fill="#FFFF00"/>
<path fill-rule="evenodd" clip-rule="evenodd" d="M24.4009 24.4609H157.599V259.539H24.4009V24.4609Z" fill="#00B6ED"/>
<path fill-rule="evenodd" clip-rule="evenodd" d="M24.401 87.8053C55.0562 81.7055 112.857 73.1657 157.599 75.3241V257.662C155.68 258.788 153.481 259.492 151.094 259.492H33.3401C29.8768 259.492 26.6942 258.038 24.401 255.738V87.8053Z" fill="#00CAF2"/>
<path fill-rule="evenodd" clip-rule="evenodd" d="M24.401 131.818C67.1779 126.844 128.067 136.792 157.599 144.487V257.662C155.68 258.788 153.481 259.492 151.094 259.492H33.3401C29.8768 259.492 26.6942 258.038 24.401 255.738V131.818Z" fill="#70ECFF"/>
<path d="M157.599 164.1C123.2 162.88 54.0733 169.684 24.401 173.062V176.816C26.0858 176.628 27.9579 176.394 29.9236 176.206C30.532 189.954 31.0936 206.001 31.2808 220.594C31.2808 223.034 34.2293 223.222 34.2293 220.782C34.2293 206.283 33.8549 190.048 34.3698 175.784C34.3698 175.737 34.3698 175.737 34.3698 175.69C64.2762 172.311 118.005 167.103 150.158 167.056C149.549 183.197 149.034 207.784 149.034 223.738C149.034 226.788 151.796 227.961 151.796 224.911C151.796 208.77 152.872 183.291 153.481 167.056C154.885 167.056 156.289 167.103 157.599 167.15V164.1Z" fill="#B9A46F"/>
<path fill-rule="evenodd" clip-rule="evenodd" d="M157.599 224.254C123.527 218.107 58.8471 214.87 24.401 215.339V259.539H157.599V224.254Z" fill="#E0BE68"/>
<path d="M137.193 221.298C139.066 229.462 142.669 248.794 144.448 259.492H147.256C145.384 249.263 141.359 230.26 139.3 221.579C138.598 221.486 137.895 221.392 137.193 221.298ZM44.2449 215.433L42.4196 215.386C41.0156 230.119 38.2543 244.665 36.5226 259.492H39.4711C40.9688 244.712 42.9345 230.025 44.2449 215.433Z" fill="#B9A46F"/>
<path fill-rule="evenodd" clip-rule="evenodd" d="M16.8658 1H165.134C173.886 1 181 8.17903 181 16.9065V267.094C181 275.821 173.886 283 165.134 283H16.8658C8.16069 283 1 275.821 1 267.094V16.9065C1 8.17903 8.16069 1 16.8658 1ZM24.4009 24.4609H157.599V259.539H24.4009V24.4609Z" fill="white"/>
<path d="M20.0484 31.8276L22.1545 29.5284L24.0265 27.417L25.7582 29.6692L31.8892 37.8336H36.7566L28.0515 26.2439L26.8814 24.6955L28.1919 23.2409L35.5866 15.0765H31.8424L23.5117 24.2732L19.4399 28.7777V22.7248V15.0765H15.0406V37.8336H19.4399V33.423V32.5314L20.0484 31.8276ZM24.1201 35.3467V40.1797V42.5258H21.78H12.7005H10.3604V40.1797V12.7304V10.3844H12.7005H21.78H24.1201V12.7304V16.625L29.0811 11.182L29.7832 10.3844H30.8128H40.8752H46.117L42.5601 14.3258L32.9189 24.977L43.2621 38.819L46.0702 42.5258H41.39H30.7192H29.5492L28.8471 41.6343L24.1201 35.3467Z" fill="white"/>
<path d="M23.8861 31.1238L21.78 33.4229V40.1797H12.7005V12.7304H21.78V22.7248L30.8128 12.7304H40.8752L29.8768 24.8363L41.39 40.1797H30.7192L23.8861 31.1238Z" fill="#525252"/>
<path d="M147.958 262.917L150.017 260.571L151.936 258.46L153.621 260.759L159.752 268.923H164.619L155.914 257.287L154.791 255.738L156.055 254.284L163.449 246.166H159.705L151.421 255.316L147.349 259.821V253.768V246.166H142.95V268.923H147.349V264.466V263.574L147.958 262.917ZM152.03 266.39V271.27V273.616H149.69H140.61H138.27V271.27V243.82V241.474H140.61H149.69H152.03V243.82V247.715L156.944 242.225L157.646 241.474H158.675H168.738H174.027L170.47 245.369L160.828 256.02L171.172 269.862L173.98 273.616H169.3H158.629H157.459L156.757 272.677L152.03 266.39Z" fill="white"/>
<path d="M151.749 262.167L149.69 264.466V271.27H140.61V243.82H149.69V253.768L158.676 243.82H168.738L157.786 255.879L169.3 271.27H158.629L151.749 262.167Z" fill="#525252"/>
<path d="M129.378 38.1151C131.952 37.599 136.913 38.1151 138.644 38.5374C141.078 35.816 142.997 32.6722 148.473 31.4522C150.579 31.2646 151.187 32.6722 149.081 32.8599C143.558 33.7514 141.733 41.3997 140.797 41.822C139.814 42.2443 137.942 40.0389 130.454 39.8982C128.395 39.8512 127.88 39.4289 127.973 39.0536C128.02 38.772 128.067 38.3967 129.378 38.1151Z" fill="white"/>
<path fill-rule="evenodd" clip-rule="evenodd" d="M70.0796 69.1304C72.2325 60.5907 62.4977 61.8576 62.4041 70.0689C62.3573 74.5265 64.9782 80.814 67.4587 77.3887C68.2075 76.4033 69.3308 72.1334 70.0796 69.1304Z" fill="#FF9A2E"/>
<path fill-rule="evenodd" clip-rule="evenodd" d="M114.448 70.2566C112.856 75.4649 114.495 81.1894 116.601 81.0955C117.817 81.0017 120.672 79.594 121.515 74.4326C122.638 67.582 115.711 66.1275 114.448 70.2566Z" fill="#FF9A2E"/>
<path fill-rule="evenodd" clip-rule="evenodd" d="M73.2621 94.3744C80.0016 96.4389 96.8502 97.612 107.755 97.3774C116.975 97.1428 118.239 70.4443 113.98 64.4383C112.903 64.4383 78.1763 59.5584 73.0281 59.4176C69.4243 59.3238 57.209 89.4945 73.2621 94.3744Z" fill="#FFC169"/>
<path fill-rule="evenodd" clip-rule="evenodd" d="M86.6942 63.4998C83.5585 75.9341 82.7161 80.7201 90.6256 81.2363C98.6287 81.7524 101.062 68.5674 97.5055 64.5321C95.493 62.233 86.8814 62.796 86.6942 63.4998Z" fill="#FF9A2E"/>
<path d="M69.3776 81.0955C66.9907 79.7348 69.05 78.0925 71.0625 79.2187C82.4821 85.7408 98.114 86.3977 109.908 80.4386C112.95 78.9371 113.184 81.6586 111.406 82.5501C103.59 87.43 96.4291 89.213 88.8004 88.7438C81.1249 88.2746 76.3043 86.2569 69.3776 81.0955Z" fill="white"/>
<path fill-rule="evenodd" clip-rule="evenodd" d="M71.7176 64.8606C70.0796 65.7052 69.3775 68.0513 69.3775 69.1305C69.3307 71.4296 72.6069 74.2919 75.6958 73.8226C78.6911 73.3534 81.6396 71.4296 80.142 66.1275C79.2059 62.7022 72.3729 64.5321 71.7176 64.8606Z" fill="white"/>
<path fill-rule="evenodd" clip-rule="evenodd" d="M75.1342 66.4559C76.2106 66.4559 77.4275 67.3474 77.4275 68.3797C77.4275 69.412 76.4446 70.2566 75.3682 70.2566C74.2917 70.2566 73.2621 69.3651 73.2621 68.3328C73.2621 67.3005 74.0109 66.4559 75.1342 66.4559Z" fill="#525252"/>
<path fill-rule="evenodd" clip-rule="evenodd" d="M103.403 67.2536C101.203 70.632 102.607 73.9165 105.041 75.0426C107.287 76.1218 110.423 75.2772 111.686 73.6349C112.576 72.4619 113.044 70.9604 112.108 68.5674C111.125 66.1744 105.93 63.1245 103.403 67.2536Z" fill="white"/>
<path fill-rule="evenodd" clip-rule="evenodd" d="M107.661 68.4736C108.738 68.4736 109.955 69.3651 109.955 70.3974C109.955 71.4296 108.972 72.2273 107.895 72.2273C106.819 72.2273 105.789 71.3358 105.789 70.3504C105.789 69.3182 106.538 68.4736 107.661 68.4736Z" fill="#525252"/>
<path fill-rule="evenodd" clip-rule="evenodd" d="M53.6053 47.218C54.3541 43.4642 60.2512 41.0243 67.4586 39.6636C85.3838 36.3791 158.254 45.1534 121.702 62.7022C115.852 65.5175 88.8003 59.0892 69.7987 53.834C61.0936 51.394 53.0437 50.221 53.6053 47.218Z" fill="#0062B6"/>
<path fill-rule="evenodd" clip-rule="evenodd" d="M94.0421 64.8137C103.824 65.846 113.652 70.2097 115.945 68.6613C133.543 56.837 75.6958 49.001 71.7644 54.397C71.0156 55.4762 69.1903 57.5877 68.6755 58.7138C65.3993 65.3298 66.7566 64.7668 74.6661 64.2037C78.9251 63.9222 85.7582 63.9222 94.0421 64.8137Z" fill="#525252"/>
<path fill-rule="evenodd" clip-rule="evenodd" d="M92.7785 43.7927C96.0546 43.7927 99.6584 46.4672 99.6584 49.5641C99.6584 52.614 96.8034 55.1008 93.5273 55.1008C90.2512 55.1008 87.2091 52.4263 87.2091 49.3764C87.2091 46.2795 89.5024 43.7927 92.7785 43.7927Z" fill="#FFB500"/>
<path fill-rule="evenodd" clip-rule="evenodd" d="M92.4977 45.3411C94.4165 45.3411 96.5226 46.8895 96.5226 48.6725C96.5226 50.4556 94.8378 51.9101 92.9657 51.9101C91.0468 51.9101 89.3151 50.3617 89.3151 48.5787C89.3151 46.7957 90.6256 45.3411 92.4977 45.3411Z" fill="#FFE100"/>
<path fill-rule="evenodd" clip-rule="evenodd" d="M53.6989 182.681C53.6989 195.209 50.2824 252.032 51.78 259.539H80.7036C82.5288 250.718 89.1747 214.963 92.0764 209.474C94.5101 204.875 93.0593 201.45 94.4165 204.124C102.981 221.016 106.351 246.495 106.398 259.539H136.07C136.304 251.844 133.59 181.649 126.85 180.007C116.694 177.473 107.1 181.414 94.4165 180.664C86.273 180.147 53.6989 167.197 53.6989 182.681Z" fill="#0062B6"/>
<path fill-rule="evenodd" clip-rule="evenodd" d="M65.7738 92.9667C70.2667 100.615 71.2028 103.806 73.4961 113.049C76.6318 125.718 77.0998 121.777 90.3916 113.002C90.8596 112.721 107.287 101.037 110.704 96.7674C108.27 96.7674 84.3073 90.5268 65.7738 92.9667Z" fill="white"/>
<path d="M73.5897 109.436C72.2792 109.436 71.2496 108.357 71.2496 107.09C71.2496 105.776 72.2792 104.744 73.5897 104.744C75.5085 104.744 83.1373 105.354 89.3619 106.199C93.7613 106.809 97.599 107.513 98.8159 108.31C99.8923 109.014 100.22 110.469 99.5179 111.548C98.8627 112.627 97.4118 112.955 96.2886 112.252C95.727 111.876 92.5444 111.36 88.7535 110.844C82.7628 110.046 75.4617 109.436 73.5897 109.436ZM74.5725 117.272C73.3089 117.413 72.1856 116.475 72.0452 115.208C71.9048 113.894 72.8876 112.768 74.1513 112.627C79.1591 112.158 82.3884 112.674 89.2683 113.753H89.3151C90.5788 113.988 91.468 115.161 91.2808 116.428C91.0468 117.695 89.8767 118.586 88.6131 118.398H88.5195C82.1076 117.366 79.0187 116.85 74.5725 117.272ZM70.6412 102.023C69.3775 102.304 68.1607 101.507 67.8798 100.287C67.599 99.0197 68.3947 97.7528 69.6583 97.4712C70.9688 97.1897 79.7207 98.0812 87.7706 99.1135C95.1653 100.099 102.232 101.319 103.215 102.117C104.245 102.914 104.432 104.369 103.636 105.401C102.841 106.433 101.39 106.621 100.36 105.823C100.033 105.542 93.8549 104.65 87.209 103.759C79.4867 102.773 71.4836 101.882 70.6412 102.023Z" fill="#0062B6"/>
<path fill-rule="evenodd" clip-rule="evenodd" d="M50.7504 148.898C50.7504 155.467 49.8143 181.274 49.4399 192.769C49.2059 199.338 51.2652 199.855 57.3962 200.371C80.844 202.388 108.925 202.201 132.466 199.667C138.41 199.057 137.849 198.635 137.474 193.755C137.053 188.359 136.632 172.218 135.602 159.08C157.225 168.135 167.708 143.736 156.242 127.501C149.502 118.023 142.342 114.785 132.981 107.888C125.493 102.351 118.426 98.5505 111.218 96.0636C105.602 99.8643 88.6599 115.489 83.5117 120.604C80.7504 115.208 76.117 105.495 72.56 97.5651C70.5007 92.9198 71.9048 91.4183 66.897 91.9814C49.7675 93.9052 31.8892 106.48 23.2309 122.199C10.922 144.581 24.6817 160.581 50.7504 148.898Z" fill="#1B93F8"/>
<path d="M109.58 97.0959C112.529 94.046 113.699 96.6736 111.733 98.5974C106.819 103.383 96.6162 110.516 94.5569 112.721C90.2979 116.475 85.9453 120.322 81.78 124.17C81.8736 124.545 81.6396 124.92 81.2651 125.202C90.5787 121.214 103.168 116.381 106.211 115.302C105.743 113.753 103.824 107.982 103.824 107.325C103.87 106.199 104.572 105.589 105.696 105.636C108.878 105.776 113.278 105.964 116.226 106.809C115.992 105.964 115.618 103.336 114.12 99.2074C113.231 96.7205 115.618 96.0167 116.507 98.5035C116.928 99.6296 122.498 114.457 115.945 110.609C114.354 109.812 112.248 109.577 108.317 108.92C109.019 110.797 111.827 117.131 109.253 118.117C105.321 119.618 74.1981 131.302 73.73 132.146C73.4492 132.663 73.028 132.991 72.56 133.085C71.2027 134.446 69.9391 135.806 68.8158 137.073C67.7394 145.144 67.6458 163.537 67.5522 177.661C67.5054 183.291 68.067 200.042 67.9734 203.374C67.9266 204.5 67.0374 205.391 65.9141 205.344C64.7909 205.344 63.9485 204.406 63.9485 203.28C64.0421 199.902 63.5272 183.244 63.5272 177.661C63.6208 163.021 63.7612 143.83 64.8845 135.947C64.8845 135.947 65.2121 134.962 65.2589 134.868C68.4882 131.208 72.4664 127.595 76.7722 123.935C72.56 120.698 67.1778 115.348 63.808 113.659C63.7612 113.612 63.7144 113.612 63.6676 113.565C62.6848 113.049 62.3572 111.782 62.872 110.844C64.0889 108.686 66.0545 106.246 67.7394 104.603C66.5226 104.51 62.638 104.603 59.7831 105.026C56.9282 105.448 55.5241 104.275 56.6006 102.21C58.613 98.4566 60.1107 97.3774 62.638 93.7175C64.8845 90.4799 65.8673 93.8583 64.8845 95.2659C62.3104 99.0197 61.936 100.146 61.6084 100.943C63.8548 100.85 74.5725 100.287 74.2449 103.712C74.1981 104.228 73.9641 104.697 73.5896 105.026C71.39 106.949 69.0967 108.873 67.4118 111.266C71.2963 114.222 75.6021 118.915 79.2527 121.824C83.5584 118.258 88.0514 114.598 92.3104 110.844C99.1435 104.838 104.479 101.553 109.58 97.0959ZM80.2823 125.53L80.1419 125.671L80.5631 125.53C80.4695 125.53 80.3759 125.53 80.2823 125.53Z" fill="#0062B6"/>
<path fill-rule="evenodd" clip-rule="evenodd" d="M72.326 168.135C74.9469 168.135 76.819 169.872 76.819 172.452C76.819 174.986 75.0873 176.722 72.4664 176.722C69.8455 176.722 67.4118 175.08 67.4118 172.499C67.4118 169.965 69.6583 168.135 72.326 168.135ZM108.878 168.182C111.546 168.182 112.622 168.558 113.278 171.467C113.98 174.376 111.452 176.534 108.831 176.534C106.164 176.534 104.198 175.361 104.198 172.781C104.198 170.247 106.257 168.182 108.878 168.182ZM107.661 136.229C110.329 136.229 113.231 138.434 113.231 141.015C113.231 143.548 110.938 145.613 108.27 145.613C105.649 145.613 103.215 143.408 103.215 140.827C103.215 138.293 105.041 136.229 107.661 136.229ZM72.7472 134.868C75.3681 134.868 78.2699 137.12 78.2699 139.654C78.2699 142.235 75.9766 144.299 73.3557 144.299C70.688 144.299 68.2543 142.047 68.2543 139.513C68.2543 136.932 70.0795 134.868 72.7472 134.868Z" fill="#FFB500"/>
<path fill-rule="evenodd" clip-rule="evenodd" d="M75.0406 259.539C76.0234 242.6 77.5679 215.761 77.8487 200.089C78.1295 185.59 77.8019 172.921 89.2215 172.499C95.4462 172.312 98.2543 175.221 98.8627 183.62C99.0967 186.904 100.407 240.677 100.688 259.539H75.0406Z" fill="#CC8100"/>
<path fill-rule="evenodd" clip-rule="evenodd" d="M88.8003 178.271C91.4212 178.271 93.3401 179.96 93.3401 182.54C93.3401 185.074 91.5148 186.904 88.8939 186.904C86.2262 186.904 84.3541 185.262 84.3541 182.728C84.3541 180.147 86.1794 178.271 88.8003 178.271Z" fill="#525252"/>
<path d="M48.2698 98.7381C46.2574 100.005 43.5896 96.6267 45.9765 95.0782C50.4695 92.1222 59.2215 90.6676 64.5569 91.2306C67.0842 91.5122 68.301 94.0929 64.1357 94.0929C59.6427 94.0929 52.1076 96.2044 48.2698 98.7381ZM113.652 98.0343C113.652 97.2836 114.307 96.4859 115.618 96.4859C118.098 96.2513 129.752 100.427 131.577 102.023C132.56 102.492 133.028 103.665 132.56 104.697C132.139 105.683 130.922 106.152 129.939 105.729C128.629 105.12 122.31 101.929 117.63 100.615C115.197 99.9112 113.652 98.5505 113.652 98.0343Z" fill="#FFB500"/>
<path d="M48.9251 150.634C42.4196 159.83 39.8455 170.669 40.5476 181.79C51.4992 180.617 65.3057 179.209 80.4227 177.52C69.4243 168.135 58.4727 158.798 48.9251 150.634ZM41.7176 190.095C44.1513 201.403 49.9547 210.6 58.1451 216.793C63.1529 209.567 69.1435 200.981 75.5554 191.831L79.8143 185.684C65.3525 187.326 52.2012 188.828 41.7176 190.095ZM65.1653 221.11C71.9516 224.442 79.8611 226.037 88.5195 225.708C89.1279 225.662 89.7363 225.615 90.2979 225.615C89.3619 215.292 88.0983 202.858 86.6942 189.954C85.1497 192.112 83.6053 194.318 82.1076 196.429C75.7894 205.485 69.9859 213.978 65.1653 221.11ZM97.9735 224.442C106.725 222.471 114.214 218.248 120.064 212.477C112.342 205.438 103.309 197.368 93.8549 189.109C95.3993 201.966 96.8034 214.26 97.9735 224.442ZM125.633 205.767C130.594 198.447 133.496 189.626 133.964 180.007C124.089 180.992 112.201 182.212 99.8455 183.526C109.112 191.502 118.051 199.151 125.633 205.767ZM133.683 171.373C132.42 160.722 127.505 150.868 119.643 143.361C112.716 153.12 104.713 164.335 96.7098 175.69C110.142 174.141 123.106 172.593 133.683 171.373ZM112.95 138.012C105.134 132.944 96.0546 130.645 86.975 130.833C88.2855 141.718 89.8299 154.997 91.468 168.98C99.0499 158.094 106.491 147.396 112.95 138.012ZM78.9719 131.677C69.8455 133.366 61.1404 137.683 54.3541 144.299C63.2933 152.135 73.7301 161.191 84.3541 170.294C82.6224 156.264 80.6568 142.751 78.9719 131.677ZM133.402 108.592C136.445 104.322 143.792 109.624 140.704 113.941C139.065 116.193 133.215 124.357 125.212 135.572C135.555 144.768 142.061 156.687 143.652 170.153C151 169.308 156.242 168.699 158.254 168.511C160.501 168.323 162.42 170.575 162.607 172.781C162.794 174.986 161.39 177.379 159.143 177.567C157.225 177.707 151.796 178.224 144.073 179.021C143.746 191.549 139.861 203.092 133.215 212.43C138.878 217.45 143.324 221.486 145.899 224.113C147.443 225.662 147.864 228.852 146.273 230.401C144.729 231.949 141.967 233.169 140.376 231.621C137.849 229.04 133.309 224.723 127.459 219.28C120.017 226.788 110.376 232.184 99.0499 234.53C99.6115 239.55 99.9859 243.68 100.267 246.542C100.407 248.794 98.7691 250.718 96.5694 250.905C94.3697 251.093 92.404 249.451 92.2168 247.246C91.9828 244.43 91.6552 240.489 91.234 235.609C90.532 235.656 89.8299 235.703 89.1279 235.75C78.1763 236.219 68.1139 234.014 59.5491 229.556C56.1326 234.624 53.6521 238.471 52.2948 240.489C49.3931 244.946 41.858 240.723 44.7597 236.313C46.1638 234.201 48.8315 230.26 52.3884 225.099C41.9516 217.263 34.5569 205.579 31.702 191.268C26.4602 191.925 22.482 192.441 20.1419 192.722C17.9423 193.004 15.9298 191.456 15.6022 189.25C15.3213 187.045 16.8658 184.417 19.0655 184.136C21.546 183.807 25.4774 183.385 30.5788 182.822C29.5959 168.933 32.9188 155.42 41.2964 144.018C29.8767 134.07 21.7332 126.703 20.3759 124.451C17.5678 119.994 22.5756 114.598 28.1919 120.041C29.1747 121.73 36.3822 128.393 46.7722 137.636C55.1965 129.237 66.1014 123.982 77.521 122.058C76.5382 115.724 75.7426 110.797 75.2277 107.794C74.4789 103.008 83.0905 102.07 83.9797 107.747C84.4477 110.75 85.1029 115.395 85.805 121.261C97.0842 120.979 108.504 123.935 118.285 130.316C126.101 119.055 131.764 110.844 133.402 108.592Z" fill="#B06F00"/>
<path fill-rule="evenodd" clip-rule="evenodd" d="M139.487 120.275C139.955 124.123 135.462 136.886 124.37 133.226C119.783 131.724 118.519 129.097 119.175 124.404C119.97 119.102 123.059 112.392 127.271 112.158C128.067 112.111 138.363 111.454 139.487 120.275ZM46.0702 137.214C44.0577 125.343 34.8845 119.29 28.0983 123.747C23.2309 126.938 20.7504 136.839 35.0249 143.548C39.7987 145.801 46.6318 140.545 46.0702 137.214Z" fill="#FFC169"/>
<path d="M31.702 128.674C30.4852 129.66 29.2683 127.22 30.1575 126.563C33.2933 124.498 35.0249 124.357 37.4586 123.747C39.1903 123.278 40.0327 124.921 38.6755 125.296C36.0546 126.094 33.9017 126.938 31.702 128.674ZM35.6802 133.413C34.9313 134.07 32.7316 132.428 33.9953 131.396C36.0546 129.66 39.1903 128.533 41.8112 127.924C43.0749 127.595 43.9641 129.331 42.7004 129.613C39.6115 130.833 38.3947 131.583 35.6802 133.413ZM39.3307 138.809C38.5351 139.419 36.5694 137.589 37.7394 136.745C39.7987 135.196 41.4836 134.446 44.0109 132.71C45.2745 131.49 46.0234 133.507 45.2745 134.164C43.7301 135.572 41.1092 137.542 39.3307 138.809ZM132.981 117.038C134.011 117.882 132.654 119.9 131.624 119.055C130.126 117.835 127.178 116.85 124.978 116.381C123.48 116.099 122.404 115.771 122.404 115.395C122.404 114.41 123.34 114.316 124.651 114.363C127.412 114.504 131.905 116.193 132.981 117.038ZM129.378 121.636C130.407 122.481 128.863 124.311 127.693 123.701C126.382 122.997 119.783 121.073 120.111 119.571C120.626 117.366 128.769 121.12 129.378 121.636ZM124.791 128.956C123.574 128.017 117.724 125.53 119.081 124.076C119.97 123.137 123.293 125.484 125.587 126.187C129.284 127.267 126.242 130.035 124.791 128.956Z" fill="#FF9A2E"/>
</svg>
