<svg width="182" height="284" viewBox="0 0 182 284" fill="none" xmlns="http://www.w3.org/2000/svg">
<path d="M165.177 0.5H16.8231C7.83659 0.5 0.5 7.9059 0.5 16.9065V267.094C0.5 276.094 7.83659 283.5 16.8231 283.5H165.177C174.163 283.5 181.5 276.094 181.5 267.094V16.9065C181.5 7.9059 174.163 0.5 165.177 0.5Z" stroke="black" stroke-opacity="0.3"/>
<path fill-rule="evenodd" clip-rule="evenodd" d="M24.4009 24.4609H157.599V259.539H24.4009V24.4609Z" fill="#00C7FF"/>
<path fill-rule="evenodd" clip-rule="evenodd" d="M24.401 92.6383C50.0484 105.213 129.892 110.515 157.599 103.806V222.565C118.707 214.916 54.3542 211.163 24.401 211.163V92.6383Z" fill="#00B3E5"/>
<path fill-rule="evenodd" clip-rule="evenodd" d="M24.401 157.719C64.1357 167.807 115.337 169.543 157.599 159.22V246.448C118.707 239.503 54.401 237.533 24.401 237.673V157.719Z" fill="#00B3E5"/>
<path fill-rule="evenodd" clip-rule="evenodd" d="M157.599 224.864C118.66 216.371 57.2559 210.694 24.401 210.694V258.648C24.7754 258.976 25.1498 259.258 25.571 259.539H156.382C156.803 259.258 157.225 258.929 157.599 258.601V224.864Z" fill="#00C7FF"/>
<path fill-rule="evenodd" clip-rule="evenodd" d="M16.8658 1H165.134C173.886 1 181 8.13211 181 16.9065V267.094C181 275.821 173.886 283 165.134 283H16.8658C8.16069 283 1 275.821 1 267.094V16.9065C1 8.13211 8.16069 1 16.8658 1ZM24.4009 24.4609H157.599V259.539H24.4009V24.4609Z" fill="white"/>
<path d="M28.3791 24.9771C27.7706 24.8363 27.1622 24.7894 26.507 24.7894C24.7753 24.7894 23.4181 25.1178 22.3884 25.8686L17.5678 29.2939L18.7847 23.4756C19.2059 21.411 20.1419 19.7688 21.6396 18.6426C23.0904 17.5165 24.8689 16.9534 27.0218 16.9534C28.1919 16.9534 29.3151 17.0942 30.3447 17.4227C30.5787 17.4696 30.766 17.5165 30.9532 17.6104L32.1232 15.3112C31.7488 15.1704 31.3744 15.0766 30.9064 14.9358C30.2979 14.795 29.5959 14.6543 28.9407 14.5604C28.2387 14.5135 27.5366 14.4666 26.7878 14.4666C25.4305 14.4666 24.2137 14.5604 23.0436 14.842C21.9204 15.0766 20.8908 15.452 19.9079 15.9681C18.9719 16.4842 18.1763 17.0942 17.4274 17.798C16.7254 18.5019 16.0702 19.3465 15.5553 20.2849C15.0405 21.2703 14.6193 22.3025 14.3853 23.4756C14.1045 24.6486 13.9641 25.9155 13.9641 27.3232C13.9641 28.637 14.0577 29.81 14.2917 30.8892C14.5257 31.8746 14.8533 32.813 15.3213 33.6107C15.7426 34.4084 16.2574 35.1122 16.8658 35.7222C17.4742 36.3321 18.1763 36.8014 18.9251 37.2237C20.5631 38.0683 22.5288 38.4906 24.7753 38.4906C25.6646 38.4906 26.507 38.3967 27.2558 38.2559C28.0046 38.0683 28.7535 37.8336 29.4087 37.5052C30.0639 37.2237 30.6724 36.8483 31.1872 36.426C31.702 36.0037 32.1232 35.4876 32.4976 34.9714C33.1997 33.8922 33.5273 32.6722 33.5273 31.2177C33.5273 30.5608 33.4805 29.9508 33.2933 29.3877C33.1529 28.8716 32.9188 28.3554 32.638 27.8862C32.3104 27.417 31.936 26.9478 31.5148 26.5724C31.0936 26.197 30.6255 25.8686 30.1107 25.5871C29.5491 25.3055 28.9875 25.1178 28.3791 24.9771ZM33.7613 22.3964C34.0889 22.5841 34.3697 22.8656 34.6505 23.1002C35.3993 23.7571 36.0078 24.5079 36.5694 25.3524C37.131 26.197 37.5522 27.1355 37.833 28.1208C38.067 29.1062 38.2075 30.1385 38.2075 31.2177C38.2075 33.5638 37.599 35.7222 36.3354 37.5521C35.727 38.4906 35.0249 39.2882 34.1825 39.992C33.3401 40.6959 32.404 41.3059 31.3744 41.7751C30.3915 42.2443 29.3151 42.5727 28.1919 42.8074C27.0686 43.042 25.9454 43.1827 24.7753 43.1827C21.78 43.1827 19.1123 42.5727 16.7722 41.3528C15.6021 40.7428 14.5257 39.992 13.5897 39.0536C12.6536 38.1152 11.858 37.0829 11.2028 35.8629C10.5475 34.643 10.0795 33.3292 9.75192 31.8746C9.4243 30.4669 9.2839 28.9185 9.2839 27.3232C9.2839 25.5871 9.4711 23.9448 9.79872 22.3964C10.1731 20.848 10.7348 19.3934 11.4836 18.0326C12.2324 16.6719 13.1217 15.4989 14.1513 14.4666C15.2277 13.4343 16.3978 12.5428 17.755 11.839C19.0655 11.1351 20.5163 10.619 22.014 10.2906C23.5585 9.91518 25.1497 9.77441 26.7878 9.77441C27.7238 9.77441 28.6131 9.82134 29.5023 9.91518C30.3915 10.009 31.234 10.1967 32.0764 10.3844C32.9188 10.619 33.7145 10.9005 34.4633 11.1821C35.2121 11.5105 35.9142 11.8859 36.5694 12.3082L38.3479 13.4343L37.365 15.3112L34.0421 21.7864L33.7613 22.3964ZM24.1669 32.0623C24.3073 32.0623 24.4009 32.0623 24.4945 32.0623C24.4945 32.0153 24.5413 32.0153 24.5881 31.9684C24.6349 31.9215 24.6349 31.7807 24.6349 31.64C24.6349 31.4992 24.5881 31.4054 24.5881 31.3115C24.5881 31.2646 24.5413 31.2646 24.5413 31.2646C24.5413 31.2177 24.4945 31.2177 24.4477 31.2177C24.4009 31.1708 24.3073 31.1708 24.1669 31.1708C23.9797 31.1708 23.8861 31.1708 23.8393 31.2177C23.7925 31.2177 23.7457 31.2177 23.7457 31.2646C23.7457 31.2646 23.6989 31.2646 23.6989 31.3115C23.6989 31.4054 23.6521 31.4992 23.6521 31.64C23.6521 31.7807 23.6989 31.9215 23.6989 31.9684C23.7457 32.0153 23.7925 32.0153 23.7925 32.0623C23.8861 32.0623 23.9797 32.0623 24.1669 32.0623ZM26.0858 36.426C25.4773 36.6606 24.8221 36.7544 24.1669 36.7544C23.4649 36.7544 22.8096 36.6606 22.2012 36.426C21.546 36.1914 20.9844 35.8629 20.5163 35.3937C20.0015 34.8776 19.6271 34.3145 19.3463 33.6576C19.1123 33.0007 18.9719 32.3438 18.9719 31.64C18.9719 30.9361 19.1123 30.2792 19.3463 29.6223C19.5803 28.9654 19.9547 28.4024 20.4695 27.8862C20.9844 27.417 21.546 27.0416 22.2012 26.807C22.8096 26.5724 23.4649 26.4786 24.1669 26.4786C24.8221 26.4786 25.4773 26.5724 26.0858 26.807C26.741 27.0416 27.3026 27.417 27.8174 27.8862C28.3323 28.4024 28.7067 28.9654 28.9407 29.6223C29.1747 30.2792 29.3151 30.9361 29.3151 31.64C29.3151 32.3438 29.1747 33.0007 28.9407 33.6107V33.6576C28.7067 34.3145 28.2855 34.8776 27.7706 35.3937C27.3026 35.8629 26.741 36.1914 26.0858 36.426Z" fill="white"/>
<path d="M26.507 22.4432C28.1451 22.4432 29.7363 22.7717 31.1404 23.5224C32.5913 24.2732 33.7145 25.3054 34.6037 26.6193C35.4462 27.9331 35.8674 29.4815 35.8674 31.2176C35.8674 33.1414 35.3994 34.7837 34.4165 36.2851C33.4337 37.7397 32.1232 38.8658 30.3916 39.6635C28.7067 40.4143 26.8346 40.8366 24.7753 40.8366C22.1544 40.8366 19.8143 40.3204 17.8487 39.2881C15.883 38.2559 14.3853 36.7544 13.2621 34.7367C12.1856 32.7191 11.624 30.2322 11.624 27.3231C11.624 24.1793 12.2792 21.4579 13.5429 19.1587C14.8065 16.8595 16.5382 15.1234 18.8315 13.9035C21.1248 12.6835 23.7925 12.1204 26.7878 12.1204C28.4727 12.1204 30.0172 12.3081 31.5148 12.6835C33.0125 13.0589 34.2761 13.575 35.3058 14.2788L31.9828 20.754C30.6256 19.7687 28.9407 19.2995 27.0218 19.2995C25.4306 19.2995 24.1201 19.6748 23.0905 20.4725C22.0608 21.2702 21.3588 22.4432 21.0312 23.9447C22.4821 22.9124 24.3073 22.4432 26.507 22.4432ZM24.1669 34.4083C24.9626 34.4083 25.6646 34.1737 26.1794 33.7044C26.6942 33.1883 26.975 32.4845 26.975 31.6399C26.975 30.7953 26.6942 30.0915 26.1794 29.5753C25.6646 29.0592 24.9626 28.8246 24.1669 28.8246C23.3245 28.8246 22.6225 29.0592 22.1076 29.5753C21.5928 30.0915 21.312 30.7953 21.312 31.6399C21.312 32.4845 21.5928 33.1883 22.1076 33.7044C22.6225 34.1737 23.3245 34.4083 24.1669 34.4083Z" fill="#525252"/>
<path d="M156.289 256.02C155.68 255.879 155.072 255.832 154.37 255.832C152.685 255.832 151.328 256.208 150.298 256.911L145.477 260.337L146.647 254.565C147.115 252.454 148.051 250.859 149.549 249.685C151 248.559 152.778 247.996 154.885 247.996C156.055 247.996 157.178 248.137 158.254 248.466C158.442 248.512 158.676 248.559 158.863 248.653L160.033 246.354C159.658 246.213 159.237 246.119 158.816 246.026C158.161 245.838 157.505 245.697 156.85 245.65C156.148 245.556 155.446 245.509 154.697 245.509C153.34 245.509 152.076 245.65 150.953 245.885C149.83 246.166 148.8 246.542 147.817 247.058C146.881 247.527 146.039 248.137 145.337 248.841C144.588 249.545 143.98 250.389 143.465 251.328C142.95 252.313 142.529 253.345 142.248 254.518C142.014 255.691 141.874 257.005 141.874 258.366C141.874 259.727 141.967 260.9 142.201 261.932C142.435 262.964 142.763 263.856 143.231 264.7C143.652 265.498 144.167 266.202 144.775 266.765C145.384 267.375 146.039 267.891 146.835 268.267C148.473 269.111 150.392 269.533 152.685 269.533C153.574 269.533 154.37 269.44 155.165 269.299C155.914 269.158 156.616 268.876 157.318 268.595C157.973 268.267 158.582 267.891 159.097 267.469C159.565 267.047 160.033 266.577 160.36 266.014C161.062 264.982 161.437 263.715 161.437 262.261C161.437 261.604 161.343 260.994 161.203 260.477C161.062 259.914 160.828 259.398 160.548 258.929C160.22 258.46 159.846 258.038 159.424 257.662C159.003 257.287 158.535 256.958 157.973 256.677C157.412 256.395 156.85 256.161 156.289 256.02ZM161.671 253.439C161.952 253.674 162.279 253.908 162.56 254.143C163.262 254.847 163.917 255.551 164.432 256.395C164.994 257.287 165.415 258.225 165.696 259.211C165.977 260.196 166.117 261.181 166.117 262.261C166.117 264.654 165.509 266.765 164.245 268.642C163.637 269.533 162.888 270.378 162.092 271.082C161.25 271.739 160.314 272.349 159.284 272.818C158.254 273.287 157.225 273.663 156.101 273.897C154.978 274.132 153.855 274.226 152.685 274.226C149.643 274.226 147.022 273.616 144.682 272.443C143.512 271.833 142.435 271.035 141.499 270.096C140.563 269.205 139.768 268.126 139.112 266.906C138.457 265.733 137.989 264.372 137.661 262.917C137.334 261.51 137.193 260.008 137.193 258.366C137.193 256.63 137.334 254.988 137.708 253.439C138.083 251.891 138.644 250.436 139.346 249.075C140.095 247.762 140.984 246.542 142.061 245.509C143.09 244.477 144.307 243.586 145.665 242.882C146.975 242.178 148.379 241.662 149.924 241.333C151.421 241.005 153.012 240.817 154.697 240.817C155.587 240.817 156.476 240.864 157.365 240.958C158.254 241.099 159.144 241.24 159.986 241.474C160.828 241.662 161.624 241.943 162.373 242.272C163.122 242.553 163.824 242.929 164.479 243.351L166.211 244.524L165.275 246.401L161.952 252.876L161.671 253.439ZM152.03 263.152C152.17 263.152 152.31 263.105 152.357 263.105C152.404 263.105 152.451 263.058 152.451 263.058L152.498 263.011C152.498 262.964 152.498 262.871 152.498 262.683C152.498 262.542 152.498 262.448 152.498 262.354C152.451 262.354 152.451 262.307 152.451 262.307C152.404 262.307 152.404 262.261 152.357 262.261C152.31 262.214 152.17 262.214 152.03 262.214C151.889 262.214 151.796 262.214 151.702 262.261C151.702 262.261 151.655 262.307 151.608 262.307V262.354C151.562 262.448 151.562 262.542 151.562 262.683C151.562 262.871 151.562 262.964 151.608 263.011V263.058C151.655 263.058 151.655 263.105 151.702 263.105C151.749 263.105 151.889 263.152 152.03 263.152ZM153.949 267.516C153.34 267.703 152.732 267.844 152.03 267.844C151.374 267.844 150.719 267.703 150.111 267.516C149.456 267.281 148.894 266.906 148.379 266.437C147.911 265.967 147.49 265.357 147.256 264.7C147.022 264.09 146.881 263.387 146.881 262.683C146.881 261.979 146.975 261.322 147.209 260.712C147.49 260.055 147.864 259.445 148.379 258.976C148.847 258.46 149.456 258.131 150.111 257.897C150.719 257.662 151.374 257.521 152.03 257.521C152.732 257.521 153.387 257.662 153.995 257.897C154.651 258.131 155.212 258.46 155.68 258.976C156.195 259.445 156.616 260.055 156.85 260.712C157.084 261.322 157.178 261.979 157.178 262.683C157.178 263.387 157.084 264.044 156.85 264.7C156.569 265.357 156.195 265.967 155.68 266.437C155.165 266.906 154.604 267.281 153.949 267.516Z" fill="white"/>
<path d="M154.37 253.486C156.055 253.486 157.599 253.862 159.05 254.565C160.501 255.316 161.624 256.348 162.467 257.662C163.356 259.023 163.777 260.524 163.777 262.261C163.777 264.184 163.309 265.874 162.326 267.328C161.343 268.783 159.986 269.909 158.301 270.706C156.616 271.504 154.744 271.88 152.685 271.88C150.017 271.88 147.724 271.363 145.758 270.331C143.793 269.346 142.248 267.797 141.172 265.78C140.048 263.762 139.534 261.322 139.534 258.366C139.534 255.222 140.142 252.548 141.406 250.202C142.669 247.902 144.448 246.166 146.741 244.946C149.034 243.773 151.655 243.163 154.697 243.163C156.335 243.163 157.927 243.351 159.378 243.726C160.875 244.102 162.139 244.618 163.169 245.322L159.846 251.797C158.488 250.812 156.85 250.342 154.885 250.342C153.293 250.342 151.983 250.718 150.953 251.515C149.924 252.313 149.268 253.486 148.941 254.988C150.392 254.002 152.217 253.486 154.37 253.486ZM152.03 265.498C152.872 265.498 153.574 265.217 154.089 264.747C154.604 264.231 154.838 263.574 154.838 262.683C154.838 261.838 154.604 261.134 154.089 260.618C153.574 260.149 152.872 259.868 152.03 259.868C151.187 259.868 150.532 260.149 150.017 260.618C149.502 261.134 149.222 261.838 149.222 262.683C149.222 263.574 149.502 264.231 150.017 264.747C150.532 265.217 151.187 265.498 152.03 265.498Z" fill="#525252"/>
<path fill-rule="evenodd" clip-rule="evenodd" d="M95.259 45.0127C97.7863 41.0712 101.203 36.8483 104.058 34.4553C107.661 31.4053 109.58 30.9831 104.947 39.1005C103.449 41.6343 108.27 43.0889 115.103 44.9188C122.544 46.9365 129.19 49.6579 128.254 50.2679C127.599 50.6902 123.668 49.9395 111.78 49.4702C111.686 49.4702 88.8939 47.8749 95.259 45.0127Z" fill="#4D4D4D"/>
<path fill-rule="evenodd" clip-rule="evenodd" d="M138.364 50.0332C135.883 50.2209 124.978 48.7663 122.966 48.0156C120.298 46.9833 100.36 44.0741 97.5991 44.0741C93.1529 44.0741 78.5039 48.2502 76.4914 50.2678C76.5382 49.9863 86.9282 51.7693 87.5835 52.567C87.9111 52.7547 85.2902 52.567 82.4821 52.4731C79.1123 52.3793 78.5039 52.5201 80.7504 53.4585C85.805 55.523 93.5273 58.0099 95.727 58.2445C116.554 60.3091 121.328 55.1477 135.275 54.0685C140.657 53.6931 139.627 53.5054 138.364 50.0332Z" fill="#3F97E1"/>
<path fill-rule="evenodd" clip-rule="evenodd" d="M116.413 56.8369C128.207 68.0981 126.803 64.579 123.059 59.8399C121.842 58.3384 125.867 56.6492 126.148 54.6315C124.323 52.9893 115.758 56.2269 116.413 56.8369Z" fill="#4D4D4D"/>
<path fill-rule="evenodd" clip-rule="evenodd" d="M139.253 52.2854C125.54 50.4555 111.312 49.7517 98.0203 49.4232C93.2933 49.2824 90.0172 49.6109 86.8346 49.8924C83.9329 50.127 79.7675 50.0332 76.3978 49.7986C75.883 49.7047 73.7301 49.0009 73.7769 48.954C74.6193 48.6255 75.9766 47.9217 77.8019 47.6871C80.5164 47.3587 83.2777 45.951 86.507 45.2472C90.8596 44.3087 95.6334 44.0741 97.5991 44.0741C100.36 44.0741 120.298 46.9833 122.966 48.0156C124.978 48.7663 135.883 50.2209 138.363 50.0332C138.738 51.0186 139.066 51.7224 139.253 52.2854Z" fill="#1561AD"/>
<path fill-rule="evenodd" clip-rule="evenodd" d="M86.741 55.6638C96.0078 53.177 102.232 52.7078 113.559 52.4731C115.384 52.4262 125.821 52.6608 131.858 54.4439C120.392 55.9923 114.775 60.1214 95.727 58.2445C94.3229 58.1038 90.5788 56.9776 86.741 55.6638Z" fill="white"/>
<path d="M95.259 47.218C95.1654 47.0303 95.259 46.8426 95.3994 46.7488C95.5866 46.6549 95.8206 46.7488 95.8674 46.8895C96.1482 47.4526 96.3822 48.2033 96.5694 49.0479C96.8502 50.4556 96.9438 52.1448 96.6162 53.6463C96.2418 55.2416 95.4462 56.6024 93.9017 57.3531C93.5273 57.5408 93.1061 57.6816 92.6381 57.7754C92.4509 57.8223 92.2637 57.7285 92.2168 57.4939C92.17 57.3062 92.3105 57.1185 92.4977 57.1185C92.9189 57.0246 93.2465 56.8839 93.5741 56.7431C94.9314 56.0862 95.6334 54.8662 95.9142 53.5055C96.2418 52.0979 96.1482 50.5025 95.8674 49.1887C95.727 48.391 95.493 47.7341 95.259 47.218Z" fill="#4D4D4D"/>
<path d="M52.8564 50.8778C51.1248 50.8778 51.3588 49.2356 53.1372 49.2825L82.8564 47.3587C83.6053 47.4056 84.1669 48.0156 84.1669 48.7194C84.1201 49.4702 83.5117 50.0332 82.8096 50.0332L52.8564 50.8778Z" fill="#1561AD"/>
<path fill-rule="evenodd" clip-rule="evenodd" d="M85.3838 48.5786C86.4134 48.5786 87.3026 49.2355 87.3026 50.0332C87.3026 50.8778 86.4134 51.5347 85.3838 51.5347C84.3073 51.5347 83.4181 50.8778 83.4181 50.0332C83.4181 49.2355 84.3073 48.5786 85.3838 48.5786Z" fill="white"/>
<path fill-rule="evenodd" clip-rule="evenodd" d="M85.1966 49.0948C85.7582 49.0948 86.2262 49.4702 86.2262 49.8925C86.2262 50.3617 85.7582 50.7371 85.1966 50.7371C84.5881 50.7371 84.1201 50.3617 84.1201 49.8925C84.1201 49.4702 84.5881 49.0948 85.1966 49.0948Z" fill="#4D4D4D"/>
<path fill-rule="evenodd" clip-rule="evenodd" d="M147.209 39.992C142.248 43.9803 139.767 47.2179 138.176 49.8925C136.398 52.8486 144.822 62.4206 146.554 64.5321C151.094 70.0689 150.719 68.4735 148.426 62.8429C147.256 59.9337 145.665 55.6639 145.524 52.9893C145.243 48.5318 149.081 43.6988 150.672 40.3674C152.217 36.989 152.31 35.2529 147.209 39.992Z" fill="#4D4D4D"/>
<path fill-rule="evenodd" clip-rule="evenodd" d="M108.644 55.4293C107.24 55.617 105.977 56.0393 104.9 56.4616C103.262 57.1185 101.905 57.4938 100.828 57.5408C96.7098 57.7284 97.7394 56.0393 99.9859 54.9601C105.789 52.1917 120.953 53.7401 108.644 55.4293Z" fill="#4D4D4D"/>
<path fill-rule="evenodd" clip-rule="evenodd" d="M68.3947 116.85C71.5304 111.923 75.7894 106.668 79.3931 103.665C83.8861 99.8642 86.273 99.348 80.4696 109.436C78.6443 112.627 84.6349 114.457 93.1529 116.756C102.466 119.243 110.797 122.668 109.58 123.466C108.785 123.982 103.871 122.997 88.9875 122.434C88.8939 122.434 60.3916 120.416 68.3947 116.85Z" fill="#4D4D4D"/>
<path fill-rule="evenodd" clip-rule="evenodd" d="M122.264 123.137C119.128 123.325 105.509 121.542 103.028 120.604C99.6583 119.29 74.7597 115.677 71.2964 115.677C65.727 115.677 47.3806 120.885 44.9001 123.419C44.9938 123.09 57.9579 125.343 58.7535 126.281C59.1747 126.516 55.8986 126.281 52.4352 126.187C48.1763 126.093 47.3806 126.234 50.2356 127.407C56.5538 129.988 66.195 133.132 68.9563 133.366C94.9782 135.947 100.969 129.519 118.379 128.205C125.119 127.689 123.808 127.454 122.264 123.137Z" fill="#3F97E1"/>
<path fill-rule="evenodd" clip-rule="evenodd" d="M94.7909 131.63C109.58 145.707 107.802 141.343 103.122 135.384C101.624 133.507 106.585 131.396 106.959 128.862C104.713 126.797 93.9485 130.833 94.7909 131.63Z" fill="#4D4D4D"/>
<path fill-rule="evenodd" clip-rule="evenodd" d="M123.34 125.953C106.257 123.654 88.4258 122.762 71.8112 122.34C65.9141 122.199 61.7956 122.621 57.8642 122.95C54.2137 123.231 49.0187 123.137 44.7597 122.809C44.1045 122.715 41.4836 121.824 41.5304 121.777C42.56 121.354 44.2917 120.51 46.5382 120.228C49.9547 119.806 53.3712 118.023 57.443 117.131C62.872 115.958 68.8159 115.677 71.2964 115.677C74.7597 115.677 99.6583 119.29 103.028 120.604C105.509 121.542 119.128 123.325 122.264 123.137C122.685 124.357 123.106 125.249 123.34 125.953Z" fill="#1561AD"/>
<path fill-rule="evenodd" clip-rule="evenodd" d="M57.7238 130.176C69.3307 127.079 77.0998 126.469 91.2808 126.187C93.5273 126.14 106.585 126.375 114.12 128.674C99.7987 130.598 92.7316 135.759 68.9563 133.366C67.1778 133.226 62.4976 131.818 57.7238 130.176Z" fill="white"/>
<path d="M68.3478 119.618C68.2542 119.384 68.3478 119.102 68.5818 119.008C68.769 118.914 69.0498 119.008 69.1435 119.243C69.4711 119.9 69.7987 120.838 70.0327 121.871C70.3603 123.654 70.5007 125.765 70.0795 127.642C69.6115 129.613 68.5818 131.349 66.663 132.287C66.1949 132.522 65.6801 132.709 65.1185 132.85C64.8845 132.897 64.6505 132.709 64.6037 132.475C64.5101 132.24 64.6973 132.006 64.9313 131.959C65.4461 131.865 65.8673 131.677 66.2885 131.49C67.9266 130.692 68.8158 129.19 69.1903 127.454C69.6115 125.671 69.4711 123.7 69.1435 122.058C68.9562 121.073 68.6754 120.228 68.3478 119.618Z" fill="#4D4D4D"/>
<path d="M15.3681 124.217C13.2153 124.17 13.4961 122.152 15.6958 122.199L52.8564 119.806C53.7925 119.806 54.4945 120.604 54.4945 121.495C54.4477 122.434 53.6989 123.137 52.8096 123.137L15.3681 124.217Z" fill="#1561AD"/>
<path fill-rule="evenodd" clip-rule="evenodd" d="M55.9922 121.307C57.3495 121.307 58.4259 122.105 58.4259 123.137C58.4259 124.17 57.3495 125.014 55.9922 125.014C54.6349 125.014 53.5585 124.17 53.5585 123.137C53.5585 122.105 54.6349 121.307 55.9922 121.307Z" fill="white"/>
<path fill-rule="evenodd" clip-rule="evenodd" d="M55.7582 121.964C56.507 121.964 57.0686 122.387 57.0686 122.997C57.0686 123.56 56.507 123.982 55.7582 123.982C55.0094 123.982 54.4477 123.56 54.4477 122.997C54.4477 122.387 55.0094 121.964 55.7582 121.964Z" fill="#4D4D4D"/>
<path fill-rule="evenodd" clip-rule="evenodd" d="M133.262 110.562C127.084 115.536 123.995 119.571 122.03 122.95C119.783 126.656 130.314 138.622 132.513 141.249C138.176 148.194 137.661 146.223 134.806 139.138C133.356 135.478 131.39 130.176 131.203 126.844C130.828 121.26 135.649 115.208 137.615 111.032C139.58 106.855 139.674 104.65 133.262 110.562Z" fill="#4D4D4D"/>
<path fill-rule="evenodd" clip-rule="evenodd" d="M85.1029 129.894C83.3244 130.129 81.78 130.645 80.4227 131.161C78.3634 131.959 76.6786 132.475 75.3681 132.522C70.1731 132.756 71.4368 130.645 74.2917 129.284C81.4992 125.859 100.454 127.783 85.1029 129.894Z" fill="#4D4D4D"/>
<path fill-rule="evenodd" clip-rule="evenodd" d="M87.443 227.069C84.9157 223.128 81.4992 218.905 78.6442 216.512C75.0405 213.462 73.1216 213.04 77.8018 221.157C79.2527 223.691 74.4321 225.145 67.599 226.975C60.2043 228.993 53.5116 231.714 54.4945 232.324C55.1029 232.747 59.0343 231.996 70.9219 231.527C71.0155 231.527 93.8549 229.931 87.443 227.069Z" fill="#4D4D4D"/>
<path fill-rule="evenodd" clip-rule="evenodd" d="M44.3385 232.09C46.8658 232.231 57.7238 230.823 59.7363 230.072C62.404 229.04 82.3416 226.131 85.1029 226.131C89.5959 226.131 104.245 230.307 106.211 232.278C106.164 232.043 95.7738 233.826 95.1185 234.624C94.7909 234.811 97.4118 234.624 100.22 234.53C103.59 234.436 104.245 234.577 101.952 235.515C96.897 237.58 89.1747 240.067 86.975 240.301C66.1482 242.366 61.3744 237.204 47.4274 236.125C42.092 235.75 43.0749 235.562 44.3385 232.09Z" fill="#3F97E1"/>
<path fill-rule="evenodd" clip-rule="evenodd" d="M66.3354 238.894C54.4945 250.155 55.8986 246.636 59.6427 241.897C60.8596 240.395 56.8814 238.706 56.6006 236.688C58.3791 235.046 66.9906 238.284 66.3354 238.894Z" fill="#4D4D4D"/>
<path fill-rule="evenodd" clip-rule="evenodd" d="M43.4961 234.342C57.1622 232.512 71.39 231.808 84.6817 231.48C89.4087 231.339 92.6848 231.668 95.8674 231.949C98.7691 232.184 102.934 232.09 106.304 231.855C106.866 231.761 108.972 231.058 108.925 231.011C108.083 230.635 106.725 229.978 104.947 229.744C102.186 229.415 99.4711 228.008 96.195 227.257C91.8892 226.318 87.1154 226.131 85.1029 226.131C82.3416 226.131 62.404 229.04 59.7363 230.072C57.7238 230.823 46.8658 232.231 44.3385 232.09C44.0109 233.075 43.6365 233.779 43.4961 234.342Z" fill="#1561AD"/>
<path fill-rule="evenodd" clip-rule="evenodd" d="M95.961 237.72C86.6942 235.234 80.4696 234.764 69.1435 234.53C67.365 234.483 56.8814 234.671 50.844 236.5C62.3104 238.049 67.9735 242.178 86.975 240.301C88.4259 240.16 92.17 239.034 95.961 237.72Z" fill="white"/>
<path d="M87.443 229.275C87.5366 229.087 87.4898 228.899 87.3026 228.805C87.1154 228.711 86.9282 228.758 86.8346 228.946C86.5538 229.509 86.3198 230.26 86.1326 231.058C85.8518 232.465 85.7582 234.201 86.0858 235.703C86.4602 237.298 87.2558 238.659 88.8003 239.41C89.1747 239.597 89.5959 239.738 90.0639 239.832C90.2511 239.879 90.4383 239.738 90.4851 239.55C90.532 239.363 90.3915 239.175 90.2043 239.128C89.8299 239.081 89.4555 238.94 89.1279 238.8C87.8174 238.143 87.1154 236.923 86.7878 235.562C86.4602 234.154 86.5538 232.559 86.8346 231.245C87.0218 230.448 87.209 229.744 87.443 229.275Z" fill="#4D4D4D"/>
<path d="M129.846 232.934C131.577 232.888 131.343 231.292 129.612 231.339L99.8455 229.415C99.1435 229.462 98.5351 230.072 98.5819 230.776C98.5819 231.527 99.1903 232.09 99.8923 232.09L129.846 232.934Z" fill="#1561AD"/>
<path fill-rule="evenodd" clip-rule="evenodd" d="M97.365 230.588C96.2886 230.588 95.3993 231.292 95.3993 232.09C95.3993 232.934 96.2886 233.591 97.365 233.591C98.4414 233.591 99.2839 232.934 99.2839 232.09C99.2839 231.292 98.4414 230.588 97.365 230.588Z" fill="white"/>
<path fill-rule="evenodd" clip-rule="evenodd" d="M97.5522 231.151C96.9438 231.151 96.4758 231.527 96.4758 231.949C96.4758 232.418 96.9438 232.794 97.5522 232.794C98.1138 232.794 98.5819 232.418 98.5819 231.949C98.5819 231.527 98.1138 231.151 97.5522 231.151Z" fill="#4D4D4D"/>
<path fill-rule="evenodd" clip-rule="evenodd" d="M35.5397 222.049C40.4539 226.037 42.9344 229.228 44.5257 231.949C46.3042 234.905 37.8798 244.477 36.1482 246.589C31.6084 252.125 32.0296 250.53 34.2761 244.899C35.4929 241.99 37.0374 237.72 37.1778 235.046C37.5054 230.588 33.6209 225.755 32.0764 222.424C30.4851 219.046 30.3915 217.309 35.5397 222.049Z" fill="#4D4D4D"/>
<path fill-rule="evenodd" clip-rule="evenodd" d="M74.0577 237.486C75.5085 237.673 76.7254 238.096 77.8018 238.518C79.4399 239.175 80.7971 239.55 81.8736 239.597C86.0389 239.785 85.0093 238.096 82.716 237.017C76.9126 234.248 61.7956 235.797 74.0577 237.486Z" fill="#4D4D4D"/>
<path fill-rule="evenodd" clip-rule="evenodd" d="M79.4399 191.08C82.2948 186.67 86.1326 181.884 89.3619 179.209C93.4337 175.784 95.5398 175.314 90.3448 184.417C88.7067 187.28 94.0889 188.922 101.764 190.986C110.142 193.239 117.63 196.335 116.554 197.039C115.852 197.462 111.406 196.617 98.0203 196.101C97.9267 196.101 72.2792 194.318 79.4399 191.08Z" fill="#4D4D4D"/>
<path fill-rule="evenodd" clip-rule="evenodd" d="M127.927 196.758C125.119 196.898 112.903 195.303 110.657 194.459C107.615 193.286 85.1965 190.001 82.0608 190.001C77.053 190.001 60.5787 194.693 58.3323 196.992C58.4259 196.664 70.0795 198.728 70.8284 199.573C71.156 199.761 68.2075 199.573 65.1185 199.479C61.2808 199.385 60.5787 199.526 63.1061 200.558C68.8627 202.904 77.521 205.72 80.0015 205.954C103.402 208.3 108.785 202.482 124.463 201.309C130.501 200.84 129.377 200.652 127.927 196.758Z" fill="#3F97E1"/>
<path fill-rule="evenodd" clip-rule="evenodd" d="M103.215 204.406C116.507 217.075 114.963 213.133 110.704 207.784C109.393 206.048 113.886 204.171 114.167 201.919C112.154 200.042 102.466 203.702 103.215 204.406Z" fill="#4D4D4D"/>
<path fill-rule="evenodd" clip-rule="evenodd" d="M128.91 199.245C113.559 197.227 97.5055 196.382 82.5757 196.054C77.2402 195.913 73.5429 196.242 69.986 196.57C66.7098 196.805 62.0296 196.758 58.2387 196.476C57.6303 196.382 55.2434 195.585 55.2902 195.538C56.2262 195.115 57.7707 194.365 59.7831 194.13C62.8721 193.708 65.961 192.112 69.6115 191.315C74.4789 190.283 79.8612 190.001 82.0608 190.001C85.1966 190.001 107.615 193.286 110.657 194.459C112.903 195.303 125.119 196.898 127.927 196.758C128.348 197.837 128.722 198.635 128.91 199.245Z" fill="#1561AD"/>
<path fill-rule="evenodd" clip-rule="evenodd" d="M69.8456 203.092C80.3292 200.277 87.3026 199.761 100.08 199.479C102.092 199.432 113.839 199.667 120.626 201.684C107.708 203.421 101.39 208.066 80.0016 205.954C78.3635 205.814 74.1981 204.547 69.8456 203.092Z" fill="white"/>
<path d="M79.4399 193.567C79.3463 193.379 79.4399 193.145 79.6272 193.004C79.8144 192.91 80.0484 193.004 80.142 193.192C80.4696 193.849 80.7504 194.646 80.9376 195.585C81.2652 197.18 81.3588 199.104 80.9844 200.793C80.5632 202.576 79.674 204.124 77.9423 204.969C77.5211 205.204 77.053 205.344 76.5382 205.438C76.3042 205.485 76.0702 205.344 76.0234 205.157C76.0234 204.922 76.117 204.734 76.351 204.687C76.819 204.594 77.1935 204.453 77.5679 204.265C79.0655 203.561 79.8612 202.201 80.1888 200.652C80.5632 199.057 80.4696 197.274 80.142 195.772C79.9548 194.881 79.7208 194.13 79.4399 193.567Z" fill="#4D4D4D"/>
<path d="M31.7488 197.696C29.7832 197.649 30.064 195.866 32.0296 195.913L65.493 193.755C66.3354 193.755 66.9906 194.459 66.9438 195.256C66.9438 196.101 66.2418 196.758 65.4462 196.758L31.7488 197.696Z" fill="#1561AD"/>
<path fill-rule="evenodd" clip-rule="evenodd" d="M68.3011 195.069C69.5179 195.069 70.5008 195.819 70.5008 196.758C70.5008 197.696 69.5179 198.447 68.3011 198.447C67.131 198.447 66.1482 197.696 66.1482 196.758C66.1482 195.819 67.131 195.069 68.3011 195.069Z" fill="white"/>
<path fill-rule="evenodd" clip-rule="evenodd" d="M68.1139 195.679C68.7691 195.679 69.2839 196.101 69.2839 196.57C69.2839 197.086 68.7691 197.509 68.1139 197.509C67.4586 197.509 66.897 197.086 66.897 196.57C66.897 196.101 67.4586 195.679 68.1139 195.679Z" fill="#4D4D4D"/>
<path fill-rule="evenodd" clip-rule="evenodd" d="M137.849 185.45C132.326 189.907 129.518 193.52 127.739 196.57C125.727 199.902 135.228 210.694 137.147 213.04C142.295 219.28 141.827 217.497 139.253 211.163C137.942 207.878 136.164 203.092 135.977 200.042C135.696 195.022 140.002 189.626 141.78 185.872C143.559 182.071 143.652 180.101 137.849 185.45Z" fill="#4D4D4D"/>
<path fill-rule="evenodd" clip-rule="evenodd" d="M94.5101 202.811C92.9189 203.045 91.5148 203.468 90.298 203.984C88.4727 204.687 86.9282 205.157 85.7582 205.204C81.078 205.391 82.248 203.514 84.7753 202.294C91.2808 199.151 108.363 200.934 94.5101 202.811Z" fill="#4D4D4D"/>
<path fill-rule="evenodd" clip-rule="evenodd" d="M99.0967 78.7963C96.2886 74.3857 92.4041 69.6466 89.2215 66.9251C85.1498 63.4998 82.9969 63.0306 88.2387 72.1334C89.8768 74.9956 84.4945 76.6379 76.819 78.7025C68.4415 80.9547 60.9532 84.0515 62.0297 84.7554C62.7317 85.2246 67.1779 84.3331 80.5632 83.8169C80.6568 83.8169 106.304 82.0339 99.0967 78.7963Z" fill="#4D4D4D"/>
<path fill-rule="evenodd" clip-rule="evenodd" d="M50.61 84.4738C53.4649 84.6615 65.6802 83.0192 67.9267 82.1747C70.9688 81.0016 93.3869 77.764 96.4758 77.764C101.53 77.764 118.005 82.4562 120.251 84.7084C120.158 84.4269 108.504 86.4445 107.755 87.2891C107.381 87.5237 110.329 87.2891 113.465 87.1953C117.256 87.1014 118.005 87.2422 115.431 88.3214C109.721 90.6206 101.062 93.4359 98.5819 93.6705C75.1342 96.0166 69.7988 90.1983 54.1201 89.0252C48.0827 88.556 49.2059 88.3683 50.61 84.4738Z" fill="#3F97E1"/>
<path fill-rule="evenodd" clip-rule="evenodd" d="M75.3682 92.122C62.0296 104.791 63.6209 100.849 67.8331 95.5004C69.1903 93.8112 64.6973 91.8874 64.3697 89.6352C66.429 87.7583 76.0702 91.4182 75.3682 92.122Z" fill="#4D4D4D"/>
<path fill-rule="evenodd" clip-rule="evenodd" d="M49.6271 86.9607C65.025 84.943 81.078 84.0984 96.0078 83.77C101.296 83.6292 104.994 84.0046 108.598 84.2861C111.874 84.5677 116.507 84.4738 120.345 84.1923C120.953 84.0984 123.34 83.3008 123.293 83.2539C122.357 82.8316 120.813 82.0808 118.8 81.8462C115.665 81.4708 112.622 79.8286 108.925 79.0309C104.105 77.9986 98.7223 77.764 96.4758 77.764C93.3869 77.764 70.9688 81.0016 67.9267 82.1747C65.6802 83.0192 53.4649 84.6615 50.61 84.4738C50.2356 85.5999 49.8611 86.3976 49.6271 86.9607Z" fill="#1561AD"/>
<path fill-rule="evenodd" clip-rule="evenodd" d="M108.691 90.8083C98.2543 87.993 91.2808 87.4769 78.5039 87.1953C76.4914 87.1953 64.7441 87.383 57.9579 89.4476C70.8284 91.1368 77.1934 95.829 98.5819 93.6706C100.173 93.5298 104.385 92.3098 108.691 90.8083Z" fill="white"/>
<path d="M99.1435 81.2831C99.2371 81.0954 99.1435 80.8608 98.9563 80.767C98.7691 80.6732 98.4883 80.7201 98.3947 80.9547C98.1139 81.5647 97.8331 82.4093 97.6459 83.3477C97.3183 84.8961 97.1779 86.8199 97.5991 88.556C97.9735 90.2921 98.9095 91.8875 100.641 92.7321C101.062 92.9197 101.53 93.0605 102.045 93.2013C102.279 93.2482 102.466 93.1074 102.513 92.8728C102.56 92.6382 102.42 92.4505 102.232 92.4036C101.764 92.3098 101.343 92.169 101.016 91.9813C99.5179 91.2775 98.7223 89.9167 98.3479 88.3683C98.0203 86.773 98.1139 84.99 98.4415 83.4885C98.6287 82.5969 98.8627 81.8462 99.1435 81.2831Z" fill="#4D4D4D"/>
<path d="M146.788 85.4123C148.754 85.3654 148.52 83.5824 146.507 83.6293L113.09 81.4709C112.248 81.4709 111.593 82.1747 111.593 83.0193C111.64 83.817 112.295 84.4739 113.137 84.4739L146.788 85.4123Z" fill="#1561AD"/>
<path fill-rule="evenodd" clip-rule="evenodd" d="M110.236 82.7847C109.066 82.7847 108.083 83.5354 108.083 84.4739C108.083 85.4123 109.066 86.163 110.236 86.163C111.452 86.163 112.435 85.4123 112.435 84.4739C112.435 83.5354 111.452 82.7847 110.236 82.7847Z" fill="white"/>
<path fill-rule="evenodd" clip-rule="evenodd" d="M110.47 83.3947C109.814 83.3947 109.253 83.817 109.253 84.3331C109.253 84.8493 109.814 85.2246 110.47 85.2246C111.125 85.2246 111.64 84.8493 111.64 84.3331C111.64 83.817 111.125 83.3947 110.47 83.3947Z" fill="#4D4D4D"/>
<path fill-rule="evenodd" clip-rule="evenodd" d="M40.688 73.1657C46.2574 77.6232 49.0655 81.2831 50.844 84.2861C52.8097 87.6645 43.3557 98.4096 41.39 100.756C36.2886 106.996 36.7567 105.213 39.3308 98.8788C40.6412 95.5943 42.3729 90.8083 42.5601 87.8053C42.8877 82.7377 38.5819 77.3417 36.8035 73.588C35.025 69.7873 34.9314 67.8166 40.688 73.1657Z" fill="#4D4D4D"/>
<path fill-rule="evenodd" clip-rule="evenodd" d="M84.0733 90.5267C85.6646 90.7613 87.0686 91.2306 88.2855 91.6998C90.1108 92.4036 91.6552 92.8728 92.8253 92.9197C97.5055 93.1074 96.3354 91.2306 93.8081 90.0106C87.3026 86.9138 70.22 88.6499 84.0733 90.5267Z" fill="#4D4D4D"/>
<path fill-rule="evenodd" clip-rule="evenodd" d="M110.563 154.716C107.427 149.789 103.122 144.487 99.5647 141.484C95.0717 137.73 92.6848 137.167 98.4883 147.302C100.314 150.493 94.3229 152.323 85.7582 154.622C76.4914 157.109 68.1606 160.534 69.3775 161.285C70.1731 161.801 75.0873 160.863 89.9235 160.3C90.0639 160.3 118.566 158.282 110.563 154.716Z" fill="#4D4D4D"/>
<path fill-rule="evenodd" clip-rule="evenodd" d="M56.6942 161.003C59.8299 161.191 73.4024 159.408 75.9297 158.423C79.2995 157.156 104.198 153.543 107.661 153.543C113.231 153.543 131.53 158.751 134.058 161.238C133.964 160.909 121 163.162 120.158 164.147C119.783 164.382 123.059 164.147 126.523 164.053C130.735 163.912 131.53 164.1 128.722 165.273C122.357 167.854 112.763 170.951 110.002 171.232C83.9329 173.813 77.989 167.385 60.5787 166.071C53.8393 165.555 55.1029 165.32 56.6942 161.003Z" fill="#3F97E1"/>
<path fill-rule="evenodd" clip-rule="evenodd" d="M84.1669 169.496C69.3775 183.573 71.156 179.209 75.8362 173.25C77.3338 171.373 72.326 169.262 71.9984 166.728C74.2449 164.663 85.0093 168.698 84.1669 169.496Z" fill="#4D4D4D"/>
<path fill-rule="evenodd" clip-rule="evenodd" d="M55.6178 163.772C72.7005 161.519 90.532 160.628 107.1 160.206C113.044 160.065 117.115 160.44 121.094 160.769C124.744 161.097 129.939 161.003 134.151 160.675C134.853 160.581 137.474 159.689 137.427 159.643C136.398 159.173 134.666 158.329 132.42 158.047C129.003 157.625 125.587 155.842 121.515 154.95C116.086 153.777 110.142 153.543 107.661 153.543C104.198 153.543 79.2995 157.156 75.9298 158.423C73.4025 159.408 59.8299 161.191 56.6942 161.003C56.273 162.223 55.8518 163.115 55.6178 163.772Z" fill="#1561AD"/>
<path fill-rule="evenodd" clip-rule="evenodd" d="M121.234 168.042C109.627 164.898 101.858 164.335 87.6771 164.053C85.4306 164.006 72.3728 164.241 64.8377 166.493C79.1591 168.417 86.2262 173.578 110.002 171.232C111.78 171.045 116.46 169.684 121.234 168.042Z" fill="white"/>
<path d="M110.61 157.437C110.704 157.25 110.61 156.968 110.376 156.874C110.189 156.78 109.908 156.874 109.814 157.062C109.487 157.766 109.159 158.704 108.925 159.736C108.551 161.472 108.457 163.584 108.878 165.508C109.346 167.478 110.329 169.215 112.295 170.153C112.763 170.388 113.278 170.575 113.839 170.669C114.073 170.716 114.307 170.575 114.354 170.341C114.401 170.106 114.261 169.871 114.026 169.825C113.512 169.684 113.09 169.543 112.669 169.355C111.031 168.558 110.142 167.056 109.768 165.32C109.346 163.537 109.44 161.566 109.814 159.924C110.002 158.939 110.282 158.094 110.61 157.437Z" fill="#4D4D4D"/>
<path d="M163.543 162.036C165.743 161.989 165.462 160.018 163.262 160.065L126.101 157.672C125.165 157.672 124.463 158.423 124.463 159.361C124.463 160.299 125.259 161.003 126.148 161.003L163.543 162.036Z" fill="#1561AD"/>
<path fill-rule="evenodd" clip-rule="evenodd" d="M122.966 159.126C121.608 159.126 120.532 159.971 120.532 161.003C120.532 162.036 121.608 162.88 122.966 162.88C124.276 162.88 125.399 162.036 125.399 161.003C125.399 159.971 124.276 159.126 122.966 159.126Z" fill="white"/>
<path fill-rule="evenodd" clip-rule="evenodd" d="M123.2 159.783C122.451 159.783 121.842 160.253 121.842 160.816C121.842 161.379 122.451 161.848 123.2 161.848C123.902 161.848 124.51 161.379 124.51 160.816C124.51 160.253 123.902 159.783 123.2 159.783Z" fill="#4D4D4D"/>
<path fill-rule="evenodd" clip-rule="evenodd" d="M45.6489 148.428C51.8736 153.402 54.9625 157.437 56.9282 160.816C59.1279 164.522 48.5975 176.487 46.4446 179.115C40.7815 186.013 41.2496 184.042 44.1513 177.004C45.6021 173.344 47.5678 168.042 47.755 164.663C48.1294 159.079 43.3088 153.073 41.3432 148.897C39.3775 144.721 39.2839 142.516 45.6489 148.428Z" fill="#4D4D4D"/>
<path fill-rule="evenodd" clip-rule="evenodd" d="M93.8549 167.76C95.6334 167.995 97.1778 168.464 98.5351 169.027C100.594 169.825 102.279 170.341 103.59 170.388C108.785 170.622 107.521 168.511 104.666 167.15C97.4118 163.678 78.4571 165.649 93.8549 167.76Z" fill="#4D4D4D"/>
</svg>
