<svg width="182" height="284" viewBox="0 0 182 284" fill="none" xmlns="http://www.w3.org/2000/svg">
<path d="M165.177 0.5H16.8231C7.83659 0.5 0.5 7.9059 0.5 16.9065V267.094C0.5 276.094 7.83659 283.5 16.8231 283.5H165.177C174.163 283.5 181.5 276.094 181.5 267.094V16.9065C181.5 7.9059 174.163 0.5 165.177 0.5Z" stroke="black" stroke-opacity="0.3"/>
<path fill-rule="evenodd" clip-rule="evenodd" d="M24.4009 24.4648H157.599V259.535H24.4009V24.4648Z" fill="#1ECAFF"/>
<path fill-rule="evenodd" clip-rule="evenodd" d="M24.4009 88.1013C65.0718 79.5132 114.682 83.0329 157.599 91.1986V230.58C116.975 222.038 58.3323 219.035 24.4009 218.753V88.1013Z" fill="#00B3E5"/>
<path fill-rule="evenodd" clip-rule="evenodd" d="M157.599 173.795C117.022 154.929 60.2044 142.164 24.4009 140.334V259.535H157.599V173.795Z" fill="#009DC9"/>
<path fill-rule="evenodd" clip-rule="evenodd" d="M127.459 216.923C112.716 211.667 100.922 214.999 95.5866 216.172C93.4337 216.642 91.6084 217.205 94.4165 220.02C96.3354 221.898 99.6584 222.977 100.641 223.399C106.304 225.981 123.2 225.183 129.752 222.602C133.356 221.147 133.824 219.176 127.459 216.923Z" fill="#BDDBE3"/>
<path fill-rule="evenodd" clip-rule="evenodd" d="M103.777 211.198C105.789 208.617 109.627 206.505 111.406 205.754C113.746 204.768 107.427 214.811 105.509 213.779C105.509 213.779 102.747 212.089 103.777 211.198Z" fill="#A7BFC6"/>
<path fill-rule="evenodd" clip-rule="evenodd" d="M112.295 210.494C109.206 211.996 105.977 214.577 109.674 214.295C112.248 214.06 114.354 214.858 114.869 212.23C115.524 208.804 115.056 209.086 112.295 210.494Z" fill="#A7BFC6"/>
<path fill-rule="evenodd" clip-rule="evenodd" d="M115.805 212.559C115.524 213.638 116.273 214.154 117.115 214.107C118.332 214.06 119.222 213.263 118.285 211.432C117.396 209.649 116.179 211.291 115.805 212.559Z" fill="#A7BFC6"/>
<path fill-rule="evenodd" clip-rule="evenodd" d="M124.042 225.089C122.685 226.919 125.072 229.313 126.897 230.157C128.441 230.908 129.658 230.58 128.067 226.778C127.178 224.713 125.025 223.822 124.042 225.089Z" fill="#A7BFC6"/>
<path fill-rule="evenodd" clip-rule="evenodd" d="M133.637 219.082C134.807 216.641 141.967 210.869 144.729 210.494C148.332 209.977 141.874 216.97 140.984 217.721C139.955 218.566 139.58 219.316 140.891 219.786C142.155 220.302 145.665 223.259 145.992 225.089C146.507 228.233 146.928 229.031 143.231 227.013C142.95 226.872 133.496 220.771 133.449 220.677C133.028 220.02 133.309 219.786 133.637 219.082Z" fill="#A7BFC6"/>
<path fill-rule="evenodd" clip-rule="evenodd" d="M104.76 223.399C105.415 223.446 106.07 222.977 106.491 221.663C106.819 220.537 106.632 218.19 106.304 216.829C106.07 215.75 105.836 215.281 105.321 216.266C105.087 216.688 105.415 218.613 105.087 220.114C104.9 220.959 104.526 221.71 104.245 222.226C103.871 222.883 103.59 223.352 104.76 223.399Z" fill="#8AA0A6"/>
<path fill-rule="evenodd" clip-rule="evenodd" d="M112.623 215.797C111.593 215.891 106.772 217.205 110.516 217.721C112.95 218.049 117.677 215.421 112.623 215.797Z" fill="#8AA0A6"/>
<path fill-rule="evenodd" clip-rule="evenodd" d="M109.721 221.147C110.516 222.414 112.856 223.259 112.95 223.259C114.635 223.963 114.963 222.226 114.073 221.381C113.652 220.959 112.154 220.443 110.984 220.02C109.487 219.457 108.457 219.176 109.721 221.147Z" fill="#8AA0A6"/>
<path fill-rule="evenodd" clip-rule="evenodd" d="M110.329 219.176C111.265 219.645 112.295 219.88 113.512 220.161C114.775 220.443 117.583 218.8 111.312 218.002C109.721 217.815 108.083 218.143 110.329 219.176Z" fill="#8AA0A6"/>
<path fill-rule="evenodd" clip-rule="evenodd" d="M97.6458 216.642C96.7566 217.627 96.7566 219.27 97.8799 219.833C99.0031 220.396 100.314 219.974 101.156 219.129C103.543 216.735 99.4711 214.624 97.6458 216.642Z" fill="#FAFAF4"/>
<path fill-rule="evenodd" clip-rule="evenodd" d="M98.9095 216.407C99.752 216.172 100.314 216.595 100.454 217.205C100.594 217.862 100.173 218.378 99.7052 218.566C99.1903 218.8 98.5351 218.613 98.0671 218.049C97.5523 217.486 97.4587 216.688 98.9095 216.407Z" fill="#8AA0A6"/>
<path fill-rule="evenodd" clip-rule="evenodd" d="M72.7941 89.1807C54.4478 81.9066 39.4244 85.1917 32.7317 86.8342C30.064 87.4913 27.6771 87.9136 31.0937 91.6211C33.387 94.0614 37.5523 95.5631 38.7692 96.1732C45.7895 99.646 67.0843 99.4114 75.415 96.4548C80.0484 94.8123 80.7037 92.325 72.7941 89.1807Z" fill="#C7E8F1"/>
<path fill-rule="evenodd" clip-rule="evenodd" d="M42.6069 80.9681C45.181 77.8238 50.61 75.3365 52.8565 74.4448C55.8518 73.3185 46.9127 87.2097 44.5726 85.8487C44.5258 85.8018 41.2497 82.0474 42.6069 80.9681Z" fill="#8AA0A6"/>
<path fill-rule="evenodd" clip-rule="evenodd" d="M54.4946 79.4663C50.9845 81.625 46.4447 84.5347 50.7973 84.957C54.0266 85.2386 56.9283 85.0509 57.6771 81.7658C58.7068 77.4952 57.8643 77.4014 54.4946 79.4663Z" fill="#8AA0A6"/>
<path fill-rule="evenodd" clip-rule="evenodd" d="M57.6303 83.8776C57.2091 85.2386 58.4728 85.7078 59.5492 85.7078C61.0937 85.7078 62.6381 84.253 61.5149 81.8596C60.4852 79.607 58.1451 82.282 57.6303 83.8776Z" fill="#8AA0A6"/>
<path fill-rule="evenodd" clip-rule="evenodd" d="M67.8331 98.4728C66.2419 100.491 68.816 103.307 70.8285 104.386C72.6069 105.278 73.9642 104.949 72.3261 100.585C71.4369 98.1442 68.9564 97.0649 67.8331 98.4728Z" fill="#8AA0A6"/>
<path fill-rule="evenodd" clip-rule="evenodd" d="M78.6911 92.2312C80.2824 89.2277 90.064 81.2027 93.5741 80.8273C95.1186 80.6865 93.5741 83.8777 92.8253 86.0364C92.1701 87.8667 89.5491 89.4623 87.9111 90.7294C86.5538 91.7619 86.039 92.6535 87.6771 93.3575C89.2683 94.0614 93.3869 98.0974 93.7145 100.397C94.2293 104.433 94.8846 105.231 90.298 102.556C89.9704 102.368 78.4571 94.6715 78.3635 94.5776C77.8955 93.686 78.2699 93.0759 78.6911 92.2312Z" fill="#8AA0A6"/>
<path fill-rule="evenodd" clip-rule="evenodd" d="M43.543 96.2671C44.4322 96.5956 45.6959 96.1732 46.2107 94.2491C46.8191 91.7149 46.1171 84.6755 44.8066 87.4912C44.5258 88.0544 44.9938 90.307 44.5258 92.2311C44.2918 93.1228 43.8706 93.9206 43.543 94.5307C43.0281 95.4223 42.3261 95.7509 43.543 96.2671Z" fill="#8AA0A6"/>
<path fill-rule="evenodd" clip-rule="evenodd" d="M54.1669 87.5382C50.376 87.6789 46.9595 89.3215 51.8737 89.6031C53.4649 89.6969 55.7114 89.4153 55.9922 89.4623C56.9751 89.4153 59.4556 87.3504 54.1669 87.5382Z" fill="#8AA0A6"/>
<path fill-rule="evenodd" clip-rule="evenodd" d="M49.8612 91.9965C49.44 92.7004 50.0952 93.1228 50.4228 93.639C51.3589 95.2816 54.2138 96.7364 54.3542 96.7833C56.4603 97.7688 56.9283 95.5632 55.8518 94.4368C54.9626 93.4982 53.2309 92.5597 51.8737 92.1373C50.8908 91.8088 50.0952 91.7149 49.8612 91.9965Z" fill="#8AA0A6"/>
<path fill-rule="evenodd" clip-rule="evenodd" d="M51.4056 91.3395C52.5288 91.9026 53.8393 92.1373 55.4306 92.5596C56.975 92.982 60.7192 90.8702 52.8565 89.65C50.376 89.2276 48.3635 89.7438 51.4056 91.3395Z" fill="#8AA0A6"/>
<path fill-rule="evenodd" clip-rule="evenodd" d="M35.3057 87.4912C34.1357 88.7114 34.0421 90.7763 35.4462 91.5272C36.8034 92.325 38.5351 91.8087 39.6115 90.8232C40.7348 89.7438 40.3604 88.7583 39.8455 87.9605C39.0031 86.5996 36.8034 85.9425 35.3057 87.4912Z" fill="white"/>
<path fill-rule="evenodd" clip-rule="evenodd" d="M38.1139 90.4948C38.3479 89.65 37.8799 89.04 37.2715 88.8992C36.1951 88.6176 35.5398 88.8053 35.3994 89.697C35.025 91.9496 37.7395 91.7619 38.1139 90.4948Z" fill="#8AA0A6"/>
<path fill-rule="evenodd" clip-rule="evenodd" d="M129.003 70.315C113.839 64.8712 101.718 68.344 96.195 69.5641C93.9953 70.0334 92.1232 70.5966 95.0249 73.5062C96.9438 75.4303 100.407 76.5567 101.39 76.979C107.24 79.654 124.651 78.8093 131.39 76.1343C135.087 74.6795 135.555 72.6146 129.003 70.315Z" fill="#C7E8F1"/>
<path fill-rule="evenodd" clip-rule="evenodd" d="M104.245 64.8243C106.257 62.1962 110.236 60.0375 112.061 59.2397C114.448 58.2072 107.989 68.5786 106.023 67.4993C106.023 67.4993 103.168 65.7629 104.245 64.8243Z" fill="#8AA0A6"/>
<path fill-rule="evenodd" clip-rule="evenodd" d="M113.418 63.4163C110.236 64.965 106.959 67.3584 110.797 67.0769C113.418 66.8422 115.524 67.8747 116.039 65.1997C116.741 61.6799 116.273 61.9615 113.418 63.4163Z" fill="#8AA0A6"/>
<path fill-rule="evenodd" clip-rule="evenodd" d="M117.022 65.8567C116.741 66.9361 117.49 67.4523 118.379 67.4054C119.643 67.3585 120.532 66.5607 119.596 64.6365C118.66 62.8063 117.396 64.5427 117.022 65.8567Z" fill="#8AA0A6"/>
<path fill-rule="evenodd" clip-rule="evenodd" d="M125.493 79.1378C124.089 81.015 126.523 83.5023 128.395 84.3939C130.033 85.1448 131.25 84.8163 129.611 80.9211C128.722 78.7624 126.476 77.8238 125.493 79.1378Z" fill="#8AA0A6"/>
<path fill-rule="evenodd" clip-rule="evenodd" d="M134.245 72.5676C135.462 70.0334 142.388 64.0734 145.243 63.6979C146.507 63.5102 145.852 65.3405 145.243 67.1707C144.775 68.6725 142.669 70.0334 141.359 71.1128C140.329 72.0045 139.908 72.7554 141.265 73.2716C142.576 73.7878 146.226 76.8382 146.554 78.7154C147.069 81.9536 147.537 82.7514 143.699 80.6865C143.418 80.5457 134.105 74.2571 134.058 74.1632C133.59 73.5062 133.917 73.2716 134.245 72.5676Z" fill="#8AA0A6"/>
<path fill-rule="evenodd" clip-rule="evenodd" d="M104.713 76.5098C105.462 77.3545 106.819 77.2606 107.427 75.1957C108.083 73.0839 107.427 67.2646 106.211 69.6581C106.023 70.0804 106.351 72.0515 105.977 73.6001C105.649 75.2427 104.619 76.5098 104.713 76.5098Z" fill="#8AA0A6"/>
<path fill-rule="evenodd" clip-rule="evenodd" d="M113.746 69.5172C112.154 69.611 110.048 70.0334 110.048 70.4088C110.095 72.1452 114.167 71.1128 114.541 71.1597C114.588 71.1128 118.052 69.1887 113.746 69.5172Z" fill="#8AA0A6"/>
<path fill-rule="evenodd" clip-rule="evenodd" d="M110.282 73.0838C109.955 73.647 110.47 74.2571 110.75 74.6794C111.593 75.9935 113.98 76.7913 114.073 76.8382C115.852 77.5891 116.179 75.7588 115.243 74.8672C113.98 73.647 110.657 72.4268 110.282 73.0838Z" fill="#8AA0A6"/>
<path fill-rule="evenodd" clip-rule="evenodd" d="M110.048 71.8636C111.499 73.2715 112.81 73.1777 114.682 73.647C115.945 73.9285 118.847 72.2391 112.389 71.4413C110.563 71.2066 109.908 71.6759 110.048 71.8636Z" fill="#8AA0A6"/>
<path fill-rule="evenodd" clip-rule="evenodd" d="M98.3479 69.9865C97.4119 71.0189 97.4119 72.7084 98.5819 73.3185C99.7051 73.8817 101.109 73.4593 101.952 72.6146C104.385 70.1273 100.22 67.9216 98.3479 69.9865Z" fill="#FAFAF4"/>
<path fill-rule="evenodd" clip-rule="evenodd" d="M99.0967 73.2246C99.9859 73.4123 100.594 73.0369 100.688 72.3799C100.828 71.6759 100.407 71.1597 99.9391 70.972C99.3775 70.7373 98.7691 70.925 98.2542 71.4882C97.7394 72.0983 97.6458 72.8961 99.0967 73.2246Z" fill="#8AA0A6"/>
<path fill-rule="evenodd" clip-rule="evenodd" d="M91.3276 42.8142C76.1638 37.4173 64.0421 40.8432 58.5195 42.0634C56.3198 42.5327 54.4478 43.0958 57.3495 46.0055C59.2683 47.9765 62.7317 49.0559 63.7145 49.5252C69.5648 52.1532 86.9751 51.3085 93.6677 48.6804C97.4119 47.1787 97.8799 45.1607 91.3276 42.8142Z" fill="#C7E8F1"/>
<path fill-rule="evenodd" clip-rule="evenodd" d="M66.5695 37.3704C68.582 34.7424 72.5601 32.5367 74.3854 31.7858C76.7723 30.7534 70.2668 41.0779 68.348 40.0454C68.348 40.0454 65.493 38.2621 66.5695 37.3704Z" fill="#8AA0A6"/>
<path fill-rule="evenodd" clip-rule="evenodd" d="M75.6958 35.9156C72.5601 37.5112 69.2839 39.9046 73.1217 39.5761C75.7426 39.3884 77.8487 40.4208 78.3635 37.6989C79.0655 34.2261 78.5975 34.5077 75.6958 35.9156Z" fill="#8AA0A6"/>
<path fill-rule="evenodd" clip-rule="evenodd" d="M79.3464 38.3559C79.0655 39.4822 79.8144 39.9515 80.7036 39.9046C81.9673 39.9046 82.8565 39.1068 81.9205 37.1827C80.9844 35.3524 79.7208 37.0419 79.3464 38.3559Z" fill="#8AA0A6"/>
<path fill-rule="evenodd" clip-rule="evenodd" d="M87.4899 51.0738C86.0858 52.951 88.5663 55.4383 90.3916 56.33C92.0297 57.1278 93.2465 56.7523 91.6553 52.8572C90.7192 50.6984 88.4727 49.7598 87.4899 51.0738Z" fill="#8AA0A6"/>
<path fill-rule="evenodd" clip-rule="evenodd" d="M96.5694 45.0669C97.7395 42.5796 104.713 36.6195 107.568 36.1972C108.832 36.0094 108.13 37.8866 107.568 39.67C107.1 41.1717 104.994 42.5327 103.683 43.612C102.654 44.5506 102.232 45.2546 103.59 45.7708C104.9 46.287 108.551 49.3844 108.832 51.2146C109.393 54.4997 109.814 55.2975 106.023 53.1857C105.743 53.0449 96.429 46.8033 96.3822 46.7094C95.9142 46.0055 96.2418 45.7708 96.5694 45.0669Z" fill="#8AA0A6"/>
<path fill-rule="evenodd" clip-rule="evenodd" d="M67.0375 49.0089C67.7863 49.8537 69.1436 49.7598 69.752 47.7418C70.3604 45.63 69.752 39.8107 68.5351 42.1572C68.3011 42.5796 68.6755 44.5506 68.3011 46.0993C67.9735 47.7888 66.9439 49.0559 67.0375 49.0089Z" fill="#8AA0A6"/>
<path fill-rule="evenodd" clip-rule="evenodd" d="M76.0703 42.0164C74.479 42.1572 72.3729 42.5327 72.3729 42.955C72.4197 44.6445 76.9595 43.5651 77.3339 43.6121C77.3807 43.5651 80.376 41.6879 76.0703 42.0164Z" fill="#8AA0A6"/>
<path fill-rule="evenodd" clip-rule="evenodd" d="M72.5132 45.9116C72.1856 46.4747 72.7005 47.0848 72.9813 47.5072C73.7769 48.8212 76.2106 49.619 76.3042 49.666C78.0359 50.4168 78.3635 48.5866 77.4742 47.6949C76.1638 46.4747 72.8877 45.2546 72.5132 45.9116Z" fill="#8AA0A6"/>
<path fill-rule="evenodd" clip-rule="evenodd" d="M73.9173 45.3954C74.8066 45.7708 75.7894 45.8647 77.0063 46.1463C78.2699 46.4278 81.1716 44.7384 74.713 43.9406C72.2793 43.659 71.39 44.3629 73.9173 45.3954Z" fill="#8AA0A6"/>
<path fill-rule="evenodd" clip-rule="evenodd" d="M60.6724 42.5327C59.7364 43.5651 59.7364 45.2546 60.9064 45.8178C62.0297 46.4278 63.4337 45.9585 64.2762 45.1138C66.7099 42.6265 62.5445 40.4678 60.6724 42.5327Z" fill="#FAFAF4"/>
<path fill-rule="evenodd" clip-rule="evenodd" d="M62.9657 44.7853C63.0594 44.316 62.1233 42.3919 60.9065 43.7998C60.1576 44.6445 60.5321 45.2077 61.0469 45.4892C61.7489 45.9116 62.7785 45.7239 62.9657 44.7853Z" fill="#8AA0A6"/>
<path fill-rule="evenodd" clip-rule="evenodd" d="M126.944 171.636C108.457 165.019 93.7613 169.243 87.0687 170.697C84.401 171.307 82.0609 171.964 85.6178 175.531C87.9579 177.878 92.1701 179.192 93.3869 179.755C100.454 182.946 121.608 181.96 129.799 178.722C134.339 176.939 134.9 174.452 126.944 171.636Z" fill="#BDDBE3"/>
<path fill-rule="evenodd" clip-rule="evenodd" d="M96.8034 164.972C99.2839 161.781 104.105 159.153 106.304 158.214C109.253 156.947 101.577 169.9 99.1903 168.633C99.1903 168.586 95.5398 166.098 96.8034 164.972Z" fill="#A7BFC6"/>
<path fill-rule="evenodd" clip-rule="evenodd" d="M107.942 163.236C104.105 165.16 100.22 168.914 104.853 168.539C108.083 168.257 110.516 168.68 111.172 165.394C112.014 161.171 111.452 161.499 107.942 163.236Z" fill="#A7BFC6"/>
<path fill-rule="evenodd" clip-rule="evenodd" d="M112.388 166.192C111.64 167.882 112.435 169.243 114.167 168.539C115.571 167.975 116.647 167.084 115.477 164.737C114.354 162.532 113.044 164.69 112.388 166.192Z" fill="#A7BFC6"/>
<path fill-rule="evenodd" clip-rule="evenodd" d="M123.621 181.444C122.17 183.415 124.697 185.996 126.663 186.935C128.348 187.733 129.658 187.404 127.973 183.321C126.991 181.022 124.651 180.083 123.621 181.444Z" fill="#A7BFC6"/>
<path fill-rule="evenodd" clip-rule="evenodd" d="M133.075 174.499C134.479 171.448 143.184 164.08 146.647 163.564C148.051 163.376 148.426 163.329 148.005 164.456C147.022 166.896 142.716 171.965 141.967 172.622C140.657 173.701 140.189 174.593 141.827 175.25C143.418 175.86 147.864 179.567 148.239 181.82C148.894 185.809 149.409 186.747 144.775 184.26C144.495 184.119 137.381 179.379 134.198 177.361C132.513 176.329 132.139 176.47 133.075 174.499Z" fill="#A7BFC6"/>
<path fill-rule="evenodd" clip-rule="evenodd" d="M98.9095 179.755C99.6116 179.614 100.267 178.957 100.688 177.596C101.484 175.015 100.688 167.975 99.2371 170.791C98.9563 171.354 99.3776 173.748 98.9563 175.625C98.7691 176.423 98.4883 177.08 98.2075 177.69C97.7863 178.535 96.663 180.177 98.9095 179.755Z" fill="#8AA0A6"/>
<path fill-rule="evenodd" clip-rule="evenodd" d="M108.27 170.51C106.351 170.65 103.683 171.261 103.683 171.777C103.777 175.578 117.303 169.853 108.27 170.51Z" fill="#8AA0A6"/>
<path fill-rule="evenodd" clip-rule="evenodd" d="M104.011 175.296C103.683 175.907 104.245 176.657 105.134 177.361C106.351 178.394 108.176 179.332 108.785 179.567C110.938 180.459 111.172 178.394 110.048 177.361C108.504 175.813 104.479 174.499 104.011 175.296Z" fill="#8AA0A6"/>
<path fill-rule="evenodd" clip-rule="evenodd" d="M109.487 175.672C111.078 176.047 114.541 173.982 106.725 172.997C103.169 172.575 103.215 173.419 104.573 174.17C105.789 174.827 108.223 175.343 109.487 175.672Z" fill="#8AA0A6"/>
<path fill-rule="evenodd" clip-rule="evenodd" d="M89.6427 171.261C88.5195 172.528 88.5195 174.593 89.9235 175.297C91.3276 176 93.0125 175.437 93.9953 174.405C97.0374 171.401 91.936 168.773 89.6427 171.261Z" fill="#FAFAF4"/>
<path fill-rule="evenodd" clip-rule="evenodd" d="M91.4681 170.885C92.451 170.651 93.0594 171.073 93.1998 171.777C93.4338 172.903 91.9829 174.17 91.0001 173.091C90.4385 172.387 89.8768 171.214 91.4681 170.885Z" fill="#8AA0A6"/>
<path fill-rule="evenodd" clip-rule="evenodd" d="M75.3682 194.96C56.8815 188.343 42.1857 192.567 35.493 194.021C32.8253 194.632 30.4852 195.289 34.0422 198.855C36.4291 201.202 40.5944 202.516 41.8113 203.079C48.8784 206.27 70.0328 205.285 78.2232 202.046C82.7629 200.263 83.3246 197.776 75.3682 194.96Z" fill="#BDDBE3"/>
<path fill-rule="evenodd" clip-rule="evenodd" d="M45.2279 188.296C47.7084 185.105 52.5289 182.477 54.7286 181.538C57.6772 180.271 50.0016 193.224 47.6616 191.957C47.6147 191.91 43.9642 189.422 45.2279 188.296Z" fill="#A7BFC6"/>
<path fill-rule="evenodd" clip-rule="evenodd" d="M56.3667 186.56C52.529 188.484 48.6444 192.238 53.2778 191.863C56.5071 191.581 58.9876 192.004 59.596 188.718C60.4385 184.495 59.8768 184.823 56.3667 186.56Z" fill="#A7BFC6"/>
<path fill-rule="evenodd" clip-rule="evenodd" d="M60.8128 189.516C60.064 191.206 60.8596 192.567 62.5913 191.863C63.9954 191.3 65.0718 190.408 63.9018 188.061C62.7785 185.856 61.4681 188.014 60.8128 189.516Z" fill="#A7BFC6"/>
<path fill-rule="evenodd" clip-rule="evenodd" d="M72.0453 204.768C70.5944 206.739 73.1217 209.32 75.0874 210.259C76.7723 211.057 78.0827 210.728 76.3979 206.599C75.4618 204.346 73.0749 203.407 72.0453 204.768Z" fill="#A7BFC6"/>
<path fill-rule="evenodd" clip-rule="evenodd" d="M81.4993 197.823C82.9501 194.772 91.6085 187.404 95.0718 186.888C96.4759 186.7 96.8971 186.654 96.429 187.78C95.4462 190.173 91.1404 195.289 90.3916 195.946C89.128 197.025 88.6131 197.917 90.2512 198.574C91.8425 199.184 96.2886 202.891 96.6631 205.144C97.3183 209.133 97.8331 210.071 93.1997 207.584C92.9189 207.443 85.805 202.703 82.6225 200.686C80.9376 199.653 80.5632 199.747 81.4993 197.823Z" fill="#A7BFC6"/>
<path fill-rule="evenodd" clip-rule="evenodd" d="M47.3339 203.079C48.0359 202.938 48.6912 202.281 49.1124 200.92C49.908 198.339 49.1124 191.3 47.6615 194.115C47.3807 194.679 47.8019 197.072 47.3807 198.949C47.2403 199.747 46.9595 200.404 46.6787 201.014C46.2107 201.859 45.0874 203.501 47.3339 203.079Z" fill="#8AA0A6"/>
<path fill-rule="evenodd" clip-rule="evenodd" d="M56.6943 193.834C54.7754 193.975 52.1077 194.585 52.1545 195.101C52.2013 198.902 65.727 193.177 56.6943 193.834Z" fill="#8AA0A6"/>
<path fill-rule="evenodd" clip-rule="evenodd" d="M52.4821 198.621C52.1077 199.231 52.6693 199.982 53.5586 200.686C54.7754 201.718 56.6475 202.657 57.2091 202.891C59.362 203.783 59.596 201.718 58.5196 200.686C56.9283 199.137 52.9033 197.823 52.4821 198.621Z" fill="#8AA0A6"/>
<path fill-rule="evenodd" clip-rule="evenodd" d="M57.958 198.996C59.5025 199.371 63.0126 197.307 55.1967 196.321C51.5929 195.899 51.6397 196.743 52.997 197.494C54.2606 198.151 56.6475 198.668 57.958 198.996Z" fill="#8AA0A6"/>
<path fill-rule="evenodd" clip-rule="evenodd" d="M38.0672 194.585C36.944 195.852 36.944 197.917 38.348 198.621C39.7521 199.325 41.437 198.761 42.4666 197.729C45.4619 194.725 40.3605 192.097 38.0672 194.585Z" fill="#FAFAF4"/>
<path fill-rule="evenodd" clip-rule="evenodd" d="M39.8924 194.209C40.8753 193.975 41.4837 194.397 41.6241 195.101C41.8581 196.227 40.4072 197.494 39.4244 196.368C38.8628 195.711 38.3012 194.538 39.8924 194.209Z" fill="#8AA0A6"/>
<path fill-rule="evenodd" clip-rule="evenodd" d="M81.3589 236.164C66.6163 230.908 54.869 234.24 49.4868 235.46C47.3807 235.93 45.5086 236.446 48.3636 239.262C50.2356 241.139 53.5586 242.218 54.5414 242.687C60.2044 245.222 77.0999 244.424 83.6522 241.843C87.3027 240.388 87.7239 238.417 81.3589 236.164Z" fill="#BDDBE3"/>
<path fill-rule="evenodd" clip-rule="evenodd" d="M57.7239 230.439C59.6896 227.905 63.5742 225.793 65.3058 225.042C67.6459 224.009 61.3277 234.052 59.4556 233.067C59.4556 233.02 56.6943 231.331 57.7239 230.439Z" fill="#A7BFC6"/>
<path fill-rule="evenodd" clip-rule="evenodd" d="M66.195 229.735C63.1529 231.284 59.9235 233.818 63.6209 233.536C66.195 233.302 68.2543 234.099 68.7691 231.471C69.4711 228.092 69.0031 228.327 66.195 229.735Z" fill="#A7BFC6"/>
<path fill-rule="evenodd" clip-rule="evenodd" d="M69.752 231.847C69.4244 232.879 70.1733 233.395 71.0625 233.348C72.2793 233.302 73.1686 232.551 72.2325 230.673C71.2965 228.89 70.1265 230.533 69.752 231.847Z" fill="#A7BFC6"/>
<path fill-rule="evenodd" clip-rule="evenodd" d="M77.9892 244.33C76.6319 246.16 79.0188 248.554 80.7973 249.445C82.3885 250.196 83.5586 249.821 82.0141 246.066C81.1249 243.955 78.9252 243.063 77.9892 244.33Z" fill="#A7BFC6"/>
<path fill-rule="evenodd" clip-rule="evenodd" d="M87.5835 238.37C88.7067 235.93 95.8674 230.157 98.6755 229.735C102.232 229.219 95.7738 236.211 94.8846 236.962C93.8549 237.854 93.4805 238.558 94.791 239.074C96.0546 239.543 99.6116 242.547 99.8924 244.33C100.454 247.521 100.875 248.272 97.1311 246.254C96.897 246.113 87.4431 240.012 87.3495 239.919C86.9283 239.262 87.2559 239.027 87.5835 238.37Z" fill="#A7BFC6"/>
<path fill-rule="evenodd" clip-rule="evenodd" d="M58.6599 242.687C59.3152 242.734 60.0172 242.218 60.3916 240.951C60.766 239.778 60.532 237.431 60.2044 236.07C59.9704 235.038 59.7364 234.522 59.2216 235.507C59.0343 235.977 59.362 237.854 59.0343 239.355C58.8471 240.2 58.4727 240.951 58.1919 241.467C57.8175 242.124 57.5367 242.594 58.6599 242.687Z" fill="#8AA0A6"/>
<path fill-rule="evenodd" clip-rule="evenodd" d="M66.5227 235.038C65.4931 235.132 60.6725 236.446 64.4166 236.962C66.8503 237.291 71.6241 234.709 66.5227 235.038Z" fill="#8AA0A6"/>
<path fill-rule="evenodd" clip-rule="evenodd" d="M63.621 240.388C64.4166 241.655 66.7567 242.5 66.8503 242.547C68.582 243.251 68.9096 241.467 68.0204 240.623C67.5523 240.2 66.0547 239.684 64.9314 239.262C63.4338 238.698 62.4041 238.417 63.621 240.388Z" fill="#8AA0A6"/>
<path fill-rule="evenodd" clip-rule="evenodd" d="M64.2294 238.464C65.1655 238.886 66.1951 239.121 67.4587 239.402C68.6756 239.684 71.4837 238.041 65.2591 237.291C63.6678 237.056 61.9829 237.431 64.2294 238.464Z" fill="#8AA0A6"/>
<path fill-rule="evenodd" clip-rule="evenodd" d="M51.5929 235.883C50.6568 236.868 50.6568 238.511 51.7801 239.074C52.9033 239.637 54.2606 239.215 55.0562 238.417C57.4431 235.977 53.4182 233.865 51.5929 235.883Z" fill="#FAFAF4"/>
<path fill-rule="evenodd" clip-rule="evenodd" d="M52.8097 235.648C53.699 235.46 54.2606 235.836 54.3542 236.446C54.4946 237.103 54.0734 237.666 53.6054 237.854C53.0905 238.042 52.4821 237.854 52.0141 237.291C51.4993 236.727 51.4057 235.93 52.8097 235.648Z" fill="#8AA0A6"/>
<path fill-rule="evenodd" clip-rule="evenodd" d="M95.3058 128.085C76.9595 121.515 62.4509 124.988 55.6178 127.194C53.0437 128.039 50.6568 128.414 54.2138 131.981C62.6849 140.475 88.5195 138.973 98.1607 135.172C102.654 133.388 103.215 130.901 95.3058 128.085Z" fill="#E6CF8A"/>
<path fill-rule="evenodd" clip-rule="evenodd" d="M65.3526 121.468C67.7863 118.277 72.6069 115.649 74.8066 114.71C77.7083 113.49 69.7988 126.584 67.4119 125.317C67.4119 125.317 64.0422 122.595 65.3526 121.468Z" fill="#E0BE68"/>
<path fill-rule="evenodd" clip-rule="evenodd" d="M76.3978 119.732C72.6069 121.656 68.4883 125.129 73.0749 124.988C76.3042 124.894 78.9719 125.363 79.6272 121.891C80.4228 117.667 79.908 117.996 76.3978 119.732Z" fill="#E0BE68"/>
<path fill-rule="evenodd" clip-rule="evenodd" d="M79.6272 123.205C79.3464 124.19 79.8144 124.8 80.4696 125.035C80.9845 125.176 83.1841 125.364 83.465 124.988C83.8394 124.472 83.3246 123.017 82.7161 121.797C81.5929 119.591 80.0952 121.609 79.6272 123.205Z" fill="#E0BE68"/>
<path fill-rule="evenodd" clip-rule="evenodd" d="M90.8129 138.081C89.362 140.006 91.8893 142.587 93.855 143.525C95.5399 144.323 96.8035 143.948 95.1186 139.912C94.1826 137.659 91.8425 136.721 90.8129 138.081Z" fill="#E0BE68"/>
<path fill-rule="evenodd" clip-rule="evenodd" d="M100.735 130.76C102.139 127.71 111.499 120.577 114.916 120.06C119.409 119.45 111.359 128.132 110.282 129.071C108.972 130.15 108.504 131.042 110.142 131.699C111.733 132.309 116.554 135.735 116.928 137.988C117.583 141.93 117.677 143.15 113.091 140.663C112.716 140.475 100.875 133.482 100.828 133.388C100.267 132.544 100.314 131.605 100.735 130.76Z" fill="#E0BE68"/>
<path fill-rule="evenodd" clip-rule="evenodd" d="M66.9907 136.157C67.7863 136.298 68.6755 135.688 69.1904 133.999C69.6584 132.497 69.4712 129.306 69.0031 127.663C68.4883 125.927 67.6927 126.49 67.9267 127.71C68.2543 129.822 67.6459 132.919 66.3822 134.796C65.8674 135.547 65.6334 136.017 66.9907 136.157Z" fill="#CCA952"/>
<path fill-rule="evenodd" clip-rule="evenodd" d="M76.8659 127.147C75.5555 127.241 73.9642 127.475 73.075 127.757C72.0921 128.085 72.2325 128.649 73.1218 128.836C74.5258 129.118 79.0656 129.728 79.8612 128.367C80.2825 127.71 80.1421 126.865 76.8659 127.147Z" fill="#CCA952"/>
<path fill-rule="evenodd" clip-rule="evenodd" d="M73.0749 132.966C74.011 134.233 76.4915 135.688 77.2403 136.017C79.3932 136.908 80.0952 135.031 79.0188 133.952C78.1763 133.154 75.0406 132.262 73.777 131.887C72.2793 131.464 72.3261 131.934 73.0749 132.966Z" fill="#CCA952"/>
<path fill-rule="evenodd" clip-rule="evenodd" d="M73.4961 130.713C75.181 131.324 76.4447 131.652 78.2231 132.497C79.9548 133.295 81.4057 131.277 79.0656 130.291C78.3167 130.01 77.0999 129.822 75.2278 129.634C74.1046 129.493 70.922 129.775 73.4961 130.713Z" fill="#CCA952"/>
<path fill-rule="evenodd" clip-rule="evenodd" d="M58.192 127.71C57.0687 128.977 57.0687 131.042 58.4728 131.746C59.8768 132.45 61.5617 131.887 62.5446 130.854C65.5399 127.851 60.4853 125.223 58.192 127.71Z" fill="white"/>
<path fill-rule="evenodd" clip-rule="evenodd" d="M59.2215 130.948C60.3448 131.23 60.9532 130.714 61.0936 129.963C61.3744 128.742 59.7831 127.288 58.6599 128.555C58.0515 129.306 57.443 130.573 59.2215 130.948Z" fill="#CCA952"/>
<path fill-rule="evenodd" clip-rule="evenodd" d="M16.8658 1H165.134C173.886 1 181 8.1333 181 16.8622V267.138C181 275.867 173.886 283 165.134 283H16.8658C8.16069 283 1 275.867 1 267.138V16.8622C1 8.1333 8.16069 1 16.8658 1ZM24.4009 24.4648H157.599V259.535H24.4009V24.4648Z" fill="white"/>
<path fill-rule="evenodd" clip-rule="evenodd" d="M32.7318 18.1293H46.4447V36.291H32.7318V18.1293Z" stroke="white" stroke-width="3.77953"/>
<path fill-rule="evenodd" clip-rule="evenodd" d="M32.7318 18.1293H46.4447V36.291H32.7318V18.1293Z" fill="white"/>
<path d="M25.571 12.7324V40.1862H16.3043V19.678H11.6241V12.7324H25.571ZM41.3433 40.7963C38.9096 40.7963 36.7567 40.2331 34.8846 39.1068C33.0125 37.9805 31.5617 36.338 30.4852 34.1792C29.4556 32.0205 28.894 29.4393 28.894 26.4358C28.894 23.4793 29.4556 20.8981 30.4852 18.7394C31.5617 16.5806 33.0125 14.9381 34.8846 13.8118C36.7567 12.6385 38.9096 12.0754 41.3433 12.0754C43.7302 12.0754 45.8831 12.6385 47.7551 13.8118C49.6272 14.9381 51.0781 16.5806 52.1545 18.7394C53.1841 20.8981 53.7458 23.4793 53.7458 26.4358C53.7458 29.4393 53.1841 32.0205 52.1545 34.1792C51.0781 36.338 49.6272 37.9805 47.7551 39.1068C45.8831 40.2331 43.7302 40.7963 41.3433 40.7963ZM41.3433 33.3814C43.4026 33.3814 44.4322 31.0819 44.4322 26.4358C44.4322 21.8367 43.4026 19.4903 41.3433 19.4903C39.2372 19.4903 38.2075 21.8367 38.2075 26.4358C38.2075 31.0819 39.2372 33.3814 41.3433 33.3814Z" stroke="white" stroke-width="3.77953"/>
<path d="M25.571 12.7324V40.1862H16.3043V19.678H11.6241V12.7324H25.571ZM41.3433 40.7963C38.9096 40.7963 36.7567 40.2331 34.8846 39.1068C33.0125 37.9805 31.5617 36.338 30.4852 34.1792C29.4556 32.0205 28.894 29.4393 28.894 26.4358C28.894 23.4793 29.4556 20.8981 30.4852 18.7394C31.5617 16.5806 33.0125 14.9381 34.8846 13.8118C36.7567 12.6385 38.9096 12.0754 41.3433 12.0754C43.7302 12.0754 45.8831 12.6385 47.7551 13.8118C49.6272 14.9381 51.0781 16.5806 52.1545 18.7394C53.1841 20.8981 53.7458 23.4793 53.7458 26.4358C53.7458 29.4393 53.1841 32.0205 52.1545 34.1792C51.0781 36.338 49.6272 37.9805 47.7551 39.1068C45.8831 40.2331 43.7302 40.7963 41.3433 40.7963ZM41.3433 33.3814C43.4026 33.3814 44.4322 31.0819 44.4322 26.4358C44.4322 21.8367 43.4026 19.4903 41.3433 19.4903C39.2372 19.4903 38.2075 21.8367 38.2075 26.4358C38.2075 31.0819 39.2372 33.3814 41.3433 33.3814Z" fill="#525252"/>
<path d="M151.749 243.814V249.962C151.889 249.586 152.076 249.211 152.264 248.788C152.872 247.521 153.621 246.395 154.463 245.409C155.353 244.424 156.382 243.579 157.505 242.875C158.629 242.218 159.846 241.702 161.156 241.326C162.42 240.998 163.777 240.857 165.181 240.857C166.585 240.857 167.895 240.998 169.206 241.326C170.47 241.702 171.686 242.218 172.81 242.875C173.933 243.579 174.963 244.424 175.852 245.409C176.694 246.395 177.443 247.521 178.052 248.788C179.315 251.322 179.924 254.232 179.924 257.564C179.924 260.896 179.315 263.806 178.052 266.293C177.443 267.56 176.694 268.686 175.852 269.672C174.963 270.657 173.933 271.502 172.81 272.206C171.686 272.863 170.47 273.379 169.206 273.755C167.895 274.083 166.585 274.271 165.181 274.271C163.777 274.271 162.42 274.083 161.156 273.755C159.846 273.379 158.629 272.863 157.505 272.206C156.382 271.502 155.353 270.657 154.463 269.672C153.621 268.686 152.872 267.56 152.264 266.293C152.076 265.918 151.889 265.495 151.749 265.12V271.268V273.614H149.409H140.142H137.802V271.268V253.153H135.462H133.122V250.806V243.814V241.467H135.462H149.409H151.749V243.814ZM147.069 268.921V246.16H137.802V248.46H140.142H142.482V250.806V268.921H147.069ZM162.326 269.203C163.169 269.437 164.151 269.578 165.181 269.578C166.164 269.578 167.147 269.437 167.989 269.203C168.832 268.968 169.627 268.64 170.376 268.217C171.125 267.748 171.78 267.185 172.342 266.575C172.95 265.871 173.465 265.12 173.886 264.228C174.775 262.398 175.243 260.192 175.243 257.564C175.243 254.889 174.775 252.683 173.886 250.853C173.465 250.008 172.95 249.211 172.342 248.554C171.78 247.897 171.125 247.333 170.376 246.864C169.627 246.442 168.832 246.113 167.989 245.879C167.147 245.644 166.164 245.55 165.181 245.55C164.151 245.55 163.169 245.644 162.326 245.879C161.484 246.113 160.688 246.442 159.939 246.864C159.19 247.333 158.535 247.897 157.974 248.554C157.365 249.211 156.85 250.008 156.429 250.853C156.008 251.745 155.68 252.777 155.446 253.857C155.212 254.936 155.072 256.203 155.072 257.564C155.072 258.878 155.212 260.145 155.446 261.225C155.68 262.351 156.008 263.336 156.429 264.228C156.85 265.12 157.365 265.871 157.974 266.575C158.535 267.185 159.19 267.748 159.939 268.217C160.688 268.64 161.484 268.968 162.326 269.203ZM165.181 262.163C165.181 262.163 165.275 262.022 165.368 261.788C165.743 260.943 165.93 259.535 165.93 257.564C165.93 255.546 165.743 254.138 165.368 253.294C165.275 253.059 165.181 252.965 165.181 252.965C165.134 252.965 165.041 253.059 164.947 253.294C164.573 254.138 164.385 255.546 164.385 257.564C164.385 259.535 164.573 260.943 164.947 261.788C165.041 262.022 165.134 262.163 165.181 262.163ZM169.627 263.712C168.691 265.777 167.193 266.856 165.181 266.856C163.122 266.856 161.624 265.777 160.688 263.712C160.033 262.257 159.705 260.192 159.705 257.564C159.705 254.889 160.033 252.824 160.688 251.369C161.624 249.305 163.122 248.272 165.181 248.272C167.193 248.272 168.691 249.305 169.627 251.369C170.282 252.824 170.61 254.889 170.61 257.564C170.61 260.192 170.282 262.257 169.627 263.712Z" fill="white"/>
<path d="M149.409 243.814V271.268H140.142V250.806H135.462V243.814H149.409ZM165.181 271.925C162.747 271.925 160.594 271.315 158.722 270.188C156.85 269.062 155.399 267.419 154.323 265.261C153.293 263.102 152.732 260.521 152.732 257.564C152.732 254.561 153.293 251.98 154.323 249.821C155.399 247.662 156.85 246.019 158.722 244.893C160.594 243.767 162.747 243.204 165.181 243.204C167.568 243.204 169.721 243.767 171.593 244.893C173.465 246.019 174.916 247.662 175.992 249.821C177.022 251.98 177.583 254.561 177.583 257.564C177.583 260.521 177.022 263.102 175.992 265.261C174.916 267.419 173.465 269.062 171.593 270.188C169.721 271.315 167.568 271.925 165.181 271.925ZM165.181 264.51C167.24 264.51 168.27 262.163 168.27 257.564C168.27 252.918 167.24 250.619 165.181 250.619C163.075 250.619 162.045 252.918 162.045 257.564C162.045 262.163 163.075 264.51 165.181 264.51Z" fill="#525252"/>
<path fill-rule="evenodd" clip-rule="evenodd" d="M55.337 155.868C36.897 149.297 22.2012 153.474 15.4618 154.976C12.7941 155.539 10.5008 156.196 14.0577 159.763C16.3978 162.109 20.5632 163.423 21.78 163.986C28.8939 167.225 50.0016 166.192 58.1919 162.954C62.7317 161.171 63.2933 158.683 55.337 155.868Z" fill="#BDDBE3"/>
<path fill-rule="evenodd" clip-rule="evenodd" d="M25.2433 149.251C27.7238 146.012 32.5444 143.384 34.7441 142.446C37.6458 141.179 29.9703 154.131 27.6302 152.864C27.6302 152.864 23.9329 150.33 25.2433 149.251Z" fill="#A7BFC6"/>
<path fill-rule="evenodd" clip-rule="evenodd" d="M36.3822 147.467C32.5445 149.391 28.6131 153.146 33.2465 152.77C36.4758 152.489 38.9563 152.958 39.6116 149.673C40.454 145.402 39.8456 145.731 36.3822 147.467Z" fill="#A7BFC6"/>
<path fill-rule="evenodd" clip-rule="evenodd" d="M40.7816 150.424C40.0796 152.113 40.8284 153.521 42.6069 152.817C44.0109 152.207 45.0405 151.315 43.8705 148.969C42.7473 146.763 41.4368 148.922 40.7816 150.424Z" fill="#A7BFC6"/>
<path fill-rule="evenodd" clip-rule="evenodd" d="M52.014 165.676C50.5632 167.647 53.1373 170.228 55.0561 171.167C56.7878 172.011 58.0515 171.636 56.3666 167.553C55.4306 165.254 53.0437 164.315 52.014 165.676Z" fill="#A7BFC6"/>
<path fill-rule="evenodd" clip-rule="evenodd" d="M61.468 158.73C62.9189 155.68 71.624 148.312 75.0874 147.796C76.4446 147.608 76.8658 147.561 76.3978 148.687C75.415 151.128 71.156 156.196 70.3604 156.853C69.0967 157.933 68.5819 158.824 70.22 159.481C71.858 160.091 76.2574 163.799 76.6318 166.051C77.3339 170.04 77.8487 170.979 73.1685 168.492C72.9345 168.351 65.7738 163.611 62.5913 161.593C60.9064 160.561 60.5788 160.701 61.468 158.73Z" fill="#A7BFC6"/>
<path fill-rule="evenodd" clip-rule="evenodd" d="M27.3495 163.986C28.0047 163.846 28.7067 163.189 29.1279 161.828C29.8768 159.247 29.0811 152.207 27.6303 155.07C27.3963 155.586 27.7707 157.979 27.3495 159.857C27.2091 160.654 26.9283 161.358 26.6475 161.922C26.2262 162.766 25.0562 164.409 27.3495 163.986Z" fill="#8AA0A6"/>
<path fill-rule="evenodd" clip-rule="evenodd" d="M36.7098 154.741C34.7909 154.882 32.1232 155.492 32.1232 156.008C32.17 159.81 45.7426 154.084 36.7098 154.741Z" fill="#8AA0A6"/>
<path fill-rule="evenodd" clip-rule="evenodd" d="M32.4508 159.528C32.0764 160.138 32.6848 160.889 33.5273 161.593C34.7909 162.626 36.6162 163.564 37.1778 163.846C39.3307 164.69 39.5647 162.626 38.4883 161.593C36.897 160.044 32.9188 158.73 32.4508 159.528Z" fill="#8AA0A6"/>
<path fill-rule="evenodd" clip-rule="evenodd" d="M37.9267 159.904C39.4712 160.279 42.9813 158.214 35.1654 157.229C31.6084 156.806 31.6084 157.651 32.9657 158.402C34.2294 159.106 36.6162 159.622 37.9267 159.904Z" fill="#8AA0A6"/>
<path fill-rule="evenodd" clip-rule="evenodd" d="M18.0827 155.492C16.9126 156.759 16.9126 158.824 18.3635 159.528C19.7208 160.232 21.4056 159.669 22.4353 158.683C25.4306 155.633 20.376 153.005 18.0827 155.492Z" fill="#FAFAF4"/>
<path fill-rule="evenodd" clip-rule="evenodd" d="M19.8612 155.117C20.844 154.882 21.4524 155.305 21.5928 156.008C21.8269 157.135 20.376 158.402 19.3932 157.322C18.8315 156.665 18.2699 155.445 19.8612 155.117Z" fill="#8AA0A6"/>
<path fill-rule="evenodd" clip-rule="evenodd" d="M145.103 104.057C126.663 97.4403 111.967 101.664 105.228 103.119C102.56 103.729 100.267 104.386 103.824 107.952C106.164 110.299 110.329 111.613 111.546 112.176C118.66 115.367 139.814 114.382 147.958 111.144C152.498 109.36 153.059 106.873 145.103 104.057Z" fill="#C7E8F1"/>
<path fill-rule="evenodd" clip-rule="evenodd" d="M115.009 97.3934C117.49 94.2022 122.31 91.5741 124.51 90.6355C127.412 89.3684 119.877 102.274 117.49 100.96C117.49 100.96 113.699 98.5197 115.009 97.3934Z" fill="#A7BFC6"/>
<path fill-rule="evenodd" clip-rule="evenodd" d="M126.148 95.657C122.31 97.5811 118.332 100.96 122.966 100.585C126.195 100.35 128.722 101.101 129.378 97.8158C130.22 93.5921 129.612 93.9206 126.148 95.657Z" fill="#A7BFC6"/>
<path fill-rule="evenodd" clip-rule="evenodd" d="M130.548 98.6135C130.173 99.9745 130.782 100.725 131.905 100.678C133.403 100.632 134.853 99.5052 133.637 97.1587C132.513 94.953 131.016 97.0179 130.548 98.6135Z" fill="#A7BFC6"/>
<path fill-rule="evenodd" clip-rule="evenodd" d="M140.657 113.349C138.972 115.602 141.967 118.606 144.214 119.732C146.179 120.67 147.677 120.248 145.711 115.508C144.588 112.88 141.874 111.754 140.657 113.349Z" fill="#A7BFC6"/>
<path fill-rule="evenodd" clip-rule="evenodd" d="M151.468 106.779C152.919 103.729 161.39 96.5017 164.853 95.9854C166.351 95.7977 165.555 98.0503 164.853 100.209C164.245 102.039 161.718 103.682 160.173 105.043C158.863 106.122 158.348 107.014 159.986 107.671C161.624 108.281 166.023 111.988 166.398 114.241C167.1 118.23 167.615 119.169 162.981 116.681C162.607 116.494 151.328 108.844 151.234 108.75C150.719 107.906 151.094 107.624 151.468 106.779Z" fill="#A7BFC6"/>
<path fill-rule="evenodd" clip-rule="evenodd" d="M115.571 111.613C116.507 112.599 118.145 112.505 118.894 110.017C119.643 107.436 118.894 100.397 117.443 103.213C117.162 103.776 117.537 106.169 117.162 108.046C116.694 110.064 115.431 111.613 115.571 111.613Z" fill="#8AA0A6"/>
<path fill-rule="evenodd" clip-rule="evenodd" d="M126.569 103.072C124.651 103.213 122.076 103.682 122.076 104.198C122.123 106.263 127.084 105.043 127.505 105.09C127.599 104.996 131.811 102.696 126.569 103.072Z" fill="#8AA0A6"/>
<path fill-rule="evenodd" clip-rule="evenodd" d="M122.357 107.436C121.983 108.093 122.591 108.844 122.919 109.36C123.902 110.956 126.85 111.941 126.944 111.988C129.097 112.88 129.518 110.674 128.395 109.595C126.803 108.093 122.825 106.638 122.357 107.436Z" fill="#8AA0A6"/>
<path fill-rule="evenodd" clip-rule="evenodd" d="M122.076 105.935C123.855 107.671 125.399 107.577 127.693 108.093C129.237 108.469 132.747 106.404 124.931 105.418C122.732 105.137 121.889 105.747 122.076 105.935Z" fill="#8AA0A6" stroke="#9FBEC7" stroke-width="0.288"/>
<path fill-rule="evenodd" clip-rule="evenodd" d="M107.849 103.682C106.725 104.949 106.725 107.014 108.13 107.718C109.487 108.422 111.172 107.859 112.201 106.826C115.197 103.823 110.142 101.195 107.849 103.682Z" fill="#FAFAF4"/>
<path fill-rule="evenodd" clip-rule="evenodd" d="M108.738 107.577C109.861 107.812 110.563 107.342 110.704 106.592C110.891 105.747 110.329 105.09 109.768 104.855C109.112 104.574 108.363 104.808 107.755 105.512C107.1 106.216 107.006 107.202 108.738 107.577Z" fill="#8AA0A6"/>
</svg>
