<svg width="182" height="284" viewBox="0 0 182 284" fill="none" xmlns="http://www.w3.org/2000/svg">
<path d="M165.177 0.5H16.8231C7.83659 0.5 0.5 7.9059 0.5 16.9065V267.094C0.5 276.094 7.83659 283.5 16.8231 283.5H165.177C174.163 283.5 181.5 276.094 181.5 267.094V16.9065C181.5 7.9059 174.163 0.5 165.177 0.5Z" stroke="black" stroke-opacity="0.3"/>
<path fill-rule="evenodd" clip-rule="evenodd" d="M24.407 24.4648H157.593V259.535H24.407V24.4648Z" fill="#00B3E5"/>
<path fill-rule="evenodd" clip-rule="evenodd" d="M157.593 67.8746C130.862 83.0329 53.1508 89.4153 24.407 81.5781V229.923C63.5903 220.63 127.023 215.984 157.593 215.891V67.8746Z" fill="#1ECAFF"/>
<path fill-rule="evenodd" clip-rule="evenodd" d="M157.593 96.4548C117.754 111.238 66.7737 113.772 24.407 98.8013V229.782C63.5903 219.692 127.023 216.688 157.593 216.829V96.4548Z" fill="#2DDAFC"/>
<path fill-rule="evenodd" clip-rule="evenodd" d="M157.593 143.901C117.754 155.398 66.7737 157.369 24.407 145.684V247.803C63.5903 239.919 127.023 237.572 157.593 237.713V143.901Z" fill="#1ECAFF"/>
<path fill-rule="evenodd" clip-rule="evenodd" d="M24.407 220.771C63.6371 211.057 124.308 204.581 157.593 204.487V259.535H24.407V220.771Z" fill="#00B3E5"/>
<path fill-rule="evenodd" clip-rule="evenodd" d="M16.8231 1H165.177C173.884 1 181 8.1333 181 16.8622V267.138C181 275.867 173.884 283 165.177 283H16.8231C8.11573 283 1 275.867 1 267.138V16.8622C1 8.1333 8.11573 1 16.8231 1ZM24.407 24.4648H157.593V259.535H24.407V24.4648Z" fill="white"/>
<path d="M32.2718 28.5946C31.9441 28.2661 31.5696 27.9845 31.1014 27.7029L28.2926 25.9196L30.9142 23.8547C31.5227 23.3385 31.9909 22.8222 32.2718 22.2122C32.5526 21.649 32.6931 21.0389 32.6931 20.288C32.6931 19.678 32.6463 19.1617 32.459 18.6924C32.3186 18.2701 32.0845 17.8008 31.7568 17.3784C31.4291 16.956 31.0546 16.5806 30.5396 16.2521C30.0247 15.8767 29.4161 15.5482 28.7607 15.2666C28.0585 14.985 27.3095 14.7973 26.4668 14.6565C25.6242 14.5157 24.7347 14.4218 23.7516 14.4218C22.7685 14.4218 21.8322 14.5157 20.9896 14.6565C20.1469 14.7973 19.3979 14.985 18.6957 15.2666C18.0403 15.5482 17.4317 15.8767 16.9168 16.2521C16.4486 16.5806 16.0273 16.956 15.6996 17.3784C15.3719 17.8008 15.1378 18.2701 14.9974 18.6924C14.8569 19.1617 14.7633 19.678 14.7633 20.288C14.7633 20.992 14.9038 21.649 15.1846 22.2122C15.4655 22.8222 15.9337 23.3854 16.5891 23.8547L19.1638 25.9196L16.355 27.7029C15.9337 27.9845 15.5123 28.2661 15.1846 28.5946C14.9038 28.8762 14.6229 29.2516 14.3888 29.5801C14.0143 30.284 13.7802 31.0819 13.7802 32.0204C13.7802 33.2406 14.1547 34.32 14.8569 35.2117C15.1846 35.681 15.6528 36.1033 16.2145 36.5257C16.7763 36.9011 17.4317 37.2766 18.1807 37.5581C18.9298 37.8397 19.7724 38.0744 20.7087 38.2152C21.645 38.4029 22.6281 38.4498 23.7516 38.4498C24.8283 38.4498 25.8114 38.4029 26.7477 38.2152C27.684 38.0744 28.5266 37.8397 29.3225 37.5581C30.0247 37.2766 30.6801 36.9011 31.2887 36.5257C31.8036 36.1502 32.2718 35.7279 32.6463 35.2117C33.3485 34.32 33.6762 33.2406 33.6762 32.0204C33.6762 31.0819 33.4889 30.284 33.0676 29.5801C32.8335 29.2516 32.5995 28.8762 32.2718 28.5946ZM35.7828 25.4972C36.251 26.0135 36.7191 26.5766 37.0468 27.1867C37.9363 28.5946 38.3576 30.2371 38.3576 32.0204C38.3576 34.32 37.7022 36.338 36.3446 38.0744C35.6892 38.9191 34.8933 39.67 33.9571 40.327C33.1144 40.9371 32.0845 41.4533 30.961 41.9226C29.8842 42.345 28.7139 42.6265 27.5435 42.8612C26.3264 43.0489 25.0624 43.1428 23.7516 43.1428C22.4408 43.1428 21.1768 43.0489 19.9597 42.8612C18.7425 42.6265 17.619 42.345 16.4954 41.9226C15.3719 41.4533 14.3888 40.9371 13.4993 40.327C12.6099 39.67 11.814 38.9191 11.1586 38.0744C9.80102 36.338 9.09881 34.32 9.09881 32.0204C9.09881 30.2371 9.52014 28.5946 10.4096 27.1867C10.7841 26.5766 11.2054 26.0135 11.7204 25.4972C11.4395 25.1218 11.2054 24.6994 11.0182 24.324C10.4096 23.1038 10.0819 21.7429 10.0819 20.288C10.0819 19.2556 10.2223 18.2231 10.55 17.2376C10.8777 16.2521 11.3927 15.3604 12.0013 14.5626C12.6099 13.7648 13.3589 13.014 14.2015 12.4039C14.9974 11.8407 15.9337 11.3245 16.9636 10.9491C17.9935 10.5267 19.0702 10.2451 20.1937 10.0105C21.3173 9.82274 22.4876 9.72888 23.7516 9.72888C24.9688 9.72888 26.1391 9.82274 27.2627 10.0105C28.3862 10.2451 29.4629 10.5267 30.4928 10.9491C31.5227 11.3245 32.459 11.8407 33.2549 12.4039C34.0975 13.014 34.8465 13.7648 35.4551 14.5626C36.1105 15.3604 36.5787 16.2521 36.9064 17.2376C37.2341 18.2231 37.3745 19.2556 37.3745 20.288C37.3745 21.7429 37.0936 23.0569 36.4382 24.324C36.251 24.6994 36.0169 25.1218 35.7828 25.4972ZM20.4746 17.3315C21.3641 16.4398 22.4408 15.9705 23.7516 15.9705C25.0624 15.9705 26.1391 16.4398 26.9818 17.3315C27.8244 18.2231 28.2458 19.3025 28.2458 20.6635C28.2458 21.3205 28.1521 21.8836 27.9649 22.4468C27.7776 23.0569 27.4499 23.5731 26.9818 24.0424C26.1391 24.9341 25.0624 25.4034 23.7516 25.4034C23.0962 25.4034 22.5344 25.2626 21.9727 25.0749C21.4109 24.8402 20.896 24.4648 20.4746 24.0424C19.632 23.1507 19.2106 22.0244 19.2106 20.6635C19.2106 20.0534 19.3043 19.4902 19.4915 18.9271C19.7256 18.317 20.0533 17.7538 20.4746 17.3315ZM23.7516 32.2082C23.9389 32.2082 24.0793 32.2082 24.1729 32.1612C24.2197 32.1612 24.2666 32.1143 24.3134 32.0674C24.3602 32.0674 24.3602 32.0204 24.3602 31.9735C24.407 31.9266 24.407 31.8327 24.407 31.6919C24.407 31.5042 24.3602 31.4104 24.3134 31.3634C24.2666 31.2696 24.2197 31.2696 24.1729 31.2226C24.0793 31.2226 23.9389 31.1757 23.7516 31.1757C23.5644 31.1757 23.4239 31.2226 23.3303 31.2226C23.2835 31.2696 23.1898 31.2696 23.143 31.3634L23.0962 31.4104C23.0962 31.4573 23.0494 31.5981 23.0494 31.6919C23.0494 31.8327 23.0962 31.9266 23.0962 31.9735C23.0962 32.0204 23.143 32.0674 23.143 32.0674C23.1898 32.1143 23.2835 32.1612 23.3303 32.1612C23.4239 32.2082 23.5644 32.2082 23.7516 32.2082ZM25.7178 36.5726C25.1092 36.8073 24.4538 36.9011 23.7516 36.9011C23.0494 36.9011 22.394 36.8073 21.7386 36.5726C21.0832 36.338 20.4746 35.9625 19.9597 35.4932C19.4447 34.977 19.0234 34.4139 18.7425 33.7568C18.5084 33.0998 18.368 32.4428 18.368 31.6919C18.368 30.988 18.5084 30.284 18.7425 29.674C19.0234 29.0169 19.4447 28.4069 19.9597 27.8906C20.4746 27.4213 21.0832 27.0928 21.7386 26.8582C22.394 26.6235 23.0494 26.4828 23.7516 26.4828C24.4538 26.4828 25.1092 26.6235 25.7178 26.8582C26.42 27.0928 26.9818 27.4213 27.4967 27.8906C28.5735 28.9231 29.0884 30.1902 29.0884 31.6919C29.0884 32.4428 28.948 33.0998 28.7139 33.7568C28.433 34.4139 28.0585 34.977 27.4967 35.4932C26.9818 35.9625 26.42 36.338 25.7178 36.5726Z" fill="white"/>
<path d="M32.3654 25.685C33.5357 26.4358 34.4252 27.3275 35.0806 28.4069C35.6892 29.4393 36.0169 30.6595 36.0169 32.0205C36.0169 33.7569 35.5019 35.3055 34.472 36.6665C33.4421 37.9805 31.9909 39.013 30.1183 39.7169C28.2926 40.4678 26.1391 40.7963 23.7516 40.7963C21.3173 40.7963 19.2106 40.4678 17.3381 39.7169C15.4655 39.013 14.0143 37.9805 12.9844 36.6665C11.9545 35.3055 11.4395 33.7569 11.4395 32.0205C11.4395 30.6595 11.7672 29.4393 12.4226 28.4069C13.0312 27.3275 13.9675 26.4358 15.1378 25.685C13.3121 24.2771 12.4226 22.4468 12.4226 20.2881C12.4226 18.6455 12.8908 17.1907 13.8738 15.9705C14.8101 14.7504 16.1209 13.7648 17.853 13.1078C19.5383 12.4039 21.5045 12.0754 23.7516 12.0754C25.9519 12.0754 27.9181 12.4039 29.6502 13.1078C31.3355 13.7648 32.6463 14.7504 33.6294 15.9705C34.5657 17.1907 35.0338 18.6455 35.0338 20.2881C35.0338 22.4468 34.1443 24.2771 32.3654 25.685ZM23.7516 18.317C23.0962 18.317 22.5344 18.5517 22.1599 18.974C21.7386 19.3495 21.5514 19.9596 21.5514 20.6635C21.5514 21.4144 21.7386 21.9775 22.1599 22.3999C22.5344 22.8223 23.0962 23.0569 23.7516 23.0569C24.407 23.0569 24.922 22.8223 25.3433 22.3999C25.7178 21.9775 25.9051 21.4144 25.9051 20.6635C25.9051 19.9596 25.7178 19.3495 25.3433 18.974C24.922 18.5517 24.407 18.317 23.7516 18.317ZM23.7516 34.5547C24.6411 34.5547 25.3433 34.32 25.9051 33.8038C26.4668 33.2406 26.7477 32.5836 26.7477 31.692C26.7477 30.8472 26.4668 30.1433 25.9051 29.6271C25.3433 29.1108 24.6411 28.8292 23.7516 28.8292C22.8621 28.8292 22.1131 29.1108 21.5514 29.6271C20.9896 30.1433 20.7087 30.8472 20.7087 31.692C20.7087 32.5836 20.9896 33.2406 21.5514 33.8038C22.1131 34.32 22.8621 34.5547 23.7516 34.5547Z" fill="#525252"/>
<path d="M164.194 247.427H145.281V265.683H164.194V247.427Z" fill="white"/>
<path d="M160.215 259.676C159.887 259.347 159.466 259.066 159.044 258.784L156.235 257.048L158.81 254.983C159.466 254.467 159.934 253.904 160.215 253.34C160.495 252.777 160.636 252.12 160.636 251.369C160.636 250.806 160.542 250.243 160.402 249.821C160.261 249.351 160.027 248.929 159.7 248.507C159.372 248.084 158.951 247.662 158.482 247.333C157.968 246.958 157.359 246.63 156.704 246.395C156.001 246.113 155.252 245.879 154.41 245.738C153.567 245.597 152.631 245.55 151.648 245.55C150.665 245.55 149.775 245.597 148.932 245.738C148.09 245.879 147.294 246.113 146.639 246.395C145.983 246.63 145.375 246.958 144.86 247.333C144.345 247.662 143.97 248.084 143.642 248.507C143.315 248.929 143.081 249.351 142.94 249.821C142.753 250.243 142.706 250.806 142.706 251.369C142.706 252.12 142.847 252.73 143.127 253.34C143.408 253.904 143.876 254.467 144.485 254.983L147.107 257.048L144.298 258.784C143.83 259.066 143.455 259.347 143.127 259.676C142.8 260.004 142.566 260.333 142.332 260.708C141.91 261.365 141.723 262.21 141.723 263.102C141.723 264.322 142.051 265.401 142.753 266.34C143.127 266.809 143.596 267.232 144.111 267.607C144.719 268.029 145.375 268.358 146.077 268.64C146.873 268.921 147.715 269.156 148.652 269.343C149.588 269.484 150.571 269.578 151.648 269.578C152.771 269.578 153.754 269.484 154.691 269.343C155.627 269.156 156.469 268.921 157.218 268.64C157.968 268.358 158.623 268.029 159.185 267.607H159.231C159.746 267.232 160.168 266.809 160.542 266.34C161.245 265.401 161.619 264.322 161.619 263.102C161.619 262.21 161.385 261.365 161.01 260.708C160.776 260.333 160.495 260.004 160.215 259.676ZM163.679 256.579C164.194 257.095 164.615 257.658 164.99 258.268C165.879 259.723 166.3 261.319 166.3 263.102C166.3 265.401 165.598 267.419 164.241 269.156C163.585 270 162.836 270.751 161.9 271.408V271.455C161.01 272.065 160.027 272.582 158.904 273.004C157.78 273.426 156.657 273.755 155.44 273.943C154.222 274.13 152.958 274.271 151.648 274.271C150.337 274.271 149.073 274.13 147.856 273.943C146.685 273.755 145.515 273.426 144.438 273.004C143.315 272.582 142.285 272.065 141.442 271.455C140.506 270.798 139.71 270.047 139.055 269.156C137.697 267.419 137.042 265.401 137.042 263.102C137.042 261.319 137.463 259.723 138.306 258.268C138.68 257.658 139.148 257.095 139.616 256.579C139.382 256.203 139.148 255.828 138.961 255.405H138.914C138.306 254.185 138.025 252.824 138.025 251.369C138.025 250.337 138.165 249.305 138.493 248.319C138.821 247.333 139.289 246.442 139.944 245.644C140.553 244.846 141.302 244.142 142.144 243.532C142.94 242.922 143.876 242.453 144.906 242.03C145.936 241.608 147.013 241.327 148.137 241.139C149.26 240.951 150.43 240.857 151.648 240.857C152.912 240.857 154.082 240.951 155.205 241.139C156.329 241.327 157.406 241.608 158.436 242.03C159.466 242.453 160.355 242.922 161.198 243.532C162.04 244.142 162.789 244.846 163.398 245.644C164.007 246.442 164.521 247.333 164.849 248.319C165.177 249.305 165.317 250.337 165.317 251.369C165.317 252.824 164.99 254.185 164.381 255.405C164.194 255.828 163.96 256.203 163.679 256.579ZM148.417 248.413C149.26 247.521 150.337 247.052 151.648 247.052C152.958 247.052 154.035 247.521 154.925 248.413C155.767 249.305 156.189 250.431 156.189 251.792C156.189 252.402 156.095 252.965 155.908 253.528C155.674 254.138 155.346 254.655 154.925 255.124C154.035 256.015 152.958 256.485 151.648 256.485C151.039 256.485 150.477 256.391 149.916 256.156C149.354 255.922 148.839 255.593 148.417 255.124C147.575 254.232 147.107 253.153 147.107 251.792C147.107 251.135 147.247 250.572 147.434 250.008C147.622 249.398 147.949 248.882 148.417 248.413ZM151.648 263.336C151.835 263.336 151.975 263.29 152.069 263.29C152.116 263.243 152.209 263.196 152.256 263.149L152.303 263.102C152.303 263.008 152.35 262.914 152.35 262.82C152.35 262.633 152.303 262.492 152.256 262.445C152.209 262.398 152.116 262.351 152.069 262.351C151.975 262.304 151.835 262.304 151.648 262.304C151.46 262.304 151.32 262.304 151.226 262.351C151.179 262.351 151.133 262.398 151.086 262.445C151.039 262.445 151.039 262.492 151.039 262.492C150.992 262.586 150.992 262.679 150.992 262.82C150.992 262.914 150.992 263.008 151.039 263.102C151.039 263.102 151.039 263.149 151.086 263.149C151.133 263.196 151.179 263.243 151.226 263.29C151.32 263.29 151.46 263.336 151.648 263.336ZM153.661 267.654C153.005 267.889 152.35 268.029 151.648 268.029C150.945 268.029 150.29 267.889 149.681 267.654C148.979 267.419 148.417 267.091 147.902 266.575C147.388 266.105 146.966 265.495 146.685 264.838C146.451 264.228 146.311 263.524 146.311 262.82C146.311 262.069 146.451 261.365 146.685 260.755C146.966 260.098 147.388 259.488 147.902 259.019C148.417 258.55 148.979 258.174 149.681 257.94C150.29 257.705 150.945 257.611 151.648 257.611C152.35 257.611 153.005 257.705 153.661 257.94C154.316 258.174 154.925 258.55 155.44 259.019C156.469 260.004 157.031 261.272 157.031 262.82C157.031 263.524 156.891 264.228 156.61 264.838C156.376 265.495 155.955 266.105 155.44 266.575C154.925 267.091 154.316 267.419 153.661 267.654Z" fill="white"/>
<path d="M160.261 256.813C161.432 257.517 162.368 258.409 162.977 259.488C163.632 260.568 163.96 261.741 163.96 263.102C163.96 264.885 163.445 266.434 162.415 267.748C161.385 269.062 159.934 270.094 158.061 270.845C156.189 271.549 154.082 271.925 151.648 271.925C149.26 271.925 147.107 271.549 145.281 270.845C143.408 270.094 141.957 269.062 140.927 267.748C139.897 266.434 139.382 264.885 139.382 263.102C139.382 261.741 139.71 260.568 140.319 259.488C140.974 258.409 141.863 257.517 143.034 256.813C141.255 255.358 140.365 253.575 140.365 251.369C140.365 249.727 140.834 248.319 141.77 247.052C142.753 245.832 144.064 244.893 145.749 244.189C147.481 243.532 149.447 243.204 151.648 243.204C153.895 243.204 155.861 243.532 157.546 244.189C159.278 244.893 160.589 245.832 161.525 247.052C162.508 248.319 162.977 249.727 162.977 251.369C162.977 253.575 162.087 255.358 160.261 256.813ZM151.648 249.398C150.992 249.398 150.477 249.633 150.056 250.055C149.681 250.478 149.447 251.041 149.447 251.792C149.447 252.496 149.681 253.106 150.056 253.481C150.477 253.904 150.992 254.138 151.648 254.138C152.303 254.138 152.865 253.904 153.239 253.481C153.661 253.106 153.848 252.496 153.848 251.792C153.848 251.041 153.661 250.478 153.239 250.055C152.865 249.633 152.303 249.398 151.648 249.398ZM151.648 265.683C152.537 265.683 153.286 265.401 153.848 264.885C154.41 264.369 154.691 263.665 154.691 262.82C154.691 261.929 154.41 261.225 153.848 260.708C153.286 260.192 152.537 259.958 151.648 259.958C150.758 259.958 150.056 260.192 149.494 260.708C148.932 261.225 148.651 261.929 148.651 262.82C148.651 263.665 148.932 264.369 149.494 264.885C150.056 265.401 150.758 265.683 151.648 265.683Z" fill="#525252"/>
<path fill-rule="evenodd" clip-rule="evenodd" d="M91.5852 78.997C91.5384 74.6325 84.0481 63.7449 65.6034 58.7703C61.9987 57.7848 61.156 58.4887 58.4408 61.0699C56.7555 62.6655 44.3966 78.4338 46.6905 78.293C53.5722 77.9176 60.7815 73.0369 68.9272 73.647C77.2133 74.2571 87.091 81.0619 88.6359 81.015C92.2874 80.9211 91.5852 79.1847 91.5852 78.997Z" fill="#E0BE68"/>
<path fill-rule="evenodd" clip-rule="evenodd" d="M46.6906 82.6106C46.5969 81.1558 55.3043 94.8123 57.3642 97.675C59.7049 102.227 65.463 100.162 70.238 98.332C74.4513 96.7364 78.8986 94.7654 78.8986 91.6211C77.8687 91.011 78.805 90.7294 75.5748 90.6356C64.5735 90.3071 53.1509 79.1847 48.0013 82.5637C47.7673 82.7045 47.6268 82.8453 46.6906 82.6106Z" fill="#E0BE68"/>
<path fill-rule="evenodd" clip-rule="evenodd" d="M43.9753 77.8238C39.7153 76.1812 37.2809 74.6795 34.9871 73.4593C32.4123 72.0514 32.225 71.3944 31.8037 74.3979C31.2887 77.9176 32.1314 84.7224 33.0209 88.1483C33.8167 91.3395 34.3317 90.4478 36.2978 89.0399C39.1067 87.022 43.9753 83.2207 43.9285 81.5781C43.9285 81.3435 44.7244 78.1053 43.9753 77.8238Z" fill="#E0BE68"/>
<path fill-rule="evenodd" clip-rule="evenodd" d="M91.2576 77.7299C81.9884 67.2176 75.528 65.1058 68.74 65.3874C58.7686 65.7628 55.7257 73.8816 49.5462 76.7444C47.7673 77.5891 45.4266 77.5422 42.8986 77.4952C41.5879 77.4483 41.2602 83.5961 43.2732 83.5491C48.3759 83.4084 49.1249 82.8921 52.1678 85.3794C53.2445 86.2711 55.0235 89.8377 58.3473 92.325C62.6542 95.5631 68.2719 96.8772 72.766 95.9386C79.9286 94.4368 87.1379 91.0579 92.4279 86.5057C96.173 83.2676 94.3941 81.3435 91.2576 77.7299Z" fill="#CC8100"/>
<path fill-rule="evenodd" clip-rule="evenodd" d="M59.3304 81.7658C60.922 81.7658 61.437 84.0185 61.437 85.6141C61.437 87.2097 59.6581 88.1952 58.1132 88.1952C56.5215 88.1952 55.2575 86.1303 55.2575 84.5347C55.2575 82.9391 57.7855 81.7658 59.3304 81.7658Z" fill="#945E00"/>
<path fill-rule="evenodd" clip-rule="evenodd" d="M58.7217 71.8167C60.4539 71.8167 61.9051 73.1307 61.9051 74.7263C61.9051 76.322 60.3134 78.1053 58.5813 78.1053C56.8492 78.1053 55.5852 76.322 55.5852 74.7263C55.5852 73.1307 56.9896 71.8167 58.7217 71.8167Z" fill="#945E00"/>
<path d="M84.8908 80.7334C84.9844 80.4988 84.8908 80.2641 84.6567 80.1233C84.4227 80.0295 84.1418 80.1233 84.0482 80.4049C83.2055 82.329 83.0182 83.8308 83.2055 85.004C83.4396 86.2242 84.0482 87.0689 84.7972 87.679C85.5462 88.2891 86.3889 88.6645 87.1379 88.8523C88.0742 89.04 88.9168 89.04 89.1041 88.9461C89.3381 88.8053 89.4318 88.5237 89.3381 88.2891C89.1977 88.0545 88.9168 87.9606 88.6827 88.1014C88.6359 88.1483 88.121 88.1014 87.3719 87.9137C86.7634 87.7729 86.0143 87.4913 85.4058 86.9751C84.7972 86.5058 84.329 85.8018 84.1418 84.8632C83.9545 83.8308 84.1418 82.4698 84.8908 80.7334Z" fill="#945E00"/>
<path d="M80.5839 83.2676C80.6776 83.0329 80.5839 82.7514 80.3499 82.6575C80.1158 82.5637 79.8349 82.7044 79.7413 82.9391C79.4136 83.7838 79.2731 84.5816 79.2731 85.3325C79.2263 86.7404 79.7881 87.8667 80.5839 88.7584C81.3798 89.65 82.4097 90.307 83.4396 90.6825C84.3291 91.011 85.2185 91.1987 85.9207 91.1987C86.1548 91.1987 86.3889 91.011 86.3889 90.7294C86.3889 90.4948 86.1548 90.2601 85.9207 90.2601C85.3122 90.2601 84.5631 90.1193 83.7673 89.8377C82.8778 89.4623 81.9884 88.8992 81.2861 88.1483C80.6307 87.3974 80.1626 86.4588 80.1626 85.3325C80.1626 84.7224 80.303 84.0185 80.5839 83.2676Z" fill="#945E00"/>
<path d="M77.2601 85.9426C77.4473 85.7549 77.4005 85.4733 77.2133 85.2856C77.026 85.1448 76.7451 85.1448 76.5579 85.3325C76.0429 85.8957 75.762 86.8342 75.762 87.8667C75.8089 88.7114 76.0429 89.6031 76.5111 90.4478C76.9792 91.2926 77.6814 91.9965 78.5709 92.4658C79.6476 92.982 81.052 93.1697 82.7841 92.7474C83.0182 92.7004 83.2055 92.4189 83.1118 92.1842C83.065 91.9026 82.831 91.7619 82.5501 91.8088C81.052 92.1842 79.8817 92.0434 78.9922 91.6211C78.2432 91.2456 77.6814 90.6825 77.3069 89.9785C76.9324 89.2746 76.7451 88.5237 76.6983 87.8198C76.6983 87.0689 76.8856 86.3649 77.2601 85.9426Z" fill="#945E00"/>
<path fill-rule="evenodd" clip-rule="evenodd" d="M90.1341 77.683C91.1171 77.683 91.9598 78.5747 91.9598 79.654C91.9598 80.7334 91.1171 81.6251 90.1341 81.6251C89.1041 81.6251 88.2615 80.7334 88.2615 79.654C88.2615 78.5747 89.1041 77.683 90.1341 77.683Z" fill="white"/>
<path fill-rule="evenodd" clip-rule="evenodd" d="M90.3213 78.4339C90.8363 78.4339 91.2576 78.8562 91.2576 79.3725C91.2576 79.8887 90.8363 80.3111 90.3213 80.3111C89.8064 80.3111 89.385 79.8887 89.385 79.3725C89.385 78.8562 89.8064 78.4339 90.3213 78.4339Z" fill="#525252"/>
<path fill-rule="evenodd" clip-rule="evenodd" d="M90.5085 83.5022C91.632 83.5022 92.5215 84.4408 92.5215 85.6141C92.5215 86.8342 91.632 87.7728 90.5085 87.7728C89.4318 87.7728 88.4955 86.8342 88.4955 85.6141C88.4955 84.4408 89.4318 83.5022 90.5085 83.5022Z" fill="white"/>
<path fill-rule="evenodd" clip-rule="evenodd" d="M90.6958 84.2062C91.3044 84.2062 91.8193 84.7224 91.8193 85.3325C91.8193 85.9426 91.3044 86.4588 90.6958 86.4588C90.0404 86.4588 89.5254 85.9426 89.5254 85.3325C89.5254 84.7224 90.0404 84.2062 90.6958 84.2062Z" fill="#4D4D4D"/>
<path fill-rule="evenodd" clip-rule="evenodd" d="M75.4344 68.7194C77.1665 68.7194 78.5709 69.9865 78.5709 71.629C78.5709 73.2246 76.9792 74.961 75.2471 74.961C73.515 74.961 72.2978 73.2246 72.2978 71.629C72.2978 69.9865 73.7023 68.7194 75.4344 68.7194Z" fill="#945E00"/>
<path fill-rule="evenodd" clip-rule="evenodd" d="M70.9403 77.7298C72.8129 77.7298 74.3577 79.1846 74.3577 80.921C74.3577 82.6574 72.6256 84.5816 70.753 84.5816C68.8337 84.5816 67.5229 82.6574 67.5229 80.921C67.5229 79.1846 69.0209 77.7298 70.9403 77.7298Z" fill="#945E00"/>
<path fill-rule="evenodd" clip-rule="evenodd" d="M66.3525 69.4703C67.242 69.4703 67.5228 70.7374 67.5228 71.6291C67.5228 72.5207 66.5398 73.0839 65.6503 73.0839C64.7608 73.0839 64.0586 71.9106 64.0586 71.019C64.0586 70.1273 65.463 69.4703 66.3525 69.4703Z" fill="#E0BE68" stroke="#CC8100" stroke-width="0.288"/>
<path fill-rule="evenodd" clip-rule="evenodd" d="M63.684 82.2351C62.7946 82.2351 62.5137 80.968 62.5137 80.0764C62.5137 79.1847 63.4968 78.6216 64.3394 78.6216C65.2289 78.6216 65.9311 79.7948 65.9311 80.6865C65.9311 81.5781 64.5267 82.2351 63.684 82.2351Z" fill="#E0BE68"/>
<path fill-rule="evenodd" clip-rule="evenodd" d="M64.199 88.7583C64.7608 88.1013 65.9311 88.7114 66.5865 89.2745C67.2419 89.8846 67.0547 90.964 66.4461 91.621C65.8843 92.3249 64.5267 92.0903 63.8713 91.5271C63.2159 90.9171 63.6373 89.4622 64.199 88.7583Z" fill="#E0BE68"/>
<path fill-rule="evenodd" clip-rule="evenodd" d="M80.4435 79.0908C79.554 79.0908 79.2731 77.8707 79.2731 76.979C79.2731 76.0873 80.2562 75.5242 81.0989 75.5242C81.9883 75.5242 82.6906 76.6974 82.6906 77.5891C82.6906 78.4808 81.2861 79.0908 80.4435 79.0908Z" fill="#E0BE68"/>
<path fill-rule="evenodd" clip-rule="evenodd" d="M70.8466 89.3215C71.8297 88.4768 73.3278 89.6031 74.2172 90.6355C75.0599 91.668 74.4513 93.2166 73.4682 94.0614C72.4383 94.9061 70.5189 94.296 69.6763 93.2636C68.8336 92.2311 69.8167 90.1662 70.8466 89.3215Z" fill="#945E00"/>
<path fill-rule="evenodd" clip-rule="evenodd" d="M49.9207 78.9501C50.5293 78.2931 51.6529 78.9032 52.3083 79.4663C53.0105 80.0764 52.7764 81.1558 52.2146 81.8128C51.606 82.5167 50.2953 82.2821 49.593 81.7189C48.9376 81.1089 49.359 79.654 49.9207 78.9501Z" fill="#E0BE68"/>
<path fill-rule="evenodd" clip-rule="evenodd" d="M161.432 109.407C161.385 104.339 152.771 91.8558 131.564 86.1303C127.398 85.004 126.462 85.8018 123.325 88.7584C121.359 90.6356 107.174 108.703 109.843 108.563C117.707 108.14 126.04 102.556 135.403 103.213C144.953 103.917 156.329 111.754 158.061 111.707C162.228 111.566 161.432 109.595 161.432 109.407Z" fill="#DEB389"/>
<path fill-rule="evenodd" clip-rule="evenodd" d="M109.843 113.537C109.702 111.895 119.721 127.569 122.108 130.901C124.776 136.11 131.424 133.764 136.901 131.652C141.77 129.775 146.826 127.522 146.826 123.909C145.702 123.205 146.779 122.876 143.034 122.782C130.394 122.36 117.239 109.595 111.294 113.49C111.06 113.678 110.873 113.819 109.843 113.537Z" fill="#DEB389"/>
<path fill-rule="evenodd" clip-rule="evenodd" d="M106.706 108.046C101.791 106.122 98.9818 104.433 96.3603 103.025C93.411 101.429 93.1769 100.632 92.7088 104.104C92.1002 108.14 93.0833 115.978 94.0664 119.92C95.0027 123.58 95.6112 122.595 97.8583 120.952C101.088 118.606 106.706 114.288 106.613 112.364C106.613 112.082 107.549 108.375 106.706 108.046Z" fill="#DEB389"/>
<path fill-rule="evenodd" clip-rule="evenodd" d="M161.057 107.953C150.43 95.8448 142.987 93.4044 135.169 93.7329C123.7 94.1553 120.189 103.494 113.12 106.826C111.06 107.812 108.391 107.718 105.442 107.624C103.944 107.577 103.57 114.664 105.91 114.617C111.762 114.429 112.651 113.866 116.116 116.728C117.333 117.761 119.393 121.844 123.231 124.706C128.194 128.461 134.654 129.963 139.804 128.883C148.043 127.1 156.376 123.252 162.462 118.042C166.722 114.335 164.709 112.082 161.057 107.953Z" fill="#9A6442"/>
<path fill-rule="evenodd" clip-rule="evenodd" d="M124.355 112.599C126.181 112.599 126.742 115.18 126.742 117.01C126.742 118.84 124.776 119.967 122.951 119.967C121.125 119.967 119.674 117.573 119.674 115.743C119.674 113.913 122.576 112.599 124.355 112.599Z" fill="#753E28"/>
<path fill-rule="evenodd" clip-rule="evenodd" d="M123.653 101.148C125.666 101.148 127.304 102.603 127.304 104.48C127.304 106.31 125.479 108.328 123.466 108.328C121.499 108.328 120.048 106.31 120.048 104.48C120.048 102.603 121.687 101.148 123.653 101.148Z" fill="#753E28"/>
<path d="M153.754 111.425C153.895 111.144 153.754 110.815 153.473 110.721C153.192 110.581 152.912 110.721 152.771 111.003C151.835 113.209 151.601 114.945 151.835 116.306C152.069 117.714 152.771 118.699 153.661 119.403C154.503 120.06 155.486 120.483 156.376 120.717C157.453 120.952 158.389 120.905 158.623 120.811C158.904 120.671 158.997 120.342 158.857 120.107C158.717 119.826 158.389 119.732 158.108 119.873C158.061 119.92 157.453 119.873 156.61 119.638C155.861 119.45 155.018 119.122 154.316 118.559C153.661 117.996 153.099 117.198 152.912 116.118C152.678 114.945 152.912 113.396 153.754 111.425Z" fill="#753E28"/>
<path d="M148.839 114.335C148.932 114.054 148.792 113.725 148.511 113.631C148.23 113.49 147.949 113.631 147.809 113.913C147.434 114.898 147.247 115.837 147.247 116.682C147.247 118.277 147.903 119.591 148.792 120.624C149.728 121.656 150.899 122.36 152.069 122.829C153.099 123.252 154.129 123.439 154.925 123.439C155.206 123.439 155.44 123.205 155.44 122.876C155.44 122.595 155.206 122.36 154.925 122.36C154.222 122.36 153.38 122.172 152.443 121.844C151.414 121.421 150.384 120.811 149.588 119.92C148.839 119.075 148.324 117.996 148.324 116.682C148.324 115.978 148.464 115.18 148.839 114.335Z" fill="#753E28"/>
<path d="M144.953 117.385C145.187 117.198 145.14 116.822 144.953 116.635C144.719 116.447 144.391 116.447 144.204 116.681C143.549 117.338 143.221 118.418 143.268 119.591C143.315 120.577 143.549 121.609 144.111 122.548V122.595C144.672 123.533 145.421 124.331 146.498 124.847C147.762 125.457 149.354 125.692 151.32 125.176C151.601 125.129 151.788 124.847 151.741 124.566C151.648 124.237 151.367 124.096 151.086 124.143C149.354 124.566 147.996 124.425 146.966 123.909C146.124 123.486 145.468 122.782 145.047 122.031C144.579 121.234 144.345 120.342 144.345 119.544C144.298 118.653 144.532 117.855 144.953 117.385Z" fill="#753E28"/>
<path fill-rule="evenodd" clip-rule="evenodd" d="M159.747 107.859C160.917 107.859 161.9 108.891 161.9 110.158C161.9 111.425 160.917 112.411 159.747 112.411C158.576 112.411 157.64 111.425 157.64 110.158C157.64 108.891 158.576 107.859 159.747 107.859Z" fill="white"/>
<path fill-rule="evenodd" clip-rule="evenodd" d="M159.981 108.75C160.589 108.75 161.104 109.22 161.104 109.83C161.104 110.44 160.589 110.909 159.981 110.909C159.419 110.909 158.904 110.44 158.904 109.83C158.904 109.22 159.419 108.75 159.981 108.75Z" fill="#525252"/>
<path fill-rule="evenodd" clip-rule="evenodd" d="M160.215 114.57C161.525 114.57 162.555 115.649 162.555 117.01C162.555 118.371 161.525 119.497 160.215 119.497C158.951 119.497 157.921 118.371 157.921 117.01C157.921 115.649 158.951 114.57 160.215 114.57Z" fill="white"/>
<path fill-rule="evenodd" clip-rule="evenodd" d="M160.402 115.414C161.151 115.414 161.759 115.978 161.759 116.682C161.759 117.385 161.151 117.996 160.402 117.996C159.7 117.996 159.091 117.385 159.091 116.682C159.091 115.978 159.7 115.414 160.402 115.414Z" fill="#4D4D4D"/>
<path fill-rule="evenodd" clip-rule="evenodd" d="M142.893 97.5343C144.86 97.5343 146.498 99.036 146.498 100.913C146.498 102.743 144.672 104.761 142.659 104.761C140.693 104.761 139.242 102.743 139.242 100.913C139.242 99.036 140.88 97.5343 142.893 97.5343Z" fill="#753E28"/>
<path fill-rule="evenodd" clip-rule="evenodd" d="M137.697 107.953C139.897 107.953 141.629 109.595 141.629 111.566C141.629 113.584 139.663 115.79 137.463 115.79C135.309 115.79 133.765 113.584 133.765 111.566C133.765 109.595 135.544 107.953 137.697 107.953Z" fill="#753E28"/>
<path fill-rule="evenodd" clip-rule="evenodd" d="M132.454 98.4259C133.437 98.4259 133.765 99.8807 133.765 100.913C133.765 101.946 132.641 102.556 131.658 102.556C130.628 102.556 129.785 101.242 129.785 100.209C129.785 99.1767 131.424 98.4259 132.454 98.4259Z" fill="#DEB389"/>
<path fill-rule="evenodd" clip-rule="evenodd" d="M129.317 113.115C128.334 113.115 128.007 111.66 128.007 110.628C128.007 109.595 129.13 108.985 130.16 108.985C131.143 108.985 131.986 110.299 131.986 111.332C131.986 112.364 130.347 113.115 129.317 113.115Z" fill="#DEB389"/>
<path fill-rule="evenodd" clip-rule="evenodd" d="M129.973 120.624C130.628 119.873 131.939 120.577 132.688 121.234C133.484 121.891 133.203 123.158 132.547 123.909C131.892 124.706 130.347 124.472 129.598 123.768C128.802 123.111 129.317 121.421 129.973 120.624Z" fill="#DEB389"/>
<path fill-rule="evenodd" clip-rule="evenodd" d="M148.605 109.501C147.622 109.501 147.294 108.093 147.294 107.061C147.294 106.028 148.417 105.371 149.401 105.371C150.43 105.371 151.226 106.732 151.226 107.765C151.226 108.797 149.635 109.501 148.605 109.501Z" fill="#DEB389"/>
<path fill-rule="evenodd" clip-rule="evenodd" d="M137.603 121.234C138.727 120.248 140.459 121.609 141.442 122.782C142.425 123.956 141.77 125.739 140.6 126.724C139.476 127.71 137.229 126.959 136.246 125.786C135.263 124.613 136.433 122.219 137.603 121.234Z" fill="#753E28"/>
<path fill-rule="evenodd" clip-rule="evenodd" d="M113.541 109.36C114.243 108.563 115.507 109.267 116.303 109.924C117.052 110.628 116.818 111.895 116.163 112.646C115.507 113.396 113.962 113.162 113.167 112.505C112.417 111.848 112.886 110.111 113.541 109.36Z" fill="#DEB389"/>
<path fill-rule="evenodd" clip-rule="evenodd" d="M116.771 163.893C116.724 159.528 109.234 148.64 90.7894 143.666C87.1847 142.68 86.342 143.384 83.6268 145.965C81.9415 147.561 69.5826 163.282 71.8765 163.189C78.7582 162.813 85.9675 157.933 94.1132 158.543C102.399 159.106 112.324 165.957 113.822 165.911C117.473 165.77 116.771 164.08 116.771 163.893Z" fill="#E0BE68"/>
<path fill-rule="evenodd" clip-rule="evenodd" d="M71.8765 167.506C71.7828 166.051 80.4903 179.708 82.5501 182.571C84.8908 187.123 90.6489 185.058 95.4239 183.228C99.6372 181.632 104.085 179.661 104.085 176.517C103.055 175.907 103.991 175.625 100.761 175.531C89.7594 175.156 78.3368 164.033 73.1873 167.459C72.9532 167.6 72.8127 167.741 71.8765 167.506Z" fill="#E0BE68"/>
<path fill-rule="evenodd" clip-rule="evenodd" d="M69.1612 162.719C64.9011 161.077 62.4668 159.575 60.1729 158.355C57.5981 156.947 57.4109 156.29 56.9895 159.293C56.4746 162.813 57.3172 169.618 58.2067 173.044C59.0025 176.235 59.5175 175.343 61.4837 173.935C64.2925 171.917 69.1612 168.116 69.1144 166.474C69.1144 166.239 69.9102 163.001 69.1612 162.719Z" fill="#E0BE68"/>
<path fill-rule="evenodd" clip-rule="evenodd" d="M116.443 162.626C107.174 152.113 100.714 150.001 93.9258 150.236C83.9544 150.658 80.9115 158.777 74.7321 161.64C72.9531 162.485 70.6124 162.438 68.0845 162.344C66.7737 162.344 66.446 168.492 68.459 168.398C73.5617 168.257 74.3108 167.788 77.3537 170.275C78.4304 171.167 80.2093 174.733 83.5331 177.221C87.84 180.459 93.4577 181.773 97.9518 180.834C105.114 179.286 112.324 175.954 117.614 171.401C121.359 168.163 119.58 166.239 116.443 162.626Z" fill="#CC8100"/>
<path fill-rule="evenodd" clip-rule="evenodd" d="M84.5162 166.661C86.1079 166.661 86.6228 168.914 86.6228 170.51C86.6228 172.105 84.8439 173.091 83.299 173.091C81.7074 173.091 80.4434 171.026 80.4434 169.43C80.4434 167.835 82.9713 166.661 84.5162 166.661Z" fill="#945E00"/>
<path fill-rule="evenodd" clip-rule="evenodd" d="M83.9077 156.712C85.6866 156.712 87.091 157.979 87.091 159.622C87.091 161.218 85.4994 163.001 83.7672 163.001C82.0351 163.001 80.7711 161.218 80.7711 159.622C80.7711 157.979 82.1756 156.712 83.9077 156.712Z" fill="#945E00"/>
<path d="M110.077 165.629C110.17 165.394 110.077 165.113 109.843 165.019C109.609 164.925 109.328 165.019 109.234 165.254C108.391 167.178 108.204 168.726 108.391 169.9C108.625 171.12 109.234 171.964 109.983 172.575C110.732 173.185 111.575 173.513 112.324 173.701C113.26 173.936 114.103 173.936 114.29 173.795C114.524 173.701 114.618 173.419 114.524 173.185C114.384 172.95 114.103 172.856 113.869 172.997C113.822 173.044 113.307 172.997 112.558 172.809C111.949 172.668 111.2 172.34 110.592 171.871C109.983 171.354 109.515 170.697 109.328 169.759C109.14 168.726 109.328 167.365 110.077 165.629Z" fill="#945E00"/>
<path d="M105.77 168.163C105.863 167.929 105.77 167.647 105.536 167.553C105.302 167.459 105.021 167.6 104.927 167.835C104.599 168.679 104.459 169.477 104.459 170.228C104.412 171.636 104.974 172.762 105.77 173.654C106.566 174.546 107.596 175.156 108.625 175.578C109.515 175.907 110.404 176.094 111.107 176.094C111.341 176.094 111.575 175.907 111.575 175.625C111.575 175.39 111.341 175.156 111.107 175.156C110.498 175.156 109.749 175.015 108.953 174.686C108.064 174.358 107.174 173.795 106.472 173.044C105.817 172.293 105.348 171.354 105.348 170.228C105.348 169.618 105.489 168.914 105.77 168.163Z" fill="#945E00"/>
<path d="M102.446 170.838C102.633 170.65 102.586 170.369 102.399 170.181C102.212 169.993 101.931 170.04 101.744 170.228C101.229 170.791 100.948 171.73 100.948 172.762C100.995 173.607 101.229 174.499 101.697 175.343C102.165 176.188 102.867 176.892 103.757 177.361C104.88 177.878 106.238 178.065 107.97 177.643C108.204 177.549 108.391 177.314 108.298 177.08C108.251 176.798 108.017 176.657 107.736 176.704C106.285 177.08 105.068 176.939 104.178 176.517C103.429 176.141 102.867 175.531 102.493 174.874C102.118 174.17 101.931 173.419 101.884 172.715C101.884 171.964 102.071 171.261 102.446 170.838Z" fill="#945E00"/>
<path fill-rule="evenodd" clip-rule="evenodd" d="M115.32 162.579C116.303 162.579 117.146 163.47 117.146 164.55C117.146 165.629 116.303 166.521 115.32 166.521C114.29 166.521 113.447 165.629 113.447 164.55C113.447 163.47 114.29 162.579 115.32 162.579Z" fill="white"/>
<path fill-rule="evenodd" clip-rule="evenodd" d="M115.507 163.329C116.022 163.329 116.443 163.752 116.443 164.268C116.443 164.784 116.022 165.207 115.507 165.207C114.992 165.207 114.571 164.784 114.571 164.268C114.571 163.752 114.992 163.329 115.507 163.329Z" fill="#525252"/>
<path fill-rule="evenodd" clip-rule="evenodd" d="M115.694 168.351C116.818 168.351 117.707 169.336 117.707 170.51C117.707 171.683 116.818 172.668 115.694 172.668C114.618 172.668 113.681 171.683 113.681 170.51C113.681 169.336 114.618 168.351 115.694 168.351Z" fill="white"/>
<path fill-rule="evenodd" clip-rule="evenodd" d="M115.882 169.102C116.49 169.102 117.005 169.618 117.005 170.228C117.005 170.838 116.49 171.354 115.882 171.354C115.226 171.354 114.711 170.838 114.711 170.228C114.711 169.618 115.226 169.102 115.882 169.102Z" fill="#4D4D4D"/>
<path fill-rule="evenodd" clip-rule="evenodd" d="M100.62 153.615C102.352 153.615 103.757 154.882 103.757 156.478C103.757 158.12 102.165 159.857 100.433 159.857C98.7009 159.857 97.4837 158.12 97.4837 156.478C97.4837 154.882 98.8882 153.615 100.62 153.615Z" fill="#945E00"/>
<path fill-rule="evenodd" clip-rule="evenodd" d="M96.1261 162.626C97.9987 162.626 99.5435 164.033 99.5435 165.77C99.5435 167.553 97.8114 169.477 95.9388 169.477C94.0195 169.477 92.7087 167.553 92.7087 165.77C92.7087 164.033 94.2067 162.626 96.1261 162.626Z" fill="#945E00"/>
<path fill-rule="evenodd" clip-rule="evenodd" d="M91.5383 154.366C92.4278 154.366 92.7087 155.633 92.7087 156.525C92.7087 157.416 91.7256 157.98 90.8361 157.98C89.9467 157.98 89.2445 156.806 89.2445 155.915C89.2445 155.023 90.6489 154.366 91.5383 154.366Z" fill="#E0BE68" stroke="#CC8100" stroke-width="0.288"/>
<path fill-rule="evenodd" clip-rule="evenodd" d="M88.8699 167.131C87.9805 167.131 87.6996 165.864 87.6996 164.972C87.6996 164.08 88.6827 163.517 89.5253 163.517C90.4148 163.517 91.117 164.69 91.117 165.582C91.117 166.474 89.7126 167.131 88.8699 167.131Z" fill="#E0BE68"/>
<path fill-rule="evenodd" clip-rule="evenodd" d="M89.3849 173.654C89.9467 172.997 91.1171 173.607 91.7724 174.17C92.4278 174.78 92.2406 175.86 91.632 176.517C91.0702 177.221 89.7594 176.986 89.0572 176.376C88.4018 175.813 88.8232 174.311 89.3849 173.654Z" fill="#E0BE68"/>
<path fill-rule="evenodd" clip-rule="evenodd" d="M105.629 163.986C104.74 163.986 104.459 162.766 104.459 161.828C104.459 160.936 105.442 160.42 106.285 160.42C107.174 160.42 107.877 161.546 107.877 162.438C107.877 163.376 106.472 163.986 105.629 163.986Z" fill="#E0BE68"/>
<path fill-rule="evenodd" clip-rule="evenodd" d="M96.0325 174.17C97.0156 173.325 98.5136 174.499 99.4031 175.531C100.246 176.564 99.6372 178.112 98.6541 178.957C97.6242 179.802 95.7048 179.145 94.8621 178.159C94.0195 177.127 95.0026 175.015 96.0325 174.17Z" fill="#945E00"/>
<path fill-rule="evenodd" clip-rule="evenodd" d="M75.1067 163.846C75.7153 163.189 76.8388 163.799 77.4942 164.362C78.1964 164.972 77.9623 166.051 77.4006 166.708C76.792 167.412 75.4812 167.178 74.779 166.567C74.1236 166.004 74.5449 164.503 75.1067 163.846Z" fill="#E0BE68"/>
<path fill-rule="evenodd" clip-rule="evenodd" d="M142.098 52.5756C142.051 48.6335 135.31 38.8252 118.737 34.32C115.46 33.4752 114.711 34.0853 112.277 36.3849C110.732 37.8397 99.6372 52.0124 101.744 51.9186C107.877 51.5901 114.384 47.1787 121.733 47.7418C129.177 48.2581 138.072 54.4058 139.476 54.3589C142.753 54.2651 142.098 52.7164 142.098 52.5756Z" fill="#E0BE68"/>
<path fill-rule="evenodd" clip-rule="evenodd" d="M101.697 55.8137C101.603 54.4997 109.468 66.7953 111.341 69.3764C113.401 73.4593 118.597 71.629 122.904 69.9865C126.696 68.5317 130.675 66.7483 130.675 63.9326C129.785 63.3694 130.628 63.1348 127.679 63.0409C117.801 62.7124 107.502 52.7164 102.867 55.7668C102.68 55.9076 102.54 56.0015 101.697 55.8137Z" fill="#E0BE68"/>
<path fill-rule="evenodd" clip-rule="evenodd" d="M99.2628 51.4962C95.424 49.9944 93.2237 48.6335 91.1639 47.5541C88.87 46.3339 88.6828 45.7238 88.3083 48.3988C87.8401 51.59 88.5892 57.7378 89.385 60.7882C90.134 63.651 90.6022 62.8532 92.3343 61.5861C94.8622 59.7558 99.2628 56.3769 99.2159 54.8751C99.2159 54.6405 99.9182 51.7308 99.2628 51.4962Z" fill="#E0BE68"/>
<path fill-rule="evenodd" clip-rule="evenodd" d="M141.817 51.4493C133.484 41.9695 127.679 40.0454 121.546 40.28C112.558 40.6555 109.843 47.9296 104.272 50.5576C102.68 51.3085 100.574 51.2616 98.2796 51.1677C97.1093 51.1677 96.7816 56.6585 98.6073 56.6115C103.195 56.5177 103.897 56.0484 106.613 58.301C107.596 59.0988 109.187 62.29 112.183 64.5426C116.069 67.4523 121.125 68.6255 125.151 67.7808C131.611 66.4198 138.118 63.4163 142.893 59.2865C146.264 56.4238 144.626 54.6405 141.817 51.4493Z" fill="#CC8100"/>
<path fill-rule="evenodd" clip-rule="evenodd" d="M113.12 55.0629C114.524 55.0629 114.945 57.0809 114.945 58.4887C114.945 59.9436 113.401 60.8352 111.996 60.8352C110.545 60.8352 109.421 58.958 109.421 57.5502C109.421 56.0953 111.669 55.0629 113.12 55.0629Z" fill="#945E00"/>
<path fill-rule="evenodd" clip-rule="evenodd" d="M112.558 46.0993C114.103 46.0993 115.367 47.2726 115.367 48.6805C115.367 50.1353 113.962 51.7309 112.417 51.7309C110.826 51.7309 109.702 50.1353 109.702 48.6805C109.702 47.2726 110.966 46.0993 112.558 46.0993Z" fill="#945E00"/>
<path d="M136.105 54.1243C136.199 53.9365 136.105 53.655 135.871 53.5611C135.684 53.4672 135.403 53.5611 135.31 53.7957C134.561 55.5321 134.42 56.8931 134.607 57.9725C134.795 59.0519 135.31 59.8497 136.012 60.3659C136.667 60.929 137.463 61.2106 138.118 61.3983C138.961 61.633 139.71 61.5861 139.897 61.4922C140.085 61.3983 140.178 61.1168 140.085 60.929C139.991 60.6944 139.71 60.6475 139.523 60.7413C139.429 60.7883 138.961 60.7413 138.352 60.6005C137.744 60.4597 137.089 60.1782 136.527 59.7089C136.012 59.2865 135.59 58.6764 135.403 57.8317C135.263 56.8931 135.403 55.7199 136.105 54.1243Z" fill="#945E00"/>
<path d="M132.22 56.4238C132.313 56.1892 132.22 55.9545 131.986 55.8606C131.752 55.7668 131.518 55.8606 131.424 56.0953C131.143 56.8931 131.003 57.597 131.003 58.2541C131.003 59.5212 131.518 60.5536 132.22 61.3514C132.922 62.1492 133.858 62.7124 134.795 63.0878C135.59 63.3694 136.386 63.5571 136.995 63.5571C137.229 63.5571 137.416 63.3694 137.416 63.1347C137.416 62.9001 137.229 62.7124 136.995 62.7124C136.48 62.7124 135.778 62.5716 135.076 62.29C134.28 61.9615 133.437 61.4922 132.828 60.7883C132.267 60.1312 131.845 59.2865 131.845 58.2541C131.845 57.6909 131.986 57.0808 132.22 56.4238Z" fill="#945E00"/>
<path d="M129.224 58.8172C129.364 58.6295 129.364 58.3949 129.177 58.2071C129.036 58.0663 128.756 58.0663 128.615 58.2541C128.1 58.7703 127.866 59.615 127.866 60.5067C127.913 61.3045 128.1 62.1023 128.522 62.8532H128.568C128.99 63.604 129.598 64.2611 130.441 64.6365C131.377 65.1527 132.641 65.2935 134.186 64.9181C134.42 64.8711 134.561 64.6365 134.514 64.4018C134.42 64.1672 134.233 64.0264 133.999 64.1203C132.641 64.4488 131.611 64.308 130.769 63.8856C130.113 63.5571 129.598 63.0409 129.271 62.4308C128.896 61.8207 128.756 61.1168 128.709 60.5067C128.709 59.8027 128.896 59.1927 129.224 58.8172Z" fill="#945E00"/>
<path fill-rule="evenodd" clip-rule="evenodd" d="M140.787 51.3554C141.723 51.3554 142.472 52.1532 142.472 53.1388C142.472 54.1243 141.723 54.9221 140.787 54.9221C139.85 54.9221 139.101 54.1243 139.101 53.1388C139.101 52.1532 139.85 51.3554 140.787 51.3554Z" fill="white"/>
<path fill-rule="evenodd" clip-rule="evenodd" d="M140.974 52.0594C141.442 52.0594 141.817 52.4348 141.817 52.9041C141.817 53.3734 141.442 53.7488 140.974 53.7488C140.506 53.7488 140.131 53.3734 140.131 52.9041C140.131 52.4348 140.506 52.0594 140.974 52.0594Z" fill="#525252"/>
<path fill-rule="evenodd" clip-rule="evenodd" d="M141.161 56.6115C142.144 56.6115 142.987 57.4562 142.987 58.5356C142.987 59.5681 142.144 60.4597 141.161 60.4597C140.178 60.4597 139.336 59.5681 139.336 58.5356C139.336 57.4562 140.178 56.6115 141.161 56.6115Z" fill="white"/>
<path fill-rule="evenodd" clip-rule="evenodd" d="M141.302 57.2686C141.864 57.2686 142.332 57.691 142.332 58.2541C142.332 58.8173 141.864 59.2866 141.302 59.2866C140.74 59.2866 140.272 58.8173 140.272 58.2541C140.272 57.691 140.74 57.2686 141.302 57.2686Z" fill="#4D4D4D"/>
<path fill-rule="evenodd" clip-rule="evenodd" d="M127.585 43.2835C129.13 43.2835 130.394 44.4568 130.394 45.9116C130.394 47.3664 128.99 48.9151 127.398 48.9151C125.853 48.9151 124.73 47.3664 124.73 45.9116C124.73 44.4568 125.994 43.2835 127.585 43.2835Z" fill="#945E00"/>
<path fill-rule="evenodd" clip-rule="evenodd" d="M123.512 51.4493C125.244 51.4493 126.602 52.7164 126.602 54.2651C126.602 55.8138 125.057 57.5502 123.372 57.5502C121.64 57.5502 120.423 55.8138 120.423 54.2651C120.423 52.7164 121.827 51.4493 123.512 51.4493Z" fill="#945E00"/>
<path fill-rule="evenodd" clip-rule="evenodd" d="M119.393 43.9875C120.189 43.9875 120.47 45.1138 120.47 45.9116C120.47 46.7094 119.58 47.2256 118.784 47.2256C117.988 47.2256 117.333 46.1931 117.333 45.3484C117.333 44.5506 118.597 43.9875 119.393 43.9875Z" fill="#E0BE68" stroke="#CC8100" stroke-width="0.288"/>
<path fill-rule="evenodd" clip-rule="evenodd" d="M116.958 55.4383C116.209 55.4383 115.929 54.312 115.929 53.5142C115.929 52.7164 116.818 52.2471 117.614 52.2471C118.41 52.2471 119.018 53.2795 119.018 54.0773C119.018 54.8751 117.754 55.4383 116.958 55.4383Z" fill="#E0BE68"/>
<path fill-rule="evenodd" clip-rule="evenodd" d="M117.473 61.3515C117.988 60.7414 119.018 61.3045 119.627 61.8207C120.235 62.337 120.001 63.3225 119.486 63.9326C118.971 64.5427 117.801 64.3549 117.192 63.7918C116.584 63.2756 116.958 61.9615 117.473 61.3515Z" fill="#E0BE68"/>
<path fill-rule="evenodd" clip-rule="evenodd" d="M132.079 52.6695C131.284 52.6695 131.003 51.5432 131.003 50.6984C131.003 49.9006 131.892 49.4313 132.688 49.4313C133.484 49.4313 134.139 50.4638 134.139 51.2616C134.139 52.0594 132.875 52.6695 132.079 52.6695Z" fill="#E0BE68"/>
<path fill-rule="evenodd" clip-rule="evenodd" d="M123.419 61.8207C124.355 61.0698 125.713 62.1023 126.462 63.0409C127.258 63.9325 126.696 65.3404 125.806 66.1382C124.917 66.8891 123.185 66.279 122.389 65.3874C121.64 64.4488 122.529 62.5716 123.419 61.8207Z" fill="#945E00"/>
<path fill-rule="evenodd" clip-rule="evenodd" d="M104.646 52.5287C105.161 51.9186 106.144 52.4818 106.753 52.998C107.362 53.5142 107.174 54.4997 106.659 55.1098C106.144 55.7199 104.927 55.5322 104.319 54.969C103.71 54.4528 104.131 53.1388 104.646 52.5287Z" fill="#E0BE68"/>
<path fill-rule="evenodd" clip-rule="evenodd" d="M15.6528 192.848C15.6997 188.906 22.4409 179.145 39.013 174.64C42.29 173.748 43.0391 174.405 45.4734 176.704C47.0182 178.159 58.16 192.332 56.0534 192.238C49.8739 191.91 43.3667 187.498 36.0638 188.014C28.5735 188.578 19.6788 194.725 18.3212 194.678C15.0443 194.585 15.6528 193.036 15.6528 192.848Z" fill="#E0BE68"/>
<path fill-rule="evenodd" clip-rule="evenodd" d="M56.0533 196.086C56.147 194.819 48.329 207.068 46.4565 209.696C44.3498 213.779 39.1535 211.902 34.8934 210.259C31.0546 208.804 27.0755 207.068 27.0755 204.205C27.9649 203.689 27.1691 203.407 30.0715 203.313C39.9493 203.032 50.2484 192.989 54.883 196.086C55.1171 196.18 55.2107 196.321 56.0533 196.086Z" fill="#E0BE68"/>
<path fill-rule="evenodd" clip-rule="evenodd" d="M58.4876 191.816C62.3264 190.314 64.5266 188.953 66.5865 187.874C68.9272 186.607 69.0676 185.996 69.4889 188.718C69.9103 191.91 69.1612 198.01 68.3654 201.108C67.6632 203.97 67.195 203.173 65.4161 201.906C62.8881 200.075 58.4876 196.649 58.5344 195.195C58.5813 194.96 57.8322 192.05 58.4876 191.816Z" fill="#E0BE68"/>
<path fill-rule="evenodd" clip-rule="evenodd" d="M15.9805 191.722C24.3134 182.242 30.1183 180.365 36.2041 180.6C45.1924 180.928 47.9544 188.249 53.4785 190.83C55.0702 191.628 57.1768 191.581 59.4707 191.487C60.6411 191.44 60.9688 196.978 59.143 196.931C54.5552 196.79 53.853 196.368 51.1378 198.621C50.2015 199.418 48.563 202.61 45.5669 204.862C41.6814 207.772 36.6254 208.945 32.5994 208.1C26.1391 206.739 19.632 203.689 14.8569 199.606C11.5331 196.696 13.1248 194.96 15.9805 191.722Z" fill="#CC8100"/>
<path fill-rule="evenodd" clip-rule="evenodd" d="M44.6776 195.382C43.2732 195.382 42.805 197.353 42.805 198.808C42.805 200.263 44.3967 201.155 45.8011 201.155C47.2055 201.155 48.3759 199.278 48.3759 197.823C48.3759 196.368 46.082 195.382 44.6776 195.382Z" fill="#945E00"/>
<path fill-rule="evenodd" clip-rule="evenodd" d="M45.2392 186.372C43.6476 186.372 42.3836 187.545 42.3836 189C42.3836 190.455 43.788 192.05 45.3797 192.05C46.9246 192.05 48.0481 190.455 48.0481 189C48.0481 187.545 46.7841 186.372 45.2392 186.372Z" fill="#945E00"/>
<path d="M21.6918 194.444C21.5982 194.209 21.6918 193.975 21.8791 193.881C22.1132 193.787 22.3472 193.881 22.4409 194.115C23.1899 195.852 23.3771 197.213 23.1899 198.245C23.0026 199.371 22.4409 200.122 21.7386 200.685C21.0833 201.202 20.3342 201.53 19.632 201.718C18.7894 201.906 18.0403 201.906 17.8531 201.812C17.6658 201.671 17.5722 201.436 17.6658 201.249C17.8063 201.014 18.0403 200.92 18.2744 201.061C18.3212 201.061 18.7894 201.061 19.4448 200.873C20.0065 200.732 20.6619 200.498 21.2237 200.028C21.7855 199.606 22.2068 198.996 22.3472 198.104C22.4877 197.213 22.3472 195.993 21.6918 194.444Z" fill="#945E00"/>
<path d="M25.5306 196.696C25.437 196.509 25.5774 196.227 25.7647 196.18C25.9987 196.086 26.2328 196.18 26.3264 196.415C26.6073 197.166 26.7478 197.87 26.7478 198.574C26.7478 199.794 26.2796 200.826 25.5306 201.671C24.8284 202.469 23.8921 203.032 23.0026 203.36C22.2068 203.689 21.411 203.83 20.7556 203.83C20.5215 203.83 20.3342 203.642 20.3342 203.407C20.3342 203.173 20.5215 202.985 20.7556 202.985C21.3173 202.985 21.9727 202.844 22.6749 202.61C23.5176 202.281 24.3134 201.765 24.922 201.108C25.5306 200.451 25.9051 199.606 25.9051 198.574C25.9051 198.01 25.8115 197.4 25.5306 196.696Z" fill="#945E00"/>
<path d="M28.5735 199.137C28.3863 198.949 28.3863 198.667 28.5735 198.527C28.7608 198.386 28.9948 198.386 29.1821 198.527C29.6502 199.09 29.8843 199.935 29.8843 200.826C29.8843 201.577 29.6502 202.422 29.2289 203.173C28.8076 203.924 28.199 204.534 27.3564 204.956C26.3733 205.425 25.1093 205.613 23.5644 205.238C23.3772 205.191 23.2367 204.956 23.2835 204.721C23.3303 204.487 23.5644 204.346 23.7985 204.393C25.1093 204.721 26.186 204.628 26.9818 204.205C27.6372 203.877 28.1522 203.36 28.4799 202.75H28.5267C28.8544 202.14 29.0417 201.436 29.0417 200.826C29.0417 200.122 28.9012 199.512 28.5735 199.137Z" fill="#945E00"/>
<path fill-rule="evenodd" clip-rule="evenodd" d="M16.9636 191.675C16.0742 191.675 15.3251 192.473 15.3251 193.458C15.3251 194.444 16.0742 195.242 16.9636 195.242C17.8999 195.242 18.6489 194.444 18.6489 193.458C18.6489 192.473 17.8999 191.675 16.9636 191.675Z" fill="white"/>
<path fill-rule="evenodd" clip-rule="evenodd" d="M16.7764 192.379C16.3082 192.379 15.9337 192.754 15.9337 193.224C15.9337 193.646 16.3082 194.021 16.7764 194.021C17.2445 194.021 17.6658 193.646 17.6658 193.224C17.6658 192.754 17.2445 192.379 16.7764 192.379Z" fill="#525252"/>
<path fill-rule="evenodd" clip-rule="evenodd" d="M16.6359 196.884C15.606 196.884 14.8102 197.776 14.8102 198.808C14.8102 199.888 15.606 200.779 16.6359 200.779C17.619 200.779 18.4149 199.888 18.4149 198.808C18.4149 197.776 17.619 196.884 16.6359 196.884Z" fill="white"/>
<path fill-rule="evenodd" clip-rule="evenodd" d="M16.4487 197.541C15.8869 197.541 15.4188 198.011 15.4188 198.574C15.4188 199.137 15.8869 199.559 16.4487 199.559C17.0104 199.559 17.4786 199.137 17.4786 198.574C17.4786 198.011 17.0104 197.541 16.4487 197.541Z" fill="#4D4D4D"/>
<path fill-rule="evenodd" clip-rule="evenodd" d="M30.212 183.603C28.6203 183.603 27.3563 184.776 27.3563 186.184C27.3563 187.639 28.8076 189.235 30.3524 189.235C31.8973 189.235 33.0208 187.639 33.0208 186.184C33.0208 184.776 31.7568 183.603 30.212 183.603Z" fill="#945E00"/>
<path fill-rule="evenodd" clip-rule="evenodd" d="M34.238 191.722C32.5527 191.722 31.1483 192.989 31.1483 194.585C31.1483 196.133 32.6932 197.87 34.4253 197.87C36.1106 197.87 37.3277 196.133 37.3277 194.585C37.3277 192.989 35.9233 191.722 34.238 191.722Z" fill="#945E00"/>
<path fill-rule="evenodd" clip-rule="evenodd" d="M38.3577 184.307C37.5618 184.307 37.3278 185.433 37.3278 186.231C37.3278 187.029 38.2172 187.498 38.9663 187.498C39.7621 187.498 40.4175 186.466 40.4175 185.668C40.4175 184.87 39.1535 184.307 38.3577 184.307Z" fill="#E0BE68" stroke="#CC8100" stroke-width="0.288"/>
<path fill-rule="evenodd" clip-rule="evenodd" d="M40.792 195.758C41.5878 195.758 41.8219 194.632 41.8219 193.834C41.8219 193.036 40.9324 192.52 40.1834 192.52C39.3875 192.52 38.7321 193.599 38.7321 194.397C38.7321 195.195 39.9961 195.758 40.792 195.758Z" fill="#E0BE68"/>
<path fill-rule="evenodd" clip-rule="evenodd" d="M40.277 201.671C39.762 201.061 38.779 201.577 38.1704 202.14C37.5618 202.656 37.749 203.642 38.264 204.252C38.779 204.815 39.9961 204.627 40.6047 204.111C41.2133 203.595 40.792 202.234 40.277 201.671Z" fill="#E0BE68"/>
<path fill-rule="evenodd" clip-rule="evenodd" d="M25.7179 192.942C26.5137 192.942 26.7478 191.816 26.7478 191.018C26.7478 190.22 25.8583 189.704 25.0625 189.704C24.2666 189.704 23.6581 190.783 23.6581 191.581C23.6581 192.379 24.922 192.942 25.7179 192.942Z" fill="#E0BE68"/>
<path fill-rule="evenodd" clip-rule="evenodd" d="M34.3316 202.14C33.4421 201.389 32.0845 202.422 31.2886 203.314C30.5396 204.252 31.0546 205.66 31.944 206.411C32.8803 207.162 34.6124 206.599 35.3615 205.707C36.1573 204.768 35.221 202.891 34.3316 202.14Z" fill="#945E00"/>
<path fill-rule="evenodd" clip-rule="evenodd" d="M53.1508 192.848C52.6358 192.238 51.6059 192.754 50.9974 193.271C50.3888 193.834 50.576 194.819 51.091 195.429C51.6059 195.993 52.8231 195.805 53.4317 195.289C54.0403 194.772 53.6658 193.411 53.1508 192.848Z" fill="#E0BE68"/>
<path fill-rule="evenodd" clip-rule="evenodd" d="M79.8349 129.212C79.7881 124.847 72.2978 113.96 53.8999 108.985C50.2484 108 49.4058 108.703 46.6906 111.285C45.0053 112.88 32.6463 128.649 34.987 128.508C41.8219 128.132 49.0313 123.252 57.1769 123.862C65.5098 124.472 75.3876 131.277 76.9324 131.23C80.5371 131.136 79.8349 129.399 79.8349 129.212Z" fill="#E0BE68"/>
<path fill-rule="evenodd" clip-rule="evenodd" d="M34.9869 132.825C34.8465 131.417 43.5539 145.027 45.6605 147.937C47.9544 152.442 53.7125 150.424 58.4876 148.594C62.7476 146.951 67.1482 145.027 67.1482 141.836C66.1651 141.273 67.1013 140.991 63.8244 140.85C52.8231 140.522 41.4004 129.399 36.2509 132.778C36.0168 132.966 35.8764 133.06 34.9869 132.825Z" fill="#E0BE68"/>
<path fill-rule="evenodd" clip-rule="evenodd" d="M32.2717 128.038C27.9648 126.396 25.5305 124.894 23.2834 123.674C20.6618 122.313 20.4746 121.609 20.0532 124.613C19.5851 128.132 20.4278 134.984 21.2704 138.363C22.0662 141.554 22.5812 140.709 24.5474 139.302C27.3562 137.237 32.2249 133.482 32.1781 131.84C32.1781 131.558 32.9739 128.32 32.2717 128.038Z" fill="#E0BE68"/>
<path fill-rule="evenodd" clip-rule="evenodd" d="M79.5071 127.992C70.2379 117.432 63.7776 115.321 56.9895 115.602C47.0182 115.978 43.9752 124.096 37.8426 127.006C36.0637 127.851 33.723 127.804 31.1482 127.71C29.8842 127.663 29.5097 133.811 31.5227 133.764C36.6254 133.623 37.4213 133.107 40.4174 135.641C41.4941 136.486 43.273 140.052 46.5968 142.54C50.9505 145.825 56.5682 147.092 61.0156 146.153C68.2249 144.652 75.4343 141.273 80.7243 136.72C84.4694 133.529 82.6905 131.558 79.5071 127.992Z" fill="#CC8100"/>
<path fill-rule="evenodd" clip-rule="evenodd" d="M47.6267 132.028C49.1716 132.028 49.6866 134.233 49.6866 135.829C49.6866 137.424 47.9544 138.457 46.3628 138.457C44.8179 138.457 43.5071 136.345 43.5071 134.749C43.5071 133.154 46.0351 132.028 47.6267 132.028Z" fill="#945E00"/>
<path fill-rule="evenodd" clip-rule="evenodd" d="M47.0181 122.032C48.7503 122.032 50.1547 123.346 50.1547 124.941C50.1547 126.537 48.563 128.32 46.8309 128.32C45.0988 128.32 43.8348 126.537 43.8348 124.941C43.8348 123.346 45.286 122.032 47.0181 122.032Z" fill="#945E00"/>
<path d="M73.1873 130.995C73.2809 130.76 73.1873 130.479 72.9064 130.385C72.6723 130.244 72.4382 130.385 72.2978 130.62C71.4552 132.544 71.2679 134.045 71.502 135.219C71.6892 136.439 72.2978 137.33 73.0936 137.941C73.7959 138.504 74.6853 138.879 75.4343 139.067C76.3706 139.302 77.2133 139.255 77.4005 139.161C77.6346 139.02 77.7282 138.738 77.5878 138.504C77.4942 138.316 77.2133 138.222 76.9792 138.316C76.8856 138.363 76.3706 138.316 75.6684 138.128C75.013 137.987 74.264 137.706 73.6554 137.19C73.0468 136.72 72.5787 136.016 72.4382 135.078C72.251 134.045 72.3914 132.731 73.1873 130.995Z" fill="#945E00"/>
<path d="M68.8804 133.529C68.974 133.248 68.8336 133.013 68.5995 132.919C68.3654 132.825 68.0845 132.919 67.9909 133.154C67.6632 134.045 67.5228 134.843 67.5228 135.547C67.5228 136.955 68.0377 138.128 68.8804 139.02C69.6294 139.865 70.7061 140.522 71.6892 140.897C72.5787 141.273 73.4682 141.413 74.1704 141.413C74.4044 141.413 74.6385 141.226 74.6385 140.991C74.6385 140.709 74.4044 140.522 74.1704 140.522C73.5618 140.522 72.8128 140.334 72.0637 140.052H72.0169C71.1275 139.677 70.238 139.161 69.5358 138.363C68.8804 137.659 68.4591 136.72 68.4591 135.547C68.4591 134.937 68.5995 134.28 68.8804 133.529Z" fill="#945E00"/>
<path d="M65.5097 136.204C65.697 136.016 65.697 135.688 65.5097 135.547C65.3224 135.359 64.9948 135.359 64.8543 135.547C64.2925 136.157 64.0117 137.096 64.0585 138.081C64.0585 138.926 64.2925 139.865 64.7607 140.662V140.709C65.2288 141.507 65.931 142.211 66.8673 142.68C67.944 143.197 69.3485 143.384 71.0338 142.962C71.3146 142.915 71.4551 142.634 71.4083 142.399C71.3146 142.164 71.0806 141.977 70.8465 142.07C69.3485 142.446 68.1781 142.258 67.2886 141.836C66.5396 141.46 65.9778 140.897 65.6033 140.24L65.5565 140.193C65.182 139.536 64.9948 138.785 64.9948 138.081C64.9479 137.284 65.1352 136.58 65.5097 136.204Z" fill="#945E00"/>
<path fill-rule="evenodd" clip-rule="evenodd" d="M78.3836 127.898C79.4135 127.898 80.2561 128.789 80.2561 129.869C80.2561 130.995 79.4135 131.887 78.3836 131.887C77.3537 131.887 76.511 130.995 76.511 129.869C76.511 128.789 77.3537 127.898 78.3836 127.898Z" fill="white"/>
<path fill-rule="evenodd" clip-rule="evenodd" d="M78.5708 128.695C79.1326 128.695 79.5539 129.118 79.5539 129.634C79.5539 130.103 79.1326 130.526 78.5708 130.526C78.0559 130.526 77.6345 130.103 77.6345 129.634C77.6345 129.118 78.0559 128.695 78.5708 128.695Z" fill="#525252"/>
<path fill-rule="evenodd" clip-rule="evenodd" d="M78.805 133.717C79.8817 133.717 80.818 134.656 80.818 135.876C80.818 137.049 79.8817 137.988 78.805 137.988C77.6814 137.988 76.7919 137.049 76.7919 135.876C76.7919 134.656 77.6814 133.717 78.805 133.717Z" fill="white"/>
<path fill-rule="evenodd" clip-rule="evenodd" d="M78.9454 134.468C79.6007 134.468 80.1157 134.937 80.1157 135.547C80.1157 136.204 79.6007 136.674 78.9454 136.674C78.3368 136.674 77.8218 136.204 77.8218 135.547C77.8218 134.937 78.3368 134.468 78.9454 134.468Z" fill="#4D4D4D"/>
<path fill-rule="evenodd" clip-rule="evenodd" d="M63.684 118.934C65.4161 118.934 66.8673 120.248 66.8673 121.844C66.8673 123.439 65.2756 125.223 63.5435 125.223C61.7646 125.223 60.5474 123.439 60.5474 121.844C60.5474 120.248 61.9518 118.934 63.684 118.934Z" fill="#945E00"/>
<path fill-rule="evenodd" clip-rule="evenodd" d="M59.1898 127.992C61.1092 127.992 62.6072 129.399 62.6072 131.136C62.6072 132.872 60.9219 134.796 59.0026 134.796C57.13 134.796 55.7724 132.872 55.7724 131.136C55.7724 129.399 57.3172 127.992 59.1898 127.992Z" fill="#945E00"/>
<path fill-rule="evenodd" clip-rule="evenodd" d="M54.6489 119.732C55.4915 119.732 55.7724 120.952 55.7724 121.844C55.7724 122.735 54.7893 123.299 53.9467 123.299C53.0572 123.299 52.355 122.125 52.355 121.234C52.355 120.342 53.7594 119.732 54.6489 119.732Z" fill="#E0BE68" stroke="#CC8100" stroke-width="0.288"/>
<path fill-rule="evenodd" clip-rule="evenodd" d="M51.9337 132.45C51.0442 132.45 50.7633 131.183 50.7633 130.291C50.7633 129.399 51.7464 128.883 52.6359 128.883C53.5254 128.883 54.2276 130.009 54.2276 130.901C54.2276 131.793 52.8232 132.45 51.9337 132.45Z" fill="#E0BE68"/>
<path fill-rule="evenodd" clip-rule="evenodd" d="M52.4955 139.02C53.0572 138.316 54.1808 138.926 54.8362 139.536C55.5384 140.099 55.3043 141.226 54.7425 141.883C54.1808 142.54 52.8232 142.305 52.1209 141.742C51.4655 141.179 51.8869 139.677 52.4955 139.02Z" fill="#E0BE68"/>
<path fill-rule="evenodd" clip-rule="evenodd" d="M68.6931 129.353C67.8037 129.353 67.5228 128.085 67.5228 127.194C67.5228 126.302 68.5059 125.739 69.3953 125.739C70.2848 125.739 70.987 126.912 70.987 127.804C70.987 128.696 69.5826 129.353 68.6931 129.353Z" fill="#E0BE68"/>
<path fill-rule="evenodd" clip-rule="evenodd" d="M59.0962 139.536C60.1261 138.691 61.6242 139.865 62.4668 140.85C63.3095 141.883 62.7477 143.478 61.7178 144.323C60.7347 145.168 58.8153 144.511 57.9258 143.478C57.0832 142.446 58.1131 140.381 59.0962 139.536Z" fill="#945E00"/>
<path fill-rule="evenodd" clip-rule="evenodd" d="M38.2171 129.212C38.7789 128.508 39.9024 129.118 40.6046 129.728C41.26 130.291 41.0259 131.37 40.4642 132.074C39.9024 132.731 38.5448 132.497 37.8894 131.934C37.1872 131.37 37.6553 129.869 38.2171 129.212Z" fill="#E0BE68"/>
<path fill-rule="evenodd" clip-rule="evenodd" d="M148.511 203.407C148.464 198.996 141.021 188.108 122.576 183.134C118.971 182.148 118.129 182.852 115.414 185.433C113.681 187.076 101.323 202.797 103.663 202.657C110.545 202.328 117.754 197.447 125.9 198.01C134.186 198.621 144.064 205.425 145.609 205.378C149.213 205.285 148.511 203.595 148.511 203.407Z" fill="#E0BE68"/>
<path fill-rule="evenodd" clip-rule="evenodd" d="M103.663 206.974C103.57 205.566 112.277 219.176 114.337 222.085C116.678 226.591 122.436 224.573 127.211 222.742C131.424 221.1 135.824 219.176 135.824 216.031C134.841 215.421 135.778 215.14 132.547 214.999C121.546 214.671 110.124 203.548 104.927 206.974C104.74 207.115 104.553 207.209 103.663 206.974Z" fill="#E0BE68"/>
<path fill-rule="evenodd" clip-rule="evenodd" d="M100.948 202.187C96.6879 200.545 94.2536 199.043 91.9597 197.823C89.3849 196.462 89.1977 195.758 88.7763 198.761C88.2614 202.328 89.104 209.133 89.9467 212.559C90.7893 215.703 91.3043 214.858 93.2237 213.45C96.0793 211.385 100.948 207.631 100.854 205.989C100.854 205.707 101.697 202.469 100.948 202.187Z" fill="#E0BE68"/>
<path fill-rule="evenodd" clip-rule="evenodd" d="M148.23 202.14C138.961 191.581 132.501 189.469 125.713 189.751C115.741 190.126 112.652 198.245 106.519 201.155C104.74 201.999 102.399 201.953 99.8713 201.859C98.5605 201.812 98.186 207.959 100.246 207.913C105.302 207.772 106.098 207.256 109.14 209.79C110.17 210.681 111.996 214.201 115.32 216.688C119.627 219.973 125.245 221.241 129.739 220.302C136.901 218.8 144.111 215.421 149.401 210.869C153.146 207.678 151.367 205.707 148.23 202.14Z" fill="#CC8100"/>
<path fill-rule="evenodd" clip-rule="evenodd" d="M116.303 206.176C117.895 206.176 118.363 208.382 118.363 210.024C118.363 211.62 116.631 212.606 115.039 212.606C113.494 212.606 112.23 210.494 112.23 208.898C112.23 207.303 114.711 206.176 116.303 206.176Z" fill="#945E00"/>
<path fill-rule="evenodd" clip-rule="evenodd" d="M115.694 196.18C117.427 196.18 118.831 197.494 118.831 199.09C118.831 200.686 117.286 202.469 115.507 202.469C113.775 202.469 112.558 200.686 112.558 199.09C112.558 197.494 113.962 196.18 115.694 196.18Z" fill="#945E00"/>
<path d="M141.863 205.144C141.957 204.909 141.863 204.628 141.629 204.534C141.395 204.44 141.114 204.534 141.021 204.768C140.178 206.692 139.991 208.194 140.178 209.414C140.412 210.588 141.021 211.479 141.77 212.089C142.519 212.699 143.362 213.028 144.111 213.216C145.047 213.45 145.889 213.403 146.077 213.31C146.311 213.216 146.404 212.934 146.264 212.699C146.17 212.465 145.889 212.371 145.655 212.465C145.562 212.512 145.047 212.465 144.345 212.324C143.689 212.136 142.987 211.855 142.332 211.338C141.77 210.869 141.255 210.165 141.114 209.227C140.927 208.194 141.114 206.88 141.863 205.144Z" fill="#945E00"/>
<path d="M137.557 207.678C137.65 207.443 137.557 207.162 137.276 207.068C137.042 206.974 136.808 207.068 136.714 207.303C136.339 208.194 136.199 208.992 136.199 209.696C136.199 211.104 136.761 212.277 137.557 213.169C138.352 214.06 139.382 214.67 140.412 215.093C141.255 215.421 142.144 215.609 142.847 215.609C143.128 215.609 143.315 215.374 143.315 215.14C143.315 214.858 143.128 214.67 142.847 214.67C142.285 214.67 141.489 214.483 140.74 214.201C139.851 213.873 138.914 213.31 138.259 212.559C137.603 211.808 137.135 210.869 137.135 209.696C137.135 209.086 137.276 208.429 137.557 207.678Z" fill="#945E00"/>
<path d="M134.233 210.353C134.373 210.165 134.373 209.837 134.186 209.696C133.999 209.508 133.718 209.508 133.531 209.696C132.969 210.306 132.688 211.245 132.735 212.23C132.781 213.075 133.016 214.013 133.437 214.811L133.484 214.858C133.952 215.656 134.607 216.36 135.544 216.829C136.62 217.345 138.025 217.533 139.757 217.111C139.991 217.064 140.131 216.829 140.084 216.548C140.038 216.313 139.757 216.172 139.523 216.219C138.025 216.595 136.854 216.454 135.965 215.985C135.216 215.609 134.654 215.046 134.28 214.389V214.342C133.905 213.685 133.671 212.934 133.671 212.23C133.671 211.432 133.858 210.775 134.233 210.353Z" fill="#945E00"/>
<path fill-rule="evenodd" clip-rule="evenodd" d="M147.06 202.046C148.09 202.046 148.932 202.938 148.932 204.064C148.932 205.144 148.09 206.035 147.06 206.035C146.03 206.035 145.234 205.144 145.234 204.064C145.234 202.938 146.03 202.046 147.06 202.046Z" fill="white"/>
<path fill-rule="evenodd" clip-rule="evenodd" d="M147.294 202.844C147.809 202.844 148.23 203.267 148.23 203.783C148.23 204.299 147.809 204.674 147.294 204.674C146.779 204.674 146.358 204.299 146.358 203.783C146.358 203.267 146.779 202.844 147.294 202.844Z" fill="#525252"/>
<path fill-rule="evenodd" clip-rule="evenodd" d="M147.481 207.866C148.605 207.866 149.494 208.851 149.494 210.024C149.494 211.198 148.605 212.183 147.481 212.183C146.358 212.183 145.468 211.198 145.468 210.024C145.468 208.851 146.358 207.866 147.481 207.866Z" fill="white"/>
<path fill-rule="evenodd" clip-rule="evenodd" d="M147.668 208.617C148.277 208.617 148.792 209.086 148.792 209.743C148.792 210.353 148.277 210.822 147.668 210.822C147.013 210.822 146.498 210.353 146.498 209.743C146.498 209.086 147.013 208.617 147.668 208.617Z" fill="#4D4D4D"/>
<path fill-rule="evenodd" clip-rule="evenodd" d="M132.407 193.083C134.139 193.083 135.544 194.397 135.544 195.993C135.544 197.588 133.952 199.371 132.22 199.371C130.488 199.371 129.224 197.588 129.224 195.993C129.224 194.397 130.628 193.083 132.407 193.083Z" fill="#945E00"/>
<path fill-rule="evenodd" clip-rule="evenodd" d="M127.913 202.14C129.785 202.14 131.33 203.548 131.33 205.285C131.33 207.021 129.598 208.945 127.726 208.945C125.806 208.945 124.449 207.021 124.449 205.285C124.449 203.548 125.993 202.14 127.913 202.14Z" fill="#945E00"/>
<path fill-rule="evenodd" clip-rule="evenodd" d="M123.325 193.881C124.215 193.881 124.495 195.101 124.495 195.992C124.495 196.884 123.512 197.447 122.623 197.447C121.733 197.447 121.031 196.274 121.031 195.382C121.031 194.491 122.436 193.881 123.325 193.881Z" fill="#E0BE68" stroke="#CC8100" stroke-width="0.288"/>
<path fill-rule="evenodd" clip-rule="evenodd" d="M120.61 206.599C119.72 206.599 119.486 205.378 119.486 204.487C119.486 203.595 120.423 203.032 121.312 203.032C122.202 203.032 122.904 204.205 122.904 205.097C122.904 205.989 121.499 206.599 120.61 206.599Z" fill="#E0BE68"/>
<path fill-rule="evenodd" clip-rule="evenodd" d="M121.172 213.169C121.733 212.512 122.857 213.075 123.559 213.685C124.215 214.248 123.981 215.374 123.419 216.031C122.857 216.688 121.499 216.501 120.844 215.891C120.142 215.328 120.61 213.826 121.172 213.169Z" fill="#E0BE68"/>
<path fill-rule="evenodd" clip-rule="evenodd" d="M137.369 203.501C136.48 203.501 136.246 202.234 136.246 201.342C136.246 200.451 137.182 199.888 138.072 199.888C138.961 199.888 139.663 201.061 139.663 201.953C139.663 202.844 138.259 203.501 137.369 203.501Z" fill="#E0BE68"/>
<path fill-rule="evenodd" clip-rule="evenodd" d="M127.772 213.685C128.802 212.84 130.3 214.013 131.143 214.999C132.033 216.031 131.424 217.627 130.441 218.472C129.411 219.316 127.492 218.659 126.649 217.627C125.806 216.595 126.789 214.53 127.772 213.685Z" fill="#945E00"/>
<path fill-rule="evenodd" clip-rule="evenodd" d="M106.893 203.36C107.455 202.657 108.625 203.267 109.281 203.877C109.936 204.44 109.749 205.566 109.14 206.223C108.579 206.88 107.268 206.692 106.566 206.082C105.91 205.519 106.332 204.017 106.893 203.36Z" fill="#E0BE68"/>
<path fill-rule="evenodd" clip-rule="evenodd" d="M94.909 230.392C94.8622 226.45 88.121 216.688 71.5488 212.183C68.2718 211.338 67.5228 211.949 65.0884 214.248C63.5436 215.703 52.4487 229.876 54.5085 229.782C60.6879 229.453 67.1951 225.042 74.4981 225.605C81.9883 226.121 90.883 232.269 92.2874 232.222C95.5176 232.128 94.909 230.58 94.909 230.392Z" fill="#E0BE68"/>
<path fill-rule="evenodd" clip-rule="evenodd" d="M54.5085 233.677C54.4149 232.363 62.2796 244.658 64.1054 247.24C66.212 251.322 71.4084 249.492 75.7153 247.85C79.5072 246.395 83.4864 244.612 83.4864 241.796C82.5969 241.233 83.4396 240.998 80.4903 240.904C70.6125 240.576 60.3134 230.58 55.6788 233.63C55.4916 233.771 55.3511 233.865 54.5085 233.677Z" fill="#E0BE68"/>
<path fill-rule="evenodd" clip-rule="evenodd" d="M52.0741 229.359C48.2354 227.858 46.0351 226.497 43.9753 225.417C41.6814 224.15 41.4942 223.54 41.1196 226.262C40.6515 229.453 41.4005 235.554 42.1964 238.651C42.8986 241.514 43.3667 240.716 45.1456 239.449C47.6736 237.619 52.0741 234.24 52.0273 232.738C52.0273 232.504 52.7295 229.594 52.0741 229.359Z" fill="#E0BE68"/>
<path fill-rule="evenodd" clip-rule="evenodd" d="M94.6281 229.266C86.2952 219.833 80.4435 217.909 74.3576 218.143C65.3693 218.472 62.6073 225.793 57.0832 228.421C55.4916 229.172 53.3849 229.125 51.0911 229.031C49.9207 228.984 49.593 234.522 51.4187 234.475C56.0065 234.381 56.7087 233.912 59.424 236.164C60.407 236.962 61.9987 240.153 64.9948 242.406C68.8804 245.315 73.9363 246.489 77.9623 245.644C84.4227 244.283 90.9298 241.28 95.7048 237.15C99.0754 234.287 97.437 232.504 94.6281 229.266Z" fill="#CC8100"/>
<path fill-rule="evenodd" clip-rule="evenodd" d="M65.8843 232.926C67.3355 232.926 67.7569 234.944 67.7569 236.352C67.7569 237.807 66.212 238.698 64.7608 238.698C63.3563 238.698 62.2328 236.821 62.2328 235.366C62.2328 233.958 64.4799 232.926 65.8843 232.926Z" fill="#945E00"/>
<path fill-rule="evenodd" clip-rule="evenodd" d="M65.3693 223.963C66.9142 223.963 68.1782 225.136 68.1782 226.544C68.1782 227.999 66.7738 229.594 65.1821 229.594C63.6372 229.594 62.5137 227.999 62.5137 226.544C62.5137 225.136 63.7777 223.963 65.3693 223.963Z" fill="#945E00"/>
<path d="M88.9168 231.987C89.0104 231.8 88.9168 231.518 88.6827 231.424C88.4487 231.33 88.2146 231.424 88.121 231.659C87.3719 233.395 87.1847 234.756 87.3719 235.836C87.5592 236.915 88.121 237.713 88.8232 238.229C89.4786 238.792 90.2744 239.074 90.9298 239.262C91.7725 239.449 92.5215 239.449 92.7087 239.355C92.896 239.262 92.9896 238.98 92.896 238.792C92.7556 238.558 92.5215 238.511 92.3342 238.605C92.2406 238.651 91.7725 238.605 91.1171 238.464C90.5553 238.276 89.8999 238.041 89.3381 237.572C88.8232 237.15 88.355 236.54 88.2146 235.695C88.0741 234.756 88.2146 233.536 88.9168 231.987Z" fill="#945E00"/>
<path d="M85.0312 234.24C85.1248 234.052 85.0312 233.818 84.7971 233.724C84.5631 233.63 84.329 233.724 84.2354 233.958C83.9545 234.709 83.814 235.46 83.814 236.117C83.814 237.384 84.2822 238.417 85.0312 239.215C85.7334 240.012 86.6697 240.576 87.5592 240.951C88.355 241.233 89.1508 241.42 89.8062 241.42C90.0403 241.42 90.2276 241.233 90.2276 240.998C90.2276 240.763 90.0403 240.576 89.8062 240.576C89.2913 240.576 88.5891 240.435 87.8869 240.153C87.091 239.825 86.2484 239.355 85.6398 238.651C85.0312 237.994 84.6567 237.15 84.6567 236.117C84.6567 235.554 84.7503 234.944 85.0312 234.24Z" fill="#945E00"/>
<path d="M82.0351 236.68C82.1756 236.493 82.1756 236.258 81.9883 236.07C81.8479 235.929 81.567 235.929 81.4265 236.117C80.9116 236.633 80.6775 237.478 80.6775 238.37C80.7243 239.168 80.9116 239.965 81.3329 240.716C81.7542 241.467 82.4096 242.124 83.2055 242.5C84.1886 243.016 85.4525 243.157 86.9974 242.781C87.2315 242.734 87.3719 242.5 87.2783 242.265C87.2315 242.03 86.9974 241.89 86.8102 241.983C85.4525 242.312 84.3758 242.171 83.58 241.749C82.9246 241.42 82.4096 240.904 82.0819 240.294C81.7074 239.684 81.567 238.98 81.5202 238.37C81.5202 237.666 81.6606 237.056 82.0351 236.68Z" fill="#945E00"/>
<path fill-rule="evenodd" clip-rule="evenodd" d="M93.5982 229.219C94.4877 229.219 95.2367 230.016 95.2367 231.002C95.2367 231.987 94.4877 232.785 93.5982 232.785C92.6619 232.785 91.9129 231.987 91.9129 231.002C91.9129 230.016 92.6619 229.219 93.5982 229.219Z" fill="white"/>
<path fill-rule="evenodd" clip-rule="evenodd" d="M93.7855 229.922C94.2537 229.922 94.6282 230.298 94.6282 230.767C94.6282 231.237 94.2537 231.612 93.7855 231.612C93.3174 231.612 92.9429 231.237 92.9429 230.767C92.9429 230.298 93.3174 229.922 93.7855 229.922Z" fill="#525252"/>
<path fill-rule="evenodd" clip-rule="evenodd" d="M93.9727 234.428C94.9558 234.428 95.7516 235.319 95.7516 236.399C95.7516 237.431 94.9558 238.323 93.9727 238.323C92.9428 238.323 92.147 237.431 92.147 236.399C92.147 235.319 92.9428 234.428 93.9727 234.428Z" fill="white"/>
<path fill-rule="evenodd" clip-rule="evenodd" d="M94.113 235.132C94.6748 235.132 95.143 235.554 95.143 236.117C95.143 236.68 94.6748 237.15 94.113 237.15C93.5513 237.15 93.0831 236.68 93.0831 236.117C93.0831 235.554 93.5513 235.132 94.113 235.132Z" fill="#4D4D4D"/>
<path fill-rule="evenodd" clip-rule="evenodd" d="M80.3967 221.147C81.9415 221.147 83.2055 222.32 83.2055 223.775C83.2055 225.183 81.8011 226.778 80.2094 226.778C78.6646 226.778 77.541 225.183 77.541 223.775C77.541 222.32 78.805 221.147 80.3967 221.147Z" fill="#945E00"/>
<path fill-rule="evenodd" clip-rule="evenodd" d="M76.3238 229.266C78.0091 229.266 79.4135 230.58 79.4135 232.128C79.4135 233.677 77.8687 235.413 76.1365 235.413C74.4512 235.413 73.2341 233.677 73.2341 232.128C73.2341 230.58 74.6385 229.266 76.3238 229.266Z" fill="#945E00"/>
<path fill-rule="evenodd" clip-rule="evenodd" d="M72.2042 221.851C73 221.851 73.2341 222.977 73.2341 223.775C73.2341 224.573 72.3914 225.089 71.5956 225.089C70.7997 225.089 70.1443 224.009 70.1443 223.212C70.1443 222.414 71.4083 221.851 72.2042 221.851Z" fill="#E0BE68" stroke="#CC8100" stroke-width="0.288"/>
<path fill-rule="evenodd" clip-rule="evenodd" d="M69.7699 233.301C68.9741 233.301 68.74 232.175 68.74 231.377C68.74 230.58 69.6295 230.063 70.4253 230.063C71.2211 230.063 71.8297 231.143 71.8297 231.94C71.8297 232.738 70.5658 233.301 69.7699 233.301Z" fill="#E0BE68"/>
<path fill-rule="evenodd" clip-rule="evenodd" d="M70.2848 239.215C70.7997 238.605 71.7828 239.168 72.3914 239.684C73 240.2 72.8127 241.186 72.2978 241.796C71.7828 242.406 70.5657 242.218 69.9571 241.655C69.3485 241.139 69.7698 239.825 70.2848 239.215Z" fill="#E0BE68"/>
<path fill-rule="evenodd" clip-rule="evenodd" d="M84.8908 230.486C84.0949 230.486 83.814 229.359 83.814 228.562C83.814 227.764 84.7035 227.295 85.4993 227.295C86.2952 227.295 86.9038 228.327 86.9038 229.125C86.9038 229.923 85.6398 230.486 84.8908 230.486Z" fill="#E0BE68"/>
<path fill-rule="evenodd" clip-rule="evenodd" d="M76.2301 239.684C77.1196 238.933 78.524 239.965 79.2731 240.904C80.0221 241.796 79.5071 243.204 78.6177 243.954C77.6814 244.752 75.9493 244.142 75.2002 243.251C74.4512 242.312 75.3407 240.435 76.2301 239.684Z" fill="#945E00"/>
<path fill-rule="evenodd" clip-rule="evenodd" d="M57.4577 230.392C57.9727 229.782 58.9558 230.298 59.5644 230.861C60.1729 231.377 59.9857 232.363 59.4707 232.973C58.9558 233.583 57.7386 233.348 57.13 232.832C56.5214 232.316 56.9428 231.002 57.4577 230.392Z" fill="#E0BE68"/>
</svg>
