<svg width="54" height="54" viewBox="0 0 54 54" fill="none" xmlns="http://www.w3.org/2000/svg">
<path d="M30.3181 5.09716L30.3172 5.09551L28.2406 1.25382C27.995 0.769835 27.5247 0.499939 27 0.499939C26.4756 0.499939 26.0055 0.769515 25.7598 1.25296L23.6663 5.09398L23.6646 5.09716C23.4791 5.44334 23.1749 5.66924 22.7735 5.76217C22.3597 5.83748 21.997 5.74713 21.6883 5.48775L21.6883 5.4877L21.6817 5.48231L18.29 2.73087C17.8705 2.37203 17.3253 2.33267 16.8694 2.50994L16.8694 2.50976L16.8566 2.51512C16.3531 2.72713 16.0518 3.16516 15.9987 3.66893L15.9987 3.66975L15.5485 8.01585C15.4957 8.44318 15.2963 8.76369 14.967 8.993C14.6302 9.21608 14.2486 9.2686 13.8462 9.15219C13.8457 9.15205 13.8452 9.15191 13.8447 9.15177L9.65684 7.90577C9.14475 7.74579 8.62455 7.88695 8.25578 8.25572C7.88701 8.62449 7.74585 9.14469 7.90583 9.65678L9.15183 13.8447C9.15197 13.8452 9.15211 13.8457 9.15226 13.8462C9.26908 14.2499 9.21576 14.6329 8.99064 14.9706C8.76927 15.3027 8.44025 15.4942 8.01494 15.5485L3.67158 15.9984C3.67121 15.9985 3.67085 15.9985 3.67048 15.9985C3.1284 16.0531 2.72328 16.3881 2.51909 16.8475C2.30236 17.3352 2.38439 17.885 2.73095 18.2899L5.48023 21.679C5.48057 21.6794 5.48092 21.6798 5.48126 21.6802C5.73912 22.0032 5.83313 22.3704 5.74622 22.7678L5.74461 22.7751L5.74323 22.7825C5.66831 23.182 5.45412 23.4748 5.07621 23.6838C5.07563 23.6842 5.07505 23.6845 5.07446 23.6848L1.23406 25.7607C1.23336 25.7611 1.23267 25.7614 1.23197 25.7618C0.767466 26.0087 0.5 26.4774 0.5 26.9999C0.5 27.5225 0.767465 27.9912 1.23197 28.2381C1.23267 28.2384 1.23336 28.2388 1.23406 28.2392L5.07446 30.3151C5.07505 30.3154 5.07563 30.3157 5.07621 30.316C5.45412 30.5251 5.66831 30.8179 5.74323 31.2174L5.74461 31.2248L5.74622 31.2321C5.83313 31.6294 5.73913 31.9966 5.48129 32.3196C5.48094 32.32 5.48058 32.3205 5.48023 32.3209L2.73092 35.71C2.38438 36.1149 2.30237 36.6647 2.51909 37.1523L2.976 36.9493L2.51909 37.1523C2.72329 37.6118 3.12842 37.9468 3.67052 38.0013C3.67087 38.0014 3.67123 38.0014 3.67158 38.0015L8.02048 38.452L8.02533 38.4524C8.43035 38.4904 8.76247 38.687 8.99064 39.0293L9.39325 38.7609L8.99064 39.0293C9.21569 39.3669 9.26905 39.7497 9.15236 40.1534C9.15218 40.154 9.152 40.1546 9.15183 40.1552L7.90592 44.3255C7.7473 44.833 7.88332 45.3717 8.25578 45.7442C8.63957 46.1279 9.15872 46.2256 9.63791 46.0995L9.64561 46.0974L9.65325 46.0952L13.8479 44.8472L13.848 44.8473L13.8588 44.8438C14.242 44.7202 14.6202 44.777 14.967 45.0069C15.2963 45.2362 15.4957 45.5567 15.5485 45.984L15.9987 50.3301L15.9987 50.3309C16.0518 50.8347 16.3531 51.2727 16.8566 51.4848L16.8566 51.4849L16.8694 51.4899C17.346 51.6753 17.881 51.5963 18.2817 51.2757L18.2843 51.2736L21.6817 48.5176L21.6817 48.5176L21.6883 48.5121C21.997 48.2528 22.3597 48.1624 22.7735 48.2377C23.1749 48.3306 23.4791 48.5565 23.6646 48.9027L23.6663 48.9059L25.7599 52.7469C26.0056 53.2304 26.4757 53.4999 27 53.4999C27.5247 53.4999 27.995 53.23 28.2406 52.7461L30.3172 48.9044L30.3181 48.9027C30.5027 48.558 30.8056 48.3316 31.2248 48.238C31.6393 48.1621 32.0025 48.2524 32.3117 48.5121L32.3117 48.5122L32.3183 48.5176L35.7157 51.2736L35.7183 51.2757C36.119 51.5963 36.654 51.6753 37.1306 51.4899L37.1416 51.4856L37.1524 51.4808C37.6191 51.2734 37.9469 50.8472 38.0013 50.3309L38.0013 50.3301L38.452 45.9795L38.452 45.9795L38.4526 45.9732C38.4906 45.5555 38.684 45.2395 39.0293 45.0093C39.3787 44.7764 39.741 44.7203 40.1238 44.8438L40.1238 44.8439L40.1348 44.8472L44.3294 46.0952L44.337 46.0974L44.3447 46.0995C44.8239 46.2256 45.3431 46.128 45.7269 45.7442C46.1004 45.3707 46.2296 44.8389 46.0995 44.3447L46.0972 44.3358L46.0945 44.327L44.8308 40.1552C44.8306 40.1544 44.8304 40.1535 44.8301 40.1527C44.7171 39.7608 44.7779 39.3765 45.0094 39.0293C45.2411 38.6817 45.5586 38.4898 45.9573 38.4524L45.9622 38.4519L50.3111 38.0015C50.3114 38.0014 50.3118 38.0014 50.3121 38.0014C50.8421 37.948 51.2715 37.6235 51.4809 37.1523L51.4857 37.1415L51.49 37.1305C51.6753 36.654 51.5963 36.1189 51.2758 35.7183L51.2736 35.7156L48.5176 32.3183L48.5177 32.3182L48.5122 32.3117C48.2509 32.0006 48.1611 31.6349 48.2394 31.2174C48.3128 30.8262 48.5384 30.5279 48.9099 30.3142L52.7461 28.2405C53.2301 27.9949 53.5 27.5246 53.5 26.9999C53.5 26.4753 53.2301 26.0049 52.7461 25.7593L48.9099 23.6857C48.5384 23.472 48.3128 23.1737 48.2394 22.7825C48.1611 22.3649 48.2509 21.9992 48.5122 21.6882L48.5122 21.6882L48.5176 21.6816L51.2736 18.2843L51.2758 18.2816C51.5963 17.8809 51.6753 17.3459 51.49 16.8694L51.4857 16.8583L51.4809 16.8475C51.2715 16.3764 50.8422 16.0519 50.3122 15.9985C50.3118 15.9985 50.3115 15.9985 50.3111 15.9984L45.9677 15.5485C45.5489 15.495 45.234 15.3076 45.0094 14.9706C44.7778 14.6233 44.7171 14.239 44.8301 13.8471C44.8304 13.8463 44.8306 13.8455 44.8308 13.8447L46.0947 9.655L46.0973 9.64647L46.0995 9.63785C46.231 9.13845 46.0967 8.62552 45.7269 8.25572C45.3581 7.88694 44.8379 7.74579 44.3258 7.90578L40.1379 9.15177C40.1375 9.1519 40.137 9.15204 40.1365 9.15217C39.7344 9.26854 39.3684 9.21665 39.0294 8.99058L38.7609 9.39318L39.0293 8.99058C38.684 8.76034 38.4906 8.44434 38.4526 8.02667L38.4527 8.02667L38.452 8.02042L38.0013 3.66975L38.0013 3.66893C37.9469 3.15272 37.6191 2.72648 37.1524 2.51903L37.1416 2.51423L37.1306 2.50994C36.6747 2.33267 36.1295 2.37202 35.7101 2.73084L32.3183 5.48231L32.3183 5.48225L32.3117 5.48775C32.0025 5.74748 31.6393 5.83773 31.2248 5.76187C30.8057 5.66832 30.5027 5.44185 30.3181 5.09716Z" stroke="black"/>
</svg>
