<svg width="600" height="680" viewBox="0 0 600 680" fill="none" xmlns="http://www.w3.org/2000/svg">
<rect width="600" height="680" rx="10" fill="#B3B3B3"/>
<path d="M183.183 187.206C183.183 177.85 190.787 170.245 200.143 170.245C209.5 170.245 217.104 177.85 217.104 187.206V313.337C217.104 322.722 209.5 330.298 200.143 330.298C190.787 330.298 183.183 322.722 183.183 313.337V187.206Z" fill="#1A1A1A"/>
<path d="M204.638 289.055C198.419 289.055 193.387 284.023 193.387 277.804C193.387 271.585 198.419 266.554 204.638 266.554L292.409 266.78C298.996 266.78 306.854 266.78 311.914 264.207C315.758 262.257 318.557 257.791 318.5 248.123L318.076 151.73C318.076 148.988 318.218 146.19 318.359 142.995C318.896 131.293 319.688 113.767 314.119 99.2369L290.091 36.4542C287.858 30.6028 290.798 24.1012 296.621 21.868C302.444 19.6631 308.974 22.5747 311.207 28.3979L335.235 91.1806C342.415 109.979 341.482 130.36 340.888 143.956C340.747 147.122 340.606 149.864 340.606 151.645L341.03 248.038C341.143 268.278 333.058 278.794 322.09 284.362C312.338 289.309 301.455 289.309 292.409 289.309L204.638 289.055Z" fill="#333333"/>
<path d="M212.185 282.016C209.867 282.016 207.973 280.122 207.973 277.804C207.973 275.458 209.867 273.592 212.185 273.592L292.409 273.819C299.759 273.847 308.578 273.819 315.108 270.511C321.157 267.43 325.624 261.07 325.567 248.095L325.143 151.702C325.115 149.271 325.256 146.472 325.397 143.306C325.963 130.982 326.783 112.579 320.705 96.7211L296.677 33.9384C295.858 31.7335 296.96 29.3025 299.137 28.4544C301.313 27.6347 303.773 28.7371 304.592 30.9137L328.62 93.6964C335.319 111.166 334.443 130.642 333.849 143.674C333.68 146.84 333.567 149.61 333.567 151.674L333.991 248.067C334.076 264.999 327.659 273.621 318.896 278.059C310.642 282.271 300.691 282.271 292.409 282.271L212.185 282.016Z" fill="#4D4D4D"/>
<path fill-rule="evenodd" clip-rule="evenodd" d="M296.706 21.8115C302.586 19.6349 308.889 22.0094 310.699 26.8714C312.479 31.7617 309.2 37.4718 303.321 39.6484C297.469 41.8251 291.25 39.6202 289.441 34.7299C287.632 29.8678 290.855 23.9881 296.706 21.8115Z" fill="#666666"/>
<path fill-rule="evenodd" clip-rule="evenodd" d="M325.511 124.141H334.387C336.139 124.141 337.581 125.582 337.581 127.363V142.232C337.581 143.985 336.139 145.426 334.387 145.426H325.511C323.758 145.426 322.316 143.985 322.316 142.232V127.363C322.316 125.582 323.758 124.141 325.511 124.141Z" fill="#B5B510"/>
<path fill-rule="evenodd" clip-rule="evenodd" d="M326.613 126.204H333.171C334.472 126.204 335.518 127.278 335.518 128.579V141.017C335.518 142.317 334.472 143.391 333.171 143.391H326.613C325.313 143.391 324.239 142.317 324.239 141.017V128.579C324.239 127.278 325.313 126.204 326.613 126.204Z" fill="#F7F743"/>
<path fill-rule="evenodd" clip-rule="evenodd" d="M325.511 151.617H334.387C336.139 151.617 337.581 153.059 337.581 154.811V169.708C337.581 171.461 336.139 172.903 334.387 172.903H325.511C323.758 172.903 322.316 171.461 322.316 169.708V154.811C322.316 153.059 323.758 151.617 325.511 151.617Z" fill="#B5B510"/>
<path fill-rule="evenodd" clip-rule="evenodd" d="M326.613 153.681H333.171C334.472 153.681 335.518 154.755 335.518 156.055V168.493C335.518 169.793 334.472 170.867 333.171 170.867H326.613C325.313 170.867 324.239 169.793 324.239 168.493V156.055C324.239 154.755 325.313 153.681 326.613 153.681Z" fill="#F7F743"/>
<path d="M195.649 266.554C201.868 266.554 206.899 271.585 206.899 277.804C206.899 284.023 201.868 289.055 195.649 289.055L107.877 289.309C98.8316 289.309 87.9485 289.309 78.1961 284.362C67.2283 278.794 59.1437 268.278 59.2568 248.038L59.6808 151.645C59.6808 149.864 59.5394 147.122 59.3981 143.956C58.8045 130.36 57.8716 109.979 65.0516 91.1806L89.0792 28.3979C91.3124 22.5748 97.8422 19.6632 103.665 21.8681C109.489 24.1012 112.428 30.6028 110.195 36.4542L86.1677 99.2369C80.5989 113.767 81.3904 131.293 81.9275 142.995C82.0688 146.19 82.2102 148.988 82.2102 151.73L81.7862 248.123C81.7296 257.791 84.5281 262.257 88.3725 264.208C93.4325 266.78 101.291 266.78 107.877 266.78L195.649 266.554Z" fill="#333333"/>
<path d="M188.101 273.592C190.419 273.592 192.313 275.458 192.313 277.804C192.313 280.122 190.419 282.016 188.101 282.016L107.877 282.271C99.5947 282.271 89.6445 282.271 81.3903 278.059C72.6273 273.621 66.2105 264.999 66.2953 248.067L66.7193 151.674C66.7193 149.61 66.6062 146.84 66.4366 143.674C65.843 130.642 64.9667 111.166 71.6662 93.6964L95.6938 30.9138C96.5135 28.7371 98.9728 27.6347 101.149 28.4545C103.326 29.3025 104.428 31.7335 103.609 33.9384L79.5811 96.7211C73.5036 112.579 74.3233 130.982 74.8887 143.306C75.03 146.472 75.1714 149.271 75.1431 151.702L74.7191 248.095C74.6625 261.07 79.1289 267.43 85.1782 270.511C91.708 273.819 100.528 273.847 107.877 273.819L188.101 273.592Z" fill="#4D4D4D"/>
<path fill-rule="evenodd" clip-rule="evenodd" d="M103.58 21.8115C97.7008 19.6349 91.3971 22.0094 89.5879 26.8714C87.8071 31.7618 91.0861 37.4719 96.9658 39.6485C102.817 41.8251 109.036 39.6202 110.845 34.7299C112.654 29.8678 109.432 23.9881 103.58 21.8115Z" fill="#666666"/>
<path fill-rule="evenodd" clip-rule="evenodd" d="M74.7759 124.141H65.8998C64.1472 124.141 62.7056 125.582 62.7056 127.363V142.232C62.7056 143.985 64.1472 145.426 65.8998 145.426H74.7759C76.5285 145.426 77.9702 143.985 77.9702 142.232V127.363C77.9702 125.582 76.5285 124.141 74.7759 124.141Z" fill="#B5B510"/>
<path fill-rule="evenodd" clip-rule="evenodd" d="M73.6734 126.204H67.1153C65.8149 126.204 64.769 127.279 64.769 128.579V141.017C64.769 142.317 65.8149 143.391 67.1153 143.391H73.6734C74.9737 143.391 76.0479 142.317 76.0479 141.017V128.579C76.0479 127.279 74.9737 126.204 73.6734 126.204Z" fill="#F7F743"/>
<path fill-rule="evenodd" clip-rule="evenodd" d="M74.7759 151.617H65.8998C64.1472 151.617 62.7056 153.059 62.7056 154.811V169.708C62.7056 171.461 64.1472 172.903 65.8998 172.903H74.7759C76.5285 172.903 77.9702 171.461 77.9702 169.708V154.811C77.9702 153.059 76.5285 151.617 74.7759 151.617Z" fill="#B5B510"/>
<path fill-rule="evenodd" clip-rule="evenodd" d="M73.6734 153.681H67.1153C65.8149 153.681 64.769 154.755 64.769 156.055V168.493C64.769 169.793 65.8149 170.867 67.1153 170.867H73.6734C74.9737 170.867 76.0479 169.793 76.0479 168.493V156.055C76.0479 154.755 74.9737 153.681 73.6734 153.681Z" fill="#F7F743"/>
<path fill-rule="evenodd" clip-rule="evenodd" d="M200.143 252.985C214.56 252.985 226.235 264.66 226.235 279.048C226.235 293.465 214.56 305.139 200.143 305.139C185.727 305.139 174.052 293.465 174.052 279.048C174.052 264.66 185.727 252.985 200.143 252.985Z" fill="#333333"/>
<path fill-rule="evenodd" clip-rule="evenodd" d="M200.143 263.981C208.454 263.981 215.21 270.737 215.21 279.048C215.21 287.387 208.454 294.143 200.143 294.143C191.804 294.143 185.077 287.387 185.077 279.048C185.077 270.737 191.804 263.981 200.143 263.981Z" fill="#4D4D4D"/>
<path fill-rule="evenodd" clip-rule="evenodd" d="M152.851 81.0042H248.424C257.498 81.0042 264.933 88.4386 264.933 97.5126V232.067C264.933 241.141 257.498 248.575 248.424 248.575H152.851C143.777 248.575 136.343 241.141 136.343 232.067V97.5126C136.343 88.4386 143.777 81.0042 152.851 81.0042Z" fill="#F7F743"/>
<path fill-rule="evenodd" clip-rule="evenodd" d="M152.851 85.2444H248.424C255.18 85.2444 260.693 90.7848 260.693 97.5126V232.067C260.693 238.795 255.18 244.335 248.424 244.335H152.851C146.095 244.335 140.583 238.795 140.583 232.067V97.5126C140.583 90.7848 146.095 85.2444 152.851 85.2444Z" fill="black"/>
<path fill-rule="evenodd" clip-rule="evenodd" d="M152.851 93.7529H248.452C250.516 93.7529 252.184 95.449 252.184 97.5125V232.067C252.184 234.131 250.516 235.827 248.452 235.827H152.851C150.787 235.827 149.091 234.131 149.091 232.067V97.5125C149.091 95.449 150.787 93.7529 152.851 93.7529Z" fill="#E6E6E6"/>
<path fill-rule="evenodd" clip-rule="evenodd" d="M152.851 93.7529H248.452C250.516 93.7529 252.184 95.449 252.184 97.5125V144.607H149.091V97.5125C149.091 95.449 150.787 93.7529 152.851 93.7529Z" fill="#666666"/>
<path fill-rule="evenodd" clip-rule="evenodd" d="M154.49 132.847H161.161V139.547H154.49V132.847Z" fill="#F7F743"/>
<path fill-rule="evenodd" clip-rule="evenodd" d="M162.857 132.847H169.529V139.547H162.857V132.847Z" fill="#F7F743"/>
<path fill-rule="evenodd" clip-rule="evenodd" d="M171.196 132.847H177.867V139.547H171.196V132.847Z" fill="#F7F743"/>
<path fill-rule="evenodd" clip-rule="evenodd" d="M179.563 132.847H186.235V139.547H179.563V132.847Z" fill="#F7F743"/>
<path fill-rule="evenodd" clip-rule="evenodd" d="M187.903 132.847H194.602V139.547H187.903V132.847Z" fill="#F7F743"/>
<path fill-rule="evenodd" clip-rule="evenodd" d="M196.27 132.847H202.941V139.547H196.27V132.847Z" fill="#F7F743"/>
<path fill-rule="evenodd" clip-rule="evenodd" d="M204.609 132.847H211.308V139.547H204.609V132.847Z" fill="#F7F743"/>
<path fill-rule="evenodd" clip-rule="evenodd" d="M212.976 132.847H219.647V139.547H212.976V132.847Z" fill="#F7F743"/>
<path fill-rule="evenodd" clip-rule="evenodd" d="M221.315 132.847H228.014V139.547H221.315V132.847Z" fill="#F7F743"/>
<path fill-rule="evenodd" clip-rule="evenodd" d="M229.683 132.847H236.354V139.547H229.683V132.847Z" fill="#F7F743"/>
<path fill-rule="evenodd" clip-rule="evenodd" d="M154.49 124.508H161.161V131.179H154.49V124.508Z" fill="#F7F743"/>
<path fill-rule="evenodd" clip-rule="evenodd" d="M162.857 124.508H169.529V131.179H162.857V124.508Z" fill="#F7F743"/>
<path fill-rule="evenodd" clip-rule="evenodd" d="M171.196 124.508H177.867V131.179H171.196V124.508Z" fill="#F7F743"/>
<path fill-rule="evenodd" clip-rule="evenodd" d="M179.563 124.508H186.235V131.179H179.563V124.508Z" fill="#F7F743"/>
<path fill-rule="evenodd" clip-rule="evenodd" d="M187.903 124.508H194.602V131.179H187.903V124.508Z" fill="#F7F743"/>
<path fill-rule="evenodd" clip-rule="evenodd" d="M196.27 124.508H202.941V131.179H196.27V124.508Z" fill="#F7F743"/>
<path fill-rule="evenodd" clip-rule="evenodd" d="M204.609 124.508H211.308V131.179H204.609V124.508Z" fill="#F7F743"/>
<path fill-rule="evenodd" clip-rule="evenodd" d="M212.976 124.508H219.647V131.179H212.976V124.508Z" fill="#F7F743"/>
<path fill-rule="evenodd" clip-rule="evenodd" d="M221.315 124.508H228.014V131.179H221.315V124.508Z" fill="#F7F743"/>
<path fill-rule="evenodd" clip-rule="evenodd" d="M229.683 124.508H236.354V131.179H229.683V124.508Z" fill="#F7F743"/>
<path fill-rule="evenodd" clip-rule="evenodd" d="M154.49 116.141H161.161V122.84H154.49V116.141Z" fill="#F7F743"/>
<path fill-rule="evenodd" clip-rule="evenodd" d="M162.857 116.141H169.529V122.84H162.857V116.141Z" fill="#F7F743"/>
<path fill-rule="evenodd" clip-rule="evenodd" d="M171.196 116.141H177.867V122.84H171.196V116.141Z" fill="#F7F743"/>
<path fill-rule="evenodd" clip-rule="evenodd" d="M179.563 116.141H186.235V122.84H179.563V116.141Z" fill="#F7F743"/>
<path fill-rule="evenodd" clip-rule="evenodd" d="M187.903 116.141H194.602V122.84H187.903V116.141Z" fill="#F7F743"/>
<path fill-rule="evenodd" clip-rule="evenodd" d="M196.27 116.141H202.941V122.84H196.27V116.141Z" fill="#F7F743"/>
<path fill-rule="evenodd" clip-rule="evenodd" d="M204.609 116.141H211.308V122.84H204.609V116.141Z" fill="#F7F743"/>
<path fill-rule="evenodd" clip-rule="evenodd" d="M212.976 116.141H219.647V122.84H212.976V116.141Z" fill="#F7F743"/>
<path fill-rule="evenodd" clip-rule="evenodd" d="M221.315 116.141H228.014V122.84H221.315V116.141Z" fill="#F7F743"/>
<path fill-rule="evenodd" clip-rule="evenodd" d="M229.683 116.141H236.354V122.84H229.683V116.141Z" fill="#F7F743"/>
<path fill-rule="evenodd" clip-rule="evenodd" d="M154.49 107.802H161.161V114.473H154.49V107.802Z" fill="#F7F743"/>
<path fill-rule="evenodd" clip-rule="evenodd" d="M162.857 107.802H169.529V114.473H162.857V107.802Z" fill="#F7F743"/>
<path fill-rule="evenodd" clip-rule="evenodd" d="M171.196 107.802H177.867V114.473H171.196V107.802Z" fill="#F7F743"/>
<path fill-rule="evenodd" clip-rule="evenodd" d="M179.563 107.802H186.235V114.473H179.563V107.802Z" fill="#F7F743"/>
<path fill-rule="evenodd" clip-rule="evenodd" d="M187.903 107.802H194.602V114.473H187.903V107.802Z" fill="#F7F743"/>
<path fill-rule="evenodd" clip-rule="evenodd" d="M196.27 107.802H202.941V114.473H196.27V107.802Z" fill="#F7F743"/>
<path fill-rule="evenodd" clip-rule="evenodd" d="M204.609 107.802H211.308V114.473H204.609V107.802Z" fill="#F7F743"/>
<path fill-rule="evenodd" clip-rule="evenodd" d="M212.976 107.802H219.647V114.473H212.976V107.802Z" fill="#F7F743"/>
<path fill-rule="evenodd" clip-rule="evenodd" d="M221.315 107.802H228.014V114.473H221.315V107.802Z" fill="#F7F743"/>
<path fill-rule="evenodd" clip-rule="evenodd" d="M229.683 107.802H236.354V114.473H229.683V107.802Z" fill="#F7F743"/>
<path fill-rule="evenodd" clip-rule="evenodd" d="M154.49 99.4348H161.161V106.134H154.49V99.4348Z" fill="#999999"/>
<path fill-rule="evenodd" clip-rule="evenodd" d="M162.857 99.4348H169.529V106.134H162.857V99.4348Z" fill="#999999"/>
<path fill-rule="evenodd" clip-rule="evenodd" d="M171.196 99.4348H177.867V106.134H171.196V99.4348Z" fill="#999999"/>
<path fill-rule="evenodd" clip-rule="evenodd" d="M179.563 99.4348H186.235V106.134H179.563V99.4348Z" fill="#999999"/>
<path fill-rule="evenodd" clip-rule="evenodd" d="M187.903 99.4348H194.602V106.134H187.903V99.4348Z" fill="#999999"/>
<path fill-rule="evenodd" clip-rule="evenodd" d="M196.27 99.4348H202.941V106.134H196.27V99.4348Z" fill="#999999"/>
<path fill-rule="evenodd" clip-rule="evenodd" d="M204.609 99.4348H211.308V106.134H204.609V99.4348Z" fill="#999999"/>
<path fill-rule="evenodd" clip-rule="evenodd" d="M212.976 99.4348H219.647V106.134H212.976V99.4348Z" fill="#999999"/>
<path fill-rule="evenodd" clip-rule="evenodd" d="M221.315 99.4348H228.015V106.134H221.315V99.4348Z" fill="#999999"/>
<path fill-rule="evenodd" clip-rule="evenodd" d="M229.682 99.4348H236.353V106.134H229.682V99.4348Z" fill="#999999"/>
<path d="M242.148 103.223L241.979 105.173L241.3 104.438L241.385 103.392L241.894 102.94L242.148 103.223ZM241.498 102.177L241.583 101.159L242.403 100.396L242.233 102.346L241.922 102.657L241.498 102.177ZM246.671 100.255L245.851 101.018H244.41L243.731 100.255H246.671ZM246.219 105.314H243.279L244.099 104.579H245.54L246.219 105.314ZM244.071 103.392L243.986 104.438L243.166 105.173L243.336 103.223L243.647 102.94L244.071 103.392ZM245.88 102.177L245.964 101.131L246.784 100.396L246.615 102.346L246.304 102.657L245.88 102.177ZM245.823 102.403L246.162 102.799L245.738 103.166H244.155L243.788 102.799L244.212 102.403H245.823Z" fill="#999999"/>
<path d="M244.268 111.562L244.099 113.54L243.42 112.777L243.505 111.759L244.014 111.279L244.268 111.562ZM243.59 110.516L243.703 109.498L244.523 108.735L244.353 110.714L244.042 110.996L243.59 110.516ZM246.53 111.562L246.36 113.54L245.682 112.777L245.767 111.759L246.275 111.279L246.53 111.562ZM245.88 110.516L245.965 109.498L246.784 108.735L246.615 110.714L246.304 110.996L245.88 110.516Z" fill="#F7F743"/>
<path d="M242.148 119.929L241.979 121.879L241.3 121.144L241.385 120.099L241.894 119.646L242.148 119.929ZM241.498 118.883L241.583 117.865L242.403 117.102L242.233 119.053L241.922 119.364L241.498 118.883ZM246.671 116.961L245.851 117.724H244.41L243.731 116.961H246.671ZM246.219 122.021H243.279L244.099 121.286H245.54L246.219 122.021ZM244.071 120.099L243.986 121.144L243.166 121.879L243.336 119.929L243.647 119.646L244.071 120.099ZM243.392 119.053L243.562 117.102L244.268 117.865L244.184 118.883L243.647 119.364L243.392 119.053ZM246.53 119.929L246.36 121.879L245.682 121.144L245.767 120.099L246.275 119.646L246.53 119.929ZM245.88 118.883L245.964 117.837L246.784 117.102L246.615 119.053L246.304 119.364L245.88 118.883Z" fill="#F7F743"/>
<path d="M242.601 125.3L241.781 126.063H240.368L239.661 125.3H242.601ZM242.149 130.388H239.209L240.029 129.625H241.47L242.149 130.388ZM240 128.466L239.915 129.483L239.096 130.247L239.265 128.268L239.576 127.985L240 128.466ZM239.35 127.42L239.491 125.469L240.198 126.204L240.113 127.222L239.605 127.703L239.35 127.42ZM242.46 128.268L242.318 130.247L241.612 129.483L241.696 128.466L242.205 127.985L242.46 128.268ZM241.809 127.222L241.894 126.204L242.714 125.469L242.544 127.42L242.233 127.703L241.809 127.222ZM246.671 125.3L245.852 126.063H244.41L243.732 125.3H246.671ZM246.219 130.388H243.279L244.099 129.625H245.541L246.219 130.388ZM243.421 127.42L243.562 125.469L244.269 126.204L244.184 127.222L243.675 127.703L243.421 127.42ZM246.53 128.268L246.361 130.247L245.682 129.483L245.767 128.466L246.276 127.985L246.53 128.268ZM245.88 127.222L245.965 126.204L246.785 125.469L246.615 127.42L246.304 127.703L245.88 127.222ZM245.823 127.476L246.163 127.844L245.739 128.24H244.156L243.788 127.844L244.212 127.476H245.823Z" fill="#F7F743"/>
<path d="M242.601 133.667L241.781 134.43H240.368L239.661 133.667H242.601ZM242.149 138.727H239.237L240.057 137.992H241.47L242.149 138.727ZM240 136.805L239.915 137.851L239.096 138.586L239.265 136.635L239.576 136.352L240 136.805ZM239.35 135.759L239.52 133.808L240.198 134.572L240.113 135.589L239.605 136.07L239.35 135.759ZM242.488 136.635L242.318 138.586L241.612 137.851L241.725 136.805L242.233 136.352L242.488 136.635ZM241.809 135.589L241.922 134.572L242.714 133.808L242.544 135.759L242.233 136.07L241.809 135.589ZM246.671 133.667L245.852 134.43H244.41L243.732 133.667H246.671ZM246.219 138.727H243.279L244.099 137.992H245.541L246.219 138.727ZM244.071 136.805L243.986 137.851L243.166 138.586L243.336 136.635L243.647 136.352L244.071 136.805ZM243.392 135.759L243.562 133.808L244.269 134.572L244.184 135.589L243.647 136.07L243.392 135.759ZM246.53 136.635L246.361 138.586L245.682 137.851L245.767 136.805L246.276 136.352L246.53 136.635ZM245.88 135.589L245.965 134.572L246.785 133.808L246.615 135.759L246.304 136.07L245.88 135.589ZM245.823 135.815L246.163 136.211L245.739 136.579H244.156L243.788 136.211L244.212 135.815H245.823Z" fill="#F7F743"/>
<path d="M218.319 149.808L218.235 150.684L217.613 151.25L217.754 149.667L217.98 149.469L218.319 149.808ZM217.811 149.016L217.952 147.547L218.461 148.112L218.376 148.875L218.009 149.243L217.811 149.016ZM219.62 149.073L219.874 149.356L219.563 149.638H218.376L218.122 149.356L218.404 149.073H219.62ZM220.213 149.016L219.987 149.243L219.676 148.875L219.733 148.112L220.044 147.829L220.298 148.112L220.213 149.016ZM219.959 147.716L219.648 148.027H218.574L218.065 147.462H219.705L219.959 147.716ZM223.266 149.016L223.04 149.243L222.729 148.875L222.786 148.112L223.097 147.829L223.351 148.112L223.266 149.016ZM223.012 147.716L222.701 148.027H221.627L221.372 147.716L221.683 147.462H222.729L223.012 147.716ZM223.125 150.571L222.814 150.854L222.56 150.571L222.644 149.808L223.012 149.469L223.21 149.667L223.125 150.571ZM221.429 148.875L221.061 149.243L220.864 149.016L220.948 148.112L221.259 147.829L221.514 148.112L221.429 148.875ZM220.722 150.571L220.977 150.854L221.288 150.571L221.344 149.808L221.033 149.469L220.807 149.667L220.722 150.571ZM221.344 151.25L221.09 150.967L221.401 150.684H222.447L222.729 150.967L222.418 151.25H221.344ZM226.319 149.016L226.093 149.243L225.782 148.875L225.839 148.027L226.461 147.433L226.319 149.016ZM224.482 148.875L224.114 149.243L223.917 149.016L224.058 147.433L224.567 148.027L224.482 148.875ZM226.15 151.137L225.613 150.571L225.697 149.808L226.065 149.469L226.263 149.667L226.15 151.137ZM225.33 150.26L225.019 150.543L224.736 150.26L224.849 149.158L225.16 148.875L225.415 149.158L225.33 150.26ZM226.037 151.25H223.832L224.454 150.684H225.499L226.037 151.25ZM224.341 150.571L223.719 151.137L223.86 149.667L224.086 149.469L224.397 149.808L224.341 150.571ZM229.514 147.462L228.892 148.027H227.704L227.196 147.462H229.514ZM229.174 151.25H226.856L227.478 150.684H228.665L229.174 151.25ZM227.45 149.808L227.393 150.571L226.772 151.137L226.885 149.667L227.139 149.469L227.45 149.808ZM226.941 149.016L227.082 147.547L227.591 148.112L227.535 148.875L227.139 149.243L226.941 149.016ZM228.75 149.073L229.033 149.356L228.722 149.638H227.507L227.252 149.356L227.563 149.073H228.75ZM230.729 150.175L230.757 149.78H231.181L232.171 150.854L232.114 151.25H231.718L230.729 150.175ZM230.503 149.808L230.418 150.684L229.796 151.25L229.938 149.667L230.164 149.469L230.503 149.808ZM229.994 149.016L230.135 147.547L230.644 148.112L230.588 148.875L230.192 149.243L229.994 149.016ZM231.803 149.073L232.058 149.356L231.747 149.638H230.559L230.305 149.356L230.588 149.073H231.803ZM232.425 149.016L232.171 149.243L231.86 148.875L231.916 148.112L232.227 147.829L232.482 148.112L232.425 149.016ZM232.142 147.716L231.831 148.027H230.757L230.248 147.462H231.888L232.142 147.716Z" fill="black"/>
<path d="M166.9 153.2L164.667 155.264H160.738L158.844 153.2H166.9ZM165.685 167.136H157.628L159.89 165.073H163.791L165.685 167.136ZM159.777 161.85L159.522 164.677L157.289 166.769L157.713 161.341L158.589 160.55L159.777 161.85ZM157.939 158.995L158.42 153.596L160.314 155.659L160.059 158.458L158.646 159.786L157.939 158.995ZM166.561 161.341L166.109 166.769L164.215 164.677L164.469 161.85L165.854 160.55L166.561 161.341ZM164.752 158.458L165.006 155.659L167.239 153.596L166.787 158.995L165.939 159.786L164.752 158.458ZM178.094 153.2L175.833 155.264H171.903L170.01 153.2H178.094ZM176.85 167.136H168.794L171.055 165.073H174.956L176.85 167.136ZM170.942 161.85L170.688 164.677L168.455 166.769L168.879 161.341L169.755 160.55L170.942 161.85ZM169.133 158.995L169.586 153.596L171.479 155.659L171.225 158.458L169.812 159.786L169.133 158.995ZM177.727 161.341L177.274 166.769L175.38 164.677L175.635 161.85L177.048 160.55L177.727 161.341ZM175.918 158.458L176.172 155.659L178.405 153.596L177.953 158.995L177.105 159.786L175.918 158.458ZM179.818 167.136L179.988 165.073H182.08L181.91 167.136H179.818ZM180.666 157.61L180.836 155.518H182.928L182.758 157.61H180.666ZM194.122 153.2L191.861 155.264H187.96L186.066 153.2H194.122ZM192.906 167.136H184.85L187.112 165.073H191.012L192.906 167.136ZM186.97 161.85L186.744 164.677L184.483 166.769L184.935 161.341L185.783 160.55L186.97 161.85ZM185.161 158.995L185.613 153.596L187.507 155.659L187.281 158.458L185.868 159.786L185.161 158.995ZM193.754 161.341L193.33 166.769L191.437 164.677L191.663 161.85L193.076 160.55L193.754 161.341ZM191.974 158.458L192.2 155.659L194.461 153.596L193.981 158.995L193.133 159.786L191.974 158.458ZM205.316 153.2L203.055 155.264H199.154L197.26 153.2H205.316ZM204.1 167.136H196.044L198.277 165.073H202.207L204.1 167.136ZM196.355 158.995L196.807 153.596L198.701 155.659L198.475 158.458L197.062 159.786L196.355 158.995ZM204.977 161.341L204.524 166.769L202.631 164.677L202.857 161.85L204.27 160.55L204.977 161.341ZM202.97 159.136L203.931 160.182L202.8 161.228H198.362L197.429 160.182L198.56 159.136H202.97Z" fill="black"/>
<path d="M154.434 150.995L154.123 151.278L153.869 150.995L153.982 149.808L154.349 149.469L154.547 149.667L154.434 150.995ZM154.604 149.016L154.378 149.243L154.038 148.875L154.095 148.451L154.406 148.168L154.66 148.451L154.604 149.016ZM155.763 147.716L155.452 148.027H153.36L153.105 147.716L153.416 147.462H155.508L155.763 147.716ZM156.922 149.667L156.78 151.25L156.271 150.684L156.356 149.808L156.724 149.469L156.922 149.667ZM156.441 148.875L156.498 148.027L157.119 147.433L156.978 149.016L156.752 149.243L156.441 148.875ZM160.314 147.462L159.692 148.027H158.646L158.109 147.462H160.314ZM158.363 149.808L158.278 150.684L157.685 151.25L157.826 149.667L158.052 149.469L158.363 149.808ZM157.854 149.016L157.996 147.547L158.505 148.14L158.448 148.875L158.052 149.243L157.854 149.016ZM160.229 149.667L160.088 151.25L159.579 150.684L159.635 149.808L160.031 149.469L160.229 149.667ZM159.72 148.875L159.805 148.112L160.399 147.547L160.285 149.016L160.059 149.243L159.72 148.875ZM158.872 148.423L159.183 148.14L159.437 148.423L159.324 149.554L159.042 149.836L158.759 149.554L158.872 148.423ZM163.451 147.462L162.858 148.027H161.671L161.162 147.462H163.451ZM163.141 151.25H160.823L161.444 150.684H162.603L163.141 151.25ZM161.416 149.808L161.36 150.571L160.738 151.137L160.851 149.667L161.077 149.469L161.416 149.808ZM160.907 149.016L161.049 147.547L161.558 148.112L161.501 148.875L161.105 149.243L160.907 149.016ZM162.717 149.073L162.971 149.356L162.688 149.638H161.473L161.218 149.356L161.529 149.073H162.717Z" fill="black"/>
<path d="M257.413 210.103C257.583 210.103 257.696 210.216 257.696 210.386C257.696 210.527 257.583 210.668 257.413 210.668H147.593C147.424 210.668 147.311 210.527 147.311 210.386C147.311 210.216 147.424 210.103 147.593 210.103H257.413Z" fill="black"/>
<path d="M228.835 153.2L226.574 155.264H222.673L220.779 153.2H228.835ZM227.62 167.136H219.563L221.825 165.073H225.726L227.62 167.136ZM221.683 161.85L221.457 164.677L219.196 166.769L219.648 161.341L220.496 160.55L221.683 161.85ZM219.874 158.995L220.327 153.596L222.22 155.659L221.994 158.458L220.581 159.786L219.874 158.995ZM228.468 161.341L228.044 166.769L226.15 164.677L226.376 161.85L227.789 160.55L228.468 161.341ZM226.687 158.458L226.913 155.659L229.174 153.596L228.694 158.995L227.846 159.786L226.687 158.458ZM230.107 167.136L230.305 165.073H232.369L232.199 167.136H230.107ZM243.958 153.2L241.697 155.264H237.796L235.902 153.2H243.958ZM242.743 167.136H234.687L236.92 165.073H240.849L242.743 167.136ZM236.807 161.85L236.552 164.677L234.319 166.769L234.771 161.341L235.619 160.55L236.807 161.85ZM234.997 158.995L235.45 153.596L237.344 155.659L237.118 158.458L235.676 159.786L234.997 158.995ZM243.591 161.341L243.139 166.769L241.273 164.677L241.499 161.85L242.912 160.55L243.591 161.341ZM241.81 158.458L242.036 155.659L244.298 153.596L243.817 158.995L242.969 159.786L241.81 158.458Z" fill="black"/>
<path d="M248.877 164.168L248.566 164.479L248.114 163.998L248.227 162.839L249.046 162.076L248.877 164.168ZM246.418 163.998L245.909 164.479L245.654 164.168L245.824 162.076L246.531 162.839L246.418 163.998ZM248.622 166.995L247.944 166.231L248.029 165.214L248.538 164.762L248.792 165.044L248.622 166.995ZM247.52 165.836L247.096 166.203L246.757 165.836L246.898 164.338L247.294 163.97L247.661 164.338L247.52 165.836ZM248.481 167.136H245.541L246.361 166.373H247.774L248.481 167.136ZM246.22 166.26L245.4 166.995L245.57 165.044L245.88 164.762L246.304 165.214L246.22 166.26Z" fill="black"/>
<path d="M193.924 216.463L191.691 218.555H187.762L185.868 216.463H193.924ZM192.709 230.428H184.652L186.914 228.336H190.815L192.709 230.428ZM184.992 222.258L185.444 216.859L187.338 218.951L187.083 221.749L185.67 223.05L184.992 222.258ZM193.585 224.604L193.133 230.032L191.239 227.94L191.493 225.141L192.907 223.841L193.585 224.604ZM191.606 222.399L192.567 223.445L191.437 224.491H186.999L186.066 223.445L187.168 222.399H191.606ZM205.118 216.463L202.857 218.555H198.956L197.062 216.463H205.118ZM204.751 224.604L204.298 230.032L202.433 227.94L202.659 225.141L204.072 223.841L204.751 224.604ZM202.942 221.749L203.196 218.923L205.457 216.859L204.977 222.258L204.129 223.05L202.942 221.749ZM207.323 222.258L207.775 216.859L209.669 218.923L209.443 221.749L208.03 223.05L207.323 222.258ZM215.916 224.604L215.492 230.032L213.599 227.94L213.825 225.141L215.238 223.841L215.916 224.604ZM214.136 221.749L214.362 218.923L216.623 216.859L216.143 222.258L215.295 223.05L214.136 221.749ZM213.938 222.399L214.899 223.445L213.768 224.491H209.33L208.397 223.445L209.528 222.399H213.938Z" fill="black"/>
<path d="M219.591 228.505L219.478 229.664L218.658 230.428L218.856 228.307L219.167 228.025L219.591 228.505ZM218.941 227.459L219.11 225.339L219.789 226.103L219.704 227.262L219.195 227.742L218.941 227.459ZM222.05 228.307L221.881 230.428L221.202 229.664L221.287 228.505L221.796 228.025L222.05 228.307ZM221.344 227.488L221.683 227.883L221.287 228.251H219.676L219.308 227.883L219.732 227.488H221.344ZM221.485 225.339H222.022L221.966 225.876L220.411 227.29H219.902L219.93 226.753L221.485 225.339ZM226.262 225.339L225.442 226.103H224.001L223.322 225.339H226.262ZM223.662 228.477L223.549 229.664L222.729 230.428L222.927 228.307L223.238 228.025L223.662 228.477ZM222.983 227.459L223.153 225.481L223.859 226.244L223.746 227.262L223.238 227.742L222.983 227.459ZM226.121 228.307L225.951 230.428L225.245 229.664L225.358 228.505L225.866 228.025L226.121 228.307ZM225.471 227.262L225.556 226.244L226.375 225.481L226.206 227.459L225.895 227.742L225.471 227.262ZM224.312 226.64L224.736 226.272L225.075 226.64L224.934 228.138L224.538 228.534L224.17 228.138L224.312 226.64Z" fill="black"/>
<path d="M155.791 178.811L155.48 179.122H154.038L153.784 178.811L154.095 178.528H155.536L155.791 178.811ZM155.536 181.666L155.226 181.948L154.971 181.666L155.056 180.902L155.423 180.563L155.621 180.761L155.536 181.666ZM153.84 179.97L153.473 180.337L153.275 180.111L153.36 179.206L153.671 178.924L153.925 179.206L153.84 179.97ZM153.36 182.344L153.105 182.061L153.416 181.779H154.858L155.141 182.061L154.83 182.344H153.36ZM155.084 180.167L155.339 180.45L155.028 180.733H153.812L153.558 180.45L153.869 180.167H155.084ZM156.809 180.902L156.724 181.779L156.13 182.344L156.243 180.761L156.498 180.563L156.809 180.902ZM156.3 180.111L156.441 178.641L156.95 179.206L156.893 179.97L156.498 180.337L156.3 180.111ZM158.109 180.167L158.392 180.45L158.081 180.733H156.865L156.611 180.45L156.922 180.167H158.109ZM158.731 180.111L158.505 180.337L158.165 179.97L158.222 179.206L158.533 178.924L158.787 179.206L158.731 180.111ZM158.448 178.811L158.137 179.122H157.063L156.554 178.528H158.194L158.448 178.811ZM161.897 178.528L161.303 179.122H160.116L159.607 178.528H161.897ZM161.586 182.344H159.268L159.89 181.779H161.049L161.586 182.344ZM159.861 180.902L159.777 181.666L159.183 182.231L159.296 180.761L159.522 180.563L159.861 180.902ZM159.353 180.111L159.494 178.641L160.003 179.206L159.946 179.97L159.551 180.337L159.353 180.111ZM161.162 180.167L161.416 180.45L161.105 180.733H159.918L159.664 180.45L159.946 180.167H161.162ZM164.95 178.528L164.328 179.122H163.169L162.66 178.528H164.95ZM164.61 182.344H162.321L162.943 181.779H164.102L164.61 182.344ZM162.914 180.902L162.83 181.666L162.236 182.231L162.349 180.761L162.575 180.563L162.914 180.902ZM162.406 180.111L162.547 178.641L163.056 179.206L162.971 179.97L162.603 180.337L162.406 180.111ZM164.215 180.167L164.469 180.45L164.158 180.733H162.971L162.688 180.45L162.999 180.167H164.215ZM165.939 180.902L165.882 181.666L165.261 182.231L165.402 180.761L165.628 180.563L165.939 180.902ZM165.458 180.111L165.572 178.641L166.109 179.206L166.024 179.97L165.656 180.337L165.458 180.111ZM165.374 182.344L165.967 181.779H167.041L167.296 182.061L166.985 182.344H165.374ZM167.861 180.111L167.635 180.337L167.296 179.97L167.381 179.206L167.692 178.924L167.946 179.206L167.861 180.111ZM167.579 178.811L167.296 179.122H166.222L165.713 178.528H167.324L167.579 178.811ZM167.72 181.666L167.409 181.948L167.155 181.666L167.239 180.902L167.607 180.563L167.805 180.761L167.72 181.666Z" fill="black"/>
<path d="M153.784 215.559L153.727 216.35L153.105 216.915L153.219 215.417L153.473 215.219L153.784 215.559ZM153.303 214.795L153.416 213.325L153.925 213.891L153.869 214.654L153.473 214.993L153.303 214.795ZM153.19 217L153.812 216.435H154.886L155.141 216.718L154.83 217H153.19ZM155.706 214.795L155.452 214.993L155.141 214.654L155.226 213.891L155.508 213.608L155.763 213.891L155.706 214.795ZM155.423 213.495L155.112 213.778H154.038L153.529 213.212H155.169L155.423 213.495ZM155.565 216.35L155.254 216.633L154.999 216.35L155.056 215.559L155.452 215.219L155.65 215.417L155.565 216.35ZM157.091 215.417L156.95 217.029L156.441 216.435L156.526 215.559L156.893 215.219L157.091 215.417ZM156.611 214.654L156.667 213.778L157.289 213.212L157.148 214.795L156.922 214.993L156.611 214.654ZM160.568 213.495L160.257 213.778H158.816L158.561 213.495L158.872 213.212H160.314L160.568 213.495ZM160.314 216.35L160.003 216.633L159.748 216.35L159.833 215.559L160.201 215.219L160.399 215.417L160.314 216.35ZM158.618 214.654L158.25 214.993L158.052 214.795L158.137 213.891L158.448 213.608L158.702 213.891L158.618 214.654ZM158.137 217L157.883 216.718L158.194 216.435H159.635L159.918 216.718L159.607 217H158.137ZM159.861 214.824L160.116 215.106L159.805 215.389H158.589L158.335 215.106L158.646 214.824H159.861ZM162.406 216.746L162.095 217.029L161.84 216.746L161.953 215.559L162.321 215.219L162.519 215.417L162.406 216.746ZM162.575 214.795L162.349 214.993L162.038 214.654L162.066 214.202L162.377 213.919L162.632 214.202L162.575 214.795ZM163.734 213.495L163.423 213.778H161.331L161.077 213.495L161.388 213.212H163.48L163.734 213.495ZM166.589 213.212L165.967 213.778H164.893L164.384 213.212H166.589ZM164.639 215.559L164.554 216.435L163.932 217.029L164.073 215.417L164.328 215.219L164.639 215.559ZM164.13 214.795L164.271 213.325L164.78 213.891L164.724 214.654L164.328 214.993L164.13 214.795ZM166.476 215.417L166.363 217.029L165.826 216.435L165.911 215.559L166.307 215.219L166.476 215.417ZM165.996 214.654L166.052 213.891L166.674 213.325L166.533 214.795L166.307 214.993L165.996 214.654ZM165.939 214.824L166.193 215.106L165.911 215.389H164.695L164.441 215.106L164.752 214.824H165.939ZM167.692 215.559L167.607 216.435L166.985 217.029L167.126 215.417L167.352 215.219L167.692 215.559ZM167.183 214.795L167.324 213.212L167.833 213.778L167.748 214.654L167.381 214.993L167.183 214.795ZM169.529 215.417L169.388 217.029L168.879 216.435L168.964 215.559L169.331 215.219L169.529 215.417ZM169.048 214.654L169.105 213.778L169.727 213.212L169.586 214.795L169.359 214.993L169.048 214.654ZM167.465 213.212H168.314L168.964 213.976L168.935 214.4H168.54L167.465 213.212ZM170.716 217L170.462 216.718L170.773 216.435H171.932L172.441 217H170.716ZM172.78 213.212L172.158 213.778H170.999L170.745 213.495L171.055 213.212H172.78ZM170.801 214.654L170.434 214.993L170.236 214.795L170.321 213.891L170.631 213.608L170.886 213.891L170.801 214.654ZM170.094 216.35L170.349 216.633L170.66 216.35L170.716 215.559L170.405 215.219L170.179 215.417L170.094 216.35ZM175.833 213.212L175.211 213.778H174.052L173.515 213.212H175.833ZM175.494 217H173.204L173.797 216.435H174.985L175.494 217ZM173.769 215.559L173.713 216.35L173.091 216.915L173.204 215.417L173.458 215.219L173.769 215.559ZM173.289 214.795L173.402 213.325L173.911 213.891L173.854 214.654L173.458 214.993L173.289 214.795ZM175.098 214.824L175.352 215.106L175.041 215.389H173.826L173.571 215.106L173.882 214.824H175.098Z" fill="black"/>
<path d="M183.437 194.895L182.73 203.517L179.734 200.209L180.13 195.743L182.363 193.679L183.437 194.895ZM180.582 190.344L180.978 185.878L184.539 182.57L183.804 191.164L182.448 192.436L180.582 190.344ZM203.281 181.948L199.691 185.256H193.472L190.447 181.948H203.281ZM201.33 204.139H188.525L192.115 200.831H198.334L201.33 204.139ZM189.034 191.164L189.769 182.57L192.765 185.878L192.398 190.344L190.136 192.436L189.034 191.164ZM202.716 194.895L202.009 203.517L198.984 200.209L199.38 195.743L201.613 193.679L202.716 194.895ZM199.861 190.344L200.228 185.849L203.818 182.599L203.083 191.164L201.698 192.436L199.861 190.344ZM199.578 191.418L201.076 193.058L199.267 194.725H192.228L190.73 193.058L192.511 191.418H199.578ZM221.005 181.948L217.415 185.256H211.196L208.2 181.948H221.005ZM219.083 204.139H206.249L209.839 200.831H216.058L219.083 204.139ZM209.641 195.743L209.274 200.209L205.684 203.545L206.39 194.895L207.775 193.679L209.641 195.743ZM206.758 191.164L207.493 182.57L210.489 185.878L210.122 190.344L207.86 192.436L206.758 191.164ZM220.439 194.895L219.733 203.517L216.736 200.209L217.132 195.743L219.337 193.679L220.439 194.895ZM217.584 190.344L217.98 185.849L221.542 182.599L220.807 191.164L219.45 192.436L217.584 190.344ZM217.302 191.418L218.828 193.058L217.019 194.725H209.98L208.482 193.058L210.263 191.418H217.302Z" fill="black"/>
<path d="M223.181 201.934L223.068 203.093L222.249 203.856L222.446 201.736L222.757 201.453L223.181 201.934ZM222.503 200.888L222.701 198.768L223.379 199.531L223.294 200.69L222.757 201.17L222.503 200.888ZM225.641 201.736L225.471 203.856L224.793 203.093L224.877 201.934L225.386 201.453L225.641 201.736ZM224.934 200.944L225.273 201.312L224.849 201.679H223.238L222.899 201.312L223.323 200.944H224.934ZM225.075 198.768H225.612L225.556 199.305L224.001 200.746H223.464L223.521 200.181L225.075 198.768ZM229.824 198.768L229.005 199.531H227.591L226.913 198.768H229.824ZM227.252 201.934L227.139 203.093L226.319 203.856L226.517 201.736L226.828 201.453L227.252 201.934ZM226.574 200.888L226.743 198.909L227.422 199.672L227.337 200.69L226.828 201.17L226.574 200.888ZM229.711 201.736L229.542 203.856L228.835 203.093L228.948 201.934L229.457 201.453L229.711 201.736ZM229.061 200.69L229.146 199.672L229.966 198.909L229.796 200.888L229.485 201.17L229.061 200.69ZM227.902 200.068L228.326 199.7L228.665 200.068L228.524 201.566L228.128 201.962L227.761 201.566L227.902 200.068ZM232.029 201.708L230.39 204.139L230.22 203.121L231.322 201.481L231.973 201.312L232.029 201.708ZM232.001 200.407L233.132 198.768L234.178 198.485L232.538 200.944L232.142 201.057L232.001 200.407ZM235.223 201.934L235.11 203.093L234.291 203.856L234.46 201.736L234.771 201.453L235.223 201.934ZM234.545 200.888L234.743 198.768L235.421 199.531L235.308 200.69L234.799 201.17L234.545 200.888ZM237.683 201.736L237.513 203.856L236.806 203.093L236.92 201.934L237.428 201.453L237.683 201.736ZM237.033 200.69L237.117 199.531L237.937 198.768L237.768 200.888L237.457 201.17L237.033 200.69ZM236.948 200.944L237.315 201.312L236.891 201.679H235.28L234.941 201.312L235.337 200.944H236.948Z" fill="black"/>
<path d="M211.026 144.607C211.026 144.465 211.139 144.324 211.309 144.324C211.45 144.324 211.592 144.465 211.592 144.607V175.616C211.592 175.758 211.45 175.899 211.309 175.899C211.139 175.899 211.026 175.758 211.026 175.616V144.607Z" fill="black"/>
<path d="M256.396 175.419C256.566 175.419 256.679 175.56 256.679 175.701C256.679 175.871 256.566 175.984 256.396 175.984H147.226C147.056 175.984 146.943 175.871 146.943 175.701C146.943 175.56 147.056 175.419 147.226 175.419H256.396Z" fill="black"/>
<g filter="url(#filter0_b_104_231)">
<path fill-rule="evenodd" clip-rule="evenodd" d="M152.76 94H248.361C250.425 94 252.093 95.6961 252.093 97.7596V232.314C252.093 234.378 250.425 236.074 248.361 236.074H152.76C150.696 236.074 149 234.378 149 232.314V97.7596C149 95.6961 150.696 94 152.76 94Z" fill="#E0DFDF"/>
</g>
<path d="M487.663 283.912C494.128 319.897 496.201 361.615 494.25 393.9C491.2 444.604 480.181 489.29 467.739 510.393C465.462 514.256 460.46 515.516 456.598 513.239C452.776 510.962 451.474 505.961 453.751 502.098C465.055 482.947 475.139 441.148 478.067 392.965C479.612 367.064 478.473 334.82 474.488 304.771C480.262 299.079 484.816 291.963 487.663 283.912Z" fill="#333333"/>
<path d="M310.422 404.756C308.389 399.714 321.563 397.478 323.23 400.609L363.403 525.6C364.542 529.138 362.59 532.919 359.052 534.058C355.515 535.196 351.693 533.245 350.595 529.707L310.422 404.756Z" fill="#E6E6E6"/>
<path d="M319.408 413.783C318.88 412.523 319.652 411.099 320.791 410.815C322.132 410.49 323.108 411.181 323.637 412.319L362.753 533.488C363.119 534.668 362.468 535.887 361.329 536.253C360.15 536.66 358.89 536.009 358.524 534.83L319.408 413.783Z" fill="white"/>
<path fill-rule="evenodd" clip-rule="evenodd" d="M273.38 411.303L282.813 410.286C283.301 410.205 283.748 410.571 283.83 411.059L284.358 415.897C284.44 416.67 283.911 417.321 283.179 417.402L275.535 418.256C274.803 418.337 274.112 417.808 274.03 417.077L273.38 411.303Z" fill="black"/>
<path d="M313.146 400.69C318.603 400.69 323.027 396.267 323.027 390.81C323.027 385.353 318.603 380.929 313.146 380.929C307.689 380.929 303.266 385.353 303.266 390.81C303.266 396.267 307.689 400.69 313.146 400.69Z" fill="black"/>
<path fill-rule="evenodd" clip-rule="evenodd" d="M328.557 364.258C338.234 363.201 348.846 360.517 356.043 363.242C364.216 366.372 369.177 374.383 363.403 375.765L324.735 384.792C316.074 386.825 308.226 387.516 304.77 387.028L268.826 381.783C259.393 380.441 268.135 368.975 271.916 365.112C277.283 359.623 317.904 365.397 328.557 364.258Z" fill="#333333"/>
<path fill-rule="evenodd" clip-rule="evenodd" d="M267.118 413.458L341.487 405.041C341.934 405 342.3 404.756 342.504 404.35C342.748 403.943 342.748 403.536 342.544 403.13L339.983 397.722C339.332 396.38 338.478 395.16 337.014 395.323L269.273 402.764C267.81 402.927 267.2 404.268 266.915 405.732L265.655 411.831C265.573 412.279 265.695 412.685 265.98 413.01C266.305 413.336 266.712 413.498 267.118 413.458Z" fill="#333333"/>
<path fill-rule="evenodd" clip-rule="evenodd" d="M269.964 367.308C306.315 374.139 313.593 376.782 362.264 367.023C360.801 365.559 357.995 364.014 356.043 363.242C348.846 360.517 338.234 363.201 328.557 364.258C317.903 365.397 277.283 359.623 271.916 365.112C271.347 365.681 270.656 366.454 269.964 367.308Z" fill="#666666"/>
<path fill-rule="evenodd" clip-rule="evenodd" d="M347.911 467.089L353.807 465.26C354.58 465.016 355.393 465.504 355.637 466.276L358.32 475.587C358.524 476.36 358.036 477.173 357.263 477.417L351.408 479.247C350.595 479.491 349.782 479.003 349.538 478.19L346.895 468.919C346.651 468.147 347.139 467.333 347.911 467.089Z" fill="black"/>
<path fill-rule="evenodd" clip-rule="evenodd" d="M356.206 462.861L360.801 461.397C362.102 460.95 363.485 461.803 363.891 463.145L366.941 473.88C367.347 475.221 366.534 476.563 365.233 476.97L360.638 478.434C359.297 478.881 357.914 478.027 357.548 476.726L354.458 465.951C354.092 464.609 354.865 463.267 356.206 462.861Z" fill="#333333"/>
<path d="M489.085 364.949C488.923 411.181 482.702 470.017 462.412 507.465C461.558 508.929 459.403 509.092 457.939 508.238C456.516 507.384 456.028 505.514 456.882 504.091C476.847 466.764 483.962 411.099 482.946 364.258C482.864 360.436 488.72 359.745 489.085 364.949Z" fill="#666666"/>
<path fill-rule="evenodd" clip-rule="evenodd" d="M363.363 488.721C395.281 500.025 436.715 530.683 458.671 553.534C463.144 558.17 461.192 566.342 458.224 575.938C457.004 579.842 455.907 583.745 454.89 587.486C453.752 591.837 451.962 594.032 456.842 596.106C462.006 598.302 470.504 599.969 469.935 608.996C469.528 615.786 467.21 618.835 460.379 618.835C454.443 618.835 448.832 619.527 437.325 617.25C347.911 607.572 306.153 608.955 253.578 616.071C248.862 616.68 244.348 617.046 239.672 617.738C225.238 619.852 221.009 606.678 227.352 598.464C229.629 595.496 232.801 594.561 235.606 593.3C238.168 592.162 240.974 587.283 239.998 581.549C239.957 581.102 239.957 580.899 240.079 580.818C237.639 544.792 248.577 506.774 272.811 475.425C280.211 465.869 288.059 467.659 299.769 470.342C305.299 471.603 311.154 473.107 313.472 472.335C315.545 471.603 324.816 468.919 336.73 465.991C346.285 463.633 349.009 462.251 351.49 470.586C352.587 474.286 353.645 478.108 354.783 481.483C357.101 488.192 356.694 486.322 363.363 488.721Z" fill="#666666"/>
<path fill-rule="evenodd" clip-rule="evenodd" d="M451.556 557.682C455.54 561.585 453.792 568.985 451.149 577.321C447.489 589.072 444.928 605.417 441.512 617.697C352.099 607.857 309.649 608.752 258.579 615.379C247.56 575.207 254.107 520.558 280.536 487.42C287.245 479.003 289.034 479.857 297.654 481.727C356.775 494.657 408.577 515.679 451.556 557.682ZM315.952 476.929C324.003 474.042 328.679 472.579 337.299 470.383C345.431 468.309 345.959 468.106 348.196 476.604C348.602 478.108 350.554 484.94 351.937 488.762C352.099 489.209 351.977 489.697 351.652 490.022C351.286 490.388 350.798 490.469 350.351 490.307C338.681 485.997 328.109 482.541 316.074 479.288C315.545 479.125 315.179 478.678 315.179 478.149C315.138 477.621 315.464 477.133 315.952 476.929Z" fill="#4D4D4D"/>
<path fill-rule="evenodd" clip-rule="evenodd" d="M455.5 494.942L473.106 503.44C474.61 504.131 475.464 505.92 474.692 507.384L453.304 548.736C451.596 552.03 426.874 540.076 431.632 531.659L451.556 496.528C452.369 495.105 454.036 494.251 455.5 494.942Z" fill="#333333"/>
<path d="M466.438 500.228L441.756 546.215C438.707 544.426 435.698 542.312 433.543 540.116L457.289 495.837L466.438 500.228Z" fill="#666666"/>
<path fill-rule="evenodd" clip-rule="evenodd" d="M474.244 508.319C467.088 505.148 456.841 500.797 451.312 497.26L451.555 496.528C452.125 494.983 454.036 494.251 455.5 494.942L473.106 503.44C474.61 504.131 475.423 505.88 474.691 507.384L474.244 508.319Z" fill="#808080"/>
<path fill-rule="evenodd" clip-rule="evenodd" d="M263.499 488.843C317.212 502.627 365.802 522.917 405.446 543.491C407.439 544.508 408.496 546.622 407.764 548.736L393.207 589.275C392.435 591.389 390.076 592.284 387.921 591.593L242.152 544.223C245.568 525.072 252.683 506.205 263.499 488.843Z" fill="#E6E6E6"/>
<path fill-rule="evenodd" clip-rule="evenodd" d="M266.874 578.744H308.552C309.446 578.744 309.975 579.476 309.731 580.33L308.348 585.982C308.104 586.876 307.21 587.567 306.356 587.567H264.679C263.784 587.567 263.256 586.876 263.459 585.982L264.882 580.33C265.085 579.476 266.021 578.744 266.874 578.744Z" fill="#F7F743"/>
<path fill-rule="evenodd" clip-rule="evenodd" d="M276.796 492.421C325.263 506.002 369.096 524.624 405.447 543.491C407.439 544.507 408.496 546.622 407.764 548.736L393.208 589.275C392.435 591.389 390.077 592.284 387.922 591.593L255.571 548.573C258.783 528.04 265.777 508.238 276.796 492.421Z" fill="#B3B3B3"/>
<path fill-rule="evenodd" clip-rule="evenodd" d="M381.375 534.79C389.71 534.79 396.419 541.539 396.419 549.834C396.419 558.129 389.71 564.879 381.375 564.879C373.08 564.879 366.371 558.129 366.371 549.834C366.371 541.539 373.08 534.79 381.375 534.79Z" fill="#333333"/>
<path d="M385.441 548.167C385.441 550.403 383.612 552.233 381.375 552.233C379.098 552.233 377.309 550.403 377.309 548.167V506.53C377.309 504.294 379.098 502.464 381.375 502.464C383.612 502.464 385.441 504.294 385.441 506.53V548.167Z" fill="#B3B3B3"/>
<path fill-rule="evenodd" clip-rule="evenodd" d="M394.956 510.515L366.778 511.288C357.019 511.532 356.206 500.513 365.68 500.228L394.997 499.293C404.511 499.008 404.958 510.23 394.956 510.515Z" fill="black"/>
<path fill-rule="evenodd" clip-rule="evenodd" d="M383.042 481.565C383.734 481.727 398.778 471.359 397.599 484.817C396.745 494.129 394.062 498.723 392.72 502.505C380.684 509.499 384.75 484.736 383.042 481.565Z" fill="black"/>
<path d="M381.375 543.288C384.994 543.288 387.962 546.215 387.962 549.834C387.962 553.453 384.994 556.421 381.375 556.421C377.756 556.421 374.829 553.453 374.829 549.834C374.829 546.215 377.756 543.288 381.375 543.288Z" fill="#F7F743"/>
<path fill-rule="evenodd" clip-rule="evenodd" d="M397.68 504.66L364.582 505.473C362.387 505.514 360.557 505.148 359.134 504.497C359.662 502.261 361.777 500.35 365.68 500.228L394.997 499.293C399.266 499.171 401.746 501.366 402.194 503.847C400.974 504.335 399.469 504.619 397.68 504.66Z" fill="#333333"/>
<path fill-rule="evenodd" clip-rule="evenodd" d="M382.31 510.84C383.449 499.333 388.166 479.816 396.338 478.922C390.321 474.571 381.416 474.693 377.106 484.045C373.487 491.933 373.609 504.375 373.568 511.125L382.31 510.84Z" fill="#F7F743"/>
<path d="M229.222 609.362C231.824 598.18 247.113 601.311 244.226 613.672L239.265 637.499C238.005 642.378 233.044 645.306 228.165 644.045C223.286 642.825 218.813 638.231 220.073 633.351L229.222 609.362Z" fill="black"/>
<path d="M228.734 624.813L234.468 602.896C236.257 602.287 238.208 602.368 239.916 603.059L233.817 626.154L228.734 624.813Z" fill="#4D4D4D"/>
<path fill-rule="evenodd" clip-rule="evenodd" d="M232.028 617.697C236.297 617.738 239.876 619.771 242.031 622.942C243.25 624.691 243.372 626.276 243.372 628.513C243.372 629.814 242.193 637.418 241.339 639.085C240.079 641.524 218.976 641.768 218.122 634.815C217.837 632.376 221.294 623.999 223.083 621.966C225.4 619.323 228.084 617.616 232.028 617.697Z" fill="#666666"/>
<path d="M237.314 618.876L234.061 630.261L226.254 628.025L229.141 617.982C230.035 617.778 230.971 617.656 232.028 617.697C233.979 617.697 235.769 618.144 237.314 618.876Z" fill="#808080"/>
<path fill-rule="evenodd" clip-rule="evenodd" d="M230.117 624.162C236.785 624.162 242.193 629.285 242.193 635.628C242.193 641.931 236.785 647.054 230.117 647.054C223.449 647.054 218 641.931 218 635.628C218 629.285 223.449 624.162 230.117 624.162Z" fill="#333333"/>
<path d="M464.486 609.931C461.843 598.708 446.595 601.88 449.482 614.241L454.443 638.027C455.703 642.907 460.664 645.875 465.502 644.614C470.382 643.354 474.895 638.8 473.635 633.921L464.486 609.931Z" fill="black"/>
<path d="M464.974 625.382L459.2 603.466C457.411 602.815 455.5 602.896 453.792 603.628L459.891 626.724L464.974 625.382Z" fill="#4D4D4D"/>
<path fill-rule="evenodd" clip-rule="evenodd" d="M461.64 618.225C457.37 618.266 453.792 620.34 451.637 623.471C450.458 625.26 450.336 626.846 450.336 629.041C450.336 630.383 451.474 637.946 452.369 639.654C453.589 642.093 474.692 642.297 475.586 635.384C475.871 632.945 472.415 624.528 470.626 622.495C468.308 619.852 465.584 618.185 461.64 618.225Z" fill="#666666"/>
<path d="M456.354 619.445L459.607 630.83L467.414 628.594L464.567 618.551C463.673 618.348 462.697 618.226 461.64 618.226C459.729 618.266 457.94 618.673 456.354 619.445Z" fill="#808080"/>
<path fill-rule="evenodd" clip-rule="evenodd" d="M463.592 624.731C456.923 624.731 451.475 629.854 451.475 636.197C451.475 642.5 456.923 647.623 463.592 647.623C470.26 647.623 475.668 642.5 475.668 636.197C475.668 629.854 470.26 624.731 463.592 624.731Z" fill="#333333"/>
<path d="M455.012 365.844C454.036 364.38 453.345 362.144 452.898 359.745C451.434 352.385 452.003 349.336 453.63 342.301C460.217 313.879 468.145 281.798 463.022 273.991L433.421 231.541C431.673 228.858 432.405 225.239 435.088 223.45C437.772 221.701 441.391 222.433 443.139 225.117L472.74 267.607C480.669 279.602 472.09 314.367 465.015 344.904L463.835 350.068C463.754 350.312 463.713 350.596 463.713 350.84C461.924 341.773 476.481 385.442 455.012 365.844Z" fill="black"/>
<path fill-rule="evenodd" clip-rule="evenodd" d="M464.486 284.36C465.259 284.441 465.868 285.132 465.787 285.945L465.096 294.85C465.015 295.663 464.323 296.233 463.51 296.192C462.738 296.111 462.128 295.419 462.209 294.606L462.9 285.701C462.982 284.888 463.673 284.319 464.486 284.36Z" fill="#F7F743"/>
<path fill-rule="evenodd" clip-rule="evenodd" d="M462.697 299.933C463.51 300.014 464.079 300.746 463.998 301.518L463.022 310.423C462.941 311.196 462.25 311.765 461.436 311.684C460.664 311.602 460.054 310.911 460.135 310.098L461.111 301.193C461.192 300.421 461.924 299.851 462.697 299.933Z" fill="#666666"/>
<path fill-rule="evenodd" clip-rule="evenodd" d="M434.437 337.747L499.576 256.67C500.389 255.694 501.853 255.531 502.829 256.304L511.774 263.501C512.75 264.273 512.913 265.737 512.099 266.713L446.961 347.831C446.188 348.807 444.725 348.97 443.749 348.156L434.803 341C433.827 340.187 433.665 338.764 434.437 337.747Z" fill="black"/>
<path fill-rule="evenodd" clip-rule="evenodd" d="M507.464 260.044L439.439 344.7L434.803 341C433.827 340.187 433.665 338.764 434.437 337.747L499.576 256.67C500.389 255.694 501.853 255.531 502.829 256.304L507.464 260.044Z" fill="#666666"/>
<path fill-rule="evenodd" clip-rule="evenodd" d="M455.378 311.724C455.825 311.846 456.232 312.09 456.597 312.375L461.965 316.685L439.439 344.7L434.803 341C433.827 340.187 433.665 338.764 434.437 337.747L455.378 311.724Z" fill="#F7F743"/>
<path fill-rule="evenodd" clip-rule="evenodd" d="M498.234 271.47L492.785 267.079C492.46 266.835 492.175 266.509 491.972 266.184L499.576 256.67C500.389 255.694 501.853 255.531 502.829 256.304L507.464 260.044L498.234 271.47Z" fill="#F7F743"/>
<path fill-rule="evenodd" clip-rule="evenodd" d="M466.316 347.018C470.463 347.221 475.505 345.92 477.172 348.766C482.702 358.362 480.872 377.717 473.431 378.123C455.662 379.099 449.889 371.496 449.563 363.73C449.197 355.109 456.028 346.53 466.316 347.018Z" fill="#333333"/>
<path fill-rule="evenodd" clip-rule="evenodd" d="M450.458 357.671C457.655 364.909 479.693 360.599 480.262 357.142C481.563 367.389 481.889 378.164 476.806 378.449C454.646 379.587 449.889 371.496 449.563 363.73C449.441 361.656 449.807 359.582 450.458 357.671Z" fill="black"/>
<path d="M467.536 357.996C470.626 354.5 472.659 351.572 473.635 346.733C476.359 333.315 475.586 317.742 477.863 304.202C481.238 284.807 482.824 268.095 479.693 262.809L449.97 217.839C448.303 215.074 449.198 211.455 451.962 209.828C454.727 208.161 458.306 209.096 459.973 211.861L489.696 256.832C491.729 260.288 493.03 265.737 492.786 272.527C492.176 288.466 487.541 330.916 485.142 346.977C483.759 356.167 481.604 360.111 475.139 367.308C471.276 371.577 467.292 371.374 465.177 369.991C462.453 368.121 462.697 363.526 467.536 357.996Z" fill="#666666"/>
<path fill-rule="evenodd" clip-rule="evenodd" d="M481.198 281.025C482.011 281.107 482.58 281.798 482.54 282.611L481.808 291.516C481.767 292.289 481.035 292.898 480.263 292.858C479.449 292.776 478.84 292.085 478.921 291.272L479.653 282.367C479.693 281.554 480.385 280.985 481.198 281.025Z" fill="#F7F743"/>
<path fill-rule="evenodd" clip-rule="evenodd" d="M479.409 296.599C480.222 296.68 480.791 297.371 480.71 298.184L479.775 307.089C479.693 307.862 478.961 308.431 478.189 308.35C477.376 308.268 476.806 307.577 476.888 306.764L477.823 297.859C477.904 297.087 478.636 296.517 479.409 296.599Z" fill="#F7F743"/>
<path d="M482.255 346.205C482.174 347.343 481.198 348.156 480.059 348.075C478.961 347.953 478.148 346.977 478.23 345.879L484.817 268.624C484.898 267.445 484.857 266.347 484.613 265.33C484.369 264.314 483.922 263.297 483.312 262.362L453.386 216.212C452.776 215.277 453.06 214.016 453.996 213.406C454.931 212.797 456.191 213.081 456.801 214.016L486.728 260.166C487.622 261.508 488.191 262.931 488.557 264.395C488.883 265.859 489.005 267.363 488.842 268.949L482.255 346.205Z" fill="#808080"/>
<path d="M466.681 297.615L468.389 281.025C468.511 279.846 468.43 278.748 468.186 277.732C467.942 276.675 467.535 275.699 466.925 274.764L436.999 228.614C436.389 227.679 436.633 226.418 437.568 225.808C438.504 225.198 439.764 225.483 440.374 226.418L470.3 272.568C471.195 273.91 471.805 275.333 472.13 276.797C472.496 278.261 472.577 279.765 472.415 281.351L471.642 291.475L466.681 297.615Z" fill="#4D4D4D"/>
<defs>
<filter id="filter0_b_104_231" x="142" y="87" width="117.092" height="156.074" filterUnits="userSpaceOnUse" color-interpolation-filters="sRGB">
<feFlood flood-opacity="0" result="BackgroundImageFix"/>
<feGaussianBlur in="BackgroundImageFix" stdDeviation="3.5"/>
<feComposite in2="SourceAlpha" operator="in" result="effect1_backgroundBlur_104_231"/>
<feBlend mode="normal" in="SourceGraphic" in2="effect1_backgroundBlur_104_231" result="shape"/>
</filter>
</defs>
</svg>
