<svg width="1196" height="498" viewBox="0 0 1196 498" fill="none" xmlns="http://www.w3.org/2000/svg">
<rect width="1196" height="498" rx="10" fill="#B3B3B3"/>
<path d="M835.332 277.542C835.332 266.14 844.598 256.874 856 256.874C867.402 256.874 876.669 266.14 876.669 277.542V431.248C876.669 442.684 867.402 451.916 856 451.916C844.598 451.916 835.332 442.684 835.332 431.248V277.542Z" fill="#1A1A1A"/>
<path d="M861.477 401.657C853.899 401.657 847.767 395.525 847.767 387.947C847.767 380.368 853.899 374.237 861.477 374.237L968.437 374.512C976.464 374.512 986.04 374.512 992.206 371.378C996.891 369.001 1000.3 363.558 1000.23 351.777L999.716 234.31C999.716 230.969 999.888 227.559 1000.06 223.666C1000.71 209.405 1001.68 188.047 994.893 170.341L965.613 93.8328C962.891 86.7021 966.474 78.7792 973.57 76.0578C980.666 73.3709 988.624 76.919 991.345 84.0152L1020.63 160.523C1029.38 183.431 1028.24 208.268 1027.51 224.837C1027.34 228.695 1027.17 232.037 1027.17 234.207L1027.69 351.674C1027.82 376.338 1017.97 389.153 1004.61 395.939C992.723 401.967 979.46 401.967 968.437 401.967L861.477 401.657Z" fill="#333333"/>
<path d="M870.674 393.08C867.849 393.08 865.542 390.772 865.542 387.947C865.542 385.088 867.849 382.814 870.674 382.814L968.437 383.09C977.393 383.124 988.141 383.09 996.098 379.059C1003.47 375.305 1008.91 367.554 1008.84 351.742L1008.33 234.276C1008.29 231.313 1008.46 227.903 1008.64 224.045C1009.33 209.026 1010.32 186.6 1002.92 167.275L973.638 90.767C972.639 88.0801 973.983 85.1176 976.635 84.0841C979.288 83.0851 982.285 84.4286 983.284 87.0811L1012.56 163.589C1020.73 184.878 1019.66 208.612 1018.94 224.493C1018.73 228.351 1018.59 231.727 1018.59 234.241L1019.11 351.708C1019.21 372.342 1011.39 382.849 1000.71 388.257C990.655 393.39 978.53 393.39 968.437 393.39L870.674 393.08Z" fill="#4D4D4D"/>
<path fill-rule="evenodd" clip-rule="evenodd" d="M973.673 75.9889C980.838 73.3364 988.52 76.23 990.725 82.155C992.895 88.1145 988.899 95.0729 981.734 97.7254C974.603 100.378 967.025 97.6909 964.82 91.7315C962.616 85.8065 966.543 78.6414 973.673 75.9889Z" fill="#666666"/>
<path fill-rule="evenodd" clip-rule="evenodd" d="M1008.78 200.689H1019.59C1021.73 200.689 1023.48 202.446 1023.48 204.617V222.736C1023.48 224.872 1021.73 226.629 1019.59 226.629H1008.78C1006.64 226.629 1004.88 224.872 1004.88 222.736V204.617C1004.88 202.446 1006.64 200.689 1008.78 200.689Z" fill="#B5B510"/>
<path fill-rule="evenodd" clip-rule="evenodd" d="M1010.12 203.204H1018.11C1019.7 203.204 1020.97 204.513 1020.97 206.098V221.255C1020.97 222.839 1019.7 224.148 1018.11 224.148H1010.12C1008.53 224.148 1007.23 222.839 1007.23 221.255V206.098C1007.23 204.513 1008.53 203.204 1010.12 203.204Z" fill="#F7F743"/>
<path fill-rule="evenodd" clip-rule="evenodd" d="M1008.78 234.173H1019.59C1021.73 234.173 1023.48 235.929 1023.48 238.065V256.219C1023.48 258.355 1021.73 260.112 1019.59 260.112H1008.78C1006.64 260.112 1004.88 258.355 1004.88 256.219V238.065C1004.88 235.929 1006.64 234.173 1008.78 234.173Z" fill="#B5B510"/>
<path fill-rule="evenodd" clip-rule="evenodd" d="M1010.12 236.687H1018.11C1019.7 236.687 1020.97 237.996 1020.97 239.581V254.738C1020.97 256.322 1019.7 257.631 1018.11 257.631H1010.12C1008.53 257.631 1007.23 256.322 1007.23 254.738V239.581C1007.23 237.996 1008.53 236.687 1010.12 236.687Z" fill="#F7F743"/>
<path d="M850.523 374.237C858.101 374.237 864.233 380.368 864.233 387.947C864.233 395.525 858.101 401.657 850.523 401.657L743.563 401.967C732.54 401.967 719.277 401.967 707.393 395.939C694.027 389.153 684.175 376.338 684.313 351.674L684.83 234.207C684.83 232.037 684.657 228.695 684.485 224.837C683.762 208.268 682.625 183.431 691.375 160.523L720.655 84.0152C723.377 76.919 731.334 73.3709 738.43 76.0578C745.526 78.7792 749.109 86.7022 746.388 93.8328L717.107 170.341C710.321 188.047 711.285 209.405 711.94 223.666C712.112 227.559 712.284 230.969 712.284 234.31L711.768 351.777C711.699 363.558 715.109 369.001 719.794 371.378C725.96 374.512 735.537 374.512 743.563 374.512L850.523 374.237Z" fill="#333333"/>
<path d="M841.325 382.814C844.15 382.814 846.458 385.088 846.458 387.947C846.458 390.772 844.15 393.08 841.325 393.08L743.563 393.39C733.47 393.39 721.344 393.39 711.285 388.257C700.607 382.849 692.787 372.342 692.89 351.708L693.407 234.242C693.407 231.727 693.269 228.351 693.063 224.493C692.339 208.612 691.271 184.878 699.435 163.589L728.716 87.0811C729.715 84.4286 732.712 83.0852 735.364 84.0842C738.017 85.1176 739.36 88.0801 738.361 90.767L709.081 167.275C701.674 186.6 702.673 209.026 703.362 224.045C703.535 227.903 703.707 231.313 703.672 234.276L703.156 351.742C703.087 367.554 708.53 375.305 715.901 379.059C723.859 383.09 734.606 383.124 743.563 383.09L841.325 382.814Z" fill="#4D4D4D"/>
<path fill-rule="evenodd" clip-rule="evenodd" d="M738.327 75.9889C731.161 73.3365 723.48 76.2301 721.275 82.1551C719.105 88.1145 723.101 95.0729 730.266 97.7254C737.396 100.378 744.975 97.691 747.18 91.7315C749.384 85.8065 745.457 78.6414 738.327 75.9889Z" fill="#666666"/>
<path fill-rule="evenodd" clip-rule="evenodd" d="M703.225 200.69H692.408C690.272 200.69 688.516 202.446 688.516 204.617V222.736C688.516 224.872 690.272 226.629 692.408 226.629H703.225C705.361 226.629 707.117 224.872 707.117 222.736V204.617C707.117 202.446 705.361 200.69 703.225 200.69Z" fill="#B5B510"/>
<path fill-rule="evenodd" clip-rule="evenodd" d="M701.881 203.204H693.889C692.305 203.204 691.03 204.513 691.03 206.098V221.255C691.03 222.839 692.305 224.148 693.889 224.148H701.881C703.466 224.148 704.775 222.839 704.775 221.255V206.098C704.775 204.513 703.466 203.204 701.881 203.204Z" fill="#F7F743"/>
<path fill-rule="evenodd" clip-rule="evenodd" d="M703.225 234.173H692.408C690.272 234.173 688.516 235.929 688.516 238.065V256.219C688.516 258.355 690.272 260.112 692.408 260.112H703.225C705.361 260.112 707.117 258.355 707.117 256.219V238.065C707.117 235.929 705.361 234.173 703.225 234.173Z" fill="#B5B510"/>
<path fill-rule="evenodd" clip-rule="evenodd" d="M701.881 236.687H693.889C692.305 236.687 691.03 237.996 691.03 239.581V254.738C691.03 256.322 692.305 257.631 693.889 257.631H701.881C703.466 257.631 704.775 256.322 704.775 254.738V239.581C704.775 237.996 703.466 236.687 701.881 236.687Z" fill="#F7F743"/>
<path fill-rule="evenodd" clip-rule="evenodd" d="M856 357.702C873.569 357.702 887.795 371.929 887.795 389.463C887.795 407.031 873.569 421.258 856 421.258C838.432 421.258 824.205 407.031 824.205 389.463C824.205 371.929 838.432 357.702 856 357.702Z" fill="#333333"/>
<path fill-rule="evenodd" clip-rule="evenodd" d="M856 371.102C866.128 371.102 874.361 379.335 874.361 389.463C874.361 399.625 866.128 407.858 856 407.858C845.838 407.858 837.64 399.625 837.64 389.463C837.64 379.335 845.838 371.102 856 371.102Z" fill="#4D4D4D"/>
<path fill-rule="evenodd" clip-rule="evenodd" d="M798.369 148.122H914.836C925.894 148.122 934.954 157.182 934.954 168.24V332.211C934.954 343.268 925.894 352.328 914.836 352.328H798.369C787.311 352.328 778.251 343.268 778.251 332.211V168.24C778.251 157.182 787.311 148.122 798.369 148.122Z" fill="#F7F743"/>
<path fill-rule="evenodd" clip-rule="evenodd" d="M798.369 153.289H914.836C923.069 153.289 929.787 160.041 929.787 168.24V332.211C929.787 340.409 923.069 347.161 914.836 347.161H798.369C790.136 347.161 783.418 340.409 783.418 332.211V168.24C783.418 160.041 790.136 153.289 798.369 153.289Z" fill="black"/>
<path fill-rule="evenodd" clip-rule="evenodd" d="M798.369 163.658H914.871C917.385 163.658 919.418 165.725 919.418 168.24V332.211C919.418 334.725 917.385 336.792 914.871 336.792H798.369C795.854 336.792 793.787 334.725 793.787 332.211V168.24C793.787 165.725 795.854 163.658 798.369 163.658Z" fill="#E6E6E6"/>
<path fill-rule="evenodd" clip-rule="evenodd" d="M798.369 163.658H914.871C917.385 163.658 919.418 165.725 919.418 168.24V225.63H793.787V168.24C793.787 165.725 795.854 163.658 798.369 163.658Z" fill="#666666"/>
<path fill-rule="evenodd" clip-rule="evenodd" d="M800.366 211.299H808.496V219.463H800.366V211.299Z" fill="#F7F743"/>
<path fill-rule="evenodd" clip-rule="evenodd" d="M810.562 211.299H818.692V219.463H810.562V211.299Z" fill="#F7F743"/>
<path fill-rule="evenodd" clip-rule="evenodd" d="M820.725 211.299H828.854V219.463H820.725V211.299Z" fill="#F7F743"/>
<path fill-rule="evenodd" clip-rule="evenodd" d="M830.921 211.299H839.051V219.463H830.921V211.299Z" fill="#F7F743"/>
<path fill-rule="evenodd" clip-rule="evenodd" d="M841.083 211.299H849.248V219.463H841.083V211.299Z" fill="#F7F743"/>
<path fill-rule="evenodd" clip-rule="evenodd" d="M851.28 211.299H859.409V219.463H851.28V211.299Z" fill="#F7F743"/>
<path fill-rule="evenodd" clip-rule="evenodd" d="M861.442 211.299H869.606V219.463H861.442V211.299Z" fill="#F7F743"/>
<path fill-rule="evenodd" clip-rule="evenodd" d="M871.638 211.299H879.768V219.463H871.638V211.299Z" fill="#F7F743"/>
<path fill-rule="evenodd" clip-rule="evenodd" d="M881.8 211.299H889.964V219.463H881.8V211.299Z" fill="#F7F743"/>
<path fill-rule="evenodd" clip-rule="evenodd" d="M891.997 211.299H900.127V219.463H891.997V211.299Z" fill="#F7F743"/>
<path fill-rule="evenodd" clip-rule="evenodd" d="M800.366 201.137H808.496V209.267H800.366V201.137Z" fill="#F7F743"/>
<path fill-rule="evenodd" clip-rule="evenodd" d="M810.562 201.137H818.692V209.267H810.562V201.137Z" fill="#F7F743"/>
<path fill-rule="evenodd" clip-rule="evenodd" d="M820.725 201.137H828.854V209.267H820.725V201.137Z" fill="#F7F743"/>
<path fill-rule="evenodd" clip-rule="evenodd" d="M830.921 201.137H839.051V209.267H830.921V201.137Z" fill="#F7F743"/>
<path fill-rule="evenodd" clip-rule="evenodd" d="M841.083 201.137H849.248V209.267H841.083V201.137Z" fill="#F7F743"/>
<path fill-rule="evenodd" clip-rule="evenodd" d="M851.28 201.137H859.409V209.267H851.28V201.137Z" fill="#F7F743"/>
<path fill-rule="evenodd" clip-rule="evenodd" d="M861.442 201.137H869.606V209.267H861.442V201.137Z" fill="#F7F743"/>
<path fill-rule="evenodd" clip-rule="evenodd" d="M871.638 201.137H879.768V209.267H871.638V201.137Z" fill="#F7F743"/>
<path fill-rule="evenodd" clip-rule="evenodd" d="M881.8 201.137H889.964V209.267H881.8V201.137Z" fill="#F7F743"/>
<path fill-rule="evenodd" clip-rule="evenodd" d="M891.997 201.137H900.127V209.267H891.997V201.137Z" fill="#F7F743"/>
<path fill-rule="evenodd" clip-rule="evenodd" d="M800.366 190.941H808.496V199.105H800.366V190.941Z" fill="#F7F743"/>
<path fill-rule="evenodd" clip-rule="evenodd" d="M810.562 190.941H818.692V199.105H810.562V190.941Z" fill="#F7F743"/>
<path fill-rule="evenodd" clip-rule="evenodd" d="M820.725 190.941H828.854V199.105H820.725V190.941Z" fill="#F7F743"/>
<path fill-rule="evenodd" clip-rule="evenodd" d="M830.921 190.941H839.051V199.105H830.921V190.941Z" fill="#F7F743"/>
<path fill-rule="evenodd" clip-rule="evenodd" d="M841.083 190.941H849.248V199.105H841.083V190.941Z" fill="#F7F743"/>
<path fill-rule="evenodd" clip-rule="evenodd" d="M851.28 190.941H859.409V199.105H851.28V190.941Z" fill="#F7F743"/>
<path fill-rule="evenodd" clip-rule="evenodd" d="M861.442 190.941H869.606V199.105H861.442V190.941Z" fill="#F7F743"/>
<path fill-rule="evenodd" clip-rule="evenodd" d="M871.638 190.941H879.768V199.105H871.638V190.941Z" fill="#F7F743"/>
<path fill-rule="evenodd" clip-rule="evenodd" d="M881.8 190.941H889.964V199.105H881.8V190.941Z" fill="#F7F743"/>
<path fill-rule="evenodd" clip-rule="evenodd" d="M891.997 190.941H900.127V199.105H891.997V190.941Z" fill="#F7F743"/>
<path fill-rule="evenodd" clip-rule="evenodd" d="M800.366 180.779H808.496V188.908H800.366V180.779Z" fill="#F7F743"/>
<path fill-rule="evenodd" clip-rule="evenodd" d="M810.562 180.779H818.692V188.908H810.562V180.779Z" fill="#F7F743"/>
<path fill-rule="evenodd" clip-rule="evenodd" d="M820.725 180.779H828.854V188.908H820.725V180.779Z" fill="#F7F743"/>
<path fill-rule="evenodd" clip-rule="evenodd" d="M830.921 180.779H839.051V188.908H830.921V180.779Z" fill="#F7F743"/>
<path fill-rule="evenodd" clip-rule="evenodd" d="M841.083 180.779H849.248V188.908H841.083V180.779Z" fill="#F7F743"/>
<path fill-rule="evenodd" clip-rule="evenodd" d="M851.28 180.779H859.409V188.908H851.28V180.779Z" fill="#F7F743"/>
<path fill-rule="evenodd" clip-rule="evenodd" d="M861.442 180.779H869.606V188.908H861.442V180.779Z" fill="#F7F743"/>
<path fill-rule="evenodd" clip-rule="evenodd" d="M871.638 180.779H879.768V188.908H871.638V180.779Z" fill="#F7F743"/>
<path fill-rule="evenodd" clip-rule="evenodd" d="M881.8 180.779H889.964V188.908H881.8V180.779Z" fill="#F7F743"/>
<path fill-rule="evenodd" clip-rule="evenodd" d="M891.997 180.779H900.127V188.908H891.997V180.779Z" fill="#F7F743"/>
<path fill-rule="evenodd" clip-rule="evenodd" d="M800.366 170.582H808.496V178.746H800.366V170.582Z" fill="#999999"/>
<path fill-rule="evenodd" clip-rule="evenodd" d="M810.562 170.582H818.692V178.746H810.562V170.582Z" fill="#999999"/>
<path fill-rule="evenodd" clip-rule="evenodd" d="M820.725 170.582H828.854V178.746H820.725V170.582Z" fill="#999999"/>
<path fill-rule="evenodd" clip-rule="evenodd" d="M830.921 170.582H839.051V178.746H830.921V170.582Z" fill="#999999"/>
<path fill-rule="evenodd" clip-rule="evenodd" d="M841.083 170.582H849.248V178.746H841.083V170.582Z" fill="#999999"/>
<path fill-rule="evenodd" clip-rule="evenodd" d="M851.28 170.582H859.409V178.746H851.28V170.582Z" fill="#999999"/>
<path fill-rule="evenodd" clip-rule="evenodd" d="M861.442 170.582H869.606V178.746H861.442V170.582Z" fill="#999999"/>
<path fill-rule="evenodd" clip-rule="evenodd" d="M871.638 170.582H879.768V178.746H871.638V170.582Z" fill="#999999"/>
<path fill-rule="evenodd" clip-rule="evenodd" d="M881.801 170.582H889.965V178.746H881.801V170.582Z" fill="#999999"/>
<path fill-rule="evenodd" clip-rule="evenodd" d="M891.997 170.582H900.126V178.746H891.997V170.582Z" fill="#999999"/>
<path d="M907.188 175.198L906.982 177.575L906.155 176.679L906.258 175.405L906.878 174.854L907.188 175.198ZM906.396 173.924L906.499 172.683L907.498 171.753L907.292 174.13L906.913 174.509L906.396 173.924ZM912.7 171.581L911.701 172.511H909.944L909.117 171.581H912.7ZM912.149 177.747H908.566L909.565 176.852H911.322L912.149 177.747ZM909.531 175.405L909.427 176.679L908.428 177.575L908.635 175.198L909.014 174.854L909.531 175.405ZM911.735 173.924L911.839 172.649L912.838 171.753L912.631 174.13L912.252 174.509L911.735 173.924ZM911.666 174.199L912.08 174.681L911.563 175.129H909.634L909.186 174.681L909.703 174.199H911.666Z" fill="#999999"/>
<path d="M909.772 185.36L909.565 187.771L908.738 186.841L908.842 185.601L909.462 185.016L909.772 185.36ZM908.945 184.086L909.083 182.845L910.082 181.915L909.875 184.327L909.496 184.671L908.945 184.086ZM912.528 185.36L912.321 187.771L911.494 186.841L911.597 185.601L912.217 185.016L912.528 185.36ZM911.735 184.086L911.839 182.845L912.838 181.915L912.631 184.327L912.252 184.671L911.735 184.086Z" fill="#F7F743"/>
<path d="M907.188 195.557L906.982 197.934L906.155 197.038L906.258 195.763L906.878 195.212L907.188 195.557ZM906.396 194.282L906.499 193.042L907.498 192.112L907.292 194.489L906.913 194.868L906.396 194.282ZM912.7 191.94L911.701 192.87H909.944L909.117 191.94H912.7ZM912.149 198.106H908.566L909.565 197.21H911.322L912.149 198.106ZM909.531 195.763L909.427 197.038L908.428 197.934L908.635 195.557L909.014 195.212L909.531 195.763ZM908.704 194.489L908.911 192.112L909.772 193.042L909.668 194.282L909.014 194.868L908.704 194.489ZM912.528 195.557L912.321 197.934L911.494 197.038L911.598 195.763L912.218 195.212L912.528 195.557ZM911.735 194.282L911.839 193.008L912.838 192.112L912.631 194.489L912.252 194.868L911.735 194.282Z" fill="#F7F743"/>
<path d="M907.74 202.102L906.741 203.032H905.018L904.157 202.102H907.74ZM907.189 208.302H903.606L904.605 207.372H906.362L907.189 208.302ZM904.571 205.96L904.467 207.2L903.468 208.13L903.675 205.719L904.054 205.374L904.571 205.96ZM903.778 204.685L903.951 202.309L904.812 203.204L904.708 204.444L904.088 205.03L903.778 204.685ZM907.568 205.719L907.395 208.13L906.534 207.2L906.637 205.96L907.258 205.374L907.568 205.719ZM906.775 204.444L906.879 203.204L907.878 202.309L907.671 204.685L907.292 205.03L906.775 204.444ZM912.7 202.102L911.701 203.032H909.944L909.118 202.102H912.7ZM912.149 208.302H908.567L909.565 207.372H911.322L912.149 208.302ZM908.739 204.685L908.911 202.309L909.772 203.204L909.669 204.444L909.049 205.03L908.739 204.685ZM912.528 205.719L912.321 208.13L911.495 207.2L911.598 205.96L912.218 205.374L912.528 205.719ZM911.736 204.444L911.839 203.204L912.838 202.309L912.631 204.685L912.252 205.03L911.736 204.444ZM911.667 204.754L912.08 205.202L911.563 205.684H909.634L909.187 205.202L909.703 204.754H911.667Z" fill="#F7F743"/>
<path d="M907.74 212.298L906.741 213.228H905.018L904.157 212.298H907.74ZM907.189 218.464H903.64L904.639 217.569H906.362L907.189 218.464ZM904.571 216.122L904.467 217.397L903.468 218.292L903.675 215.915L904.054 215.571L904.571 216.122ZM903.778 214.847L903.985 212.47L904.812 213.401L904.708 214.641L904.088 215.226L903.778 214.847ZM907.602 215.915L907.395 218.292L906.534 217.397L906.672 216.122L907.292 215.571L907.602 215.915ZM906.775 214.641L906.913 213.401L907.878 212.47L907.671 214.847L907.292 215.226L906.775 214.641ZM912.7 212.298L911.701 213.228H909.944L909.118 212.298H912.7ZM912.149 218.464H908.567L909.565 217.569H911.322L912.149 218.464ZM909.531 216.122L909.428 217.397L908.429 218.292L908.635 215.915L909.014 215.571L909.531 216.122ZM908.704 214.847L908.911 212.47L909.772 213.401L909.669 214.641L909.014 215.226L908.704 214.847ZM912.528 215.915L912.321 218.292L911.495 217.397L911.598 216.122L912.218 215.571L912.528 215.915ZM911.736 214.641L911.839 213.401L912.838 212.47L912.631 214.847L912.252 215.226L911.736 214.641ZM911.667 214.916L912.08 215.399L911.563 215.846H909.634L909.187 215.399L909.703 214.916H911.667Z" fill="#F7F743"/>
<path d="M878.15 231.968L878.046 233.036L877.289 233.725L877.461 231.796L877.736 231.555L878.15 231.968ZM877.53 231.003L877.702 229.212L878.322 229.901L878.219 230.831L877.771 231.279L877.53 231.003ZM879.734 231.072L880.044 231.417L879.665 231.761H878.219L877.909 231.417L878.253 231.072H879.734ZM880.458 231.003L880.182 231.279L879.803 230.831L879.872 229.901L880.251 229.557L880.561 229.901L880.458 231.003ZM880.148 229.419L879.769 229.798H878.46L877.84 229.109H879.838L880.148 229.419ZM884.178 231.003L883.903 231.279L883.524 230.831L883.592 229.901L883.971 229.557L884.281 229.901L884.178 231.003ZM883.868 229.419L883.489 229.798H882.18L881.87 229.419L882.249 229.109H883.524L883.868 229.419ZM884.006 232.898L883.627 233.243L883.317 232.898L883.42 231.968L883.868 231.555L884.109 231.796L884.006 232.898ZM881.939 230.831L881.491 231.279L881.25 231.003L881.353 229.901L881.732 229.557L882.042 229.901L881.939 230.831ZM881.078 232.898L881.388 233.243L881.767 232.898L881.836 231.968L881.457 231.555L881.181 231.796L881.078 232.898ZM881.836 233.725L881.526 233.38L881.905 233.036H883.179L883.524 233.38L883.145 233.725H881.836ZM887.898 231.003L887.623 231.279L887.244 230.831L887.313 229.798L888.071 229.074L887.898 231.003ZM885.659 230.831L885.212 231.279L884.97 231.003L885.143 229.074L885.763 229.798L885.659 230.831ZM887.692 233.587L887.037 232.898L887.141 231.968L887.588 231.555L887.83 231.796L887.692 233.587ZM886.693 232.519L886.314 232.864L885.969 232.519L886.107 231.176L886.486 230.831L886.796 231.176L886.693 232.519ZM887.554 233.725H884.867L885.625 233.036H886.899L887.554 233.725ZM885.487 232.898L884.729 233.587L884.902 231.796L885.177 231.555L885.556 231.968L885.487 232.898ZM891.791 229.109L891.033 229.798H889.586L888.966 229.109H891.791ZM891.378 233.725H888.553L889.311 233.036H890.758L891.378 233.725ZM889.276 231.968L889.207 232.898L888.45 233.587L888.587 231.796L888.897 231.555L889.276 231.968ZM888.656 231.003L888.829 229.212L889.449 229.901L889.38 230.831L888.897 231.279L888.656 231.003ZM890.861 231.072L891.205 231.417L890.827 231.761H889.345L889.035 231.417L889.414 231.072H890.861ZM893.272 232.416L893.307 231.934H893.823L895.029 233.243L894.96 233.725H894.478L893.272 232.416ZM892.997 231.968L892.893 233.036L892.136 233.725L892.308 231.796L892.583 231.555L892.997 231.968ZM892.377 231.003L892.549 229.212L893.169 229.901L893.1 230.831L892.618 231.279L892.377 231.003ZM894.581 231.072L894.891 231.417L894.512 231.761H893.066L892.756 231.417L893.1 231.072H894.581ZM895.339 231.003L895.029 231.279L894.65 230.831L894.719 229.901L895.098 229.557L895.408 229.901L895.339 231.003ZM894.995 229.419L894.616 229.798H893.307L892.687 229.109H894.685L894.995 229.419Z" fill="black"/>
<path d="M815.489 236.102L812.768 238.616H807.979L805.671 236.102H815.489ZM814.008 253.084H804.19L806.946 250.57H811.7L814.008 253.084ZM806.808 246.643L806.498 250.087L803.777 252.637L804.294 246.023L805.361 245.058L806.808 246.643ZM804.569 243.163L805.155 236.584L807.463 239.099L807.153 242.509L805.43 244.128L804.569 243.163ZM815.076 246.023L814.525 252.637L812.217 250.087L812.527 246.643L814.214 245.058L815.076 246.023ZM812.871 242.509L813.181 239.099L815.902 236.584L815.351 243.163L814.318 244.128L812.871 242.509ZM829.13 236.102L826.375 238.616H821.586L819.278 236.102H829.13ZM827.615 253.084H817.797L820.553 250.57H825.307L827.615 253.084ZM820.415 246.643L820.105 250.087L817.384 252.637L817.9 246.023L818.968 245.058L820.415 246.643ZM818.21 243.163L818.762 236.584L821.07 239.099L820.76 242.509L819.037 244.128L818.21 243.163ZM828.683 246.023L828.131 252.637L825.823 250.087L826.133 246.643L827.856 245.058L828.683 246.023ZM826.478 242.509L826.788 239.099L829.509 236.584L828.958 243.163L827.925 244.128L826.478 242.509ZM831.232 253.084L831.438 250.57H833.987L833.781 253.084H831.232ZM832.265 241.476L832.472 238.926H835.021L834.814 241.476H832.265ZM848.662 236.102L845.906 238.616H841.153L838.845 236.102H848.662ZM847.181 253.084H837.363L840.119 250.57H844.873L847.181 253.084ZM839.947 246.643L839.671 250.087L836.915 252.637L837.467 246.023L838.5 245.058L839.947 246.643ZM837.742 243.163L838.293 236.584L840.601 239.099L840.326 242.509L838.603 244.128L837.742 243.163ZM848.214 246.023L847.698 252.637L845.39 250.087L845.665 246.643L847.388 245.058L848.214 246.023ZM846.044 242.509L846.32 239.099L849.076 236.584L848.49 243.163L847.456 244.128L846.044 242.509ZM862.303 236.102L859.548 238.616H854.794L852.486 236.102H862.303ZM860.822 253.084H851.005L853.726 250.57H858.514L860.822 253.084ZM851.384 243.163L851.935 236.584L854.243 239.099L853.967 242.509L852.245 244.128L851.384 243.163ZM861.89 246.023L861.339 252.637L859.031 250.087L859.306 246.643L861.029 245.058L861.89 246.023ZM859.444 243.336L860.615 244.61L859.238 245.885H853.829L852.693 244.61L854.07 243.336H859.444Z" fill="black"/>
<path d="M800.298 233.415L799.919 233.759L799.609 233.415L799.747 231.968L800.194 231.555L800.436 231.796L800.298 233.415ZM800.504 231.003L800.229 231.279L799.815 230.831L799.884 230.314L800.263 229.97L800.573 230.314L800.504 231.003ZM801.917 229.419L801.538 229.798H798.989L798.679 229.419L799.058 229.109H801.607L801.917 229.419ZM803.329 231.796L803.157 233.725L802.537 233.036L802.64 231.968L803.088 231.555L803.329 231.796ZM802.744 230.831L802.812 229.798L803.57 229.074L803.398 231.003L803.122 231.279L802.744 230.831ZM807.463 229.109L806.705 229.798H805.43L804.776 229.109H807.463ZM805.086 231.968L804.983 233.036L804.259 233.725L804.431 231.796L804.707 231.555L805.086 231.968ZM804.466 231.003L804.638 229.212L805.258 229.936L805.189 230.831L804.707 231.279L804.466 231.003ZM807.36 231.796L807.187 233.725L806.567 233.036L806.636 231.968L807.118 231.555L807.36 231.796ZM806.739 230.831L806.843 229.901L807.566 229.212L807.428 231.003L807.153 231.279L806.739 230.831ZM805.706 230.28L806.085 229.936L806.395 230.28L806.257 231.658L805.913 232.002L805.568 231.658L805.706 230.28ZM811.287 229.109L810.563 229.798H809.116L808.496 229.109H811.287ZM810.908 233.725H808.083L808.841 233.036H810.253L810.908 233.725ZM808.806 231.968L808.737 232.898L807.98 233.587L808.117 231.796L808.393 231.555L808.806 231.968ZM808.186 231.003L808.359 229.212L808.979 229.901L808.91 230.831L808.427 231.279L808.186 231.003ZM810.391 231.072L810.701 231.417L810.356 231.761H808.875L808.565 231.417L808.944 231.072H810.391Z" fill="black"/>
<path d="M925.791 305.445C925.997 305.445 926.135 305.582 926.135 305.789C926.135 305.961 925.997 306.134 925.791 306.134H791.962C791.755 306.134 791.617 305.961 791.617 305.789C791.617 305.582 791.755 305.445 791.962 305.445H925.791Z" fill="black"/>
<path d="M890.964 236.102L888.209 238.616H883.455L881.147 236.102H890.964ZM889.483 253.084H879.666L882.421 250.57H887.175L889.483 253.084ZM882.249 246.643L881.974 250.087L879.218 252.637L879.769 246.023L880.802 245.058L882.249 246.643ZM880.045 243.163L880.596 236.584L882.904 239.099L882.628 242.509L880.906 244.128L880.045 243.163ZM890.517 246.023L890 252.637L887.692 250.087L887.967 246.643L889.69 245.058L890.517 246.023ZM888.346 242.509L888.622 239.099L891.378 236.584L890.792 243.163L889.759 244.128L888.346 242.509ZM892.515 253.084L892.756 250.57H895.27L895.064 253.084H892.515ZM909.394 236.102L906.638 238.616H901.884L899.576 236.102H909.394ZM907.913 253.084H898.095L900.816 250.57H905.605L907.913 253.084ZM900.679 246.643L900.369 250.087L897.647 252.637L898.198 246.023L899.232 245.058L900.679 246.643ZM898.474 243.163L899.025 236.584L901.333 239.099L901.058 242.509L899.301 244.128L898.474 243.163ZM908.946 246.023L908.395 252.637L906.121 250.087L906.397 246.643L908.119 245.058L908.946 246.023ZM906.776 242.509L907.051 239.099L909.807 236.584L909.222 243.163L908.188 244.128L906.776 242.509Z" fill="black"/>
<path d="M915.388 249.467L915.009 249.846L914.458 249.261L914.596 247.848L915.595 246.918L915.388 249.467ZM912.391 249.261L911.771 249.846L911.461 249.467L911.668 246.918L912.529 247.848L912.391 249.261ZM915.078 252.912L914.251 251.982L914.355 250.742L914.975 250.191L915.285 250.535L915.078 252.912ZM913.734 251.5L913.218 251.948L912.804 251.5L912.977 249.674L913.459 249.226L913.907 249.674L913.734 251.5ZM914.906 253.084H911.323L912.322 252.154H914.044L914.906 253.084ZM912.15 252.016L911.151 252.912L911.358 250.535L911.736 250.191L912.253 250.742L912.15 252.016Z" fill="black"/>
<path d="M848.421 313.195L845.7 315.745H840.912L838.604 313.195H848.421ZM846.94 330.213H837.123L839.878 327.663H844.632L846.94 330.213ZM837.536 320.257L838.087 313.678L840.395 316.227L840.085 319.637L838.363 321.222L837.536 320.257ZM848.008 323.116L847.457 329.73L845.149 327.181L845.459 323.771L847.181 322.186L848.008 323.116ZM845.597 320.429L846.768 321.704L845.39 322.979H839.982L838.845 321.704L840.188 320.429H845.597ZM862.063 313.195L859.307 315.745H854.553L852.245 313.195H862.063ZM861.615 323.116L861.064 329.73L858.79 327.181L859.066 323.771L860.788 322.186L861.615 323.116ZM859.41 319.637L859.72 316.192L862.476 313.678L861.89 320.257L860.857 321.222L859.41 319.637ZM864.75 320.257L865.301 313.678L867.609 316.192L867.333 319.637L865.611 321.222L864.75 320.257ZM875.222 323.116L874.705 329.73L872.397 327.181L872.673 323.771L874.395 322.186L875.222 323.116ZM873.051 319.637L873.327 316.192L876.083 313.678L875.497 320.257L874.464 321.222L873.051 319.637ZM872.81 320.429L873.982 321.704L872.604 322.979H867.195L866.059 321.704L867.436 320.429H872.81Z" fill="black"/>
<path d="M879.699 327.87L879.561 329.282L878.562 330.213L878.804 327.629L879.183 327.285L879.699 327.87ZM878.907 326.596L879.114 324.012L879.94 324.942L879.837 326.354L879.217 326.94L878.907 326.596ZM882.696 327.629L882.49 330.213L881.663 329.282L881.766 327.87L882.386 327.285L882.696 327.629ZM881.835 326.63L882.248 327.112L881.766 327.56H879.803L879.355 327.112L879.872 326.63H881.835ZM882.007 324.012H882.662L882.593 324.666L880.698 326.389H880.078L880.113 325.734L882.007 324.012ZM887.829 324.012L886.83 324.942H885.073L884.246 324.012H887.829ZM884.66 327.836L884.522 329.282L883.523 330.213L883.764 327.629L884.143 327.285L884.66 327.836ZM883.833 326.596L884.04 324.184L884.901 325.114L884.763 326.354L884.143 326.94L883.833 326.596ZM887.657 327.629L887.45 330.213L886.589 329.282L886.727 327.87L887.347 327.285L887.657 327.629ZM886.864 326.354L886.968 325.114L887.967 324.184L887.76 326.596L887.381 326.94L886.864 326.354ZM885.452 325.597L885.969 325.149L886.382 325.597L886.21 327.422L885.728 327.905L885.28 327.422L885.452 325.597Z" fill="black"/>
<path d="M801.951 267.311L801.572 267.69H799.815L799.505 267.311L799.884 266.967H801.641L801.951 267.311ZM801.641 270.79L801.262 271.135L800.952 270.79L801.056 269.86L801.503 269.447L801.745 269.688L801.641 270.79ZM799.574 268.724L799.127 269.171L798.885 268.896L798.989 267.793L799.368 267.449L799.678 267.793L799.574 268.724ZM798.989 271.617L798.679 271.273L799.058 270.928H800.814L801.159 271.273L800.78 271.617H798.989ZM801.09 268.965L801.4 269.309L801.021 269.654H799.54L799.23 269.309L799.609 268.965H801.09ZM803.191 269.86L803.088 270.928L802.365 271.617L802.502 269.688L802.812 269.447L803.191 269.86ZM802.571 268.896L802.744 267.104L803.364 267.793L803.295 268.724L802.812 269.171L802.571 268.896ZM804.776 268.965L805.12 269.309L804.741 269.654H803.26L802.95 269.309L803.329 268.965H804.776ZM805.534 268.896L805.258 269.171L804.845 268.724L804.914 267.793L805.293 267.449L805.603 267.793L805.534 268.896ZM805.189 267.311L804.81 267.69H803.501L802.881 266.967H804.879L805.189 267.311ZM809.392 266.967L808.669 267.69H807.222L806.602 266.967H809.392ZM809.013 271.617H806.188L806.946 270.928H808.359L809.013 271.617ZM806.912 269.86L806.808 270.79L806.085 271.479L806.223 269.688L806.498 269.447L806.912 269.86ZM806.292 268.896L806.464 267.104L807.084 267.793L807.015 268.724L806.533 269.171L806.292 268.896ZM808.496 268.965L808.806 269.309L808.427 269.654H806.981L806.671 269.309L807.015 268.965H808.496ZM813.112 266.967L812.354 267.69H810.942L810.322 266.967H813.112ZM812.699 271.617H809.909L810.666 270.928H812.079L812.699 271.617ZM810.632 269.86L810.529 270.79L809.805 271.479L809.943 269.688L810.219 269.447L810.632 269.86ZM810.012 268.896L810.184 267.104L810.804 267.793L810.701 268.724L810.253 269.171L810.012 268.896ZM812.217 268.965L812.527 269.309L812.148 269.654H810.701L810.356 269.309L810.735 268.965H812.217ZM814.318 269.86L814.249 270.79L813.491 271.479L813.663 269.688L813.939 269.447L814.318 269.86ZM813.732 268.896L813.87 267.104L814.525 267.793L814.421 268.724L813.973 269.171L813.732 268.896ZM813.629 271.617L814.352 270.928H815.661L815.971 271.273L815.593 271.617H813.629ZM816.66 268.896L816.385 269.171L815.971 268.724L816.075 267.793L816.454 267.449L816.764 267.793L816.66 268.896ZM816.316 267.311L815.971 267.69H814.662L814.042 266.967H816.006L816.316 267.311ZM816.488 270.79L816.109 271.135L815.799 270.79L815.903 269.86L816.35 269.447L816.591 269.688L816.488 270.79Z" fill="black"/>
<path d="M799.505 312.093L799.437 313.058L798.679 313.747L798.817 311.921L799.127 311.68L799.505 312.093ZM798.92 311.163L799.058 309.372L799.678 310.061L799.609 310.991L799.127 311.404L798.92 311.163ZM798.782 313.85L799.54 313.161H800.849L801.159 313.505L800.78 313.85H798.782ZM801.848 311.163L801.538 311.404L801.159 310.991L801.262 310.061L801.607 309.716L801.917 310.061L801.848 311.163ZM801.503 309.578L801.124 309.923H799.815L799.195 309.234H801.193L801.503 309.578ZM801.676 313.058L801.297 313.402L800.987 313.058L801.056 312.093L801.538 311.68L801.779 311.921L801.676 313.058ZM803.536 311.921L803.364 313.884L802.744 313.161L802.847 312.093L803.295 311.68L803.536 311.921ZM802.95 310.991L803.019 309.923L803.777 309.234L803.605 311.163L803.329 311.404L802.95 310.991ZM807.773 309.578L807.394 309.923H805.637L805.327 309.578L805.706 309.234H807.463L807.773 309.578ZM807.463 313.058L807.084 313.402L806.774 313.058L806.877 312.093L807.325 311.68L807.566 311.921L807.463 313.058ZM805.396 310.991L804.948 311.404L804.707 311.163L804.81 310.061L805.189 309.716L805.499 310.061L805.396 310.991ZM804.81 313.85L804.5 313.505L804.879 313.161H806.636L806.981 313.505L806.602 313.85H804.81ZM806.912 311.197L807.222 311.542L806.843 311.886H805.362L805.052 311.542L805.43 311.197H806.912ZM810.012 313.54L809.633 313.884L809.323 313.54L809.461 312.093L809.909 311.68L810.15 311.921L810.012 313.54ZM810.219 311.163L809.943 311.404L809.564 310.991L809.599 310.44L809.978 310.095L810.288 310.44L810.219 311.163ZM811.631 309.578L811.252 309.923H808.703L808.393 309.578L808.772 309.234H811.321L811.631 309.578ZM815.11 309.234L814.352 309.923H813.043L812.423 309.234H815.11ZM812.733 312.093L812.63 313.161L811.872 313.884L812.044 311.921L812.354 311.68L812.733 312.093ZM812.113 311.163L812.286 309.372L812.906 310.061L812.837 310.991L812.354 311.404L812.113 311.163ZM814.972 311.921L814.835 313.884L814.18 313.161L814.283 312.093L814.766 311.68L814.972 311.921ZM814.387 310.991L814.456 310.061L815.214 309.372L815.041 311.163L814.766 311.404L814.387 310.991ZM814.318 311.197L814.628 311.542L814.283 311.886H812.802L812.492 311.542L812.871 311.197H814.318ZM816.454 312.093L816.35 313.161L815.593 313.884L815.765 311.921L816.04 311.68L816.454 312.093ZM815.834 311.163L816.006 309.234L816.626 309.923L816.523 310.991L816.075 311.404L815.834 311.163ZM818.693 311.921L818.521 313.884L817.901 313.161L818.004 312.093L818.452 311.68L818.693 311.921ZM818.107 310.991L818.176 309.923L818.934 309.234L818.762 311.163L818.486 311.404L818.107 310.991ZM816.178 309.234H817.212L818.004 310.164L817.969 310.681H817.487L816.178 309.234ZM820.14 313.85L819.83 313.505L820.208 313.161H821.621L822.241 313.85H820.14ZM822.654 309.234L821.896 309.923H820.484L820.174 309.578L820.553 309.234H822.654ZM820.243 310.991L819.795 311.404L819.554 311.163L819.657 310.061L820.036 309.716L820.346 310.061L820.243 310.991ZM819.382 313.058L819.692 313.402L820.071 313.058L820.14 312.093L819.761 311.68L819.485 311.921L819.382 313.058ZM826.375 309.234L825.617 309.923H824.204L823.55 309.234H826.375ZM825.961 313.85H823.171L823.894 313.161H825.341L825.961 313.85ZM823.86 312.093L823.791 313.058L823.033 313.747L823.171 311.921L823.481 311.68L823.86 312.093ZM823.274 311.163L823.412 309.372L824.032 310.061L823.963 310.991L823.481 311.404L823.274 311.163ZM825.479 311.197L825.789 311.542L825.41 311.886H823.929L823.619 311.542L823.998 311.197H825.479Z" fill="black"/>
<path d="M835.642 286.912L834.78 297.418L831.129 293.388L831.611 287.945L834.333 285.431L835.642 286.912ZM832.162 281.366L832.645 275.923L836.985 271.893L836.089 282.365L834.436 283.915L832.162 281.366ZM859.824 271.135L855.449 275.165H847.87L844.185 271.135H859.824ZM857.447 298.176H841.842L846.217 294.146H853.795L857.447 298.176ZM842.462 282.365L843.358 271.893L847.009 275.923L846.561 281.366L843.806 283.915L842.462 282.365ZM859.135 286.912L858.274 297.418L854.588 293.388L855.07 287.945L857.791 285.431L859.135 286.912ZM855.656 281.366L856.103 275.889L860.478 271.927L859.583 282.365L857.895 283.915L855.656 281.366ZM855.311 282.675L857.137 284.673L854.932 286.705H846.355L844.529 284.673L846.699 282.675H855.311ZM881.422 271.135L877.048 275.165H869.469L865.818 271.135H881.422ZM879.08 298.176H863.441L867.816 294.146H875.394L879.08 298.176ZM867.575 287.945L867.127 293.388L862.752 297.453L863.613 286.912L865.301 285.431L867.575 287.945ZM864.061 282.365L864.956 271.893L868.608 275.923L868.16 281.366L865.404 283.915L864.061 282.365ZM880.734 286.912L879.872 297.418L876.221 293.388L876.703 287.945L879.39 285.431L880.734 286.912ZM877.254 281.366L877.737 275.889L882.077 271.927L881.181 282.365L879.528 283.915L877.254 281.366ZM876.91 282.675L878.77 284.673L876.565 286.705H867.988L866.162 284.673L868.332 282.675H876.91Z" fill="black"/>
<path d="M884.075 295.489L883.937 296.902L882.938 297.832L883.179 295.248L883.558 294.904L884.075 295.489ZM883.248 294.215L883.489 291.631L884.316 292.561L884.213 293.974L883.558 294.559L883.248 294.215ZM887.072 295.248L886.865 297.832L886.038 296.902L886.142 295.489L886.762 294.904L887.072 295.248ZM886.211 294.284L886.624 294.732L886.107 295.179H884.144L883.73 294.732L884.247 294.284H886.211ZM886.383 291.631H887.037L886.968 292.286L885.074 294.043H884.419L884.488 293.354L886.383 291.631ZM892.17 291.631L891.171 292.561H889.449L888.622 291.631H892.17ZM889.035 295.489L888.897 296.902L887.898 297.832L888.14 295.248L888.519 294.904L889.035 295.489ZM888.208 294.215L888.415 291.804L889.242 292.734L889.139 293.974L888.519 294.559L888.208 294.215ZM892.032 295.248L891.825 297.832L890.964 296.902L891.102 295.489L891.722 294.904L892.032 295.248ZM891.24 293.974L891.343 292.734L892.342 291.804L892.136 294.215L891.757 294.559L891.24 293.974ZM889.828 293.216L890.344 292.768L890.758 293.216L890.585 295.042L890.103 295.524L889.655 295.042L889.828 293.216ZM894.857 295.214L892.859 298.176L892.652 296.936L893.996 294.938L894.788 294.732L894.857 295.214ZM894.822 293.629L896.2 291.631L897.475 291.287L895.477 294.284L894.995 294.422L894.822 293.629ZM898.749 295.489L898.612 296.902L897.613 297.832L897.819 295.248L898.198 294.904L898.749 295.489ZM897.923 294.215L898.164 291.631L898.991 292.561L898.853 293.974L898.233 294.559L897.923 294.215ZM901.746 295.248L901.54 297.832L900.679 296.902L900.816 295.489L901.436 294.904L901.746 295.248ZM900.954 293.974L901.057 292.561L902.056 291.631L901.85 294.215L901.471 294.559L900.954 293.974ZM900.851 294.284L901.299 294.732L900.782 295.179H898.818L898.405 294.732L898.887 294.284H900.851Z" fill="black"/>
<path d="M869.262 225.63C869.262 225.457 869.4 225.285 869.607 225.285C869.779 225.285 869.951 225.457 869.951 225.63V263.419C869.951 263.591 869.779 263.763 869.607 263.763C869.4 263.763 869.262 263.591 869.262 263.419V225.63Z" fill="black"/>
<path d="M924.551 263.177C924.757 263.177 924.895 263.35 924.895 263.522C924.895 263.729 924.757 263.866 924.551 263.866H791.514C791.307 263.866 791.169 263.729 791.169 263.522C791.169 263.35 791.307 263.177 791.514 263.177H924.551Z" fill="black"/>
<g filter="url(#filter0_b_104_231)">
<path fill-rule="evenodd" clip-rule="evenodd" d="M798.257 163.959H914.759C917.274 163.959 919.306 166.026 919.306 168.541V332.512C919.306 335.026 917.274 337.093 914.759 337.093H798.257C795.743 337.093 793.676 335.026 793.676 332.512V168.541C793.676 166.026 795.743 163.959 798.257 163.959Z" fill="#E0DFDF"/>
</g>
<path d="M236.986 96.8802C231.032 134.291 229.122 177.661 230.919 211.225C233.728 263.938 243.876 310.394 255.335 332.333C257.432 336.349 262.038 337.66 265.596 335.292C269.116 332.925 270.314 327.726 268.217 323.71C257.807 303.8 248.52 260.345 245.823 210.253C244.4 183.326 245.449 149.804 249.119 118.566C243.801 112.648 239.607 105.25 236.986 96.8802Z" fill="#333333"/>
<path d="M400.221 222.512C402.094 217.27 389.96 214.945 388.425 218.2L351.427 348.143C350.378 351.821 352.176 355.752 355.434 356.935C358.691 358.119 362.212 356.09 363.223 352.412L400.221 222.512Z" fill="#E6E6E6"/>
<path d="M391.945 231.896C392.431 230.585 391.72 229.106 390.671 228.81C389.436 228.472 388.537 229.19 388.05 230.374L352.025 356.344C351.688 357.569 352.287 358.838 353.336 359.218C354.422 359.641 355.583 358.964 355.92 357.739L391.945 231.896Z" fill="white"/>
<path fill-rule="evenodd" clip-rule="evenodd" d="M434.336 229.317L425.648 228.26C425.199 228.176 424.787 228.556 424.712 229.064L424.225 234.094C424.15 234.897 424.637 235.573 425.311 235.658L432.351 236.546C433.025 236.63 433.662 236.081 433.737 235.32L434.336 229.317Z" fill="black"/>
<path d="M397.712 218.284C392.686 218.284 388.612 213.685 388.612 208.012C388.612 202.339 392.686 197.74 397.712 197.74C402.738 197.74 406.812 202.339 406.812 208.012C406.812 213.685 402.738 218.284 397.712 218.284Z" fill="black"/>
<path fill-rule="evenodd" clip-rule="evenodd" d="M383.519 180.409C374.607 179.31 364.833 176.52 358.204 179.352C350.677 182.607 346.109 190.935 351.426 192.372L387.039 201.756C395.016 203.87 402.243 204.588 405.426 204.081L438.53 198.628C447.218 197.233 439.167 185.312 435.684 181.297C430.741 175.59 393.33 181.593 383.519 180.409Z" fill="#333333"/>
<path fill-rule="evenodd" clip-rule="evenodd" d="M440.103 231.558L371.611 222.807C371.199 222.765 370.862 222.512 370.674 222.089C370.45 221.666 370.45 221.243 370.637 220.821L372.996 215.199C373.595 213.804 374.382 212.535 375.73 212.704L438.118 220.44C439.466 220.609 440.028 222.004 440.29 223.526L441.451 229.867C441.526 230.332 441.413 230.754 441.151 231.093C440.852 231.431 440.477 231.6 440.103 231.558Z" fill="#333333"/>
<path fill-rule="evenodd" clip-rule="evenodd" d="M437.481 183.579C404.003 190.681 397.3 193.429 352.475 183.283C353.823 181.762 356.407 180.155 358.204 179.352C364.833 176.52 374.606 179.31 383.519 180.409C393.33 181.593 430.741 175.59 435.684 181.297C436.208 181.888 436.845 182.692 437.481 183.579Z" fill="#666666"/>
<path fill-rule="evenodd" clip-rule="evenodd" d="M365.694 287.314L360.264 285.412C359.553 285.158 358.804 285.665 358.579 286.469L356.107 296.149C355.92 296.952 356.37 297.797 357.081 298.051L362.474 299.953C363.222 300.207 363.971 299.7 364.196 298.854L366.63 289.216C366.855 288.413 366.406 287.568 365.694 287.314Z" fill="black"/>
<path fill-rule="evenodd" clip-rule="evenodd" d="M358.054 282.918L353.823 281.396C352.624 280.931 351.351 281.819 350.977 283.214L348.168 294.373C347.794 295.768 348.542 297.163 349.741 297.586L353.972 299.108C355.208 299.573 356.481 298.685 356.818 297.332L359.664 286.13C360.002 284.735 359.29 283.34 358.054 282.918Z" fill="#333333"/>
<path d="M235.676 181.127C235.825 229.19 241.555 290.357 260.241 329.29C261.028 330.811 263.013 330.98 264.361 330.093C265.671 329.205 266.121 327.261 265.334 325.781C246.947 286.976 240.394 229.106 241.33 180.409C241.405 176.435 236.013 175.717 235.676 181.127Z" fill="#666666"/>
<path fill-rule="evenodd" clip-rule="evenodd" d="M351.464 309.802C322.067 321.554 283.908 353.427 263.686 377.183C259.567 382.002 261.364 390.499 264.098 400.475C265.221 404.533 266.232 408.591 267.168 412.48C268.217 417.003 269.865 419.286 265.371 421.442C260.615 423.725 252.788 425.458 253.313 434.842C253.687 441.901 255.822 445.072 262.113 445.072C267.58 445.072 272.748 445.79 283.346 443.423C365.694 433.363 404.153 434.8 452.573 442.197C456.917 442.831 461.074 443.212 465.38 443.93C478.674 446.129 482.569 432.433 476.727 423.894C474.63 420.808 471.709 419.836 469.125 418.525C466.766 417.342 464.182 412.269 465.08 406.309C465.118 405.844 465.118 405.632 465.006 405.548C467.252 368.095 457.179 328.571 434.86 295.98C428.045 286.046 420.817 287.906 410.032 290.696C404.939 292.006 399.547 293.57 397.412 292.767C395.502 292.006 386.964 289.216 375.992 286.173C367.192 283.721 364.683 282.284 362.398 290.949C361.387 294.796 360.414 298.77 359.365 302.278C357.231 309.253 357.605 307.308 351.464 309.802Z" fill="#666666"/>
<path fill-rule="evenodd" clip-rule="evenodd" d="M270.239 381.495C266.57 385.553 268.18 393.247 270.614 401.913C273.984 414.129 276.343 431.122 279.489 443.888C361.837 433.659 400.932 434.589 447.967 441.479C458.115 399.714 452.086 342.901 427.745 308.45C421.566 299.7 419.919 300.587 411.98 302.532C357.53 315.974 309.822 337.829 270.239 381.495ZM395.128 297.544C387.713 294.542 383.407 293.021 375.468 290.738C367.978 288.582 367.492 288.371 365.432 297.206C365.057 298.77 363.26 305.871 361.987 309.845C361.837 310.31 361.949 310.817 362.249 311.155C362.586 311.536 363.035 311.62 363.447 311.451C374.195 306.97 383.931 303.377 395.016 299.996C395.503 299.826 395.84 299.361 395.84 298.812C395.877 298.262 395.577 297.755 395.128 297.544Z" fill="#4D4D4D"/>
<path fill-rule="evenodd" clip-rule="evenodd" d="M266.607 316.27L250.392 325.105C249.006 325.824 248.22 327.683 248.931 329.205L268.629 372.196C270.202 375.62 292.97 363.192 288.589 354.441L270.239 317.919C269.49 316.439 267.955 315.552 266.607 316.27Z" fill="#333333"/>
<path d="M256.534 321.766L279.265 369.575C282.073 367.715 284.844 365.517 286.829 363.234L264.96 317.2L256.534 321.766Z" fill="#666666"/>
<path fill-rule="evenodd" clip-rule="evenodd" d="M249.344 330.178C255.935 326.88 265.371 322.357 270.464 318.68L270.24 317.919C269.715 316.312 267.955 315.552 266.607 316.27L250.392 325.105C249.007 325.824 248.258 327.641 248.932 329.205L249.344 330.178Z" fill="#808080"/>
<path fill-rule="evenodd" clip-rule="evenodd" d="M443.436 309.929C393.967 324.259 349.217 345.353 312.706 366.742C310.871 367.799 309.897 369.997 310.571 372.196L323.977 414.34C324.689 416.538 326.861 417.468 328.846 416.75L463.096 367.503C459.951 347.593 453.397 327.979 443.436 309.929Z" fill="#E6E6E6"/>
<path fill-rule="evenodd" clip-rule="evenodd" d="M440.328 403.392H401.944C401.12 403.392 400.633 404.153 400.858 405.041L402.131 410.916C402.355 411.846 403.179 412.565 403.966 412.565H442.35C443.174 412.565 443.66 411.846 443.473 410.916L442.163 405.041C441.975 404.153 441.114 403.392 440.328 403.392Z" fill="#F7F743"/>
<path fill-rule="evenodd" clip-rule="evenodd" d="M431.19 313.649C386.553 327.768 346.184 347.128 312.705 366.742C310.871 367.799 309.897 369.997 310.571 372.195L323.977 414.34C324.689 416.538 326.861 417.468 328.845 416.75L450.738 372.026C447.78 350.679 441.339 330.093 431.19 313.649Z" fill="#B3B3B3"/>
<path fill-rule="evenodd" clip-rule="evenodd" d="M334.874 357.696C327.197 357.696 321.018 364.713 321.018 373.337C321.018 381.96 327.197 388.977 334.874 388.977C342.513 388.977 348.692 381.96 348.692 373.337C348.692 364.713 342.513 357.696 334.874 357.696Z" fill="#333333"/>
<path d="M331.129 371.604C331.129 373.929 332.814 375.831 334.874 375.831C336.971 375.831 338.619 373.929 338.619 371.604V328.317C338.619 325.993 336.971 324.09 334.874 324.09C332.814 324.09 331.129 325.993 331.129 328.317V371.604Z" fill="#B3B3B3"/>
<path fill-rule="evenodd" clip-rule="evenodd" d="M322.367 332.46L348.318 333.263C357.306 333.517 358.055 322.061 349.329 321.765L322.329 320.793C313.567 320.497 313.155 332.164 322.367 332.46Z" fill="black"/>
<path fill-rule="evenodd" clip-rule="evenodd" d="M333.338 302.363C332.702 302.532 318.846 291.752 319.932 305.744C320.718 315.425 323.19 320.201 324.426 324.133C335.51 331.403 331.766 305.66 333.338 302.363Z" fill="black"/>
<path d="M334.874 366.531C331.541 366.531 328.808 369.575 328.808 373.337C328.808 377.099 331.541 380.185 334.874 380.185C338.207 380.185 340.903 377.099 340.903 373.337C340.903 369.575 338.207 366.531 334.874 366.531Z" fill="#F7F743"/>
<path fill-rule="evenodd" clip-rule="evenodd" d="M319.858 326.373L350.34 327.218C352.363 327.261 354.048 326.88 355.358 326.204C354.872 323.879 352.924 321.892 349.329 321.765L322.329 320.793C318.397 320.666 316.113 322.949 315.701 325.528C316.825 326.035 318.21 326.331 319.858 326.373Z" fill="#333333"/>
<path fill-rule="evenodd" clip-rule="evenodd" d="M334.013 332.798C332.964 320.835 328.62 300.545 321.093 299.615C326.635 295.092 334.837 295.219 338.806 304.941C342.139 313.142 342.027 326.077 342.064 333.094L334.013 332.798Z" fill="#F7F743"/>
<path d="M475.005 435.222C472.608 423.598 458.528 426.853 461.186 439.703L465.755 464.474C466.916 469.547 471.485 472.591 475.978 471.28C480.472 470.012 484.591 465.235 483.43 460.163L475.005 435.222Z" fill="black"/>
<path d="M475.454 451.286L470.174 428.501C468.526 427.867 466.729 427.952 465.156 428.67L470.773 452.681L475.454 451.286Z" fill="#4D4D4D"/>
<path fill-rule="evenodd" clip-rule="evenodd" d="M472.42 443.888C468.488 443.931 465.193 446.044 463.208 449.341C462.085 451.159 461.972 452.808 461.972 455.133C461.972 456.485 463.058 464.39 463.845 466.123C465.006 468.659 484.441 468.913 485.227 461.685C485.49 459.148 482.306 450.44 480.659 448.327C478.524 445.579 476.053 443.804 472.42 443.888Z" fill="#666666"/>
<path d="M467.552 445.114L470.548 456.95L477.738 454.625L475.079 444.184C474.256 443.973 473.394 443.846 472.421 443.888C470.623 443.888 468.975 444.353 467.552 445.114Z" fill="#808080"/>
<path fill-rule="evenodd" clip-rule="evenodd" d="M474.18 450.609C468.039 450.609 463.058 455.936 463.058 462.53C463.058 469.082 468.039 474.408 474.18 474.408C480.322 474.408 485.34 469.082 485.34 462.53C485.34 455.936 480.322 450.609 474.18 450.609Z" fill="#333333"/>
<path d="M258.331 435.814C260.765 424.147 274.808 427.444 272.149 440.295L267.58 465.024C266.419 470.097 261.851 473.182 257.395 471.872C252.901 470.561 248.744 465.827 249.905 460.754L258.331 435.814Z" fill="black"/>
<path d="M257.882 451.877L263.199 429.093C264.847 428.417 266.607 428.501 268.18 429.262L262.563 453.272L257.882 451.877Z" fill="#4D4D4D"/>
<path fill-rule="evenodd" clip-rule="evenodd" d="M260.952 444.438C264.884 444.48 268.179 446.636 270.164 449.891C271.25 451.751 271.362 453.399 271.362 455.682C271.362 457.077 270.314 464.939 269.49 466.715C268.366 469.251 248.931 469.462 248.107 462.276C247.845 459.74 251.028 450.99 252.676 448.876C254.81 446.128 257.319 444.395 260.952 444.438Z" fill="#666666"/>
<path d="M265.82 445.706L262.824 457.542L255.634 455.217L258.256 444.776C259.08 444.565 259.978 444.438 260.952 444.438C262.712 444.48 264.36 444.903 265.82 445.706Z" fill="#808080"/>
<path fill-rule="evenodd" clip-rule="evenodd" d="M259.154 451.201C265.295 451.201 270.313 456.527 270.313 463.122C270.313 469.674 265.295 475 259.154 475C253.013 475 248.032 469.674 248.032 463.122C248.032 456.527 253.013 451.201 259.154 451.201Z" fill="#333333"/>
<path d="M267.056 182.058C267.954 180.536 268.591 178.211 269.003 175.717C270.351 168.066 269.827 164.895 268.329 157.582C262.262 128.034 254.96 94.6821 259.678 86.5659L286.941 42.4343C288.551 39.6444 287.877 35.8822 285.405 34.0223C282.934 32.2046 279.601 32.9655 277.99 35.7554L250.728 79.9293C243.426 92.3994 251.328 128.542 257.844 160.288L258.93 165.656C259.004 165.91 259.042 166.206 259.042 166.459C260.69 157.033 247.283 202.433 267.056 182.058Z" fill="black"/>
<path fill-rule="evenodd" clip-rule="evenodd" d="M258.33 97.3451C257.619 97.4296 257.057 98.1482 257.132 98.9937L257.769 108.251C257.843 109.097 258.48 109.688 259.229 109.646C259.941 109.562 260.502 108.843 260.427 107.998L259.791 98.74C259.716 97.8946 259.079 97.3028 258.33 97.3451Z" fill="#F7F743"/>
<path fill-rule="evenodd" clip-rule="evenodd" d="M259.978 113.535C259.229 113.62 258.705 114.381 258.78 115.184L259.679 124.441C259.754 125.244 260.39 125.836 261.139 125.752C261.851 125.667 262.412 124.948 262.338 124.103L261.439 114.846C261.364 114.042 260.69 113.451 259.978 113.535Z" fill="#666666"/>
<path fill-rule="evenodd" clip-rule="evenodd" d="M286.005 152.848L226.014 68.5581C225.265 67.5436 223.916 67.3745 223.018 68.1776L214.779 75.6597C213.88 76.4629 213.731 77.9847 214.48 78.9992L274.471 163.331C275.183 164.346 276.531 164.515 277.429 163.669L285.668 156.23C286.567 155.384 286.717 153.905 286.005 152.848Z" fill="black"/>
<path fill-rule="evenodd" clip-rule="evenodd" d="M218.749 72.0666L281.399 160.076L285.668 156.23C286.567 155.384 286.717 153.905 286.005 152.848L226.014 68.5581C225.265 67.5436 223.916 67.3745 223.018 68.1776L218.749 72.0666Z" fill="#666666"/>
<path fill-rule="evenodd" clip-rule="evenodd" d="M266.719 125.794C266.307 125.921 265.933 126.174 265.596 126.47L260.653 130.951L281.399 160.076L285.668 156.229C286.567 155.384 286.717 153.904 286.005 152.848L266.719 125.794Z" fill="#F7F743"/>
<path fill-rule="evenodd" clip-rule="evenodd" d="M227.25 83.9449L232.268 79.3796C232.567 79.1259 232.829 78.7878 233.017 78.4496L226.014 68.558C225.265 67.5435 223.917 67.3744 223.018 68.1776L218.749 72.0666L227.25 83.9449Z" fill="#F7F743"/>
<path fill-rule="evenodd" clip-rule="evenodd" d="M256.646 162.486C252.826 162.697 248.183 161.344 246.647 164.303C241.554 174.28 243.24 194.401 250.093 194.824C266.457 195.838 271.775 187.933 272.074 179.859C272.412 170.898 266.12 161.978 256.646 162.486Z" fill="#333333"/>
<path fill-rule="evenodd" clip-rule="evenodd" d="M271.25 173.561C264.622 181.085 244.325 176.604 243.801 173.011C242.603 183.664 242.303 194.866 246.984 195.162C267.393 196.345 271.775 187.933 272.074 179.859C272.187 177.704 271.85 175.548 271.25 173.561Z" fill="black"/>
<path d="M255.522 173.899C252.676 170.264 250.804 167.22 249.905 162.19C247.396 148.24 248.108 132.05 246.01 117.974C242.902 97.8101 241.442 80.4365 244.325 74.9412L271.7 28.1887C273.235 25.3142 272.411 21.5521 269.865 19.8612C267.318 18.1281 264.023 19.1003 262.488 21.9748L235.113 68.7272C233.241 72.3203 232.042 77.9847 232.267 85.0441C232.829 101.615 237.098 145.746 239.307 162.443C240.581 171.997 242.565 176.097 248.52 183.579C252.077 188.018 255.747 187.806 257.694 186.369C260.203 184.425 259.979 179.648 255.522 173.899Z" fill="#666666"/>
<path fill-rule="evenodd" clip-rule="evenodd" d="M242.94 93.8789C242.191 93.9634 241.666 94.682 241.704 95.5275L242.378 104.785C242.415 105.588 243.089 106.222 243.801 106.18C244.55 106.095 245.112 105.377 245.037 104.531L244.363 95.2738C244.325 94.4284 243.689 93.8366 242.94 93.8789Z" fill="#F7F743"/>
<path fill-rule="evenodd" clip-rule="evenodd" d="M244.587 110.069C243.838 110.153 243.314 110.872 243.389 111.718L244.25 120.975C244.325 121.778 244.999 122.37 245.711 122.285C246.46 122.201 246.984 121.482 246.909 120.637L246.048 111.379C245.973 110.576 245.299 109.984 244.587 110.069Z" fill="#F7F743"/>
<path d="M241.966 161.64C242.041 162.824 242.94 163.669 243.988 163.585C245 163.458 245.748 162.443 245.674 161.302L239.607 80.986C239.532 79.7601 239.57 78.6188 239.794 77.562C240.019 76.5052 240.431 75.4484 240.993 74.4762L268.554 26.4978C269.116 25.5256 268.854 24.2152 267.993 23.5811C267.131 22.947 265.97 23.2429 265.409 24.2152L237.847 72.1935C237.023 73.5885 236.499 75.068 236.162 76.5897C235.862 78.1115 235.75 79.6756 235.9 81.3242L241.966 161.64Z" fill="#808080"/>
<path d="M256.309 111.126L254.736 93.8789C254.623 92.653 254.698 91.5117 254.923 90.4549C255.148 89.3558 255.522 88.3413 256.084 87.3691L283.645 39.3907C284.207 38.4185 283.983 37.1081 283.121 36.474C282.26 35.8399 281.099 36.1358 280.537 37.1081L252.976 85.0864C252.152 86.4814 251.59 87.9609 251.291 89.4826C250.954 91.0044 250.879 92.5685 251.028 94.2171L251.74 104.743L256.309 111.126Z" fill="#4D4D4D"/>
<defs>
<filter id="filter0_b_104_231" x="786.676" y="156.959" width="139.63" height="187.134" filterUnits="userSpaceOnUse" color-interpolation-filters="sRGB">
<feFlood flood-opacity="0" result="BackgroundImageFix"/>
<feGaussianBlur in="BackgroundImageFix" stdDeviation="3.5"/>
<feComposite in2="SourceAlpha" operator="in" result="effect1_backgroundBlur_104_231"/>
<feBlend mode="normal" in="SourceGraphic" in2="effect1_backgroundBlur_104_231" result="shape"/>
</filter>
</defs>
</svg>
