<svg width="417" height="280" viewBox="0 0 417 280" fill="none" xmlns="http://www.w3.org/2000/svg">
<path d="M383.089 226L368 239.128L394.912 270.059L410 256.932L383.089 226Z" fill="#2A2929" />
<path d="M383 262.5C383 271.613 390.387 279 399.5 279C408.613 279 416 271.613 416 262.5C416 253.387 408.613 246 399.5 246C390.387 246 383 253.387 383 262.5Z" fill="#2A2929"/>
<path d="M33.9114 226L49 239.128L22.0884 270.059L6.99976 256.932L33.9114 226Z" fill="#2A2929"/>
<path d="M34 262.5C34 271.613 26.6127 279 17.5 279C8.3873 279 1 271.613 1 262.5C1 253.387 8.3873 246 17.5 246C26.6127 246 34 253.387 34 262.5Z" fill="#2A2929"/>
<path d="M74.5594 263.334C-11.0406 228.934 6.55943 146.668 26.0594 109.834C60.5594 83.1678 134.859 25.8344 156.059 9.83443C177.259 -6.16557 197.559 3.16776 205.059 9.83443C261.393 48.6678 377.059 128.434 389.059 136.834C401.059 145.234 400.393 155.668 398.559 159.834C392.893 187.501 380.759 244.934 377.559 253.334C373.959 260.134 368.059 262.834 365.559 263.334H74.5594Z" fill="#2A2929"/>
<path d="M383.089 226L368 239.128L394.912 270.059L410 256.932L383.089 226Z" stroke="#2A2929"/>
<path d="M383 262.5C383 271.613 390.387 279 399.5 279C408.613 279 416 271.613 416 262.5C416 253.387 408.613 246 399.5 246C390.387 246 383 253.387 383 262.5Z" stroke="#2A2929"/>
<path d="M33.9114 226L49 239.128L22.0884 270.059L6.99976 256.932L33.9114 226Z" stroke="#2A2929"/>
<path d="M34 262.5C34 271.613 26.6127 279 17.5 279C8.3873 279 1 271.613 1 262.5C1 253.387 8.3873 246 17.5 246C26.6127 246 34 253.387 34 262.5Z" stroke="#2A2929"/>
<path d="M74.5594 263.334C-11.0406 228.934 6.55943 146.668 26.0594 109.834C60.5594 83.1678 134.859 25.8344 156.059 9.83443C177.259 -6.16557 197.559 3.16776 205.059 9.83443C261.393 48.6678 377.059 128.434 389.059 136.834C401.059 145.234 400.393 155.668 398.559 159.834C392.893 187.501 380.759 244.934 377.559 253.334C373.959 260.134 368.059 262.834 365.559 263.334H74.5594Z" stroke="#2A2929"/>
</svg>
