<svg width="54" height="55" viewBox="0 0 54 55" fill="none" xmlns="http://www.w3.org/2000/svg">
<mask id="path-1-outside-1_1_1686" maskUnits="userSpaceOnUse" x="0" y="-6.10352e-05" width="55" height="55" fill="black">
<rect fill="white" y="-6.10352e-05" width="55" height="55"/>
<path fill-rule="evenodd" clip-rule="evenodd" d="M27.8499 1.58931L29.2887 5.28155C29.5314 5.88825 30.0341 6.30428 30.6928 6.42562C31.3515 6.54696 31.9582 6.32162 32.4089 5.81892L35.0091 2.85473C35.2691 2.56004 35.6504 2.47337 36.0145 2.59471C36.3958 2.73338 36.6212 3.06274 36.6212 3.4441L36.7252 7.39635C36.7425 8.05506 37.0719 8.6271 37.6439 8.95645C38.2159 9.28581 38.8746 9.30314 39.4467 8.97379L42.9136 7.08433C43.2603 6.89365 43.6589 6.92832 43.9536 7.18834C44.2483 7.43102 44.3697 7.81238 44.2483 8.1764L42.9656 11.9206C42.7576 12.562 42.8789 13.2034 43.3123 13.7061C43.7283 14.2088 44.3523 14.4515 44.9937 14.3475L48.9113 13.7581C49.2926 13.6888 49.6567 13.8621 49.8473 14.2088C50.038 14.5381 50.0207 14.9368 49.778 15.2489L47.2992 18.3171C46.8832 18.8371 46.7791 19.4958 47.0045 20.1198C47.2298 20.7439 47.7325 21.1599 48.3739 21.2986L52.2568 22.0613C52.6382 22.148 52.9155 22.4253 52.9849 22.8067C53.0542 23.188 52.8809 23.5521 52.5515 23.7601L49.1713 25.8229C48.6166 26.1522 48.2872 26.7243 48.2872 27.4003C48.2872 28.059 48.6166 28.6311 49.1713 28.9777L52.5515 31.0232C52.8809 31.2312 53.0542 31.5952 52.9849 31.9766C52.9155 32.358 52.6382 32.6526 52.2568 32.722L48.3739 33.502C47.7325 33.6234 47.2298 34.0567 47.0045 34.6808C46.7791 35.3048 46.8832 35.9462 47.2992 36.4662L49.778 39.5518C50.0207 39.8464 50.038 40.2451 49.8473 40.5918C49.6567 40.9212 49.2926 41.0945 48.9113 41.0425L44.9937 40.4358C44.3523 40.3491 43.7283 40.5745 43.3123 41.0772C42.8789 41.5972 42.7576 42.2386 42.9656 42.8626L44.2483 46.6069C44.3697 46.9709 44.2483 47.3523 43.9536 47.6123C43.6589 47.855 43.2603 47.8896 42.9136 47.7163L39.4467 45.8095C38.8746 45.4975 38.2159 45.4975 37.6439 45.8268C37.0719 46.1735 36.7425 46.7282 36.7252 47.3869L36.6212 51.3392C36.6212 51.7379 36.3958 52.0499 36.0145 52.1886C35.6504 52.3273 35.2691 52.2232 35.0091 51.9286L32.4089 48.9644C31.9582 48.4617 31.3515 48.2537 30.6928 48.3577C30.0341 48.479 29.5314 48.895 29.2887 49.5191L27.8499 53.194C27.7112 53.558 27.3819 53.7833 27.0005 53.7833C26.6018 53.7833 26.2725 53.558 26.1338 53.194L24.6951 49.5191C24.4524 48.895 23.9497 48.479 23.3083 48.3577C22.6496 48.2537 22.0255 48.4617 21.5922 48.9644L18.9747 51.9286C18.732 52.2232 18.3333 52.3273 17.9693 52.1886C17.6053 52.0499 17.3799 51.7379 17.3626 51.3392L17.2759 47.3869C17.2586 46.7282 16.9292 46.1735 16.3572 45.8268C15.7851 45.4975 15.1264 45.4975 14.5371 45.8095L11.0702 47.7163C10.7235 47.8896 10.3248 47.855 10.0301 47.6123C9.73542 47.3523 9.63142 46.9709 9.75276 46.6069L11.0182 42.8626C11.2262 42.2386 11.1222 41.5972 10.6888 41.0772C10.2555 40.5745 9.64875 40.3491 8.99004 40.4358L5.08979 41.0425C4.70843 41.0945 4.34441 40.9212 4.1364 40.5918C3.94572 40.2451 3.98039 39.8464 4.22307 39.5518L6.7019 36.4662C7.11792 35.9462 7.22193 35.3048 6.99658 34.6808C6.77123 34.0567 6.26853 33.6234 5.60982 33.502L1.74424 32.722C1.36288 32.6526 1.08553 32.358 1.0162 31.9766C0.946858 31.5952 1.10287 31.2312 1.43222 31.0232L4.81244 28.9777C5.38448 28.6311 5.71383 28.059 5.71383 27.4003C5.71383 26.7243 5.38448 26.1522 4.81244 25.8229L1.43222 23.7601C1.10287 23.5521 0.946858 23.188 1.0162 22.8067C1.08553 22.4253 1.36288 22.148 1.74424 22.0613L5.60982 21.2986C6.26853 21.1599 6.77123 20.7439 6.99658 20.1198C7.22193 19.4958 7.11792 18.8371 6.7019 18.3171L4.22307 15.2489C3.98039 14.9368 3.94572 14.5381 4.1364 14.2088C4.34441 13.8621 4.70843 13.6888 5.08979 13.7581L8.99004 14.3475C9.64875 14.4515 10.2555 14.2088 10.6888 13.7061C11.1048 13.2034 11.2262 12.562 11.0182 11.9206L9.75276 8.1764C9.63142 7.81238 9.73542 7.43102 10.0301 7.18834C10.3248 6.92832 10.7235 6.89365 11.0702 7.08433L14.5371 8.97379C15.1264 9.30314 15.7851 9.28581 16.3572 8.95645C16.9292 8.6271 17.2586 8.05506 17.2759 7.39635L17.3626 3.4441C17.3799 3.06274 17.6053 2.73338 17.9693 2.59471C18.3333 2.47337 18.732 2.56004 18.9747 2.85473L21.5922 5.81892C22.0255 6.32162 22.6496 6.54696 23.3083 6.42562C23.9497 6.30428 24.4524 5.90559 24.6951 5.28155L26.1338 1.58931C26.2725 1.22529 26.6018 0.999939 27.0005 0.999939C27.3819 0.999939 27.7112 1.22529 27.8499 1.58931Z"/>
</mask>
<path fill-rule="evenodd" clip-rule="evenodd" d="M27.8499 1.58931L29.2887 5.28155C29.5314 5.88825 30.0341 6.30428 30.6928 6.42562C31.3515 6.54696 31.9582 6.32162 32.4089 5.81892L35.0091 2.85473C35.2691 2.56004 35.6504 2.47337 36.0145 2.59471C36.3958 2.73338 36.6212 3.06274 36.6212 3.4441L36.7252 7.39635C36.7425 8.05506 37.0719 8.6271 37.6439 8.95645C38.2159 9.28581 38.8746 9.30314 39.4467 8.97379L42.9136 7.08433C43.2603 6.89365 43.6589 6.92832 43.9536 7.18834C44.2483 7.43102 44.3697 7.81238 44.2483 8.1764L42.9656 11.9206C42.7576 12.562 42.8789 13.2034 43.3123 13.7061C43.7283 14.2088 44.3523 14.4515 44.9937 14.3475L48.9113 13.7581C49.2926 13.6888 49.6567 13.8621 49.8473 14.2088C50.038 14.5381 50.0207 14.9368 49.778 15.2489L47.2992 18.3171C46.8832 18.8371 46.7791 19.4958 47.0045 20.1198C47.2298 20.7439 47.7325 21.1599 48.3739 21.2986L52.2568 22.0613C52.6382 22.148 52.9155 22.4253 52.9849 22.8067C53.0542 23.188 52.8809 23.5521 52.5515 23.7601L49.1713 25.8229C48.6166 26.1522 48.2872 26.7243 48.2872 27.4003C48.2872 28.059 48.6166 28.6311 49.1713 28.9777L52.5515 31.0232C52.8809 31.2312 53.0542 31.5952 52.9849 31.9766C52.9155 32.358 52.6382 32.6526 52.2568 32.722L48.3739 33.502C47.7325 33.6234 47.2298 34.0567 47.0045 34.6808C46.7791 35.3048 46.8832 35.9462 47.2992 36.4662L49.778 39.5518C50.0207 39.8464 50.038 40.2451 49.8473 40.5918C49.6567 40.9212 49.2926 41.0945 48.9113 41.0425L44.9937 40.4358C44.3523 40.3491 43.7283 40.5745 43.3123 41.0772C42.8789 41.5972 42.7576 42.2386 42.9656 42.8626L44.2483 46.6069C44.3697 46.9709 44.2483 47.3523 43.9536 47.6123C43.6589 47.855 43.2603 47.8896 42.9136 47.7163L39.4467 45.8095C38.8746 45.4975 38.2159 45.4975 37.6439 45.8268C37.0719 46.1735 36.7425 46.7282 36.7252 47.3869L36.6212 51.3392C36.6212 51.7379 36.3958 52.0499 36.0145 52.1886C35.6504 52.3273 35.2691 52.2232 35.0091 51.9286L32.4089 48.9644C31.9582 48.4617 31.3515 48.2537 30.6928 48.3577C30.0341 48.479 29.5314 48.895 29.2887 49.5191L27.8499 53.194C27.7112 53.558 27.3819 53.7833 27.0005 53.7833C26.6018 53.7833 26.2725 53.558 26.1338 53.194L24.6951 49.5191C24.4524 48.895 23.9497 48.479 23.3083 48.3577C22.6496 48.2537 22.0255 48.4617 21.5922 48.9644L18.9747 51.9286C18.732 52.2232 18.3333 52.3273 17.9693 52.1886C17.6053 52.0499 17.3799 51.7379 17.3626 51.3392L17.2759 47.3869C17.2586 46.7282 16.9292 46.1735 16.3572 45.8268C15.7851 45.4975 15.1264 45.4975 14.5371 45.8095L11.0702 47.7163C10.7235 47.8896 10.3248 47.855 10.0301 47.6123C9.73542 47.3523 9.63142 46.9709 9.75276 46.6069L11.0182 42.8626C11.2262 42.2386 11.1222 41.5972 10.6888 41.0772C10.2555 40.5745 9.64875 40.3491 8.99004 40.4358L5.08979 41.0425C4.70843 41.0945 4.34441 40.9212 4.1364 40.5918C3.94572 40.2451 3.98039 39.8464 4.22307 39.5518L6.7019 36.4662C7.11792 35.9462 7.22193 35.3048 6.99658 34.6808C6.77123 34.0567 6.26853 33.6234 5.60982 33.502L1.74424 32.722C1.36288 32.6526 1.08553 32.358 1.0162 31.9766C0.946858 31.5952 1.10287 31.2312 1.43222 31.0232L4.81244 28.9777C5.38448 28.6311 5.71383 28.059 5.71383 27.4003C5.71383 26.7243 5.38448 26.1522 4.81244 25.8229L1.43222 23.7601C1.10287 23.5521 0.946858 23.188 1.0162 22.8067C1.08553 22.4253 1.36288 22.148 1.74424 22.0613L5.60982 21.2986C6.26853 21.1599 6.77123 20.7439 6.99658 20.1198C7.22193 19.4958 7.11792 18.8371 6.7019 18.3171L4.22307 15.2489C3.98039 14.9368 3.94572 14.5381 4.1364 14.2088C4.34441 13.8621 4.70843 13.6888 5.08979 13.7581L8.99004 14.3475C9.64875 14.4515 10.2555 14.2088 10.6888 13.7061C11.1048 13.2034 11.2262 12.562 11.0182 11.9206L9.75276 8.1764C9.63142 7.81238 9.73542 7.43102 10.0301 7.18834C10.3248 6.92832 10.7235 6.89365 11.0702 7.08433L14.5371 8.97379C15.1264 9.30314 15.7851 9.28581 16.3572 8.95645C16.9292 8.6271 17.2586 8.05506 17.2759 7.39635L17.3626 3.4441C17.3799 3.06274 17.6053 2.73338 17.9693 2.59471C18.3333 2.47337 18.732 2.56004 18.9747 2.85473L21.5922 5.81892C22.0255 6.32162 22.6496 6.54696 23.3083 6.42562C23.9497 6.30428 24.4524 5.90559 24.6951 5.28155L26.1338 1.58931C26.2725 1.22529 26.6018 0.999939 27.0005 0.999939C27.3819 0.999939 27.7112 1.22529 27.8499 1.58931Z" stroke="black" stroke-width="2" mask="url(#path-1-outside-1_1_1686)"/>
</svg>
