<svg width="54" height="54" viewBox="0 0 54 54" fill="none" xmlns="http://www.w3.org/2000/svg">
<path d="M28.5608 1.33049L28.5548 1.32137L28.5484 1.31252C28.1876 0.81643 27.6452 0.499939 27 0.499939C26.3638 0.499939 25.7944 0.809358 25.4429 1.32494L25.4429 1.32492L25.44 1.32926L22.736 5.38525L22.7341 5.38814C22.1114 6.33627 20.897 6.66274 19.8743 6.15138L19.8714 6.14998L15.5115 4.00464C14.9397 3.69894 14.288 3.72513 13.744 4.0544C13.1932 4.37734 12.8552 4.90261 12.808 5.539L12.808 5.539L12.8077 5.54398L12.4957 10.4146L12.4956 10.4154C12.4244 11.5547 11.5464 12.4422 10.4155 12.5129L10.4147 12.513L5.55026 12.8246C4.91376 12.8505 4.35856 13.1874 4.04817 13.7548C3.7254 14.3128 3.7028 14.9362 3.98124 15.5163L3.9812 15.5163L3.98408 15.5221L6.15074 19.8901L6.15073 19.8901L6.15272 19.8941C6.66083 20.8962 6.33818 22.1101 5.3882 22.734L5.38532 22.7359L1.33353 25.4371C1.3328 25.4376 1.33206 25.4381 1.33132 25.4386C0.783072 25.7972 0.5 26.3755 0.5 26.9999C0.5 27.6243 0.783019 28.2026 1.33117 28.5612C1.33196 28.5617 1.33274 28.5622 1.33353 28.5627L5.38531 31.264L5.3882 31.2659C6.33818 31.8897 6.66083 33.1037 6.1527 34.1058L6.15074 34.1098L3.98408 38.4778L3.98404 38.4777L3.98124 38.4836C3.7028 39.0636 3.7254 39.6871 4.04817 40.2451C4.35855 40.8125 4.91373 41.1493 5.55021 41.1753L10.4147 41.4869L10.4155 41.487C11.5464 41.5576 12.4244 42.4451 12.4956 43.5845L12.4957 43.5852L12.8077 48.4559L12.808 48.4609C12.8552 49.0973 13.1932 49.6226 13.7441 49.9455C14.3022 50.2833 14.9516 50.2746 15.5047 49.9986C15.5052 49.9983 15.5057 49.9981 15.5063 49.9978L19.8714 47.8499L19.8743 47.8485C20.897 47.3371 22.1114 47.6636 22.7341 48.6117L22.736 48.6146L25.44 52.6706L25.4429 52.6749C25.7944 53.1905 26.3638 53.4999 27 53.4999C27.6452 53.4999 28.1876 53.1834 28.5484 52.6874L28.5548 52.6785L28.5608 52.6694L31.2457 48.616C31.246 48.6156 31.2463 48.6152 31.2466 48.6148C31.889 47.6595 33.1058 47.3401 34.1059 47.8472L34.1059 47.8473L34.1112 47.8499L38.4792 49.9993L38.4836 50.0014C39.0523 50.2743 39.6795 50.2817 40.2519 49.9478L40.252 49.9479L40.26 49.943C40.791 49.6198 41.1276 49.0962 41.1747 48.4609L41.175 48.4559L41.487 43.5852L41.487 43.5845C41.558 42.4494 42.4494 41.5579 43.5845 41.487L43.5854 41.4869L48.4322 41.1753C49.0951 41.1492 49.6251 40.8051 49.9479 40.2519L49.9519 40.245L49.9556 40.2381C50.2555 39.6846 50.2805 39.0649 50.0014 38.4836L50.0015 38.4836L49.9986 38.4778L47.8325 34.1109C47.8323 34.1105 47.8321 34.1102 47.832 34.1099C47.3374 33.1054 47.6621 31.8895 48.6118 31.2659L48.6147 31.264L52.6707 28.56L52.675 28.5571C53.1906 28.2055 53.5 27.6361 53.5 26.9999C53.5 26.3638 53.1906 25.7944 52.675 25.4428L52.6707 25.4399L48.6147 22.7359L48.6118 22.734C47.6621 22.1103 47.3374 20.8945 47.832 19.89C47.8321 19.8897 47.8323 19.8893 47.8325 19.889L49.9986 15.5221L49.9986 15.5221L50.0014 15.5163C50.2805 14.9349 50.2555 14.3153 49.9556 13.7618L49.9519 13.7548L49.9479 13.748C49.6251 13.1947 49.0951 12.8507 48.4321 12.8245L43.5854 12.513L43.5845 12.5129C42.4494 12.442 41.558 11.5505 41.487 10.4154L41.487 10.4146L41.175 5.54397L41.1746 5.539C41.1276 4.9037 40.791 4.38005 40.26 4.05684L40.26 4.05676L40.2519 4.05205C39.693 3.72599 39.0623 3.69944 38.4746 4.00293L34.1112 6.14998L34.1112 6.14994L34.1059 6.15266C33.1058 6.65972 31.889 6.34036 31.2466 5.38507C31.2463 5.38465 31.246 5.38424 31.2457 5.38383L28.5608 1.33049Z" stroke="black"/>
</svg>
