<svg width="85" height="86" viewBox="0 0 85 86" fill="none" xmlns="http://www.w3.org/2000/svg">
<mask id="path-1-outside-1_102_2" maskUnits="userSpaceOnUse" x="-0.321289" y="0.40625" width="86" height="85" fill="black">
<rect fill="white" x="-0.321289" y="0.40625" width="86" height="85"/>
<path fill-rule="evenodd" clip-rule="evenodd" d="M43.6306 3.07599L44.6469 7.76416C44.7806 8.38032 45.2887 8.80895 45.9306 8.88932C46.5457 8.9429 47.1341 8.59464 47.3747 8.00527L49.2468 3.61178C49.4073 3.23673 49.7817 3.02241 50.1828 3.10278C50.584 3.18315 50.8782 3.50462 50.9049 3.90647L51.0386 8.7018C51.0654 9.34475 51.4665 9.85375 52.0816 10.0413C52.6967 10.202 53.3118 9.98769 53.6595 9.4519L56.3071 5.46026C56.5478 5.112 56.949 4.97805 57.3501 5.13878C57.7245 5.27273 57.9385 5.67458 57.885 6.07642L57.1629 10.7914C57.0559 11.4343 57.3501 12.0237 57.9385 12.2916C58.5001 12.5863 59.142 12.4791 59.5966 12.0237L62.9396 8.59464C63.207 8.29995 63.6616 8.24637 63.9826 8.46069C64.3302 8.67501 64.4907 9.07685 64.357 9.47869L62.7791 13.9793C62.5651 14.5955 62.7523 15.2117 63.2605 15.6135C63.7686 15.9886 64.4372 15.9886 64.9453 15.6403L68.8499 12.881C69.1976 12.6399 69.6255 12.6667 69.9196 12.9345C70.2406 13.2024 70.2941 13.6579 70.0801 14.0061L67.6999 18.1585C67.379 18.6943 67.4592 19.364 67.8871 19.8463C68.315 20.3017 68.9836 20.4356 69.5452 20.1677L73.9044 18.1853C74.2521 17.9978 74.68 18.1049 74.9475 18.4532C75.1881 18.7747 75.1614 19.2033 74.894 19.5248L71.7917 23.1682C71.3905 23.6504 71.3371 24.3201 71.658 24.8559C72.0057 25.3917 72.6208 25.6328 73.2359 25.4721L77.8625 24.3201C78.2637 24.2129 78.6648 24.4005 78.852 24.7755C79.0392 25.1506 78.9323 25.5792 78.6113 25.8203L74.894 28.8208C74.4126 29.2226 74.2254 29.8655 74.4661 30.4817C74.68 31.0711 75.2416 31.4193 75.8835 31.3926L80.6438 31.0979C81.0717 31.0711 81.4194 31.3122 81.5264 31.714C81.6334 32.1159 81.4729 32.5177 81.1252 32.7052L76.8997 34.9824C76.3381 35.277 76.0707 35.8932 76.1777 36.5094C76.2846 37.1255 76.766 37.5809 77.4079 37.6613L82.1415 38.2507C82.5426 38.3043 82.8636 38.6257 82.8903 39.0276C82.9438 39.4562 82.7031 39.8045 82.302 39.9384L77.7555 41.3851C77.1404 41.5994 76.766 42.1352 76.766 42.7513C76.766 43.3943 77.1404 43.9301 77.7555 44.1176L82.302 45.591C82.7031 45.6982 82.9438 46.0732 82.8903 46.4751C82.8636 46.8769 82.5426 47.1984 82.1415 47.252L77.4079 47.8413C76.766 47.9217 76.2846 48.3771 76.1777 49.0201C76.0707 49.6362 76.3381 50.2256 76.8997 50.5471L81.1252 52.7974C81.4729 53.0117 81.6334 53.4136 81.5264 53.8154C81.4194 54.1905 81.0717 54.4584 80.6438 54.4316L75.8835 54.1369C75.2416 54.1101 74.68 54.4584 74.4661 55.0477C74.2254 55.6371 74.4126 56.28 74.894 56.6819L78.6113 59.6823C78.9323 59.9502 79.0392 60.3789 78.852 60.7539C78.6648 61.1022 78.2637 61.2897 77.8625 61.2093L73.2359 60.0306C72.6208 59.8699 72.0057 60.1377 71.658 60.6735C71.3371 61.2093 71.3905 61.8791 71.7917 62.3613L74.894 66.0047C75.1614 66.2993 75.1881 66.7548 74.9475 67.0762C74.68 67.3977 74.2521 67.5049 73.9044 67.3441L69.5452 65.3349C68.9836 65.0938 68.315 65.2278 67.8871 65.6832C67.4592 66.1386 67.379 66.8083 67.6999 67.3709L70.0801 71.5233C70.2941 71.8716 70.2406 72.3002 69.9196 72.5681C69.6255 72.8628 69.1976 72.8896 68.8499 72.6485L64.9453 69.8891C64.4372 69.5141 63.7686 69.5409 63.2605 69.9159C62.7523 70.291 62.5651 70.9339 62.7791 71.5233L64.357 76.0507C64.4907 76.4258 64.3302 76.8544 63.9826 77.0687C63.6349 77.2831 63.207 77.2295 62.9396 76.9348L59.5966 73.5057C59.142 73.0503 58.5001 72.9432 57.9385 73.211C57.3501 73.5057 57.0559 74.0951 57.1629 74.7113L57.885 79.453C57.9385 79.8549 57.7245 80.2299 57.3501 80.3907C56.949 80.5246 56.5478 80.3907 56.3071 80.0692L53.6595 76.0775C53.3118 75.5417 52.6967 75.3006 52.0816 75.4882C51.4665 75.6489 51.0654 76.1847 51.0386 76.8276L50.9049 81.5962C50.8782 82.0248 50.584 82.3463 50.1828 82.4267C49.7817 82.507 49.4073 82.2927 49.2468 81.9177L47.3747 77.4974C47.1341 76.9348 46.5457 76.5865 45.9306 76.6401C45.2887 76.6937 44.7806 77.1491 44.6469 77.7653L43.6306 82.4267C43.5504 82.8285 43.2027 83.1232 42.8016 83.1232C42.3737 83.1232 42.026 82.8285 41.9458 82.4267L40.9295 77.7653C40.7958 77.1491 40.2877 76.6937 39.6458 76.6401C39.0307 76.5865 38.4424 76.9348 38.2017 77.4974L36.3296 81.9177C36.1692 82.2927 35.7947 82.507 35.3936 82.4267C34.9924 82.3463 34.6983 82.0248 34.6983 81.5962L34.5378 76.8276C34.5111 76.1847 34.1099 75.6489 33.4948 75.4882C32.8797 75.3006 32.2646 75.5417 31.9169 76.0775L29.2693 80.0692C29.0286 80.3907 28.6274 80.5246 28.2263 80.3907C27.8519 80.2299 27.6379 79.8549 27.6914 79.453L28.4135 74.7113C28.5205 74.0951 28.2263 73.5057 27.6379 73.211C27.0763 72.9432 26.4345 73.0503 25.9798 73.5057L22.6636 76.9348C22.3694 77.2295 21.9415 77.2831 21.5939 77.0687C21.2462 76.8544 21.0857 76.4258 21.2195 76.0507L22.7973 71.5233C23.0113 70.9339 22.8241 70.291 22.3159 69.9159C21.8078 69.5409 21.1392 69.5141 20.6311 69.8891L16.7265 72.6485C16.3789 72.8896 15.951 72.8628 15.6568 72.5681C15.3359 72.3002 15.2824 71.8716 15.4963 71.5233L17.8765 67.3709C18.1974 66.8083 18.1172 66.1654 17.6893 65.6832C17.2614 65.2278 16.6196 65.0938 16.0312 65.3349L11.6987 67.3441C11.3243 67.5049 10.8964 67.3977 10.629 67.0762C10.3883 66.7548 10.415 66.2993 10.6825 66.0047L13.7847 62.3613C14.1859 61.8791 14.2394 61.2093 13.9184 60.6735C13.5708 60.1377 12.9557 59.8699 12.3406 60.0306L7.71391 61.2093C7.31276 61.2897 6.91161 61.1022 6.7244 60.7539C6.53719 60.3789 6.64417 59.9502 6.96509 59.6823L10.6825 56.6819C11.1638 56.28 11.3511 55.6371 11.1104 55.0477C10.8964 54.4584 10.3348 54.1101 9.69294 54.1369L4.93257 54.4316C4.50468 54.4584 4.15701 54.1905 4.05003 53.8154C3.94306 53.4136 4.10352 53.0117 4.45119 52.7974L8.67669 50.5471C9.2383 50.2256 9.50574 49.6362 9.39876 49.0201C9.29179 48.3771 8.8104 47.9217 8.16856 47.8413L3.43493 47.252C3.03378 47.1984 2.71285 46.8769 2.68611 46.4751C2.63262 46.0732 2.87331 45.6982 3.27447 45.591L7.82089 44.1176C8.43599 43.9301 8.8104 43.3943 8.8104 42.7513C8.8104 42.1352 8.43599 41.5994 7.82089 41.3851L3.27447 39.9384C2.87331 39.8045 2.63262 39.4562 2.68611 39.0276C2.71285 38.6257 3.03378 38.3043 3.43493 38.2507L8.16856 37.6613C8.8104 37.5809 9.29179 37.1255 9.39876 36.5094C9.50574 35.8932 9.2383 35.277 8.67669 34.9824L4.45119 32.7052C4.10352 32.5177 3.94306 32.1159 4.05003 31.714C4.15701 31.3122 4.50468 31.0711 4.93257 31.0979L9.69294 31.3926C10.3348 31.4193 10.8964 31.0711 11.1104 30.4817C11.3511 29.8655 11.1638 29.2226 10.6825 28.8208L6.96509 25.8203C6.64417 25.5792 6.53719 25.1506 6.7244 24.7755C6.91161 24.4005 7.31276 24.2129 7.71391 24.3201L12.3406 25.4721C12.9557 25.6328 13.5708 25.3917 13.9184 24.8559C14.2394 24.3201 14.1859 23.6504 13.7847 23.1682L10.6825 19.5248C10.415 19.2033 10.3883 18.7747 10.629 18.4532C10.8964 18.1049 11.3243 17.9978 11.6987 18.1853L16.0312 20.1677C16.6196 20.4356 17.2614 20.3017 17.6893 19.8463C18.1172 19.364 18.1974 18.6943 17.8765 18.1585L15.4963 14.0061C15.2824 13.6579 15.3359 13.2024 15.6568 12.9345C15.951 12.6667 16.3789 12.6399 16.7265 12.881L20.6311 15.6403C21.1392 15.9886 21.8078 15.9886 22.3159 15.6135C22.8241 15.2117 23.0113 14.5955 22.7973 13.9793L21.2195 9.47869C21.0857 9.07685 21.2462 8.67501 21.5939 8.46069C21.9415 8.24637 22.3694 8.29995 22.6369 8.59464L25.9798 12.0237C26.4345 12.4791 27.0763 12.5863 27.6379 12.2916C28.2263 12.0237 28.5205 11.4343 28.4135 10.7914L27.6914 6.07642C27.6379 5.67458 27.8519 5.27273 28.2263 5.13878C28.6274 4.97805 29.0286 5.112 29.2693 5.46026L31.9169 9.4519C32.2646 9.98769 32.8797 10.202 33.4948 10.0413C34.1099 9.85375 34.5111 9.34475 34.5378 8.7018L34.6983 3.90647C34.6983 3.50462 34.9924 3.18315 35.3936 3.10278C35.7947 3.02241 36.1692 3.23673 36.3296 3.61178L38.2017 8.00527C38.4424 8.59464 39.0307 8.9429 39.6458 8.88932C40.2877 8.80895 40.7958 8.38032 40.9295 7.76416L41.9458 3.07599C42.026 2.67415 42.3737 2.40625 42.8016 2.40625C43.2027 2.40625 43.5504 2.67415 43.6306 3.07599Z"/>
</mask>
<path fill-rule="evenodd" clip-rule="evenodd" d="M43.6306 3.07599L44.6469 7.76416C44.7806 8.38032 45.2887 8.80895 45.9306 8.88932C46.5457 8.9429 47.1341 8.59464 47.3747 8.00527L49.2468 3.61178C49.4073 3.23673 49.7817 3.02241 50.1828 3.10278C50.584 3.18315 50.8782 3.50462 50.9049 3.90647L51.0386 8.7018C51.0654 9.34475 51.4665 9.85375 52.0816 10.0413C52.6967 10.202 53.3118 9.98769 53.6595 9.4519L56.3071 5.46026C56.5478 5.112 56.949 4.97805 57.3501 5.13878C57.7245 5.27273 57.9385 5.67458 57.885 6.07642L57.1629 10.7914C57.0559 11.4343 57.3501 12.0237 57.9385 12.2916C58.5001 12.5863 59.142 12.4791 59.5966 12.0237L62.9396 8.59464C63.207 8.29995 63.6616 8.24637 63.9826 8.46069C64.3302 8.67501 64.4907 9.07685 64.357 9.47869L62.7791 13.9793C62.5651 14.5955 62.7523 15.2117 63.2605 15.6135C63.7686 15.9886 64.4372 15.9886 64.9453 15.6403L68.8499 12.881C69.1976 12.6399 69.6255 12.6667 69.9196 12.9345C70.2406 13.2024 70.2941 13.6579 70.0801 14.0061L67.6999 18.1585C67.379 18.6943 67.4592 19.364 67.8871 19.8463C68.315 20.3017 68.9836 20.4356 69.5452 20.1677L73.9044 18.1853C74.2521 17.9978 74.68 18.1049 74.9475 18.4532C75.1881 18.7747 75.1614 19.2033 74.894 19.5248L71.7917 23.1682C71.3905 23.6504 71.3371 24.3201 71.658 24.8559C72.0057 25.3917 72.6208 25.6328 73.2359 25.4721L77.8625 24.3201C78.2637 24.2129 78.6648 24.4005 78.852 24.7755C79.0392 25.1506 78.9323 25.5792 78.6113 25.8203L74.894 28.8208C74.4126 29.2226 74.2254 29.8655 74.4661 30.4817C74.68 31.0711 75.2416 31.4193 75.8835 31.3926L80.6438 31.0979C81.0717 31.0711 81.4194 31.3122 81.5264 31.714C81.6334 32.1159 81.4729 32.5177 81.1252 32.7052L76.8997 34.9824C76.3381 35.277 76.0707 35.8932 76.1777 36.5094C76.2846 37.1255 76.766 37.5809 77.4079 37.6613L82.1415 38.2507C82.5426 38.3043 82.8636 38.6257 82.8903 39.0276C82.9438 39.4562 82.7031 39.8045 82.302 39.9384L77.7555 41.3851C77.1404 41.5994 76.766 42.1352 76.766 42.7513C76.766 43.3943 77.1404 43.9301 77.7555 44.1176L82.302 45.591C82.7031 45.6982 82.9438 46.0732 82.8903 46.4751C82.8636 46.8769 82.5426 47.1984 82.1415 47.252L77.4079 47.8413C76.766 47.9217 76.2846 48.3771 76.1777 49.0201C76.0707 49.6362 76.3381 50.2256 76.8997 50.5471L81.1252 52.7974C81.4729 53.0117 81.6334 53.4136 81.5264 53.8154C81.4194 54.1905 81.0717 54.4584 80.6438 54.4316L75.8835 54.1369C75.2416 54.1101 74.68 54.4584 74.4661 55.0477C74.2254 55.6371 74.4126 56.28 74.894 56.6819L78.6113 59.6823C78.9323 59.9502 79.0392 60.3789 78.852 60.7539C78.6648 61.1022 78.2637 61.2897 77.8625 61.2093L73.2359 60.0306C72.6208 59.8699 72.0057 60.1377 71.658 60.6735C71.3371 61.2093 71.3905 61.8791 71.7917 62.3613L74.894 66.0047C75.1614 66.2993 75.1881 66.7548 74.9475 67.0762C74.68 67.3977 74.2521 67.5049 73.9044 67.3441L69.5452 65.3349C68.9836 65.0938 68.315 65.2278 67.8871 65.6832C67.4592 66.1386 67.379 66.8083 67.6999 67.3709L70.0801 71.5233C70.2941 71.8716 70.2406 72.3002 69.9196 72.5681C69.6255 72.8628 69.1976 72.8896 68.8499 72.6485L64.9453 69.8891C64.4372 69.5141 63.7686 69.5409 63.2605 69.9159C62.7523 70.291 62.5651 70.9339 62.7791 71.5233L64.357 76.0507C64.4907 76.4258 64.3302 76.8544 63.9826 77.0687C63.6349 77.2831 63.207 77.2295 62.9396 76.9348L59.5966 73.5057C59.142 73.0503 58.5001 72.9432 57.9385 73.211C57.3501 73.5057 57.0559 74.0951 57.1629 74.7113L57.885 79.453C57.9385 79.8549 57.7245 80.2299 57.3501 80.3907C56.949 80.5246 56.5478 80.3907 56.3071 80.0692L53.6595 76.0775C53.3118 75.5417 52.6967 75.3006 52.0816 75.4882C51.4665 75.6489 51.0654 76.1847 51.0386 76.8276L50.9049 81.5962C50.8782 82.0248 50.584 82.3463 50.1828 82.4267C49.7817 82.507 49.4073 82.2927 49.2468 81.9177L47.3747 77.4974C47.1341 76.9348 46.5457 76.5865 45.9306 76.6401C45.2887 76.6937 44.7806 77.1491 44.6469 77.7653L43.6306 82.4267C43.5504 82.8285 43.2027 83.1232 42.8016 83.1232C42.3737 83.1232 42.026 82.8285 41.9458 82.4267L40.9295 77.7653C40.7958 77.1491 40.2877 76.6937 39.6458 76.6401C39.0307 76.5865 38.4424 76.9348 38.2017 77.4974L36.3296 81.9177C36.1692 82.2927 35.7947 82.507 35.3936 82.4267C34.9924 82.3463 34.6983 82.0248 34.6983 81.5962L34.5378 76.8276C34.5111 76.1847 34.1099 75.6489 33.4948 75.4882C32.8797 75.3006 32.2646 75.5417 31.9169 76.0775L29.2693 80.0692C29.0286 80.3907 28.6274 80.5246 28.2263 80.3907C27.8519 80.2299 27.6379 79.8549 27.6914 79.453L28.4135 74.7113C28.5205 74.0951 28.2263 73.5057 27.6379 73.211C27.0763 72.9432 26.4345 73.0503 25.9798 73.5057L22.6636 76.9348C22.3694 77.2295 21.9415 77.2831 21.5939 77.0687C21.2462 76.8544 21.0857 76.4258 21.2195 76.0507L22.7973 71.5233C23.0113 70.9339 22.8241 70.291 22.3159 69.9159C21.8078 69.5409 21.1392 69.5141 20.6311 69.8891L16.7265 72.6485C16.3789 72.8896 15.951 72.8628 15.6568 72.5681C15.3359 72.3002 15.2824 71.8716 15.4963 71.5233L17.8765 67.3709C18.1974 66.8083 18.1172 66.1654 17.6893 65.6832C17.2614 65.2278 16.6196 65.0938 16.0312 65.3349L11.6987 67.3441C11.3243 67.5049 10.8964 67.3977 10.629 67.0762C10.3883 66.7548 10.415 66.2993 10.6825 66.0047L13.7847 62.3613C14.1859 61.8791 14.2394 61.2093 13.9184 60.6735C13.5708 60.1377 12.9557 59.8699 12.3406 60.0306L7.71391 61.2093C7.31276 61.2897 6.91161 61.1022 6.7244 60.7539C6.53719 60.3789 6.64417 59.9502 6.96509 59.6823L10.6825 56.6819C11.1638 56.28 11.3511 55.6371 11.1104 55.0477C10.8964 54.4584 10.3348 54.1101 9.69294 54.1369L4.93257 54.4316C4.50468 54.4584 4.15701 54.1905 4.05003 53.8154C3.94306 53.4136 4.10352 53.0117 4.45119 52.7974L8.67669 50.5471C9.2383 50.2256 9.50574 49.6362 9.39876 49.0201C9.29179 48.3771 8.8104 47.9217 8.16856 47.8413L3.43493 47.252C3.03378 47.1984 2.71285 46.8769 2.68611 46.4751C2.63262 46.0732 2.87331 45.6982 3.27447 45.591L7.82089 44.1176C8.43599 43.9301 8.8104 43.3943 8.8104 42.7513C8.8104 42.1352 8.43599 41.5994 7.82089 41.3851L3.27447 39.9384C2.87331 39.8045 2.63262 39.4562 2.68611 39.0276C2.71285 38.6257 3.03378 38.3043 3.43493 38.2507L8.16856 37.6613C8.8104 37.5809 9.29179 37.1255 9.39876 36.5094C9.50574 35.8932 9.2383 35.277 8.67669 34.9824L4.45119 32.7052C4.10352 32.5177 3.94306 32.1159 4.05003 31.714C4.15701 31.3122 4.50468 31.0711 4.93257 31.0979L9.69294 31.3926C10.3348 31.4193 10.8964 31.0711 11.1104 30.4817C11.3511 29.8655 11.1638 29.2226 10.6825 28.8208L6.96509 25.8203C6.64417 25.5792 6.53719 25.1506 6.7244 24.7755C6.91161 24.4005 7.31276 24.2129 7.71391 24.3201L12.3406 25.4721C12.9557 25.6328 13.5708 25.3917 13.9184 24.8559C14.2394 24.3201 14.1859 23.6504 13.7847 23.1682L10.6825 19.5248C10.415 19.2033 10.3883 18.7747 10.629 18.4532C10.8964 18.1049 11.3243 17.9978 11.6987 18.1853L16.0312 20.1677C16.6196 20.4356 17.2614 20.3017 17.6893 19.8463C18.1172 19.364 18.1974 18.6943 17.8765 18.1585L15.4963 14.0061C15.2824 13.6579 15.3359 13.2024 15.6568 12.9345C15.951 12.6667 16.3789 12.6399 16.7265 12.881L20.6311 15.6403C21.1392 15.9886 21.8078 15.9886 22.3159 15.6135C22.8241 15.2117 23.0113 14.5955 22.7973 13.9793L21.2195 9.47869C21.0857 9.07685 21.2462 8.67501 21.5939 8.46069C21.9415 8.24637 22.3694 8.29995 22.6369 8.59464L25.9798 12.0237C26.4345 12.4791 27.0763 12.5863 27.6379 12.2916C28.2263 12.0237 28.5205 11.4343 28.4135 10.7914L27.6914 6.07642C27.6379 5.67458 27.8519 5.27273 28.2263 5.13878C28.6274 4.97805 29.0286 5.112 29.2693 5.46026L31.9169 9.4519C32.2646 9.98769 32.8797 10.202 33.4948 10.0413C34.1099 9.85375 34.5111 9.34475 34.5378 8.7018L34.6983 3.90647C34.6983 3.50462 34.9924 3.18315 35.3936 3.10278C35.7947 3.02241 36.1692 3.23673 36.3296 3.61178L38.2017 8.00527C38.4424 8.59464 39.0307 8.9429 39.6458 8.88932C40.2877 8.80895 40.7958 8.38032 40.9295 7.76416L41.9458 3.07599C42.026 2.67415 42.3737 2.40625 42.8016 2.40625C43.2027 2.40625 43.5504 2.67415 43.6306 3.07599Z" stroke="black" stroke-width="4" mask="url(#path-1-outside-1_102_2)"/>
</svg>
