<svg width="54" height="54" viewBox="0 0 54 54" fill="none" xmlns="http://www.w3.org/2000/svg">
<mask id="path-1-outside-1_1_1687" maskUnits="userSpaceOnUse" x="0" y="-6.10352e-05" width="54" height="54" fill="black">
<rect fill="white" y="-6.10352e-05" width="54" height="54"/>
<path fill-rule="evenodd" clip-rule="evenodd" d="M27.8755 1.62406L29.0024 4.93539C29.1931 5.47283 29.6265 5.8369 30.1813 5.92358C30.7534 6.01027 31.2735 5.78489 31.6029 5.33413L33.666 2.4909C33.9087 2.1615 34.3075 2.04015 34.6889 2.1615C35.0703 2.26552 35.3303 2.61226 35.3303 3.011L35.4517 6.51303C35.469 7.08515 35.7637 7.55324 36.2838 7.79596C36.7866 8.03867 37.3587 7.98666 37.8095 7.65726L40.618 5.54217C40.9301 5.3168 41.3635 5.29946 41.6929 5.52484C42.0223 5.75022 42.161 6.14896 42.057 6.53037L41.1208 9.91104C40.9821 10.4658 41.1381 11.0033 41.5542 11.3847C41.9703 11.7834 42.5251 11.8874 43.0452 11.6967L46.3565 10.5178C46.7379 10.3791 47.1367 10.5005 47.3794 10.8126C47.6394 11.1246 47.6568 11.5407 47.4487 11.8874L45.559 14.8347C45.247 15.3201 45.247 15.8922 45.5243 16.3777C45.8017 16.8631 46.3045 17.1405 46.8593 17.1058L50.3786 16.9671C50.7774 16.9324 51.1241 17.1752 51.2802 17.5392C51.4188 17.9206 51.3148 18.3194 51.0028 18.5794L48.3329 20.8505C47.8995 21.2146 47.7261 21.7521 47.8475 22.3068C47.9862 22.8616 48.3676 23.2777 48.9224 23.4164L52.3204 24.3006C52.7018 24.4046 52.9792 24.7167 52.9965 25.1154C53.0312 25.5141 52.8058 25.8782 52.4417 26.0342L49.2171 27.4212C48.697 27.6466 48.3676 28.0973 48.3329 28.6694C48.2809 29.2242 48.5409 29.7443 49.0264 30.039L52.0083 31.8767C52.355 32.0848 52.5111 32.4835 52.4244 32.8649C52.3377 33.2637 52.0256 33.5411 51.6096 33.5931L48.1249 33.9571C47.5701 34.0092 47.1193 34.3559 46.9113 34.876C46.7032 35.4134 46.8073 35.9682 47.1713 36.4016L49.4771 39.0368C49.7372 39.3489 49.7892 39.765 49.5812 40.1117C49.3731 40.4584 48.9917 40.6318 48.6103 40.5451L45.1603 39.869C44.6055 39.765 44.0681 39.9557 43.7213 40.4064C43.3746 40.8399 43.3052 41.412 43.5306 41.9321L44.9522 45.1394C45.1083 45.5034 45.0389 45.9195 44.7442 46.1796C44.4495 46.457 44.016 46.509 43.6693 46.3183L40.5834 44.6539C40.0806 44.3939 39.5085 44.4286 39.0404 44.7406C38.5896 45.0527 38.3469 45.5728 38.4163 46.1449L38.8324 49.6296C38.8844 50.0283 38.6763 50.3924 38.3122 50.5658C37.9482 50.7392 37.5321 50.6698 37.2547 50.3751L34.7929 47.8786C34.3941 47.4798 33.8394 47.3411 33.3019 47.5145C32.7645 47.6705 32.3831 48.104 32.279 48.6587L31.6549 52.1088C31.5856 52.5075 31.2909 52.8022 30.8921 52.8542C30.4934 52.9062 30.112 52.7155 29.9212 52.3688L28.3089 49.2482C28.0489 48.7454 27.5634 48.4507 27.0087 48.4507C26.4366 48.4507 25.9511 48.7454 25.6911 49.2482L24.0788 52.3688C23.8881 52.7155 23.5066 52.9062 23.1079 52.8542C22.7091 52.8022 22.4144 52.5075 22.3451 52.1088L21.721 48.6587C21.6169 48.104 21.2355 47.6705 20.6981 47.5145C20.1606 47.3411 19.6059 47.4798 19.2071 47.8786L16.7453 50.3751C16.4679 50.6698 16.0518 50.7392 15.6878 50.5658C15.3237 50.3924 15.1156 50.0283 15.1677 49.6296L15.5837 46.1449C15.6531 45.5728 15.4277 45.0527 14.9596 44.7406C14.4915 44.4286 13.9194 44.3939 13.4166 44.6539L10.3307 46.3183C9.98395 46.509 9.55054 46.457 9.25581 46.1796C8.96108 45.9195 8.89174 45.5034 9.04777 45.1394L10.4694 41.9321C10.6948 41.412 10.6254 40.8399 10.2787 40.4064C9.93194 39.9557 9.3945 39.765 8.83973 39.869L5.38971 40.5451C5.0083 40.6318 4.62689 40.4584 4.41885 40.1117C4.21081 39.765 4.26282 39.3489 4.52287 39.0368L6.82866 36.4016C7.19273 35.9682 7.29675 35.4134 7.08871 34.876C6.88067 34.3559 6.42991 34.0092 5.87514 33.9571L2.39045 33.5931C1.97436 33.5411 1.6623 33.2637 1.57562 32.8649C1.48893 32.4835 1.64496 32.0848 1.9917 31.8767L4.97363 30.039C5.45906 29.7443 5.71911 29.2242 5.6671 28.6694C5.63242 28.0973 5.30302 27.6466 4.78292 27.4212L1.55828 26.0342C1.19421 25.8782 0.968831 25.5315 1.0035 25.1154C1.02084 24.7167 1.29823 24.4046 1.67964 24.3006L5.07765 23.4164C5.63242 23.2777 6.01383 22.8616 6.15253 22.3068C6.27388 21.7521 6.10052 21.2146 5.6671 20.8505L2.99723 18.5794C2.68517 18.3194 2.58115 17.9206 2.71985 17.5392C2.87588 17.1752 3.22261 16.9324 3.62136 16.9671L7.14072 17.1058C7.6955 17.1405 8.19827 16.8631 8.47565 16.3777C8.75304 15.8922 8.75304 15.3201 8.44098 14.8347L6.55127 11.8874C6.34323 11.5407 6.36057 11.1246 6.62062 10.8126C6.86333 10.5005 7.26208 10.3791 7.64349 10.5178L10.9548 11.6967C11.4749 11.8874 12.0297 11.7834 12.4458 11.3847C12.8619 11.0033 13.0179 10.4658 12.8792 9.91104L11.943 6.53037C11.839 6.14896 11.9777 5.75022 12.3071 5.52484C12.6365 5.29946 13.0699 5.3168 13.382 5.54217L16.1905 7.65726C16.6413 7.98666 17.2134 8.03867 17.7162 7.79596C18.2363 7.55324 18.531 7.08515 18.5483 6.51303L18.6697 3.011C18.6697 2.61226 18.9297 2.26552 19.3111 2.1615C19.6925 2.04015 20.0913 2.1615 20.334 2.4909L22.3971 5.33413C22.7265 5.78489 23.2466 6.01027 23.8187 5.92358C24.3735 5.8369 24.8069 5.47283 24.9976 4.93539L26.1245 1.62406C26.2632 1.24265 26.5926 0.999939 27.0087 0.999939C27.4074 0.999939 27.7368 1.24265 27.8755 1.62406Z"/>
</mask>
<path fill-rule="evenodd" clip-rule="evenodd" d="M27.8755 1.62406L29.0024 4.93539C29.1931 5.47283 29.6265 5.8369 30.1813 5.92358C30.7534 6.01027 31.2735 5.78489 31.6029 5.33413L33.666 2.4909C33.9087 2.1615 34.3075 2.04015 34.6889 2.1615C35.0703 2.26552 35.3303 2.61226 35.3303 3.011L35.4517 6.51303C35.469 7.08515 35.7637 7.55324 36.2838 7.79596C36.7866 8.03867 37.3587 7.98666 37.8095 7.65726L40.618 5.54217C40.9301 5.3168 41.3635 5.29946 41.6929 5.52484C42.0223 5.75022 42.161 6.14896 42.057 6.53037L41.1208 9.91104C40.9821 10.4658 41.1381 11.0033 41.5542 11.3847C41.9703 11.7834 42.5251 11.8874 43.0452 11.6967L46.3565 10.5178C46.7379 10.3791 47.1367 10.5005 47.3794 10.8126C47.6394 11.1246 47.6568 11.5407 47.4487 11.8874L45.559 14.8347C45.247 15.3201 45.247 15.8922 45.5243 16.3777C45.8017 16.8631 46.3045 17.1405 46.8593 17.1058L50.3786 16.9671C50.7774 16.9324 51.1241 17.1752 51.2802 17.5392C51.4188 17.9206 51.3148 18.3194 51.0028 18.5794L48.3329 20.8505C47.8995 21.2146 47.7261 21.7521 47.8475 22.3068C47.9862 22.8616 48.3676 23.2777 48.9224 23.4164L52.3204 24.3006C52.7018 24.4046 52.9792 24.7167 52.9965 25.1154C53.0312 25.5141 52.8058 25.8782 52.4417 26.0342L49.2171 27.4212C48.697 27.6466 48.3676 28.0973 48.3329 28.6694C48.2809 29.2242 48.5409 29.7443 49.0264 30.039L52.0083 31.8767C52.355 32.0848 52.5111 32.4835 52.4244 32.8649C52.3377 33.2637 52.0256 33.5411 51.6096 33.5931L48.1249 33.9571C47.5701 34.0092 47.1193 34.3559 46.9113 34.876C46.7032 35.4134 46.8073 35.9682 47.1713 36.4016L49.4771 39.0368C49.7372 39.3489 49.7892 39.765 49.5812 40.1117C49.3731 40.4584 48.9917 40.6318 48.6103 40.5451L45.1603 39.869C44.6055 39.765 44.0681 39.9557 43.7213 40.4064C43.3746 40.8399 43.3052 41.412 43.5306 41.9321L44.9522 45.1394C45.1083 45.5034 45.0389 45.9195 44.7442 46.1796C44.4495 46.457 44.016 46.509 43.6693 46.3183L40.5834 44.6539C40.0806 44.3939 39.5085 44.4286 39.0404 44.7406C38.5896 45.0527 38.3469 45.5728 38.4163 46.1449L38.8324 49.6296C38.8844 50.0283 38.6763 50.3924 38.3122 50.5658C37.9482 50.7392 37.5321 50.6698 37.2547 50.3751L34.7929 47.8786C34.3941 47.4798 33.8394 47.3411 33.3019 47.5145C32.7645 47.6705 32.3831 48.104 32.279 48.6587L31.6549 52.1088C31.5856 52.5075 31.2909 52.8022 30.8921 52.8542C30.4934 52.9062 30.112 52.7155 29.9212 52.3688L28.3089 49.2482C28.0489 48.7454 27.5634 48.4507 27.0087 48.4507C26.4366 48.4507 25.9511 48.7454 25.6911 49.2482L24.0788 52.3688C23.8881 52.7155 23.5066 52.9062 23.1079 52.8542C22.7091 52.8022 22.4144 52.5075 22.3451 52.1088L21.721 48.6587C21.6169 48.104 21.2355 47.6705 20.6981 47.5145C20.1606 47.3411 19.6059 47.4798 19.2071 47.8786L16.7453 50.3751C16.4679 50.6698 16.0518 50.7392 15.6878 50.5658C15.3237 50.3924 15.1156 50.0283 15.1677 49.6296L15.5837 46.1449C15.6531 45.5728 15.4277 45.0527 14.9596 44.7406C14.4915 44.4286 13.9194 44.3939 13.4166 44.6539L10.3307 46.3183C9.98395 46.509 9.55054 46.457 9.25581 46.1796C8.96108 45.9195 8.89174 45.5034 9.04777 45.1394L10.4694 41.9321C10.6948 41.412 10.6254 40.8399 10.2787 40.4064C9.93194 39.9557 9.3945 39.765 8.83973 39.869L5.38971 40.5451C5.0083 40.6318 4.62689 40.4584 4.41885 40.1117C4.21081 39.765 4.26282 39.3489 4.52287 39.0368L6.82866 36.4016C7.19273 35.9682 7.29675 35.4134 7.08871 34.876C6.88067 34.3559 6.42991 34.0092 5.87514 33.9571L2.39045 33.5931C1.97436 33.5411 1.6623 33.2637 1.57562 32.8649C1.48893 32.4835 1.64496 32.0848 1.9917 31.8767L4.97363 30.039C5.45906 29.7443 5.71911 29.2242 5.6671 28.6694C5.63242 28.0973 5.30302 27.6466 4.78292 27.4212L1.55828 26.0342C1.19421 25.8782 0.968831 25.5315 1.0035 25.1154C1.02084 24.7167 1.29823 24.4046 1.67964 24.3006L5.07765 23.4164C5.63242 23.2777 6.01383 22.8616 6.15253 22.3068C6.27388 21.7521 6.10052 21.2146 5.6671 20.8505L2.99723 18.5794C2.68517 18.3194 2.58115 17.9206 2.71985 17.5392C2.87588 17.1752 3.22261 16.9324 3.62136 16.9671L7.14072 17.1058C7.6955 17.1405 8.19827 16.8631 8.47565 16.3777C8.75304 15.8922 8.75304 15.3201 8.44098 14.8347L6.55127 11.8874C6.34323 11.5407 6.36057 11.1246 6.62062 10.8126C6.86333 10.5005 7.26208 10.3791 7.64349 10.5178L10.9548 11.6967C11.4749 11.8874 12.0297 11.7834 12.4458 11.3847C12.8619 11.0033 13.0179 10.4658 12.8792 9.91104L11.943 6.53037C11.839 6.14896 11.9777 5.75022 12.3071 5.52484C12.6365 5.29946 13.0699 5.3168 13.382 5.54217L16.1905 7.65726C16.6413 7.98666 17.2134 8.03867 17.7162 7.79596C18.2363 7.55324 18.531 7.08515 18.5483 6.51303L18.6697 3.011C18.6697 2.61226 18.9297 2.26552 19.3111 2.1615C19.6925 2.04015 20.0913 2.1615 20.334 2.4909L22.3971 5.33413C22.7265 5.78489 23.2466 6.01027 23.8187 5.92358C24.3735 5.8369 24.8069 5.47283 24.9976 4.93539L26.1245 1.62406C26.2632 1.24265 26.5926 0.999939 27.0087 0.999939C27.4074 0.999939 27.7368 1.24265 27.8755 1.62406Z" stroke="black" stroke-width="2" mask="url(#path-1-outside-1_1_1687)"/>
</svg>
