<svg width="54" height="56" viewBox="0 0 54 56" fill="none" xmlns="http://www.w3.org/2000/svg">
<path d="M28.4444 1.31748L28.4445 1.31743L28.4391 1.30873C28.1265 0.803762 27.605 0.499939 27.0087 0.499939C26.4038 0.499939 25.8722 0.797119 25.5717 1.31961L23.2532 5.21257C23.2529 5.21308 23.2526 5.21359 23.2523 5.2141C22.9763 5.66876 22.5878 5.95087 22.0783 6.07631C21.5648 6.18582 21.0813 6.10245 20.6459 5.81712C20.6454 5.81686 20.645 5.8166 20.6446 5.81633L16.8733 3.30784C16.3671 2.95637 15.7633 2.94188 15.241 3.1793L15.2326 3.18313L15.2243 3.18727C14.6949 3.45194 14.3413 3.9473 14.2911 4.54498C14.291 4.5454 14.291 4.54582 14.291 4.54624L13.8925 9.06766L13.8925 9.06766L13.8922 9.0722C13.8511 9.59218 13.6245 10.0201 13.2116 10.3504C12.804 10.6765 12.3359 10.8 11.8057 10.7306C11.8051 10.7305 11.8045 10.7305 11.804 10.7304L7.31845 10.1069L7.31845 10.1069L7.31163 10.106C6.72855 10.0331 6.15501 10.2539 5.78255 10.7256C5.4164 11.1894 5.31387 11.7906 5.53482 12.3585L7.12841 16.5849L7.12839 16.5849L7.13026 16.5898C7.31957 17.0766 7.29756 17.5576 7.07582 18.0473C6.83916 18.5162 6.47596 18.8362 5.96906 19.0007C5.96896 19.0007 5.96885 19.0007 5.96875 19.0008L1.65759 20.3859C1.0776 20.564 0.684341 21.0223 0.54217 21.591L0.539769 21.6006L0.537751 21.6103C0.416258 22.1935 0.590286 22.7688 1.02987 23.1844C1.03011 23.1846 1.03034 23.1848 1.03058 23.1851L4.30267 26.3013C4.303 26.3017 4.30333 26.302 4.30367 26.3023C4.69171 26.6769 4.8777 27.1192 4.8777 27.64C4.8777 28.1609 4.69171 28.6031 4.30367 28.9777C4.30333 28.978 4.303 28.9783 4.30267 28.9787L1.03058 32.0949C1.03038 32.0951 1.03017 32.0953 1.02997 32.0955C0.590311 32.5111 0.416249 33.0865 0.537751 33.6697L0.539769 33.6794L0.54217 33.689C0.684334 34.2576 1.07756 34.716 1.6575 34.8941L5.96875 36.2792C5.96904 36.2793 5.96934 36.2794 5.96963 36.2795C6.47622 36.444 6.83924 36.764 7.07581 37.2327C7.29845 37.7244 7.31812 38.2032 7.13202 38.6684L7.13192 38.6684L7.12817 38.6784L5.53605 42.9184C5.53561 42.9195 5.53516 42.9207 5.53472 42.9218C5.3139 43.4896 5.41646 44.0906 5.78255 44.5544C6.15501 45.0261 6.72855 45.2469 7.31163 45.174L7.31163 45.174L7.31845 45.1731L11.804 44.5496C11.8045 44.5495 11.8051 44.5495 11.8057 44.5494C12.3359 44.48 12.804 44.6035 13.2116 44.9296C13.6245 45.2599 13.8511 45.6878 13.8921 46.2078L13.8925 46.2123L14.291 50.7338C14.291 50.7342 14.291 50.7346 14.2911 50.735C14.3409 51.327 14.6907 51.8297 15.2325 52.0795C15.7772 52.3483 16.378 52.2942 16.8643 51.9781L16.8643 51.9781L16.8687 51.9752L20.6446 49.4637C20.645 49.4634 20.6454 49.4631 20.6459 49.4629C21.0813 49.1776 21.5648 49.0942 22.0783 49.2037C22.5877 49.3291 22.9762 49.6112 23.2523 50.0658C23.2526 50.0664 23.2529 50.0669 23.2532 50.0674L25.5717 53.9604C25.8722 54.4829 26.4038 54.7801 27.0087 54.7801C27.605 54.7801 28.1265 54.4762 28.4391 53.9713L28.4392 53.9713L28.4444 53.9625L30.7468 50.0674C30.7472 50.0667 30.7477 50.0659 30.7481 50.0652C31.0241 49.611 31.4125 49.3291 31.9216 49.2037C32.4352 49.0941 32.9189 49.1776 33.3544 49.463C33.3547 49.4633 33.355 49.4635 33.3554 49.4637L37.1313 51.9752L37.1312 51.9752L37.1357 51.9781C37.622 52.2942 38.2228 52.3483 38.7675 52.0795C39.3092 51.8297 39.6591 51.3271 39.7089 50.7353C39.7089 50.7348 39.709 50.7343 39.709 50.7338L40.1075 46.2123L40.1078 46.2078C40.1489 45.6878 40.3755 45.2599 40.7884 44.9296C41.196 44.6035 41.6641 44.48 42.1943 44.5494C42.1949 44.5495 42.1955 44.5495 42.196 44.5496L46.6816 45.1731L46.6815 45.1731L46.6884 45.174C47.2715 45.2469 47.845 45.0261 48.2174 44.5544C48.5835 44.0907 48.6861 43.4896 48.4653 42.9219C48.4649 42.9207 48.4644 42.9196 48.464 42.9184L46.8718 38.6784L46.8719 38.6783L46.868 38.6684C46.6819 38.2032 46.7016 37.7243 46.9242 37.2327C47.1609 36.7637 47.5242 36.4437 48.0313 36.2792L52.3384 34.8953C52.3397 34.895 52.3409 34.8946 52.3422 34.8942C52.9223 34.7161 53.3156 34.2577 53.4578 33.689L53.4602 33.6794L53.4623 33.6697C53.5837 33.0866 53.4097 32.5113 52.9702 32.0957C52.97 32.0954 52.9697 32.0952 52.9694 32.0949L49.6973 28.9787C49.697 28.9783 49.6966 28.978 49.6963 28.9776C49.3083 28.603 49.1223 28.1608 49.1223 27.64C49.1223 27.1192 49.3083 26.677 49.6963 26.3024C49.6966 26.302 49.697 26.3017 49.6973 26.3013L52.9694 23.1851C52.9698 23.1847 52.9701 23.1844 52.9705 23.184C53.4098 22.7685 53.5837 22.1933 53.4623 21.6103L53.4602 21.6006L53.4578 21.591C53.3157 21.0223 52.9224 20.564 52.3424 20.3859L48.0313 19.0008C48.0311 19.0007 48.031 19.0007 48.0309 19.0007C47.5241 18.8362 47.1609 18.5162 46.9242 18.0473C46.7024 17.5576 46.6804 17.0766 46.8698 16.5898L46.8716 16.5849L48.464 12.3616C48.4644 12.3605 48.4648 12.3594 48.4652 12.3584C48.6861 11.7906 48.5836 11.1894 48.2174 10.7256C47.845 10.2539 47.2715 10.0331 46.6884 10.106L46.6884 10.106L46.6816 10.1069L42.196 10.7304C42.1955 10.7305 42.1949 10.7305 42.1943 10.7306C41.6641 10.8 41.196 10.6765 40.7884 10.3504C40.3755 10.0201 40.1489 9.59218 40.1079 9.0722L40.1075 9.06766L39.709 4.54625C39.709 4.54574 39.7089 4.54522 39.7089 4.54471C39.6586 3.94716 39.305 3.4519 38.7757 3.18727L38.7674 3.18313L38.759 3.1793C38.2367 2.94188 37.6329 2.95637 37.1267 3.30783L33.3554 5.81633C33.3549 5.81662 33.3545 5.81691 33.354 5.81721C32.9186 6.10247 32.4351 6.18581 31.9217 6.07631C31.4125 5.95093 31.0242 5.66907 30.7482 5.21486L28.4444 1.31748Z" stroke="black"/>
</svg>
