<?xml version="1.0" encoding="utf-8"?>
<!-- Generator: Adobe Illustrator 16.0.0, SVG Export Plug-In . SVG Version: 6.00 Build 0)  -->
<!DOCTYPE svg PUBLIC "-//W3C//DTD SVG 1.1//EN" "http://www.w3.org/Graphics/SVG/1.1/DTD/svg11.dtd">
<svg version="1.1" id="Layer_1" xmlns="http://www.w3.org/2000/svg" xmlns:xlink="http://www.w3.org/1999/xlink" x="0px" y="0px"
	 width="15px" height="21px" viewBox="0 0 15 21" enable-background="new 0 0 15 21" xml:space="preserve">
<g>
	<path fill="#505940" d="M14.84,3.621L15,1.521C15,0.681,14.293,0,13.422,0H1.578C0.707,0,0,0.681,0,1.521l0.16,2.101H14.84z"/>
	<path fill="#505940" d="M0.276,5.145L1.45,19.573C1.45,20.362,2.156,21,3.026,21h8.947c0.871,0,1.578-0.638,1.578-1.427
		l1.174-14.429H0.276z M4.42,19.05c-0.013,0-0.026,0-0.038,0c-0.273,0-0.504-0.203-0.524-0.472L3.069,7.636
		c-0.021-0.28,0.197-0.521,0.488-0.542c0.289-0.02,0.541,0.191,0.563,0.471l0.789,10.944C4.929,18.788,4.709,19.03,4.42,19.05z
		 M8.027,18.543c0,0.281-0.236,0.507-0.526,0.507c-0.291,0-0.527-0.226-0.527-0.507V7.6c0-0.279,0.236-0.507,0.527-0.507
		c0.29,0,0.526,0.228,0.526,0.507V18.543z M11.143,18.578c-0.02,0.269-0.25,0.472-0.525,0.472c-0.014,0-0.025,0-0.037,0
		c-0.291-0.02-0.508-0.262-0.488-0.541l0.789-10.944c0.021-0.279,0.271-0.492,0.563-0.471c0.291,0.021,0.51,0.262,0.488,0.542
		L11.143,18.578z"/>
</g>
</svg>
