<?xml version="1.0" encoding="utf-8"?>
<!-- Generator: Adobe Illustrator 16.0.0, SVG Export Plug-In . SVG Version: 6.00 Build 0)  -->
<!DOCTYPE svg PUBLIC "-//W3C//DTD SVG 1.1//EN" "http://www.w3.org/Graphics/SVG/1.1/DTD/svg11.dtd">
<svg version="1.1" id="Layer_1" xmlns="http://www.w3.org/2000/svg" xmlns:xlink="http://www.w3.org/1999/xlink" x="0px" y="0px"
	 width="16px" height="16px" viewBox="0 0 16 16" enable-background="new 0 0 16 16" xml:space="preserve">
<g>
	<path fill="none" d="M14.084,15.851l-11.01-5.82C2.658,9.81,2.387,9.379,2.361,8.896c-0.025-0.479,0.199-0.941,0.59-1.205
		l11.011-7.468c0.403-0.274,0.921-0.297,1.347-0.06C15.734,0.399,16,0.856,16,1.356v13.287c0,0.474-0.238,0.911-0.63,1.158
		C15.161,15.934,14.923,16,14.684,16C14.479,16,14.273,15.95,14.084,15.851z"/>
	<path d="M11.726,15.851L0.715,10.03C0.299,9.81,0.027,9.379,0.002,8.896c-0.025-0.48,0.199-0.941,0.59-1.205l11.012-7.469
		c0.403-0.274,0.92-0.297,1.347-0.06c0.426,0.236,0.69,0.694,0.69,1.194v13.287c0,0.474-0.238,0.911-0.629,1.158
		C12.803,15.934,12.564,16,12.326,16C12.12,16,11.915,15.95,11.726,15.851z"/>
</g>
</svg>
