<?xml version="1.0" encoding="utf-8"?>
<!-- Generator: Adobe Illustrator 16.0.0, SVG Export Plug-In . SVG Version: 6.00 Build 0)  -->
<!DOCTYPE svg PUBLIC "-//W3C//DTD SVG 1.1//EN" "http://www.w3.org/Graphics/SVG/1.1/DTD/svg11.dtd">
<svg version="1.1" id="Layer_1" xmlns="http://www.w3.org/2000/svg" xmlns:xlink="http://www.w3.org/1999/xlink" x="0px" y="0px"
	 width="16px" height="16px" viewBox="0 0 16 16" enable-background="new 0 0 16 16" xml:space="preserve">
<g>
	<path fill="none" d="M1.316,16c-0.239,0-0.477-0.066-0.686-0.198C0.239,15.555,0,15.117,0,14.644V1.356
		c0-0.5,0.265-0.958,0.691-1.194c0.426-0.237,0.943-0.214,1.347,0.06l11.011,7.468c0.391,0.264,0.615,0.726,0.59,1.205
		c-0.025,0.483-0.297,0.914-0.713,1.134l-11.01,5.82C1.726,15.95,1.521,16,1.316,16z"/>
	<path d="M3.674,16c-0.238,0-0.477-0.066-0.686-0.198c-0.391-0.247-0.629-0.685-0.629-1.158V1.356c0-0.5,0.265-0.958,0.691-1.194
		c0.426-0.237,0.943-0.214,1.347,0.06l11.012,7.469c0.391,0.264,0.615,0.725,0.59,1.205c-0.025,0.482-0.297,0.913-0.713,1.134
		l-11.011,5.82C4.085,15.95,3.88,16,3.674,16z"/>
</g>
</svg>
