<?xml version="1.0" encoding="utf-8"?>
<!-- Generator: Adobe Illustrator 16.0.0, SVG Export Plug-In . SVG Version: 6.00 Build 0)  -->
<!DOCTYPE svg PUBLIC "-//W3C//DTD SVG 1.1//EN" "http://www.w3.org/Graphics/SVG/1.1/DTD/svg11.dtd">
<svg version="1.1" id="Layer_1" xmlns="http://www.w3.org/2000/svg" xmlns:xlink="http://www.w3.org/1999/xlink" x="0px" y="0px"
	 width="21px" height="21px" viewBox="0 0 21 21" enable-background="new 0 0 21 21" xml:space="preserve">
<g>
	<path fill="#505940" d="M13.813,1.835l1.401-1.401c0.577-0.577,1.512-0.577,2.09,0l3.262,3.262
		c0.577,0.578,0.578,1.513,0.001,2.088l-1.401,1.404L13.813,1.835z"/>
	<path fill="#505940" d="M15.318,5.603l0.078,0.079l2.637,2.636L7.181,19.171c0,0-0.591,0.56-0.773,0.679
		c-0.333,0.218-0.582,0.289-0.955,0.361c-1.56,0.298-3.388,0.626-4.135,0.755c-0.55,0.097-0.929-0.028-1.086-0.197
		c-0.17-0.157-0.294-0.537-0.199-1.087c0.131-0.747,0.458-2.573,0.756-4.133c0.071-0.375,0.144-0.624,0.36-0.959
		c0.119-0.182,0.68-0.77,0.68-0.77L12.682,2.967L15.318,5.603z"/>
</g>
</svg>
