<svg width="96" height="96" viewBox="0 0 96 96" fill="none" xmlns="http://www.w3.org/2000/svg">
<rect width="96" height="96" transform="matrix(1 0 0 -1 0 96)" fill="#C0BFBF"/>
<path d="M61.7163 29.1371L63.1031 26.2898L65.8749 28.1569L63.7928 31.1682L61.7163 29.1371ZM55.5972 43.0211L53.8385 45.5647L49.6854 41.5027L51.4442 38.9591L55.5972 43.0211ZM49.6742 17.2437L63.1031 26.2898L60.3295 31.9845L46.9005 22.9384L49.6742 17.2437ZM63.7928 31.1682L55.5972 43.0211L51.4442 38.9591L59.6398 27.1061L63.7928 31.1682Z" fill="white"/>
<path d="M58.5001 30.4395C27.8498 31.899 21.5001 48.452 21.5001 66.9395" stroke="white" stroke-width="6"/>
<path d="M74.5195 20.3082V77.1907H17.637" stroke="white" stroke-width="6"/>
<path d="M67.891 77.1907C67.891 80.7478 70.8035 83.6712 74.4455 83.6712C78.0875 83.6712 81 80.7478 81 77.1907C81 73.6337 78.0875 70.7103 74.4455 70.7103C70.8035 70.7103 67.891 73.6337 67.891 77.1907Z" fill="#C0BFBF" stroke="white" stroke-width="6"/>
</svg>
