<svg width="96" height="96" viewBox="0 0 96 96" fill="none" xmlns="http://www.w3.org/2000/svg">
<rect width="96" height="96" fill="#C0BFBF"/>
<path d="M34.2837 29.1373L32.8969 26.2899L30.1251 28.1571L32.2072 31.1683L34.2837 29.1373ZM40.4028 43.0212L42.1615 45.5648L46.3146 41.5028L44.5558 38.9592L40.4028 43.0212ZM46.3258 17.2438L32.8969 26.2899L35.6705 31.9846L49.0995 22.9385L46.3258 17.2438ZM32.2072 31.1683L40.4028 43.0212L44.5558 38.9592L36.3602 27.1063L32.2072 31.1683Z" fill="white"/>
<path d="M37.4999 30.4396C68.1502 31.8991 74.4999 48.4521 74.4999 66.9396" stroke="white" stroke-width="6"/>
<path d="M21.4805 20.3083L21.4805 77.1909H78.363" stroke="white" stroke-width="6"/>
<path d="M28.109 77.1909C28.109 80.7479 25.1965 83.6713 21.5545 83.6713C17.9125 83.6713 15 80.7479 15 77.1909C15 73.6338 17.9125 70.7104 21.5545 70.7104C25.1965 70.7104 28.109 73.6338 28.109 77.1909Z" fill="#C0BFBF" stroke="white" stroke-width="6"/>
</svg>
