<svg width="54" height="54" viewBox="0 0 54 54" fill="none" xmlns="http://www.w3.org/2000/svg">
<mask id="path-1-outside-1_1_1678" maskUnits="userSpaceOnUse" x="0" y="-6.10352e-05" width="54" height="54" fill="black">
<rect fill="white" y="-6.10352e-05" width="54" height="54"/>
<path fill-rule="evenodd" clip-rule="evenodd" d="M27.364 1.31194L27.7627 3.70394C27.8493 4.13727 28.1787 4.43194 28.612 4.46661C29.028 4.50127 29.4093 4.24127 29.548 3.84261L30.2933 1.51994C30.3453 1.34661 30.5187 1.24261 30.692 1.27727C30.8827 1.29461 31.004 1.45061 31.004 1.62394L31.0733 4.05061C31.0907 4.48394 31.3853 4.83061 31.8013 4.91727C32.2173 5.02127 32.6333 4.81327 32.824 4.43194L33.8813 2.24794C33.968 2.09194 34.1413 2.00527 34.3147 2.05727C34.488 2.10927 34.6093 2.28261 34.5747 2.45594L34.2973 4.86527C34.2453 5.29861 34.488 5.67994 34.8867 5.83594C35.2853 5.97461 35.736 5.83594 35.9787 5.48927L37.348 3.47861C37.4347 3.33994 37.6253 3.28794 37.7987 3.35727C37.9547 3.42661 38.0413 3.59994 38.0067 3.79061L37.3827 6.13061C37.2613 6.54661 37.452 6.96261 37.8333 7.17061C38.1973 7.37861 38.648 7.30927 38.9427 6.97994L40.5893 5.19461C40.7107 5.05594 40.9013 5.03861 41.0573 5.12527C41.196 5.22927 41.2653 5.41994 41.196 5.59327L40.2427 7.82927C40.0693 8.21061 40.1907 8.66127 40.5373 8.92127C40.884 9.16394 41.3347 9.16394 41.664 8.88661L43.5533 7.34394C43.692 7.23994 43.8827 7.23994 44.0213 7.36127C44.16 7.48261 44.1947 7.67327 44.0907 7.82927L42.8427 9.90927C42.6173 10.2733 42.6693 10.7239 42.9813 11.0359C43.276 11.3306 43.7267 11.3826 44.0907 11.1573L46.1707 9.90927C46.3267 9.80527 46.5347 9.83994 46.6387 9.97861C46.76 10.1173 46.76 10.3079 46.656 10.4466L45.1133 12.3359C44.836 12.6653 44.836 13.1159 45.0787 13.4626C45.3387 13.8093 45.7893 13.9306 46.1707 13.7573L48.424 12.8039C48.58 12.7346 48.7707 12.8039 48.8747 12.9426C48.9613 13.0986 48.944 13.2893 48.8053 13.4106L47.02 15.0573C46.6907 15.3519 46.6213 15.8026 46.8293 16.1839C47.0373 16.5479 47.4533 16.7386 47.8693 16.6173L50.2267 16.0106C50.4 15.9586 50.5733 16.0453 50.6427 16.2013C50.7293 16.3746 50.66 16.5653 50.5213 16.6519L48.5107 18.0386C48.164 18.2639 48.0253 18.7146 48.164 19.1133C48.32 19.5119 48.7013 19.7546 49.1347 19.7026L51.544 19.4253C51.7347 19.3906 51.8907 19.5119 51.9427 19.6853C51.9947 19.8586 51.908 20.0319 51.752 20.1186L49.568 21.1759C49.1867 21.3666 48.9787 21.7826 49.0827 22.1986C49.1693 22.6146 49.516 22.9093 49.9493 22.9266L52.376 22.9959C52.5667 22.9959 52.7053 23.1346 52.74 23.3079C52.7573 23.4813 52.6533 23.6546 52.48 23.7066L50.1747 24.4519C49.7587 24.5906 49.4987 24.9719 49.5333 25.3879C49.568 25.8213 49.88 26.1679 50.296 26.2373L52.688 26.6359C52.8613 26.6706 53 26.8266 53 26.9999C53 27.1906 52.8613 27.3293 52.688 27.3639L50.296 27.7799C49.88 27.8493 49.568 28.1959 49.5333 28.6119C49.4987 29.0453 49.7587 29.4266 50.1747 29.5479L52.48 30.3106C52.6533 30.3626 52.7573 30.5359 52.7227 30.7093C52.7053 30.8826 52.5667 31.0213 52.376 31.0213L49.9493 31.0906C49.516 31.0906 49.1693 31.3853 49.0827 31.8013C48.9787 32.2346 49.1867 32.6333 49.568 32.8239L51.752 33.8986C51.908 33.9853 51.9947 34.1586 51.9427 34.3319C51.8907 34.5053 51.7347 34.6093 51.544 34.5919L49.1347 34.3146C48.7013 34.2626 48.32 34.5053 48.164 34.9039C48.0253 35.3026 48.164 35.7359 48.5107 35.9786L50.5213 37.3479C50.66 37.4519 50.7293 37.6426 50.6427 37.7986C50.5733 37.9719 50.4 38.0586 50.2267 38.0066L47.8693 37.3826C47.4533 37.2786 47.0373 37.4519 46.8293 37.8333C46.6213 38.2146 46.6907 38.6653 47.02 38.9426L48.8053 40.5893C48.944 40.7106 48.9613 40.9186 48.8747 41.0573C48.7707 41.2133 48.58 41.2653 48.424 41.1959L46.1707 40.2599C45.7893 40.0866 45.3387 40.2079 45.0787 40.5546C44.836 40.8839 44.836 41.3519 45.1133 41.6813L46.656 43.5533C46.76 43.6919 46.76 43.8999 46.6387 44.0386C46.5347 44.1599 46.3267 44.1946 46.1707 44.1079L44.0907 42.8426C43.7267 42.6346 43.276 42.6866 42.9813 42.9813C42.6693 43.2933 42.6173 43.7439 42.8427 44.1079L44.0907 46.1879C44.1947 46.3439 44.16 46.5346 44.0213 46.6559C43.8827 46.7773 43.692 46.7773 43.5533 46.6559L41.664 45.1133C41.3347 44.8533 40.884 44.8359 40.5373 45.0959C40.1907 45.3559 40.0693 45.7893 40.2427 46.1879L41.196 48.4239C41.2653 48.5973 41.196 48.7879 41.0573 48.8746C40.9013 48.9786 40.7107 48.9439 40.5893 48.8226L38.9427 47.0199C38.648 46.7079 38.1973 46.6386 37.8333 46.8466C37.452 47.0373 37.2613 47.4706 37.3827 47.8693L38.0067 50.2266C38.0413 50.3999 37.9547 50.5733 37.7987 50.6599C37.6253 50.7293 37.4347 50.6773 37.348 50.5213L35.9787 48.5279C35.736 48.1639 35.2853 48.0253 34.8867 48.1813C34.488 48.3199 34.2453 48.7186 34.2973 49.1346L34.5747 51.5613C34.6093 51.7346 34.488 51.9079 34.3147 51.9599C34.1413 51.9946 33.968 51.9253 33.8813 51.7693L32.824 49.5853C32.6333 49.1866 32.2173 48.9959 31.8013 49.0826C31.3853 49.1693 31.0907 49.5333 31.0733 49.9493L31.004 52.3933C31.004 52.5666 30.8827 52.7226 30.692 52.7399C30.5187 52.7746 30.3453 52.6706 30.2933 52.4973L29.548 50.1746C29.4093 49.7759 29.028 49.5159 28.612 49.5506C28.1787 49.5679 27.8493 49.8799 27.7627 50.2959L27.364 52.7053C27.3293 52.8786 27.1733 52.9999 27 52.9999C26.8093 52.9999 26.6707 52.8786 26.636 52.7053L26.22 50.2959C26.1507 49.8799 25.804 49.5679 25.388 49.5506C24.9547 49.5159 24.5733 49.7759 24.452 50.1746L23.6893 52.4973C23.6373 52.6706 23.4813 52.7746 23.2907 52.7399C23.1173 52.7226 22.9787 52.5666 22.9787 52.3933L22.9093 49.9493C22.9093 49.5333 22.6147 49.1693 22.1987 49.0826C21.7827 48.9959 21.3667 49.1866 21.176 49.5853L20.1013 51.7693C20.032 51.9253 19.8413 51.9946 19.668 51.9599C19.4947 51.9079 19.3907 51.7346 19.408 51.5613L19.6853 49.1346C19.7373 48.7186 19.4947 48.3199 19.096 48.1813C18.6973 48.0253 18.264 48.1639 18.0213 48.5279L16.652 50.5213C16.548 50.6773 16.3573 50.7293 16.2013 50.6599C16.028 50.5733 15.9413 50.3999 15.9933 50.2266L16.6173 47.8693C16.7213 47.4706 16.548 47.0373 16.1667 46.8466C15.7853 46.6386 15.3347 46.7079 15.0573 47.0199L13.4107 48.8226C13.2893 48.9439 13.0987 48.9786 12.9427 48.8746C12.7867 48.7879 12.7347 48.5973 12.804 48.4239L13.7573 46.1879C13.9133 45.7893 13.792 45.3559 13.4627 45.0959C13.116 44.8359 12.648 44.8533 12.3187 45.1133L10.4467 46.6559C10.308 46.7773 10.1 46.7773 9.96133 46.6559C9.84 46.5346 9.80533 46.3439 9.892 46.1879L11.1573 44.1079C11.3827 43.7439 11.3133 43.2933 11.0187 42.9813C10.724 42.6866 10.256 42.6346 9.892 42.8426L7.812 44.1079C7.656 44.1946 7.46533 44.1599 7.344 44.0386C7.22267 43.8999 7.22267 43.6919 7.344 43.5533L8.88667 41.6813C9.14667 41.3519 9.164 40.8839 8.904 40.5546C8.644 40.2079 8.21067 40.0866 7.812 40.2599L5.576 41.1959C5.40267 41.2653 5.22933 41.2133 5.12533 41.0573C5.02133 40.9186 5.056 40.7106 5.17733 40.5893L6.98 38.9426C7.292 38.6653 7.36133 38.2146 7.17067 37.8333C6.96267 37.4519 6.54667 37.2786 6.13067 37.3826L3.77333 38.0066C3.6 38.0586 3.42667 37.9719 3.34 37.7986C3.27067 37.6426 3.32267 37.4519 3.47867 37.3479L5.48933 35.9786C5.836 35.7359 5.97467 35.3026 5.81867 34.9039C5.68 34.5053 5.28133 34.2626 4.86533 34.3146L2.43867 34.5919C2.26533 34.6093 2.092 34.5053 2.05733 34.3319C2.00533 34.1586 2.07467 33.9853 2.248 33.8986L4.432 32.8239C4.81333 32.6333 5.004 32.2346 4.91733 31.8013C4.83067 31.3853 4.46667 31.0906 4.05067 31.0906L1.60667 31.0213C1.43333 31.0213 1.29467 30.8826 1.26 30.7093C1.24267 30.5359 1.34667 30.3626 1.50267 30.3106L3.82533 29.5479C4.224 29.4266 4.484 29.0453 4.44933 28.6119C4.432 28.1959 4.12 27.8493 3.704 27.7799L1.29467 27.3639C1.12133 27.3293 1 27.1906 1 26.9999C1 26.8266 1.12133 26.6706 1.29467 26.6359L3.704 26.2373C4.12 26.1679 4.432 25.8213 4.44933 25.3879C4.484 24.9719 4.224 24.5906 3.82533 24.4519L1.50267 23.7066C1.34667 23.6546 1.24267 23.4813 1.26 23.3079C1.29467 23.1346 1.43333 22.9959 1.60667 22.9959L4.05067 22.9266C4.46667 22.9093 4.83067 22.6146 4.91733 22.1986C5.004 21.7826 4.81333 21.3666 4.432 21.1759L2.248 20.1186C2.07467 20.0319 2.00533 19.8586 2.05733 19.6853C2.092 19.5119 2.26533 19.3906 2.43867 19.4253L4.86533 19.7026C5.28133 19.7546 5.68 19.5119 5.81867 19.1133C5.97467 18.7146 5.836 18.2639 5.48933 18.0386L3.47867 16.6519C3.32267 16.5653 3.27067 16.3746 3.34 16.2013C3.42667 16.0453 3.6 15.9586 3.77333 16.0106L6.13067 16.6173C6.54667 16.7386 6.96267 16.5479 7.17067 16.1839C7.36133 15.8026 7.292 15.3519 6.98 15.0573L5.17733 13.4106C5.056 13.2893 5.02133 13.0986 5.12533 12.9426C5.22933 12.8039 5.40267 12.7346 5.576 12.8039L7.812 13.7573C8.21067 13.9306 8.644 13.8093 8.904 13.4626C9.164 13.1159 9.14667 12.6653 8.88667 12.3359L7.344 10.4466C7.22267 10.3079 7.22267 10.1173 7.344 9.97861C7.46533 9.83994 7.656 9.80527 7.812 9.90927L9.892 11.1573C10.256 11.3826 10.724 11.3306 11.0187 11.0359C11.3133 10.7239 11.3827 10.2733 11.1573 9.90927L9.892 7.82927C9.80533 7.67327 9.84 7.48261 9.97867 7.36127C10.1 7.23994 10.308 7.23994 10.4467 7.34394L12.3187 8.88661C12.648 9.16394 13.116 9.16394 13.4627 8.92127C13.792 8.66127 13.9133 8.21061 13.7573 7.82927L12.804 5.59327C12.7347 5.41994 12.7867 5.22927 12.9427 5.12527C13.0987 5.03861 13.2893 5.05594 13.4107 5.19461L15.0573 6.97994C15.3347 7.30927 15.7853 7.37861 16.1667 7.17061C16.548 6.96261 16.7213 6.54661 16.6173 6.13061L15.9933 3.79061C15.9413 3.59994 16.028 3.42661 16.2013 3.35727C16.3573 3.28794 16.548 3.33994 16.652 3.47861L18.0213 5.48927C18.264 5.83594 18.6973 5.97461 19.096 5.83594C19.4947 5.67994 19.7373 5.29861 19.6853 4.86527L19.408 2.45594C19.3907 2.28261 19.4947 2.10927 19.668 2.05727C19.8413 2.00527 20.032 2.09194 20.1013 2.24794L21.176 4.43194C21.3667 4.81327 21.7827 5.02127 22.1987 4.91727C22.6147 4.83061 22.9093 4.48394 22.9093 4.05061L22.9787 1.62394C22.9787 1.45061 23.1173 1.29461 23.2907 1.27727C23.4813 1.24261 23.6373 1.34661 23.6893 1.51994L24.452 3.84261C24.5733 4.24127 24.9547 4.50127 25.388 4.46661C25.804 4.43194 26.1507 4.13727 26.22 3.70394L26.636 1.31194C26.6707 1.13861 26.8093 0.999939 27 0.999939C27.1733 0.999939 27.3293 1.13861 27.364 1.31194Z"/>
</mask>
<path fill-rule="evenodd" clip-rule="evenodd" d="M27.364 1.31194L27.7627 3.70394C27.8493 4.13727 28.1787 4.43194 28.612 4.46661C29.028 4.50127 29.4093 4.24127 29.548 3.84261L30.2933 1.51994C30.3453 1.34661 30.5187 1.24261 30.692 1.27727C30.8827 1.29461 31.004 1.45061 31.004 1.62394L31.0733 4.05061C31.0907 4.48394 31.3853 4.83061 31.8013 4.91727C32.2173 5.02127 32.6333 4.81327 32.824 4.43194L33.8813 2.24794C33.968 2.09194 34.1413 2.00527 34.3147 2.05727C34.488 2.10927 34.6093 2.28261 34.5747 2.45594L34.2973 4.86527C34.2453 5.29861 34.488 5.67994 34.8867 5.83594C35.2853 5.97461 35.736 5.83594 35.9787 5.48927L37.348 3.47861C37.4347 3.33994 37.6253 3.28794 37.7987 3.35727C37.9547 3.42661 38.0413 3.59994 38.0067 3.79061L37.3827 6.13061C37.2613 6.54661 37.452 6.96261 37.8333 7.17061C38.1973 7.37861 38.648 7.30927 38.9427 6.97994L40.5893 5.19461C40.7107 5.05594 40.9013 5.03861 41.0573 5.12527C41.196 5.22927 41.2653 5.41994 41.196 5.59327L40.2427 7.82927C40.0693 8.21061 40.1907 8.66127 40.5373 8.92127C40.884 9.16394 41.3347 9.16394 41.664 8.88661L43.5533 7.34394C43.692 7.23994 43.8827 7.23994 44.0213 7.36127C44.16 7.48261 44.1947 7.67327 44.0907 7.82927L42.8427 9.90927C42.6173 10.2733 42.6693 10.7239 42.9813 11.0359C43.276 11.3306 43.7267 11.3826 44.0907 11.1573L46.1707 9.90927C46.3267 9.80527 46.5347 9.83994 46.6387 9.97861C46.76 10.1173 46.76 10.3079 46.656 10.4466L45.1133 12.3359C44.836 12.6653 44.836 13.1159 45.0787 13.4626C45.3387 13.8093 45.7893 13.9306 46.1707 13.7573L48.424 12.8039C48.58 12.7346 48.7707 12.8039 48.8747 12.9426C48.9613 13.0986 48.944 13.2893 48.8053 13.4106L47.02 15.0573C46.6907 15.3519 46.6213 15.8026 46.8293 16.1839C47.0373 16.5479 47.4533 16.7386 47.8693 16.6173L50.2267 16.0106C50.4 15.9586 50.5733 16.0453 50.6427 16.2013C50.7293 16.3746 50.66 16.5653 50.5213 16.6519L48.5107 18.0386C48.164 18.2639 48.0253 18.7146 48.164 19.1133C48.32 19.5119 48.7013 19.7546 49.1347 19.7026L51.544 19.4253C51.7347 19.3906 51.8907 19.5119 51.9427 19.6853C51.9947 19.8586 51.908 20.0319 51.752 20.1186L49.568 21.1759C49.1867 21.3666 48.9787 21.7826 49.0827 22.1986C49.1693 22.6146 49.516 22.9093 49.9493 22.9266L52.376 22.9959C52.5667 22.9959 52.7053 23.1346 52.74 23.3079C52.7573 23.4813 52.6533 23.6546 52.48 23.7066L50.1747 24.4519C49.7587 24.5906 49.4987 24.9719 49.5333 25.3879C49.568 25.8213 49.88 26.1679 50.296 26.2373L52.688 26.6359C52.8613 26.6706 53 26.8266 53 26.9999C53 27.1906 52.8613 27.3293 52.688 27.3639L50.296 27.7799C49.88 27.8493 49.568 28.1959 49.5333 28.6119C49.4987 29.0453 49.7587 29.4266 50.1747 29.5479L52.48 30.3106C52.6533 30.3626 52.7573 30.5359 52.7227 30.7093C52.7053 30.8826 52.5667 31.0213 52.376 31.0213L49.9493 31.0906C49.516 31.0906 49.1693 31.3853 49.0827 31.8013C48.9787 32.2346 49.1867 32.6333 49.568 32.8239L51.752 33.8986C51.908 33.9853 51.9947 34.1586 51.9427 34.3319C51.8907 34.5053 51.7347 34.6093 51.544 34.5919L49.1347 34.3146C48.7013 34.2626 48.32 34.5053 48.164 34.9039C48.0253 35.3026 48.164 35.7359 48.5107 35.9786L50.5213 37.3479C50.66 37.4519 50.7293 37.6426 50.6427 37.7986C50.5733 37.9719 50.4 38.0586 50.2267 38.0066L47.8693 37.3826C47.4533 37.2786 47.0373 37.4519 46.8293 37.8333C46.6213 38.2146 46.6907 38.6653 47.02 38.9426L48.8053 40.5893C48.944 40.7106 48.9613 40.9186 48.8747 41.0573C48.7707 41.2133 48.58 41.2653 48.424 41.1959L46.1707 40.2599C45.7893 40.0866 45.3387 40.2079 45.0787 40.5546C44.836 40.8839 44.836 41.3519 45.1133 41.6813L46.656 43.5533C46.76 43.6919 46.76 43.8999 46.6387 44.0386C46.5347 44.1599 46.3267 44.1946 46.1707 44.1079L44.0907 42.8426C43.7267 42.6346 43.276 42.6866 42.9813 42.9813C42.6693 43.2933 42.6173 43.7439 42.8427 44.1079L44.0907 46.1879C44.1947 46.3439 44.16 46.5346 44.0213 46.6559C43.8827 46.7773 43.692 46.7773 43.5533 46.6559L41.664 45.1133C41.3347 44.8533 40.884 44.8359 40.5373 45.0959C40.1907 45.3559 40.0693 45.7893 40.2427 46.1879L41.196 48.4239C41.2653 48.5973 41.196 48.7879 41.0573 48.8746C40.9013 48.9786 40.7107 48.9439 40.5893 48.8226L38.9427 47.0199C38.648 46.7079 38.1973 46.6386 37.8333 46.8466C37.452 47.0373 37.2613 47.4706 37.3827 47.8693L38.0067 50.2266C38.0413 50.3999 37.9547 50.5733 37.7987 50.6599C37.6253 50.7293 37.4347 50.6773 37.348 50.5213L35.9787 48.5279C35.736 48.1639 35.2853 48.0253 34.8867 48.1813C34.488 48.3199 34.2453 48.7186 34.2973 49.1346L34.5747 51.5613C34.6093 51.7346 34.488 51.9079 34.3147 51.9599C34.1413 51.9946 33.968 51.9253 33.8813 51.7693L32.824 49.5853C32.6333 49.1866 32.2173 48.9959 31.8013 49.0826C31.3853 49.1693 31.0907 49.5333 31.0733 49.9493L31.004 52.3933C31.004 52.5666 30.8827 52.7226 30.692 52.7399C30.5187 52.7746 30.3453 52.6706 30.2933 52.4973L29.548 50.1746C29.4093 49.7759 29.028 49.5159 28.612 49.5506C28.1787 49.5679 27.8493 49.8799 27.7627 50.2959L27.364 52.7053C27.3293 52.8786 27.1733 52.9999 27 52.9999C26.8093 52.9999 26.6707 52.8786 26.636 52.7053L26.22 50.2959C26.1507 49.8799 25.804 49.5679 25.388 49.5506C24.9547 49.5159 24.5733 49.7759 24.452 50.1746L23.6893 52.4973C23.6373 52.6706 23.4813 52.7746 23.2907 52.7399C23.1173 52.7226 22.9787 52.5666 22.9787 52.3933L22.9093 49.9493C22.9093 49.5333 22.6147 49.1693 22.1987 49.0826C21.7827 48.9959 21.3667 49.1866 21.176 49.5853L20.1013 51.7693C20.032 51.9253 19.8413 51.9946 19.668 51.9599C19.4947 51.9079 19.3907 51.7346 19.408 51.5613L19.6853 49.1346C19.7373 48.7186 19.4947 48.3199 19.096 48.1813C18.6973 48.0253 18.264 48.1639 18.0213 48.5279L16.652 50.5213C16.548 50.6773 16.3573 50.7293 16.2013 50.6599C16.028 50.5733 15.9413 50.3999 15.9933 50.2266L16.6173 47.8693C16.7213 47.4706 16.548 47.0373 16.1667 46.8466C15.7853 46.6386 15.3347 46.7079 15.0573 47.0199L13.4107 48.8226C13.2893 48.9439 13.0987 48.9786 12.9427 48.8746C12.7867 48.7879 12.7347 48.5973 12.804 48.4239L13.7573 46.1879C13.9133 45.7893 13.792 45.3559 13.4627 45.0959C13.116 44.8359 12.648 44.8533 12.3187 45.1133L10.4467 46.6559C10.308 46.7773 10.1 46.7773 9.96133 46.6559C9.84 46.5346 9.80533 46.3439 9.892 46.1879L11.1573 44.1079C11.3827 43.7439 11.3133 43.2933 11.0187 42.9813C10.724 42.6866 10.256 42.6346 9.892 42.8426L7.812 44.1079C7.656 44.1946 7.46533 44.1599 7.344 44.0386C7.22267 43.8999 7.22267 43.6919 7.344 43.5533L8.88667 41.6813C9.14667 41.3519 9.164 40.8839 8.904 40.5546C8.644 40.2079 8.21067 40.0866 7.812 40.2599L5.576 41.1959C5.40267 41.2653 5.22933 41.2133 5.12533 41.0573C5.02133 40.9186 5.056 40.7106 5.17733 40.5893L6.98 38.9426C7.292 38.6653 7.36133 38.2146 7.17067 37.8333C6.96267 37.4519 6.54667 37.2786 6.13067 37.3826L3.77333 38.0066C3.6 38.0586 3.42667 37.9719 3.34 37.7986C3.27067 37.6426 3.32267 37.4519 3.47867 37.3479L5.48933 35.9786C5.836 35.7359 5.97467 35.3026 5.81867 34.9039C5.68 34.5053 5.28133 34.2626 4.86533 34.3146L2.43867 34.5919C2.26533 34.6093 2.092 34.5053 2.05733 34.3319C2.00533 34.1586 2.07467 33.9853 2.248 33.8986L4.432 32.8239C4.81333 32.6333 5.004 32.2346 4.91733 31.8013C4.83067 31.3853 4.46667 31.0906 4.05067 31.0906L1.60667 31.0213C1.43333 31.0213 1.29467 30.8826 1.26 30.7093C1.24267 30.5359 1.34667 30.3626 1.50267 30.3106L3.82533 29.5479C4.224 29.4266 4.484 29.0453 4.44933 28.6119C4.432 28.1959 4.12 27.8493 3.704 27.7799L1.29467 27.3639C1.12133 27.3293 1 27.1906 1 26.9999C1 26.8266 1.12133 26.6706 1.29467 26.6359L3.704 26.2373C4.12 26.1679 4.432 25.8213 4.44933 25.3879C4.484 24.9719 4.224 24.5906 3.82533 24.4519L1.50267 23.7066C1.34667 23.6546 1.24267 23.4813 1.26 23.3079C1.29467 23.1346 1.43333 22.9959 1.60667 22.9959L4.05067 22.9266C4.46667 22.9093 4.83067 22.6146 4.91733 22.1986C5.004 21.7826 4.81333 21.3666 4.432 21.1759L2.248 20.1186C2.07467 20.0319 2.00533 19.8586 2.05733 19.6853C2.092 19.5119 2.26533 19.3906 2.43867 19.4253L4.86533 19.7026C5.28133 19.7546 5.68 19.5119 5.81867 19.1133C5.97467 18.7146 5.836 18.2639 5.48933 18.0386L3.47867 16.6519C3.32267 16.5653 3.27067 16.3746 3.34 16.2013C3.42667 16.0453 3.6 15.9586 3.77333 16.0106L6.13067 16.6173C6.54667 16.7386 6.96267 16.5479 7.17067 16.1839C7.36133 15.8026 7.292 15.3519 6.98 15.0573L5.17733 13.4106C5.056 13.2893 5.02133 13.0986 5.12533 12.9426C5.22933 12.8039 5.40267 12.7346 5.576 12.8039L7.812 13.7573C8.21067 13.9306 8.644 13.8093 8.904 13.4626C9.164 13.1159 9.14667 12.6653 8.88667 12.3359L7.344 10.4466C7.22267 10.3079 7.22267 10.1173 7.344 9.97861C7.46533 9.83994 7.656 9.80527 7.812 9.90927L9.892 11.1573C10.256 11.3826 10.724 11.3306 11.0187 11.0359C11.3133 10.7239 11.3827 10.2733 11.1573 9.90927L9.892 7.82927C9.80533 7.67327 9.84 7.48261 9.97867 7.36127C10.1 7.23994 10.308 7.23994 10.4467 7.34394L12.3187 8.88661C12.648 9.16394 13.116 9.16394 13.4627 8.92127C13.792 8.66127 13.9133 8.21061 13.7573 7.82927L12.804 5.59327C12.7347 5.41994 12.7867 5.22927 12.9427 5.12527C13.0987 5.03861 13.2893 5.05594 13.4107 5.19461L15.0573 6.97994C15.3347 7.30927 15.7853 7.37861 16.1667 7.17061C16.548 6.96261 16.7213 6.54661 16.6173 6.13061L15.9933 3.79061C15.9413 3.59994 16.028 3.42661 16.2013 3.35727C16.3573 3.28794 16.548 3.33994 16.652 3.47861L18.0213 5.48927C18.264 5.83594 18.6973 5.97461 19.096 5.83594C19.4947 5.67994 19.7373 5.29861 19.6853 4.86527L19.408 2.45594C19.3907 2.28261 19.4947 2.10927 19.668 2.05727C19.8413 2.00527 20.032 2.09194 20.1013 2.24794L21.176 4.43194C21.3667 4.81327 21.7827 5.02127 22.1987 4.91727C22.6147 4.83061 22.9093 4.48394 22.9093 4.05061L22.9787 1.62394C22.9787 1.45061 23.1173 1.29461 23.2907 1.27727C23.4813 1.24261 23.6373 1.34661 23.6893 1.51994L24.452 3.84261C24.5733 4.24127 24.9547 4.50127 25.388 4.46661C25.804 4.43194 26.1507 4.13727 26.22 3.70394L26.636 1.31194C26.6707 1.13861 26.8093 0.999939 27 0.999939C27.1733 0.999939 27.3293 1.13861 27.364 1.31194Z" stroke="black" stroke-width="2" mask="url(#path-1-outside-1_1_1678)"/>
</svg>
