<svg width="54" height="54" viewBox="0 0 54 54" fill="none" xmlns="http://www.w3.org/2000/svg">
<mask id="path-1-outside-1_1_1676" maskUnits="userSpaceOnUse" x="0" y="-6.10352e-05" width="54" height="54" fill="black">
<rect fill="white" y="-6.10352e-05" width="54" height="54"/>
<path fill-rule="evenodd" clip-rule="evenodd" d="M27.52 1.38127L28.3693 4.11994C28.5773 4.81327 29.132 5.28127 29.8427 5.36794C30.5533 5.47194 31.212 5.15994 31.6107 4.55327L33.136 2.12661C33.2573 1.91861 33.5 1.83194 33.7253 1.88394C33.9507 1.95327 34.124 2.14394 34.124 2.38661L34.2453 5.24661C34.2627 5.97461 34.6787 6.56394 35.3547 6.84127C36.0133 7.11861 36.724 6.99727 37.2613 6.51194L39.3587 4.55327C39.532 4.39727 39.792 4.36261 40 4.48394C40.208 4.60527 40.312 4.84794 40.26 5.07327L39.6187 7.86394C39.4627 8.57461 39.7053 9.25061 40.2773 9.70127C40.8493 10.1346 41.5773 10.1866 42.2187 9.85727L44.7493 8.52261C44.9573 8.41861 45.2173 8.45327 45.3733 8.62661C45.5467 8.78261 45.5813 9.04261 45.4773 9.25061L44.1427 11.7813C43.8133 12.4226 43.8653 13.1506 44.316 13.7226C44.7493 14.2946 45.4253 14.5373 46.136 14.3813L48.9267 13.7573C49.1693 13.6879 49.3947 13.7919 49.516 13.9999C49.6373 14.2079 49.6027 14.4679 49.4467 14.6413L47.5053 16.7386C47.0027 17.2759 46.8813 17.9866 47.1587 18.6626C47.436 19.3213 48.0253 19.7373 48.7533 19.7719L51.6133 19.8759C51.856 19.8933 52.0467 20.0493 52.116 20.2746C52.168 20.5173 52.0813 20.7426 51.8733 20.8813L49.4467 22.4066C48.84 22.7879 48.528 23.4466 48.632 24.1573C48.7187 24.8679 49.1867 25.4226 49.88 25.6479L52.6187 26.4973C52.844 26.5666 53 26.7573 53 26.9999C53 27.2426 52.844 27.4506 52.6187 27.5199L49.88 28.3693C49.1867 28.5773 48.7187 29.1493 48.632 29.8599C48.528 30.5706 48.84 31.2293 49.4467 31.6106L51.8733 33.1359C52.0813 33.2746 52.168 33.4999 52.116 33.7426C52.0467 33.9679 51.856 34.1239 51.6133 34.1413L48.7533 34.2453C48.0253 34.2799 47.436 34.6959 47.1587 35.3546C46.8813 36.0133 47.0027 36.7413 47.5053 37.2613L49.4467 39.3759C49.6027 39.5493 49.6373 39.7919 49.516 39.9999C49.3947 40.2079 49.1693 40.3119 48.9267 40.2599L46.136 39.6359C45.4253 39.4626 44.7493 39.7226 44.316 40.2946C43.8653 40.8666 43.8133 41.5946 44.1427 42.2186L45.4773 44.7493C45.5813 44.9746 45.5467 45.2173 45.3733 45.3906C45.2173 45.5639 44.9573 45.5986 44.7493 45.4946L42.2187 44.1599C41.5773 43.8133 40.8493 43.8826 40.2773 44.3159C39.7053 44.7493 39.4627 45.4426 39.6187 46.1359L40.26 48.9439C40.312 49.1693 40.208 49.3946 40 49.5159C39.792 49.6373 39.532 49.6199 39.3587 49.4466L37.2613 47.5053C36.724 47.0199 36.0133 46.8986 35.3547 47.1586C34.6787 47.4359 34.2627 48.0426 34.2453 48.7533L34.124 51.6133C34.124 51.8559 33.9507 52.0639 33.7253 52.1159C33.5 52.1853 33.2573 52.0813 33.136 51.8906L31.6107 49.4639C31.212 48.8573 30.5533 48.5453 29.8427 48.6319C29.132 48.7359 28.5773 49.2039 28.3693 49.8973L27.52 52.6186C27.4333 52.8613 27.2427 52.9999 27 52.9999C26.7573 52.9999 26.5493 52.8613 26.48 52.6186L25.6307 49.8973C25.4227 49.2039 24.868 48.7359 24.14 48.6319C23.4293 48.5453 22.7707 48.8573 22.3893 49.4639L20.864 51.8906C20.7427 52.0813 20.5 52.1853 20.2747 52.1159C20.032 52.0639 19.876 51.8559 19.876 51.6133L19.7547 48.7533C19.72 48.0426 19.304 47.4359 18.6453 47.1586C17.9867 46.8986 17.2587 47.0199 16.7387 47.5053L14.6413 49.4466C14.4507 49.6199 14.208 49.6373 14 49.5159C13.792 49.3946 13.688 49.1693 13.74 48.9439L14.3813 46.1359C14.5373 45.4426 14.2773 44.7493 13.7053 44.3159C13.1507 43.8826 12.4227 43.8133 11.7813 44.1599L9.25067 45.4946C9.02533 45.5986 8.78267 45.5639 8.60933 45.3906C8.436 45.2173 8.40133 44.9746 8.52267 44.7493L9.85733 42.2186C10.1867 41.5946 10.1173 40.8666 9.684 40.2946C9.25067 39.7226 8.55733 39.4626 7.864 39.6359L5.07333 40.2599C4.83067 40.3119 4.60533 40.2079 4.484 39.9999C4.36267 39.7919 4.38 39.5493 4.55333 39.3759L6.49467 37.2613C6.98 36.7413 7.11867 36.0133 6.84133 35.3546C6.564 34.6959 5.95733 34.2799 5.24667 34.2453L2.38667 34.1413C2.144 34.1239 1.95333 33.9679 1.884 33.7426C1.81467 33.4999 1.91867 33.2746 2.10933 33.1359L4.536 31.6106C5.14267 31.2293 5.45467 30.5706 5.368 29.8599C5.264 29.1493 4.796 28.5773 4.12 28.3693L1.38133 27.5199C1.13867 27.4506 1 27.2426 1 26.9999C1 26.7573 1.13867 26.5666 1.38133 26.4973L4.12 25.6479C4.796 25.4226 5.264 24.8679 5.368 24.1573C5.45467 23.4466 5.14267 22.7879 4.536 22.4066L2.10933 20.8813C1.91867 20.7426 1.81467 20.5173 1.884 20.2746C1.95333 20.0493 2.144 19.8933 2.38667 19.8759L5.24667 19.7719C5.95733 19.7373 6.564 19.3213 6.84133 18.6626C7.11867 17.9866 6.98 17.2759 6.49467 16.7386L4.55333 14.6413C4.38 14.4679 4.36267 14.2079 4.484 13.9999C4.60533 13.7919 4.83067 13.6879 5.07333 13.7573L7.864 14.3813C8.55733 14.5373 9.25067 14.2946 9.684 13.7226C10.1173 13.1506 10.1867 12.4226 9.85733 11.7813L8.52267 9.25061C8.40133 9.04261 8.436 8.78261 8.60933 8.62661C8.78267 8.45327 9.02533 8.41861 9.25067 8.52261L11.7813 9.85727C12.4227 10.1866 13.1507 10.1346 13.7053 9.70127C14.2773 9.25061 14.5373 8.57461 14.3813 7.86394L13.74 5.07327C13.688 4.84794 13.792 4.60527 14 4.48394C14.208 4.36261 14.4507 4.39727 14.6413 4.55327L16.7387 6.51194C17.2587 6.99727 17.9867 7.11861 18.6453 6.84127C19.304 6.56394 19.72 5.97461 19.7547 5.24661L19.876 2.38661C19.876 2.14394 20.032 1.95327 20.2747 1.88394C20.5 1.83194 20.7427 1.91861 20.864 2.12661L22.3893 4.55327C22.7707 5.15994 23.4293 5.47194 24.14 5.36794C24.868 5.28127 25.4227 4.81327 25.6307 4.11994L26.48 1.38127C26.5493 1.15594 26.7573 0.999939 27 0.999939C27.2427 0.999939 27.4333 1.15594 27.52 1.38127Z"/>
</mask>
<path fill-rule="evenodd" clip-rule="evenodd" d="M27.52 1.38127L28.3693 4.11994C28.5773 4.81327 29.132 5.28127 29.8427 5.36794C30.5533 5.47194 31.212 5.15994 31.6107 4.55327L33.136 2.12661C33.2573 1.91861 33.5 1.83194 33.7253 1.88394C33.9507 1.95327 34.124 2.14394 34.124 2.38661L34.2453 5.24661C34.2627 5.97461 34.6787 6.56394 35.3547 6.84127C36.0133 7.11861 36.724 6.99727 37.2613 6.51194L39.3587 4.55327C39.532 4.39727 39.792 4.36261 40 4.48394C40.208 4.60527 40.312 4.84794 40.26 5.07327L39.6187 7.86394C39.4627 8.57461 39.7053 9.25061 40.2773 9.70127C40.8493 10.1346 41.5773 10.1866 42.2187 9.85727L44.7493 8.52261C44.9573 8.41861 45.2173 8.45327 45.3733 8.62661C45.5467 8.78261 45.5813 9.04261 45.4773 9.25061L44.1427 11.7813C43.8133 12.4226 43.8653 13.1506 44.316 13.7226C44.7493 14.2946 45.4253 14.5373 46.136 14.3813L48.9267 13.7573C49.1693 13.6879 49.3947 13.7919 49.516 13.9999C49.6373 14.2079 49.6027 14.4679 49.4467 14.6413L47.5053 16.7386C47.0027 17.2759 46.8813 17.9866 47.1587 18.6626C47.436 19.3213 48.0253 19.7373 48.7533 19.7719L51.6133 19.8759C51.856 19.8933 52.0467 20.0493 52.116 20.2746C52.168 20.5173 52.0813 20.7426 51.8733 20.8813L49.4467 22.4066C48.84 22.7879 48.528 23.4466 48.632 24.1573C48.7187 24.8679 49.1867 25.4226 49.88 25.6479L52.6187 26.4973C52.844 26.5666 53 26.7573 53 26.9999C53 27.2426 52.844 27.4506 52.6187 27.5199L49.88 28.3693C49.1867 28.5773 48.7187 29.1493 48.632 29.8599C48.528 30.5706 48.84 31.2293 49.4467 31.6106L51.8733 33.1359C52.0813 33.2746 52.168 33.4999 52.116 33.7426C52.0467 33.9679 51.856 34.1239 51.6133 34.1413L48.7533 34.2453C48.0253 34.2799 47.436 34.6959 47.1587 35.3546C46.8813 36.0133 47.0027 36.7413 47.5053 37.2613L49.4467 39.3759C49.6027 39.5493 49.6373 39.7919 49.516 39.9999C49.3947 40.2079 49.1693 40.3119 48.9267 40.2599L46.136 39.6359C45.4253 39.4626 44.7493 39.7226 44.316 40.2946C43.8653 40.8666 43.8133 41.5946 44.1427 42.2186L45.4773 44.7493C45.5813 44.9746 45.5467 45.2173 45.3733 45.3906C45.2173 45.5639 44.9573 45.5986 44.7493 45.4946L42.2187 44.1599C41.5773 43.8133 40.8493 43.8826 40.2773 44.3159C39.7053 44.7493 39.4627 45.4426 39.6187 46.1359L40.26 48.9439C40.312 49.1693 40.208 49.3946 40 49.5159C39.792 49.6373 39.532 49.6199 39.3587 49.4466L37.2613 47.5053C36.724 47.0199 36.0133 46.8986 35.3547 47.1586C34.6787 47.4359 34.2627 48.0426 34.2453 48.7533L34.124 51.6133C34.124 51.8559 33.9507 52.0639 33.7253 52.1159C33.5 52.1853 33.2573 52.0813 33.136 51.8906L31.6107 49.4639C31.212 48.8573 30.5533 48.5453 29.8427 48.6319C29.132 48.7359 28.5773 49.2039 28.3693 49.8973L27.52 52.6186C27.4333 52.8613 27.2427 52.9999 27 52.9999C26.7573 52.9999 26.5493 52.8613 26.48 52.6186L25.6307 49.8973C25.4227 49.2039 24.868 48.7359 24.14 48.6319C23.4293 48.5453 22.7707 48.8573 22.3893 49.4639L20.864 51.8906C20.7427 52.0813 20.5 52.1853 20.2747 52.1159C20.032 52.0639 19.876 51.8559 19.876 51.6133L19.7547 48.7533C19.72 48.0426 19.304 47.4359 18.6453 47.1586C17.9867 46.8986 17.2587 47.0199 16.7387 47.5053L14.6413 49.4466C14.4507 49.6199 14.208 49.6373 14 49.5159C13.792 49.3946 13.688 49.1693 13.74 48.9439L14.3813 46.1359C14.5373 45.4426 14.2773 44.7493 13.7053 44.3159C13.1507 43.8826 12.4227 43.8133 11.7813 44.1599L9.25067 45.4946C9.02533 45.5986 8.78267 45.5639 8.60933 45.3906C8.436 45.2173 8.40133 44.9746 8.52267 44.7493L9.85733 42.2186C10.1867 41.5946 10.1173 40.8666 9.684 40.2946C9.25067 39.7226 8.55733 39.4626 7.864 39.6359L5.07333 40.2599C4.83067 40.3119 4.60533 40.2079 4.484 39.9999C4.36267 39.7919 4.38 39.5493 4.55333 39.3759L6.49467 37.2613C6.98 36.7413 7.11867 36.0133 6.84133 35.3546C6.564 34.6959 5.95733 34.2799 5.24667 34.2453L2.38667 34.1413C2.144 34.1239 1.95333 33.9679 1.884 33.7426C1.81467 33.4999 1.91867 33.2746 2.10933 33.1359L4.536 31.6106C5.14267 31.2293 5.45467 30.5706 5.368 29.8599C5.264 29.1493 4.796 28.5773 4.12 28.3693L1.38133 27.5199C1.13867 27.4506 1 27.2426 1 26.9999C1 26.7573 1.13867 26.5666 1.38133 26.4973L4.12 25.6479C4.796 25.4226 5.264 24.8679 5.368 24.1573C5.45467 23.4466 5.14267 22.7879 4.536 22.4066L2.10933 20.8813C1.91867 20.7426 1.81467 20.5173 1.884 20.2746C1.95333 20.0493 2.144 19.8933 2.38667 19.8759L5.24667 19.7719C5.95733 19.7373 6.564 19.3213 6.84133 18.6626C7.11867 17.9866 6.98 17.2759 6.49467 16.7386L4.55333 14.6413C4.38 14.4679 4.36267 14.2079 4.484 13.9999C4.60533 13.7919 4.83067 13.6879 5.07333 13.7573L7.864 14.3813C8.55733 14.5373 9.25067 14.2946 9.684 13.7226C10.1173 13.1506 10.1867 12.4226 9.85733 11.7813L8.52267 9.25061C8.40133 9.04261 8.436 8.78261 8.60933 8.62661C8.78267 8.45327 9.02533 8.41861 9.25067 8.52261L11.7813 9.85727C12.4227 10.1866 13.1507 10.1346 13.7053 9.70127C14.2773 9.25061 14.5373 8.57461 14.3813 7.86394L13.74 5.07327C13.688 4.84794 13.792 4.60527 14 4.48394C14.208 4.36261 14.4507 4.39727 14.6413 4.55327L16.7387 6.51194C17.2587 6.99727 17.9867 7.11861 18.6453 6.84127C19.304 6.56394 19.72 5.97461 19.7547 5.24661L19.876 2.38661C19.876 2.14394 20.032 1.95327 20.2747 1.88394C20.5 1.83194 20.7427 1.91861 20.864 2.12661L22.3893 4.55327C22.7707 5.15994 23.4293 5.47194 24.14 5.36794C24.868 5.28127 25.4227 4.81327 25.6307 4.11994L26.48 1.38127C26.5493 1.15594 26.7573 0.999939 27 0.999939C27.2427 0.999939 27.4333 1.15594 27.52 1.38127Z" stroke="black" stroke-width="2" mask="url(#path-1-outside-1_1_1676)"/>
</svg>
