<svg width="540" height="69" viewBox="0 0 540 69" fill="none" xmlns="http://www.w3.org/2000/svg">
<path d="M196.994 8.12992C201.604 6.79621 207.084 6.36131 212.97 6.79621C223.871 7.63703 236.222 11.4932 246.689 17.9878C257.243 24.5693 265.912 33.8473 269.333 45.5317C270.609 49.9098 271.16 54.6067 270.783 59.5936L266.695 59.2747C267.043 54.7807 266.55 50.5766 265.39 46.6625C262.317 36.0798 254.314 27.5557 244.515 21.467C234.628 15.3203 222.972 11.6671 212.651 10.8843C207.258 10.4784 202.271 10.8553 198.125 12.0731L196.994 8.12992Z" fill="black"/>
<path fill-rule="evenodd" clip-rule="evenodd" d="M4.24421 34.1082L79.5407 28.4254C82.0632 28.2225 84.2957 30.136 84.4697 32.6585L85.6004 47.6192C85.8034 50.1417 83.8898 52.3452 81.3673 52.5481L6.07081 58.2309C3.54836 58.4338 1.34484 56.5203 1.14189 53.9978L0.0111353 39.0371C-0.162827 36.5146 1.72176 34.2821 4.24421 34.1082Z" fill="#333333"/>
<path fill-rule="evenodd" clip-rule="evenodd" d="M83.5708 32.0206C84.0927 32.6875 84.3826 33.5283 84.4696 34.3981L84.9335 38.8631L0.504 45.5026L0.0111084 39.0371C0.0111084 38.8921 0.0111084 38.7471 0.0111084 38.6022L83.5708 32.0206Z" fill="#4D4D4D"/>
<path d="M167.536 46.1695C158.867 46.4595 157.824 30.107 166.957 29.7881C200.995 28.5704 233.787 36.8915 264.201 51.8523C268.26 53.8818 269.942 58.7818 267.941 62.8409C265.941 66.9 261.012 68.5526 256.953 66.552C228.945 52.7801 198.879 45.0388 167.536 46.1695Z" fill="#333333"/>
<path d="M161.158 34.1662C197.835 30.9189 236.164 41.9655 268.724 58.2599C268.898 59.7676 268.666 61.3622 267.941 62.8409C267.681 63.3628 267.362 63.8557 267.014 64.2906C235.034 48.1121 197.052 36.9206 160.897 40.3708C160.375 38.3123 160.462 36.0797 161.158 34.1662Z" fill="#4D4D4D"/>
<path fill-rule="evenodd" clip-rule="evenodd" d="M85.6294 19.0605L95.4002 18.3357C99.2564 18.0457 102.649 20.9451 102.939 24.8012L104.997 52.1133C105.287 55.9694 102.359 59.3617 98.5025 59.6516L88.7607 60.3765C84.9045 60.6954 81.5123 57.767 81.2223 53.9109L79.1638 26.5988C78.8738 22.7427 81.7732 19.3794 85.6294 19.0605Z" fill="#666666"/>
<path fill-rule="evenodd" clip-rule="evenodd" d="M99.4305 22.5397C99.8074 23.2935 100.039 24.1344 100.097 25.0332L101.141 38.8631L80.2077 40.4578L79.1639 26.5988C79.077 25.729 79.1929 24.8592 79.4539 24.0474L99.4305 22.5397Z" fill="#808080"/>
<path fill-rule="evenodd" clip-rule="evenodd" d="M101.054 14.1605L112.188 13.0878C116.943 12.6239 121.118 16.3061 121.495 21.061L123.93 53.4179C124.278 58.1729 120.683 62.261 115.957 62.7249L104.794 63.7977C100.039 64.2616 95.8642 60.5504 95.5163 55.8244L93.0518 23.4385C92.7039 18.6835 96.2991 14.6244 101.054 14.1605Z" fill="#4D4D4D"/>
<path fill-rule="evenodd" clip-rule="evenodd" d="M117.319 16.712C118.218 17.9587 118.74 19.8433 118.885 21.496L120.393 41.5306L94.5595 43.5021L93.0518 23.4385C92.9358 21.7859 93.3997 19.8433 94.1246 18.4806L117.319 16.712Z" fill="#666666"/>
<path fill-rule="evenodd" clip-rule="evenodd" d="M116.131 6.27427L131.7 5.11452C135.064 4.88258 138.05 7.43402 138.311 10.8263L142.167 60.8983C142.428 64.2906 139.877 67.2479 136.513 67.5089L120.944 68.6396C117.551 68.8716 114.565 66.3201 114.333 62.9569L110.448 12.8558C110.187 9.46357 112.739 6.50622 116.131 6.27427Z" fill="#333333"/>
<path fill-rule="evenodd" clip-rule="evenodd" d="M113.115 48.2571L110.506 13.2908L121.35 12.247L124.336 47.3003L113.115 48.2571Z" fill="#4D4D4D"/>
<path fill-rule="evenodd" clip-rule="evenodd" d="M186.295 3.75185L201.778 2.5921C203.286 2.47613 204.619 3.60688 204.735 5.11455L205.286 12.305C205.402 13.8416 204.242 15.1464 202.735 15.2623L187.252 16.4511C185.744 16.5381 184.411 14.6825 184.295 13.1748L183.744 6.7092C183.628 5.17254 184.788 3.86783 186.295 3.75185Z" fill="#333333"/>
<path fill-rule="evenodd" clip-rule="evenodd" d="M145.733 3.08496L186.469 0.011632C188.876 -0.16233 190.992 1.63528 191.166 4.04175L192.007 15.4073C192.21 17.8137 190.383 19.9303 188.006 20.1042L147.241 23.1486C144.834 23.3515 142.747 21.5249 142.544 19.1474L141.703 7.75294C141.529 5.37546 143.327 3.25892 145.733 3.08496Z" fill="#666666"/>
<path fill-rule="evenodd" clip-rule="evenodd" d="M177.626 4.8536C180.874 4.62165 183.715 7.05712 183.976 10.3044C184.208 13.5517 181.772 16.3931 178.525 16.625C175.278 16.886 172.436 14.4505 172.175 11.1742C171.943 7.92693 174.379 5.11454 177.626 4.8536Z" fill="#B3B3B3"/>
<path fill-rule="evenodd" clip-rule="evenodd" d="M128.308 4.3897L156.345 2.27316C162.231 1.83825 167.42 6.30328 167.884 12.189L171.074 54.8097C171.509 60.6954 167.073 65.8852 161.158 66.3201L133.121 68.4367C127.235 68.8716 122.045 64.4066 121.61 58.5208L118.421 15.9002C117.957 10.0145 122.422 4.8246 128.308 4.3897Z" fill="#E6E6E6"/>
<path fill-rule="evenodd" clip-rule="evenodd" d="M128.83 16.9439L156.954 14.8274C160.868 14.5374 164.347 17.4948 164.637 21.4379L166.754 49.5618C167.044 53.5049 164.057 56.9551 160.143 57.2451L132.019 59.3616C128.076 59.6515 124.626 56.6942 124.336 52.7511L122.219 24.6272C121.929 20.6841 124.887 17.2338 128.83 16.9439Z" fill="#333333"/>
<path fill-rule="evenodd" clip-rule="evenodd" d="M131.149 19.9303L155.098 18.1327C158.433 17.9007 161.39 20.4232 161.622 23.7574L163.419 47.7062C163.68 51.0405 161.158 53.9978 157.824 54.2298L133.875 56.0564C130.512 56.2883 127.583 53.7659 127.322 50.4316L125.525 26.4828C125.264 23.1196 127.815 20.1912 131.149 19.9303Z" fill="#666666"/>
<path fill-rule="evenodd" clip-rule="evenodd" d="M162.405 34.1951L163.419 47.7062C163.68 51.0405 161.158 53.9978 157.824 54.2298L133.875 56.0564C130.512 56.2883 127.583 53.7659 127.322 50.4316L126.394 38.0223C135.614 34.0792 149.154 32.9774 162.405 34.1951Z" fill="#4D4D4D"/>
<path fill-rule="evenodd" clip-rule="evenodd" d="M143.646 25.816C149.85 25.3521 155.272 30.02 155.765 36.2537C156.229 42.4583 151.561 47.9091 145.327 48.373C139.094 48.8369 133.672 44.1689 133.208 37.9353C132.744 31.7017 137.412 26.2799 143.646 25.816Z" fill="#66FFCC"/>
<path fill-rule="evenodd" clip-rule="evenodd" d="M155.301 33.7892C155.533 34.5721 155.678 35.3839 155.765 36.2537C156.229 42.4583 151.561 47.9091 145.327 48.373C139.094 48.8369 133.672 44.169 133.208 37.9353C133.15 37.2105 133.179 36.4856 133.266 35.7898C139.761 34.1951 147.415 33.5573 155.301 33.7892Z" fill="#18D697"/>
<path d="M341.875 12.0731C337.729 10.8553 332.742 10.4784 327.349 10.8843C317.028 11.6671 305.372 15.3203 295.485 21.467C285.686 27.5557 277.683 36.0798 274.61 46.6625C273.45 50.5766 272.957 54.7807 273.305 59.2747L269.217 59.5936C268.84 54.6067 269.391 49.9098 270.667 45.5317C274.088 33.8473 282.757 24.5693 293.311 17.9878C303.778 11.4932 316.129 7.63703 327.031 6.79621C332.916 6.36131 338.396 6.79621 343.006 8.12992L341.875 12.0731Z" fill="black"/>
<path fill-rule="evenodd" clip-rule="evenodd" d="M535.756 34.1082L460.459 28.4254C457.937 28.2225 455.704 30.136 455.531 32.6585L454.4 47.6192C454.197 50.1417 456.11 52.3452 458.633 52.5481L533.929 58.2309C536.452 58.4338 538.655 56.5203 538.858 53.9978L539.989 39.0371C540.163 36.5146 538.278 34.2821 535.756 34.1082Z" fill="#333333"/>
<path fill-rule="evenodd" clip-rule="evenodd" d="M456.429 32.0206C455.907 32.6875 455.617 33.5283 455.53 34.3981L455.066 38.8631L539.496 45.5026L539.989 39.0371C539.989 38.8921 539.989 38.7471 539.989 38.6022L456.429 32.0206Z" fill="#4D4D4D"/>
<path d="M372.464 46.1695C381.133 46.4595 382.176 30.107 373.043 29.7881C339.005 28.5704 306.213 36.8915 275.799 51.8523C271.74 53.8818 270.058 58.7818 272.059 62.8409C274.059 66.9 278.988 68.5526 283.047 66.552C311.055 52.7801 341.121 45.0388 372.464 46.1695Z" fill="#333333"/>
<path d="M378.842 34.1662C342.165 30.9189 303.836 41.9655 271.276 58.2599C271.102 59.7676 271.334 61.3622 272.059 62.8409C272.32 63.3628 272.638 63.8557 272.986 64.2906C304.966 48.1121 342.948 36.9206 379.103 40.3708C379.625 38.3123 379.538 36.0797 378.842 34.1662Z" fill="#4D4D4D"/>
<path fill-rule="evenodd" clip-rule="evenodd" d="M454.371 19.0605L444.6 18.3357C440.744 18.0457 437.351 20.9451 437.062 24.8012L435.003 52.1133C434.713 55.9694 437.641 59.3617 441.498 59.6516L451.239 60.3765C455.096 60.6954 458.488 57.767 458.778 53.9109L460.836 26.5988C461.126 22.7427 458.227 19.3794 454.371 19.0605Z" fill="#666666"/>
<path fill-rule="evenodd" clip-rule="evenodd" d="M440.57 22.5397C440.193 23.2935 439.961 24.1344 439.903 25.0332L438.859 38.8631L459.793 40.4578L460.836 26.5988C460.923 25.729 460.807 24.8592 460.546 24.0474L440.57 22.5397Z" fill="#808080"/>
<path fill-rule="evenodd" clip-rule="evenodd" d="M438.946 14.1605L427.812 13.0878C423.057 12.6239 418.882 16.3061 418.505 21.061L416.07 53.4179C415.722 58.1729 419.317 62.261 424.043 62.7249L435.206 63.7977C439.961 64.2616 444.136 60.5504 444.484 55.8244L446.948 23.4385C447.296 18.6835 443.701 14.6244 438.946 14.1605Z" fill="#4D4D4D"/>
<path fill-rule="evenodd" clip-rule="evenodd" d="M422.681 16.712C421.782 17.9587 421.26 19.8433 421.115 21.496L419.607 41.5306L445.441 43.5021L446.948 23.4385C447.064 21.7859 446.6 19.8433 445.875 18.4806L422.681 16.712Z" fill="#666666"/>
<path fill-rule="evenodd" clip-rule="evenodd" d="M423.869 6.27427L408.3 5.11452C404.937 4.88258 401.95 7.43402 401.689 10.8263L397.833 60.8983C397.572 64.2906 400.124 67.2479 403.487 67.5089L419.056 68.6396C422.449 68.8716 425.435 66.3201 425.667 62.9569L429.552 12.8558C429.813 9.46357 427.262 6.50622 423.869 6.27427Z" fill="#333333"/>
<path fill-rule="evenodd" clip-rule="evenodd" d="M426.885 48.2571L429.494 13.2908L418.65 12.247L415.664 47.3003L426.885 48.2571Z" fill="#4D4D4D"/>
<path fill-rule="evenodd" clip-rule="evenodd" d="M353.705 3.75185L338.222 2.5921C336.714 2.47613 335.381 3.60688 335.265 5.11455L334.714 12.305C334.598 13.8416 335.758 15.1464 337.265 15.2623L352.748 16.4511C354.256 16.5381 355.589 15.4073 355.705 13.8996L356.256 6.7092C356.343 5.17254 355.212 3.86783 353.705 3.75185Z" fill="#333333"/>
<path fill-rule="evenodd" clip-rule="evenodd" d="M394.267 3.08496L353.531 0.011632C351.124 -0.16233 349.008 1.63528 348.834 4.04175L347.993 15.4073C347.79 17.8137 349.617 19.9303 351.994 20.1042L392.759 23.1486C395.166 23.3515 397.253 21.5249 397.456 19.1474L398.297 7.75294C398.471 5.37546 396.673 3.25892 394.267 3.08496Z" fill="#666666"/>
<path fill-rule="evenodd" clip-rule="evenodd" d="M362.374 4.8536C359.127 4.62165 356.285 7.05712 356.024 10.3044C355.792 13.5517 358.228 16.3931 361.475 16.625C364.722 16.886 367.564 14.4505 367.825 11.1742C368.057 7.92693 365.621 5.11454 362.374 4.8536Z" fill="#B3B3B3"/>
<path fill-rule="evenodd" clip-rule="evenodd" d="M411.692 4.3897L383.655 2.27316C377.769 1.83825 372.58 6.30328 372.116 12.189L368.926 54.8097C368.492 60.6954 372.928 65.8852 378.842 66.3201L406.879 68.4367C412.765 68.8716 417.955 64.4066 418.39 58.5208L421.579 15.9002C422.043 10.0145 417.578 4.8246 411.692 4.3897Z" fill="#E6E6E6"/>
<path fill-rule="evenodd" clip-rule="evenodd" d="M411.17 16.9439L383.046 14.8274C379.132 14.5374 375.653 17.4948 375.363 21.4379L373.247 49.5618C372.957 53.5049 375.943 56.9551 379.857 57.2451L407.981 59.3616C411.924 59.6515 415.374 56.6942 415.664 52.7511L417.781 24.6272C418.071 20.6841 415.113 17.2338 411.17 16.9439Z" fill="#333333"/>
<path fill-rule="evenodd" clip-rule="evenodd" d="M408.85 19.9303L384.902 18.1327C381.567 17.9007 378.61 20.4232 378.378 23.7574L376.581 47.7062C376.32 51.0405 378.842 53.9978 382.176 54.2298L406.125 56.0564C409.488 56.2883 412.417 53.7659 412.678 50.4316L414.475 26.4828C414.736 23.1196 412.185 20.1912 408.85 19.9303Z" fill="#666666"/>
<path fill-rule="evenodd" clip-rule="evenodd" d="M377.595 34.1951L376.581 47.7062C376.32 51.0405 378.842 53.9978 382.176 54.2298L406.125 56.0564C409.488 56.2883 412.417 53.7659 412.678 50.4316L413.605 38.0223C404.385 34.0792 390.845 32.9774 377.595 34.1951Z" fill="#4D4D4D"/>
<path fill-rule="evenodd" clip-rule="evenodd" d="M396.354 25.816C390.15 25.3521 384.728 30.02 384.235 36.2537C383.771 42.4583 388.439 47.9091 394.673 48.373C400.906 48.8369 406.328 44.1689 406.792 37.9353C407.256 31.7017 402.588 26.2799 396.354 25.816Z" fill="#6EE2FF"/>
<path fill-rule="evenodd" clip-rule="evenodd" d="M384.699 33.7892C384.467 34.5721 384.322 35.3839 384.235 36.2537C383.771 42.4583 388.439 47.9091 394.673 48.373C400.906 48.8369 406.328 44.169 406.792 37.9353C406.85 37.2105 406.821 36.4856 406.734 35.7898C400.239 34.1951 392.585 33.5573 384.699 33.7892Z" fill="#00CCFF"/>
</svg>
