<svg width="283" height="310" viewBox="0 0 283 310" fill="none" xmlns="http://www.w3.org/2000/svg">
<path d="M124.183 166.206C124.183 156.85 131.787 149.245 141.143 149.245C150.5 149.245 158.104 156.85 158.104 166.206V292.337C158.104 301.722 150.5 309.298 141.143 309.298C131.787 309.298 124.183 301.722 124.183 292.337V166.206Z" fill="#1A1A1A"/>
<path d="M145.638 268.055C139.419 268.055 134.387 263.023 134.387 256.804C134.387 250.585 139.419 245.554 145.638 245.554L233.409 245.78C239.996 245.78 247.854 245.78 252.914 243.207C256.758 241.257 259.557 236.791 259.5 227.123L259.076 130.73C259.076 127.988 259.218 125.19 259.359 121.995C259.896 110.293 260.688 92.7665 255.119 78.2369L231.091 15.4542C228.858 9.60277 231.798 3.10119 237.621 0.868035C243.444 -1.33685 249.974 1.57473 252.207 7.39789L276.235 70.1806C283.415 88.9786 282.482 109.36 281.888 122.956C281.747 126.122 281.606 128.864 281.606 130.645L282.03 227.038C282.143 247.278 274.058 257.794 263.09 263.362C253.338 268.309 242.455 268.309 233.409 268.309L145.638 268.055Z" fill="#333333"/>
<path d="M153.185 261.016C150.867 261.016 148.973 259.122 148.973 256.804C148.973 254.458 150.867 252.592 153.185 252.592L233.409 252.819C240.759 252.847 249.578 252.819 256.108 249.511C262.157 246.43 266.624 240.07 266.567 227.095L266.143 130.702C266.115 128.271 266.256 125.472 266.398 122.306C266.963 109.982 267.783 91.5793 261.705 75.7211L237.678 12.9384C236.858 10.7335 237.96 8.30247 240.137 7.45444C242.314 6.63468 244.773 7.73712 245.593 9.91374L269.62 72.6964C276.32 90.1659 275.443 109.642 274.85 122.674C274.68 125.84 274.567 128.61 274.567 130.674L274.991 227.067C275.076 243.999 268.659 252.621 259.896 257.059C251.642 261.271 241.692 261.271 233.409 261.271L153.185 261.016Z" fill="#4D4D4D"/>
<path fill-rule="evenodd" clip-rule="evenodd" d="M237.706 0.811502C243.586 -1.36512 249.889 1.00938 251.699 5.87143C253.479 10.7618 250.2 16.4718 244.321 18.6485C238.469 20.8251 232.25 18.6202 230.441 13.7299C228.632 8.86781 231.855 2.98812 237.706 0.811502Z" fill="#666666"/>
<path fill-rule="evenodd" clip-rule="evenodd" d="M266.511 103.141H275.387C277.139 103.141 278.581 104.582 278.581 106.363V121.232C278.581 122.985 277.139 124.426 275.387 124.426H266.511C264.758 124.426 263.317 122.985 263.317 121.232V106.363C263.317 104.582 264.758 103.141 266.511 103.141Z" fill="#B5B510"/>
<path fill-rule="evenodd" clip-rule="evenodd" d="M267.613 105.204H274.171C275.472 105.204 276.517 106.278 276.517 107.579V120.017C276.517 121.317 275.472 122.391 274.171 122.391H267.613C266.313 122.391 265.239 121.317 265.239 120.017V107.579C265.239 106.278 266.313 105.204 267.613 105.204Z" fill="#F7F743"/>
<path fill-rule="evenodd" clip-rule="evenodd" d="M266.511 130.617H275.387C277.139 130.617 278.581 132.059 278.581 133.811V148.708C278.581 150.461 277.139 151.903 275.387 151.903H266.511C264.758 151.903 263.317 150.461 263.317 148.708V133.811C263.317 132.059 264.758 130.617 266.511 130.617Z" fill="#B5B510"/>
<path fill-rule="evenodd" clip-rule="evenodd" d="M267.613 132.681H274.171C275.472 132.681 276.517 133.755 276.517 135.055V147.493C276.517 148.793 275.472 149.867 274.171 149.867H267.613C266.313 149.867 265.239 148.793 265.239 147.493V135.055C265.239 133.755 266.313 132.681 267.613 132.681Z" fill="#F7F743"/>
<path d="M136.649 245.554C142.868 245.554 147.899 250.585 147.899 256.804C147.899 263.023 142.868 268.055 136.649 268.055L48.8773 268.309C39.8316 268.309 28.9485 268.309 19.1961 263.362C8.22826 257.794 0.143682 247.278 0.256753 227.038L0.680769 130.645C0.680769 128.864 0.539431 126.122 0.398092 122.956C-0.195531 109.36 -1.12837 88.9787 6.05164 70.1806L30.0792 7.39791C32.3124 1.57475 38.8422 -1.33683 44.6654 0.868055C50.4886 3.10121 53.4284 9.60279 51.1952 15.4542L27.1677 78.2369C21.5989 92.7665 22.3904 110.293 22.9275 121.995C23.0688 125.19 23.2102 127.988 23.2102 130.73L22.7862 227.123C22.7296 236.791 25.5281 241.257 29.3725 243.208C34.4325 245.78 42.2909 245.78 48.8773 245.78L136.649 245.554Z" fill="#333333"/>
<path d="M129.101 252.592C131.419 252.592 133.313 254.458 133.313 256.804C133.313 259.122 131.419 261.016 129.101 261.016L48.8773 261.271C40.5948 261.271 30.6446 261.271 22.3904 257.059C13.6274 252.621 7.21061 243.999 7.29541 227.067L7.71943 130.674C7.71943 128.61 7.60636 125.84 7.43675 122.674C6.84313 109.642 5.96683 90.1659 12.6663 72.6964L36.6939 9.91376C37.5136 7.73714 39.9729 6.6347 42.1496 7.45446C44.3262 8.30249 45.4286 10.7335 44.6088 12.9384L20.5813 75.7211C14.5037 91.5793 15.3235 109.982 15.8888 122.306C16.0301 125.472 16.1715 128.271 16.1432 130.702L15.7192 227.095C15.6627 240.07 20.129 246.43 26.1783 249.511C32.7081 252.819 41.5277 252.847 48.8773 252.819L129.101 252.592Z" fill="#4D4D4D"/>
<path fill-rule="evenodd" clip-rule="evenodd" d="M44.5806 0.811521C38.7009 -1.3651 32.3972 1.00939 30.5881 5.87145C28.8072 10.7618 32.0863 16.4719 37.966 18.6485C43.8174 20.8251 50.0363 18.6202 51.8454 13.7299C53.6546 8.86783 50.432 2.98814 44.5806 0.811521Z" fill="#666666"/>
<path fill-rule="evenodd" clip-rule="evenodd" d="M15.7758 103.141H6.8997C5.1471 103.141 3.70544 104.583 3.70544 106.363V121.232C3.70544 122.985 5.1471 124.426 6.8997 124.426H15.7758C17.5284 124.426 18.97 122.985 18.97 121.232V106.363C18.97 104.583 17.5284 103.141 15.7758 103.141Z" fill="#B5B510"/>
<path fill-rule="evenodd" clip-rule="evenodd" d="M14.6733 105.204H8.11514C6.81483 105.204 5.76892 106.279 5.76892 107.579V120.017C5.76892 121.317 6.81483 122.391 8.11514 122.391H14.6733C15.9736 122.391 17.0478 121.317 17.0478 120.017V107.579C17.0478 106.279 15.9736 105.204 14.6733 105.204Z" fill="#F7F743"/>
<path fill-rule="evenodd" clip-rule="evenodd" d="M15.7758 130.617H6.8997C5.1471 130.617 3.70544 132.059 3.70544 133.811V148.709C3.70544 150.461 5.1471 151.903 6.8997 151.903H15.7758C17.5284 151.903 18.97 150.461 18.97 148.709V133.811C18.97 132.059 17.5284 130.617 15.7758 130.617Z" fill="#B5B510"/>
<path fill-rule="evenodd" clip-rule="evenodd" d="M14.6733 132.681H8.11514C6.81483 132.681 5.76892 133.755 5.76892 135.055V147.493C5.76892 148.793 6.81483 149.867 8.11514 149.867H14.6733C15.9736 149.867 17.0478 148.793 17.0478 147.493V135.055C17.0478 133.755 15.9736 132.681 14.6733 132.681Z" fill="#F7F743"/>
<path fill-rule="evenodd" clip-rule="evenodd" d="M141.143 231.985C155.56 231.985 167.234 243.66 167.234 258.048C167.234 272.465 155.56 284.139 141.143 284.139C126.727 284.139 115.052 272.465 115.052 258.048C115.052 243.66 126.727 231.985 141.143 231.985Z" fill="#333333"/>
<path fill-rule="evenodd" clip-rule="evenodd" d="M141.143 242.981C149.454 242.981 156.21 249.737 156.21 258.048C156.21 266.387 149.454 273.143 141.143 273.143C132.804 273.143 126.077 266.387 126.077 258.048C126.077 249.737 132.804 242.981 141.143 242.981Z" fill="#4D4D4D"/>
</svg>
