<svg width="295" height="439" viewBox="0 0 295 439" fill="none" xmlns="http://www.w3.org/2000/svg">
<path d="M269.662 74.9124C276.128 110.897 278.201 152.615 276.25 184.9C273.2 235.604 262.181 280.29 249.739 301.393C247.462 305.256 242.46 306.516 238.598 304.239C234.775 301.962 233.474 296.961 235.751 293.098C247.055 273.947 257.139 232.148 260.066 183.965C261.612 158.064 260.473 125.82 256.488 95.7714C262.262 90.0789 266.816 82.9633 269.662 74.9124Z" fill="#333333"/>
<path d="M92.422 195.756C90.3889 190.714 103.563 188.478 105.23 191.609L145.403 316.6C146.542 320.138 144.59 323.919 141.052 325.058C137.515 326.196 133.693 324.245 132.595 320.707L92.422 195.756Z" fill="#E6E6E6"/>
<path d="M101.408 204.783C100.879 203.523 101.652 202.099 102.79 201.815C104.132 201.49 105.108 202.181 105.637 203.319L144.752 324.488C145.118 325.668 144.468 326.887 143.329 327.253C142.15 327.66 140.89 327.009 140.524 325.83L101.408 204.783Z" fill="white"/>
<path fill-rule="evenodd" clip-rule="evenodd" d="M55.3799 202.303L64.8133 201.286C65.3012 201.205 65.7485 201.571 65.8298 202.059L66.3584 206.897C66.4397 207.67 65.9111 208.321 65.1792 208.402L57.535 209.256C56.8031 209.337 56.1118 208.808 56.0305 208.077L55.3799 202.303Z" fill="black"/>
<path d="M95.1463 191.69C100.603 191.69 105.027 187.267 105.027 181.81C105.027 176.353 100.603 171.929 95.1463 171.929C89.6894 171.929 85.2657 176.353 85.2657 181.81C85.2657 187.267 89.6894 191.69 95.1463 191.69Z" fill="black"/>
<path fill-rule="evenodd" clip-rule="evenodd" d="M110.557 155.258C120.234 154.201 130.846 151.517 138.043 154.242C146.216 157.372 151.177 165.383 145.403 166.765L106.735 175.792C98.0738 177.825 90.2263 178.516 86.7701 178.028L50.826 172.783C41.3927 171.441 50.1347 159.975 53.9162 156.112C59.2834 150.623 99.9036 156.397 110.557 155.258Z" fill="#333333"/>
<path fill-rule="evenodd" clip-rule="evenodd" d="M49.1182 204.458L123.487 196.041C123.934 196 124.3 195.756 124.503 195.35C124.747 194.943 124.747 194.536 124.544 194.13L121.982 188.722C121.332 187.38 120.478 186.16 119.014 186.323L51.2732 193.764C49.8095 193.927 49.1995 195.268 48.9149 196.732L47.6544 202.831C47.5731 203.279 47.6951 203.685 47.9797 204.01C48.305 204.336 48.7116 204.498 49.1182 204.458Z" fill="#333333"/>
<path fill-rule="evenodd" clip-rule="evenodd" d="M51.9644 158.308C88.3152 165.139 95.5935 167.782 144.264 158.023C142.801 156.559 139.995 155.014 138.043 154.242C130.846 151.517 120.234 154.201 110.557 155.258C99.9035 156.397 59.2834 150.623 53.9161 156.112C53.3469 156.681 52.6557 157.454 51.9644 158.308Z" fill="#666666"/>
<path fill-rule="evenodd" clip-rule="evenodd" d="M129.911 258.089L135.807 256.26C136.58 256.016 137.393 256.504 137.637 257.276L140.32 266.587C140.524 267.36 140.036 268.173 139.263 268.417L133.408 270.247C132.595 270.491 131.782 270.003 131.538 269.19L128.895 259.919C128.651 259.147 129.139 258.333 129.911 258.089Z" fill="black"/>
<path fill-rule="evenodd" clip-rule="evenodd" d="M138.206 253.861L142.801 252.397C144.102 251.95 145.484 252.803 145.891 254.145L148.941 264.88C149.347 266.222 148.534 267.563 147.233 267.97L142.638 269.434C141.296 269.881 139.914 269.027 139.548 267.726L136.458 256.951C136.092 255.609 136.864 254.267 138.206 253.861Z" fill="#333333"/>
<path d="M271.086 155.949C270.923 202.181 264.702 261.017 244.412 298.465C243.558 299.929 241.403 300.092 239.939 299.238C238.516 298.384 238.028 296.514 238.882 295.091C258.847 257.764 265.962 202.099 264.946 155.258C264.865 151.436 270.72 150.745 271.086 155.949Z" fill="#666666"/>
<path fill-rule="evenodd" clip-rule="evenodd" d="M145.362 279.721C177.281 291.025 218.714 321.683 240.671 344.534C245.144 349.169 243.192 357.342 240.224 366.938C239.004 370.842 237.906 374.745 236.89 378.486C235.751 382.837 233.962 385.032 238.842 387.106C244.005 389.302 252.504 390.969 251.934 399.996C251.528 406.786 249.21 409.835 242.379 409.835C236.443 409.835 230.831 410.527 219.324 408.25C129.911 398.572 88.1526 399.955 35.5782 407.07C30.8615 407.68 26.3482 408.046 21.6722 408.738C7.2376 410.852 3.00887 397.678 9.35196 389.464C11.629 386.496 14.8005 385.561 17.6061 384.3C20.1677 383.162 22.9733 378.283 21.9975 372.549C21.9568 372.102 21.9568 371.899 22.0788 371.818C19.6391 335.792 30.5769 297.774 54.8107 266.425C62.211 256.869 70.0585 258.659 81.7689 261.342C87.2987 262.603 93.1539 264.107 95.4715 263.335C97.5452 262.603 106.816 259.919 118.73 256.991C128.285 254.633 131.009 253.251 133.489 261.586C134.587 265.286 135.644 269.108 136.783 272.483C139.101 279.192 138.694 277.322 145.362 279.721Z" fill="#666666"/>
<path fill-rule="evenodd" clip-rule="evenodd" d="M233.556 348.682C237.54 352.585 235.792 359.985 233.149 368.321C229.49 380.072 226.928 396.417 223.512 408.697C134.099 398.857 91.6495 399.752 40.5795 406.379C29.5604 366.207 36.1068 311.558 62.5363 278.42C69.2453 270.003 71.0344 270.857 79.6545 272.727C138.775 285.657 190.577 306.679 233.556 348.682ZM97.9519 267.929C106.003 265.042 110.679 263.579 119.299 261.383C127.431 259.309 127.96 259.106 130.196 267.604C130.603 269.108 132.554 275.94 133.937 279.762C134.099 280.209 133.977 280.697 133.652 281.022C133.286 281.388 132.798 281.469 132.351 281.307C120.681 276.997 110.109 273.541 98.0739 270.288C97.5453 270.125 97.1793 269.678 97.1793 269.149C97.1387 268.621 97.464 268.133 97.9519 267.929Z" fill="#4D4D4D"/>
<path fill-rule="evenodd" clip-rule="evenodd" d="M237.5 285.942L255.106 294.44C256.61 295.131 257.464 296.92 256.692 298.384L235.304 339.736C233.596 343.03 208.875 331.076 213.632 322.659L233.556 287.528C234.369 286.105 236.036 285.251 237.5 285.942Z" fill="#333333"/>
<path d="M248.438 291.228L223.756 337.215C220.707 335.426 217.698 333.312 215.543 331.116L239.289 286.837L248.438 291.228Z" fill="#666666"/>
<path fill-rule="evenodd" clip-rule="evenodd" d="M256.244 299.32C249.088 296.148 238.842 291.797 233.312 288.26L233.556 287.528C234.125 285.983 236.036 285.251 237.5 285.942L255.106 294.44C256.61 295.131 257.424 296.88 256.692 298.384L256.244 299.32Z" fill="#808080"/>
<path fill-rule="evenodd" clip-rule="evenodd" d="M45.4995 279.843C99.2124 293.627 147.802 313.917 187.446 334.491C189.439 335.508 190.496 337.622 189.764 339.736L175.207 380.275C174.435 382.389 172.077 383.284 169.922 382.593L24.1525 335.223C27.568 316.072 34.6837 297.205 45.4995 279.843Z" fill="#E6E6E6"/>
<path fill-rule="evenodd" clip-rule="evenodd" d="M48.8743 369.744H90.5516C91.4462 369.744 91.9748 370.476 91.7308 371.33L90.3483 376.981C90.1044 377.876 89.2098 378.567 88.3559 378.567H46.6786C45.7841 378.567 45.2555 377.876 45.4588 376.981L46.8819 371.33C47.0852 370.476 48.0204 369.744 48.8743 369.744Z" fill="#F7F743"/>
<path fill-rule="evenodd" clip-rule="evenodd" d="M58.7956 283.421C107.263 297.002 151.096 315.624 187.446 334.491C189.439 335.507 190.496 337.622 189.764 339.736L175.207 380.275C174.435 382.389 172.077 383.284 169.922 382.593L37.5706 339.574C40.7828 319.04 47.7765 299.238 58.7956 283.421Z" fill="#B3B3B3"/>
<path fill-rule="evenodd" clip-rule="evenodd" d="M163.375 325.79C171.711 325.79 178.42 332.539 178.42 340.834C178.42 349.129 171.711 355.879 163.375 355.879C155.08 355.879 148.371 349.129 148.371 340.834C148.371 332.539 155.08 325.79 163.375 325.79Z" fill="#333333"/>
<path d="M167.441 339.167C167.441 341.403 165.611 343.233 163.375 343.233C161.098 343.233 159.309 341.403 159.309 339.167V297.53C159.309 295.294 161.098 293.464 163.375 293.464C165.611 293.464 167.441 295.294 167.441 297.53V339.167Z" fill="#B3B3B3"/>
<path fill-rule="evenodd" clip-rule="evenodd" d="M176.956 301.515L148.778 302.288C139.019 302.532 138.206 291.513 147.68 291.228L176.996 290.293C186.511 290.008 186.958 301.23 176.956 301.515Z" fill="black"/>
<path fill-rule="evenodd" clip-rule="evenodd" d="M165.042 272.565C165.733 272.727 180.778 262.359 179.599 275.817C178.745 285.129 176.061 289.723 174.719 293.505C162.684 300.499 166.75 275.736 165.042 272.565Z" fill="black"/>
<path d="M163.375 334.288C166.994 334.288 169.962 337.215 169.962 340.834C169.962 344.453 166.994 347.421 163.375 347.421C159.756 347.421 156.829 344.453 156.829 340.834C156.829 337.215 159.756 334.288 163.375 334.288Z" fill="#F7F743"/>
<path fill-rule="evenodd" clip-rule="evenodd" d="M179.68 295.66L146.582 296.473C144.386 296.514 142.557 296.148 141.134 295.497C141.662 293.261 143.777 291.35 147.68 291.228L176.996 290.293C181.266 290.171 183.746 292.366 184.193 294.847C182.974 295.335 181.469 295.619 179.68 295.66Z" fill="#333333"/>
<path fill-rule="evenodd" clip-rule="evenodd" d="M164.31 301.84C165.449 290.333 170.165 270.816 178.338 269.922C172.32 265.571 163.416 265.693 159.106 275.045C155.487 282.933 155.609 295.375 155.568 302.125L164.31 301.84Z" fill="#F7F743"/>
<path d="M11.2223 400.362C13.8246 389.18 29.1131 392.311 26.2262 404.672L21.2656 428.499C20.0051 433.378 15.0444 436.306 10.1652 435.045C5.28585 433.825 0.813166 429.231 2.07365 424.351L11.2223 400.362Z" fill="black"/>
<path d="M10.7344 415.813L16.4676 393.896C18.2567 393.287 20.2084 393.368 21.9161 394.059L15.817 417.154L10.7344 415.813Z" fill="#4D4D4D"/>
<path fill-rule="evenodd" clip-rule="evenodd" d="M14.028 408.697C18.2973 408.738 21.8755 410.771 24.0305 413.942C25.2503 415.691 25.3723 417.276 25.3723 419.513C25.3723 420.814 24.1932 428.418 23.3393 430.085C22.0788 432.524 0.975838 432.768 0.121961 425.815C-0.162665 423.376 3.2935 414.999 5.08258 412.966C7.40025 410.323 10.0839 408.616 14.028 408.697Z" fill="#666666"/>
<path d="M19.3139 409.876L16.061 421.261L8.25412 419.025L11.141 408.982C12.0356 408.778 12.9708 408.656 14.028 408.697C15.9797 408.697 17.7688 409.144 19.3139 409.876Z" fill="#808080"/>
<path fill-rule="evenodd" clip-rule="evenodd" d="M12.1169 415.162C18.7853 415.162 24.1932 420.285 24.1932 426.628C24.1932 432.931 18.7853 438.054 12.1169 438.054C5.44852 438.054 -3.05176e-05 432.931 -3.05176e-05 426.628C-3.05176e-05 420.285 5.44852 415.162 12.1169 415.162Z" fill="#333333"/>
<path d="M246.486 400.931C243.843 389.708 228.595 392.88 231.482 405.241L236.443 429.027C237.703 433.907 242.664 436.875 247.502 435.614C252.382 434.354 256.895 429.8 255.635 424.921L246.486 400.931Z" fill="black"/>
<path d="M246.974 416.382L241.2 394.466C239.411 393.815 237.5 393.896 235.792 394.628L241.891 417.724L246.974 416.382Z" fill="#4D4D4D"/>
<path fill-rule="evenodd" clip-rule="evenodd" d="M243.64 409.225C239.37 409.266 235.792 411.34 233.637 414.471C232.458 416.26 232.336 417.846 232.336 420.041C232.336 421.383 233.474 428.946 234.369 430.654C235.589 433.093 256.692 433.297 257.586 426.384C257.871 423.945 254.415 415.528 252.626 413.495C250.308 410.852 247.584 409.185 243.64 409.225Z" fill="#666666"/>
<path d="M238.354 410.445L241.607 421.83L249.413 419.594L246.567 409.551C245.673 409.347 244.697 409.226 243.64 409.226C241.728 409.266 239.939 409.673 238.354 410.445Z" fill="#808080"/>
<path fill-rule="evenodd" clip-rule="evenodd" d="M245.591 415.731C238.923 415.731 233.474 420.854 233.474 427.197C233.474 433.5 238.923 438.623 245.591 438.623C252.26 438.623 257.668 433.5 257.668 427.197C257.668 420.854 252.26 415.731 245.591 415.731Z" fill="#333333"/>
<path d="M237.012 156.844C236.036 155.38 235.345 153.144 234.897 150.745C233.434 143.385 234.003 140.336 235.629 133.301C242.216 104.879 250.145 72.7981 245.022 64.9912L215.421 22.5413C213.672 19.8577 214.404 16.2389 217.088 14.4498C219.772 12.7014 223.39 13.4333 225.139 16.1169L254.74 58.6075C262.669 70.6024 254.089 105.367 247.014 135.904L245.835 141.068C245.754 141.312 245.713 141.596 245.713 141.84C243.924 132.773 258.481 176.442 237.012 156.844Z" fill="black"/>
<path fill-rule="evenodd" clip-rule="evenodd" d="M246.486 75.3596C247.258 75.4409 247.868 76.1321 247.787 76.9453L247.096 85.85C247.014 86.6633 246.323 87.2325 245.51 87.1919C244.737 87.1105 244.127 86.4193 244.209 85.6061L244.9 76.7014C244.981 75.8882 245.672 75.3189 246.486 75.3596Z" fill="#F7F743"/>
<path fill-rule="evenodd" clip-rule="evenodd" d="M244.697 90.9327C245.51 91.014 246.079 91.7459 245.998 92.5185L245.022 101.423C244.941 102.196 244.249 102.765 243.436 102.684C242.664 102.602 242.054 101.911 242.135 101.098L243.111 92.1932C243.192 91.4206 243.924 90.8514 244.697 90.9327Z" fill="#666666"/>
<path fill-rule="evenodd" clip-rule="evenodd" d="M216.437 128.747L281.576 47.6696C282.389 46.6937 283.853 46.5311 284.829 47.3037L293.774 54.5006C294.75 55.2732 294.913 56.737 294.1 57.7128L228.961 138.831C228.188 139.807 226.725 139.97 225.749 139.156L216.803 132C215.828 131.187 215.665 129.764 216.437 128.747Z" fill="black"/>
<path fill-rule="evenodd" clip-rule="evenodd" d="M289.464 51.0444L221.439 135.7L216.803 132C215.828 131.187 215.665 129.764 216.437 128.747L281.576 47.6696C282.389 46.6937 283.853 46.5311 284.829 47.3037L289.464 51.0444Z" fill="#666666"/>
<path fill-rule="evenodd" clip-rule="evenodd" d="M237.378 102.724C237.825 102.846 238.232 103.09 238.598 103.375L243.965 107.685L221.439 135.7L216.803 132C215.828 131.187 215.665 129.764 216.437 128.747L237.378 102.724Z" fill="#F7F743"/>
<path fill-rule="evenodd" clip-rule="evenodd" d="M280.234 62.47L274.786 58.0787C274.46 57.8347 274.176 57.5094 273.973 57.1841L281.576 47.6695C282.389 46.6936 283.853 46.531 284.829 47.3036L289.464 51.0444L280.234 62.47Z" fill="#F7F743"/>
<path fill-rule="evenodd" clip-rule="evenodd" d="M248.316 138.018C252.463 138.221 257.505 136.92 259.172 139.766C264.702 149.362 262.872 168.717 255.431 169.123C237.662 170.099 231.889 162.496 231.563 154.73C231.197 146.109 238.028 137.53 248.316 138.018Z" fill="#333333"/>
<path fill-rule="evenodd" clip-rule="evenodd" d="M232.458 148.671C239.655 155.909 261.693 151.599 262.262 148.142C263.563 158.389 263.889 169.164 258.806 169.449C236.646 170.587 231.889 162.496 231.563 154.73C231.441 152.656 231.807 150.582 232.458 148.671Z" fill="black"/>
<path d="M249.535 148.996C252.626 145.5 254.659 142.572 255.634 137.733C258.359 124.315 257.586 108.742 259.863 95.2021C263.238 75.8069 264.824 59.0953 261.693 53.8094L231.97 8.83856C230.303 6.07362 231.197 2.45481 233.962 0.82838C236.727 -0.838713 240.305 0.0964857 241.972 2.86142L271.695 47.8323C273.729 51.2884 275.03 56.737 274.786 63.5273C274.176 79.4664 269.54 121.916 267.141 137.977C265.759 147.167 263.604 151.111 257.139 158.308C253.276 162.577 249.291 162.374 247.177 160.991C244.453 159.121 244.697 154.526 249.535 148.996Z" fill="#666666"/>
<path fill-rule="evenodd" clip-rule="evenodd" d="M263.197 72.0255C264.011 72.1068 264.58 72.798 264.539 73.6113L263.807 82.516C263.767 83.2885 263.035 83.8984 262.262 83.8578C261.449 83.7765 260.839 83.0852 260.92 82.272L261.652 73.3673C261.693 72.5541 262.384 71.9848 263.197 72.0255Z" fill="#F7F743"/>
<path fill-rule="evenodd" clip-rule="evenodd" d="M261.408 87.5986C262.221 87.6799 262.791 88.3711 262.709 89.1844L261.774 98.0891C261.693 98.8616 260.961 99.4309 260.188 99.3496C259.375 99.2682 258.806 98.577 258.887 97.7638L259.823 88.8591C259.904 88.0865 260.636 87.5173 261.408 87.5986Z" fill="#F7F743"/>
<path d="M264.255 137.205C264.173 138.343 263.197 139.156 262.059 139.075C260.961 138.953 260.148 137.977 260.229 136.879L266.816 59.6239C266.898 58.4447 266.857 57.3469 266.613 56.3304C266.369 55.3138 265.922 54.2973 265.312 53.3621L235.385 7.21209C234.775 6.27689 235.06 5.01641 235.995 4.4065C236.931 3.79658 238.191 4.08121 238.801 5.01641L268.727 51.1664C269.622 52.5082 270.191 53.9314 270.557 55.3952C270.882 56.8589 271.004 58.3634 270.842 59.9492L264.255 137.205Z" fill="#808080"/>
<path d="M248.682 88.6151L250.389 72.0255C250.511 70.8463 250.43 69.7485 250.186 68.732C249.942 67.6748 249.535 66.6989 248.926 65.7637L218.999 19.6137C218.389 18.6785 218.633 17.418 219.568 16.8081C220.504 16.1982 221.764 16.4828 222.374 17.418L252.3 63.568C253.195 64.9098 253.805 66.333 254.13 67.7968C254.496 69.2606 254.577 70.765 254.415 72.3508L253.642 82.4753L248.682 88.6151Z" fill="#4D4D4D"/>
</svg>
